# 3ds Max Wavefront OBJ Exporter v0.97b - (c)2007 guruware
# File Created: 25.02.2013 15:37:31

mtllib A-Start.mtl

#
# object polySurface6
#

v  235.6595 -78.4596 -35.5986
v  -236.7815 -78.4596 -35.5986
v  -236.7815 0.2805 -35.5986
v  235.6595 0.2805 -35.5986
v  -236.7814 0.2806 1381.7242
v  235.6596 0.2806 1381.7242
v  -236.7814 -78.4596 1381.7242
v  235.6596 -78.4596 1381.7242
v  -197.4114 0.2805 -35.5986
v  -236.7815 79.0207 -35.5986
v  -197.4114 79.0207 -35.5986
v  -236.7814 79.0207 1381.7242
v  -197.4113 79.0207 1381.7242
v  -197.4113 0.2806 1381.7242
v  196.2894 0.2805 -35.5986
v  196.2894 79.0207 -35.5986
v  235.6595 79.0207 -35.5986
v  196.2895 79.0207 1381.7242
v  235.6596 79.0207 1381.7242
v  196.2895 0.2806 1381.7242
v  -236.7815 -78.4596 -17.3269
v  235.6595 -78.4596 -17.3269
v  235.6595 0.2805 -17.3269
v  -236.7815 0.2805 -17.3269
v  -0.5610 -78.4597 -426.4728
v  -0.5610 0.2805 -426.4728
# 26 vertices

vn 0.0000 0.0000 -1.0000
vn 0.0000 1.0000 -0.0000
vn 0.0000 0.0000 1.0000
vn 0.0000 -1.0000 -0.0000
vn -1.0000 0.0000 -0.0000
vn 1.0000 0.0000 -0.0000
vn 0.8660 0.0000 -0.5000
vn -0.8660 0.0000 -0.5000
# 8 vertex normals

vt 0.0010 0.0010 0.7835
vt 1.9990 0.0010 0.7835
vt 1.9990 1.0000 0.7835
vt 0.0010 1.0000 0.7835
vt 1.9990 1.5671 0.5000
vt 0.0010 1.5671 0.5000
vt 0.0010 0.0010 0.5000
vt 1.9990 0.0010 0.5000
vt 1.9990 1.0000 0.0005
vt 0.0010 1.0000 0.0005
vt 0.0010 0.0010 0.0005
vt 1.9990 0.0010 0.0005
vt 1.9990 1.5671 0.0005
vt 0.0010 1.5671 0.0005
vt 0.4329 0.0010 0.0005
vt 0.4329 1.0000 0.0005
vt 0.0010 0.0010 0.9995
vt 1.5671 0.0010 0.9995
vt 1.5671 1.0000 0.9995
vt 0.0010 1.0000 0.9995
vt 1.8325 1.0000 0.7835
vt 1.9990 1.9990 0.7835
vt 1.8325 1.9990 0.7835
vt 0.1675 1.5671 0.9995
vt 0.0010 1.5671 0.9995
vt 0.1675 0.0010 0.9995
vt 0.1675 1.9990 0.0005
vt 0.0010 1.9990 0.0005
vt 0.1675 1.0000 0.0005
vt 1.8325 0.0010 0.5000
vt 1.8325 1.5671 0.5000
vt 1.9990 1.9990 0.0005
vt 0.4329 1.9990 0.0005
vt 0.0010 1.0000 0.0837
vt 1.5671 1.0000 0.0838
vt 1.5671 1.9990 0.0838
vt 0.0010 1.9990 0.0837
vt 0.1675 1.0000 0.7835
vt 0.1675 1.9990 0.7835
vt 0.0010 1.9990 0.7835
vt 1.9990 1.5671 0.9995
vt 1.8325 1.5671 0.9995
vt 1.8325 0.0010 0.9995
vt 1.9990 0.0010 0.9995
vt 1.8325 1.9990 0.0005
vt 1.8325 1.0000 0.0005
vt 0.1675 0.0010 0.5000
vt 0.1675 1.5671 0.5000
vt 0.4329 1.0000 0.9163
vt 1.9990 1.0000 0.9162
vt 1.9990 1.9990 0.9162
vt 0.4329 1.9990 0.9163
vt 1.5671 1.9990 0.9995
vt 0.0010 1.9990 0.9995
vt 0.0010 0.0010 0.7735
vt 1.9990 0.0010 0.7735
vt 1.9990 1.0000 0.7735
vt 0.0010 1.0000 0.7735
vt 1.5469 0.0010 0.9995
vt 1.9990 1.0000 0.5000
vt 1.5469 1.0000 0.9995
vt 0.4531 0.0010 0.0005
vt 0.4531 1.0000 0.0005
vt 0.0010 1.0000 0.5000
vt 1.9990 1.5469 0.0005
vt 1.0000 1.9990 0.0005
vt 0.0010 1.5469 0.0005
vt 0.0010 1.5469 0.5000
vt 1.9990 1.5469 0.5000
vt 1.0000 1.9990 0.5000
# 70 texture coords

g polySurface6
usemtl Material__25
s off
f 1/1/1 2/2/1 3/3/1 
f 3/3/1 4/4/1 1/1/1 
f 4/5/2 3/6/2 5/7/2 
f 5/7/2 6/8/2 4/5/2 
f 6/9/3 5/10/3 7/11/3 
f 7/11/3 8/12/3 6/9/3 
f 8/11/4 7/12/4 2/13/4 
f 2/13/4 1/14/4 8/11/4 
f 2/15/5 7/12/5 5/9/5 
f 5/9/5 3/16/5 2/15/5 
f 8/17/6 1/18/6 4/19/6 
f 4/19/6 6/20/6 8/17/6 
f 9/21/1 3/3/1 10/22/1 
f 10/22/1 11/23/1 9/21/1 
f 11/24/2 10/25/2 12/17/2 
f 12/17/2 13/26/2 11/24/2 
f 13/27/3 12/28/3 5/10/3 
f 5/10/3 14/29/3 13/27/3 
f 14/30/4 5/8/4 3/5/4 
f 3/5/4 9/31/4 14/30/4 
f 3/16/5 5/9/5 12/32/5 
f 12/32/5 10/33/5 3/16/5 
f 14/34/6 9/35/6 11/36/6 
f 11/36/6 13/37/6 14/34/6 
f 4/4/1 15/38/1 16/39/1 
f 16/39/1 17/40/1 4/4/1 
f 17/41/2 16/42/2 18/43/2 
f 18/43/2 19/44/2 17/41/2 
f 19/32/3 18/45/3 20/46/3 
f 20/46/3 6/9/3 19/32/3 
f 6/7/4 20/47/4 15/48/4 
f 15/48/4 4/6/4 6/7/4 
f 15/49/5 20/50/5 18/51/5 
f 18/51/5 16/52/5 15/49/5 
f 6/20/6 4/19/6 17/53/6 
f 17/53/6 19/54/6 6/20/6 
f 21/55/3 22/56/3 23/57/3 
f 23/57/3 24/58/3 21/55/3 
f 22/59/7 25/8/7 26/60/7 
f 26/60/7 23/61/7 22/59/7 
f 25/7/8 21/62/8 24/63/8 
f 24/63/8 26/64/8 25/7/8 
f 21/65/4 25/66/4 22/67/4 
f 24/68/2 23/69/2 26/70/2 
# 44 faces

