# 3ds Max Wavefront OBJ Exporter v0.97b - (c)2007 guruware
# File Created: 25.02.2013 15:39:48

mtllib B-Uphill.mtl

#
# object polySurface8
#

v  236.2205 -78.7401 -1916.6002
v  -236.2205 -78.7401 -1916.6002
v  -236.2205 0.0001 -1916.6002
v  236.2205 0.0001 -1916.6002
v  -236.2204 0.0001 -1600.7336
v  236.2205 0.0001 -1600.7338
v  236.2206 473.1132 -27.3088
v  -236.2203 473.1132 -27.3088
v  -236.2203 394.3730 -27.3088
v  236.2206 394.3730 -27.3088
v  -236.2203 394.3730 -348.3372
v  236.2206 394.3730 -348.3372
v  -236.2204 -78.7401 -1600.7335
v  236.2206 473.1132 -348.3372
v  -236.2204 71.3115 -1287.6345
v  236.2205 71.3115 -1287.6345
v  236.2205 -78.7401 -1600.7336
v  -236.2204 -7.4287 -1287.6345
v  236.2205 -7.4287 -1287.6345
v  -236.2204 198.5056 -974.5355
v  236.2206 198.5056 -974.5355
v  -236.2204 119.7654 -974.5354
v  236.2206 119.7654 -974.5354
v  -236.2204 384.3437 -652.9740
v  236.2206 384.3437 -652.9740
v  -236.2204 305.6036 -652.9740
v  236.2206 305.6036 -652.9740
v  -236.2203 473.1132 -348.3372
v  -196.8504 0.0000 -1916.6002
v  -236.2205 0.0000 -1916.6002
v  -236.2205 78.7402 -1916.6002
v  -196.8504 78.7402 -1916.6002
v  -236.2204 78.7401 -1600.7336
v  -196.8504 78.7401 -1600.7336
v  -196.8502 551.8533 -27.3088
v  -236.2203 551.8533 -27.3088
v  -236.2203 473.1131 -27.3088
v  -196.8502 473.1131 -27.3088
v  -236.2203 473.1131 -348.3372
v  -196.8503 473.1131 -348.3372
v  -236.2204 0.0000 -1600.7335
v  -196.8503 551.8533 -348.3372
v  -236.2204 150.0515 -1287.6345
v  -196.8503 150.0515 -1287.6345
v  -196.8504 0.0000 -1600.7335
v  -236.2204 71.3114 -1287.6345
v  -196.8503 71.3114 -1287.6345
v  -236.2204 277.2456 -974.5355
v  -196.8503 277.2456 -974.5355
v  -236.2204 198.5055 -974.5354
v  -196.8503 198.5055 -974.5354
v  -236.2204 463.0837 -652.9740
v  -196.8503 463.0837 -652.9740
v  -236.2204 384.3436 -652.9740
v  -196.8503 384.3436 -652.9740
v  -236.2203 551.8533 -348.3372
v  236.2205 0.0000 -1916.6002
v  196.8504 0.0000 -1916.6002
v  196.8504 78.7402 -1916.6002
v  236.2205 78.7402 -1916.6002
v  196.8504 78.7402 -1600.7338
v  236.2205 78.7402 -1600.7338
v  236.2206 551.8533 -27.3088
v  196.8506 551.8533 -27.3088
v  196.8506 473.1132 -27.3088
v  196.8505 473.1131 -348.3372
v  236.2206 473.1131 -348.3372
v  196.8504 0.0000 -1600.7336
v  236.2206 551.8533 -348.3372
v  196.8505 150.0516 -1287.6345
v  236.2205 150.0516 -1287.6345
v  236.2205 0.0000 -1600.7336
v  196.8505 71.3114 -1287.6345
v  236.2205 71.3114 -1287.6345
v  196.8505 277.2457 -974.5355
v  236.2206 277.2457 -974.5355
v  196.8505 198.5055 -974.5354
v  236.2206 198.5055 -974.5354
v  196.8505 463.0838 -652.9740
v  236.2206 463.0838 -652.9740
v  196.8505 384.3437 -652.9740
v  196.8505 551.8533 -348.3372
# 82 vertices

vn 0.0000 0.0000 -1.0000
vn 0.0000 1.0000 -0.0000
vn 0.0000 0.9936 -0.1127
vn 0.0000 0.0000 1.0000
vn 0.0000 -1.0000 -0.0000
vn 0.0000 -0.9901 0.1405
vn -1.0000 0.0000 -0.0000
vn 1.0000 0.0000 -0.0000
vn 0.0000 0.9533 -0.3022
vn 0.0000 -0.9936 0.1127
vn 0.0000 -0.9533 0.3022
vn 0.0000 0.8968 -0.4423
vn 0.0000 -0.8968 0.4423
vn 0.0000 0.9158 -0.4016
vn 0.0000 -0.9158 0.4016
vn 0.0000 0.9901 -0.1405
# 16 vertex normals

vt 0.0145 0.0172 1.0005
vt 1.9855 0.0172 1.0005
vt 1.9855 0.2626 1.0005
vt 0.0145 0.2626 1.0005
vt 1.9855 2.0010 0.1313
vt 0.0145 2.0010 0.1313
vt 0.0145 1.6663 0.1313
vt 1.9855 1.6663 0.1313
vt 1.9855 1.7374 -0.0005
vt 0.0145 1.7374 -0.0005
vt 0.0145 1.4919 -0.0005
vt 1.9855 1.4919 -0.0005
vt 0.0145 -0.0010 0.7460
vt 1.9855 -0.0010 0.7460
vt 1.9855 0.3392 0.7460
vt 0.0145 0.3392 0.7460
vt -0.0010 0.0172 0.0073
vt 0.3337 0.0172 0.0073
vt 0.3337 0.2626 0.0073
vt -0.0010 0.2626 0.0073
vt -0.0010 1.4919 0.9927
vt 0.3392 1.4919 0.9927
vt 0.3392 1.7374 0.9927
vt -0.0010 1.7374 0.9927
vt 0.0145 1.3345 0.2425
vt 1.9855 1.3345 0.2425
vt 0.0145 1.6663 0.0086
vt 1.9855 1.6663 0.0086
vt 1.9855 2.0010 0.0086
vt 0.0145 2.0010 0.0086
vt 0.6655 0.2395 0.0073
vt 0.6655 0.4849 0.0073
vt 1.6663 0.2626 0.9927
vt 1.6663 0.0172 0.9927
vt 2.0010 0.0172 0.9928
vt 2.0010 0.2626 0.9928
vt 0.0145 1.3345 0.1197
vt 1.9855 1.3345 0.1197
vt 1.3345 0.4849 0.9927
vt 1.3345 0.2395 0.9927
vt 0.0145 1.0027 0.4407
vt 1.9855 1.0027 0.4407
vt 0.9973 0.6359 0.0073
vt 0.9973 0.8814 0.0073
vt 0.0145 1.0027 0.3180
vt 1.9855 1.0027 0.3180
vt 1.0027 0.8814 0.9927
vt 1.0027 0.6359 0.9927
vt 0.0145 0.6620 0.7303
vt 1.9855 0.6620 0.7303
vt 1.3380 1.2152 0.0073
vt 1.3380 1.4607 0.0073
vt 0.0145 0.6620 0.6076
vt 1.9855 0.6620 0.6076
vt 0.6620 1.4607 0.9927
vt 0.6620 1.2152 0.9927
vt 0.0145 0.3392 0.8687
vt 1.9855 0.3392 0.8687
vt 1.6608 1.4919 0.0073
vt 1.6608 1.7374 0.0073
vt 0.0145 -0.0010 0.8687
vt 1.9855 -0.0010 0.8687
vt 2.0010 1.4919 0.0072
vt 2.0010 1.7374 0.0072
vt 1.8212 0.2626 1.0005
vt 1.9855 0.5081 1.0005
vt 1.8212 0.5081 1.0005
vt 0.1788 2.0010 0.2540
vt 0.0145 2.0010 0.2540
vt 0.0145 1.6663 0.2540
vt 0.1788 1.6663 0.2540
vt 0.1787 1.9828 -0.0005
vt 0.0145 1.9828 -0.0005
vt 0.1787 1.7374 -0.0005
vt 1.8213 -0.0010 0.8687
vt 1.8213 0.3392 0.8687
vt 0.3337 0.5081 0.0073
vt -0.0010 0.5081 0.0073
vt -0.0010 1.7374 0.0894
vt 0.3392 1.7374 0.0894
vt 0.3392 1.9828 0.0894
vt -0.0010 1.9828 0.0894
vt 0.0145 1.3345 0.3652
vt 0.1788 1.3345 0.3652
vt 1.8212 1.6663 0.1313
vt 1.8212 2.0010 0.1313
vt 0.6655 0.7303 0.0073
vt 1.6663 0.5081 0.0894
vt 1.6663 0.2626 0.0894
vt 2.0010 0.2626 0.0894
vt 2.0010 0.5081 0.0894
vt 1.8212 1.3345 0.2425
vt 1.3345 0.7303 0.0894
vt 1.3345 0.4849 0.0894
vt 0.0145 1.0027 0.5634
vt 0.1788 1.0027 0.5634
vt 0.9973 1.1268 0.0073
vt 1.8212 1.0027 0.4407
vt 1.0027 1.1268 0.0894
vt 1.0027 0.8814 0.0894
vt 0.0145 0.6620 0.8531
vt 0.1788 0.6620 0.8531
vt 1.3380 1.7061 0.0073
vt 1.8212 0.6620 0.7303
vt 0.6620 1.7061 0.0894
vt 0.6620 1.4607 0.0894
vt 0.0145 0.3392 0.9914
vt 0.1787 0.3392 0.9914
vt 1.6608 1.9828 0.0073
vt 0.0145 -0.0010 0.9914
vt 0.1787 -0.0010 0.9914
vt 2.0010 1.9828 0.0072
vt 0.1787 0.2626 1.0005
vt 0.1787 0.5081 1.0005
vt 0.0145 0.5081 1.0005
vt 1.9855 2.0010 0.2540
vt 1.8213 2.0010 0.2540
vt 1.8212 1.6663 0.2540
vt 1.9855 1.6663 0.2540
vt 1.9855 1.9828 -0.0005
vt 1.8212 1.9828 -0.0005
vt 1.8212 1.7374 -0.0005
vt 0.1788 -0.0010 0.8687
vt 0.1788 0.3392 0.8687
vt -0.0010 0.2626 0.9106
vt 0.3337 0.2626 0.9106
vt 0.3337 0.5081 0.9106
vt -0.0010 0.5081 0.9106
vt 0.3392 1.9828 0.9927
vt -0.0010 1.9828 0.9927
vt 1.8212 1.3345 0.3652
vt 1.9855 1.3345 0.3652
vt 0.1788 1.6663 0.1313
vt 0.1787 2.0010 0.1313
vt 0.6655 0.4849 0.9106
vt 0.6655 0.7303 0.9106
vt 1.6663 0.5081 0.9927
vt 2.0010 0.5081 0.9928
vt 0.1788 1.3345 0.2425
vt 1.3345 0.7303 0.9927
vt 1.8212 1.0027 0.5634
vt 1.9855 1.0027 0.5634
vt 0.9973 0.8814 0.9106
vt 0.9973 1.1268 0.9106
vt 0.1788 1.0027 0.4407
vt 1.0027 1.1268 0.9927
vt 1.8212 0.6620 0.8531
vt 1.9855 0.6620 0.8531
vt 1.3380 1.4607 0.9106
vt 1.3380 1.7061 0.9106
vt 0.1788 0.6620 0.7303
vt 0.6620 1.7061 0.9927
vt 1.8212 0.3392 0.9914
vt 1.9855 0.3392 0.9914
vt 1.6608 1.7374 0.9106
vt 1.6608 1.9828 0.9106
vt 1.8212 -0.0010 0.9914
vt 1.9855 -0.0010 0.9914
vt 2.0010 1.7374 0.9106
vt 2.0010 1.9828 0.9106
# 160 texture coords

g polySurface8
usemtl Material__25
s off
f 1/1/1 2/2/1 3/3/1 
f 3/3/1 4/4/1 1/1/1 
f 4/5/2 3/6/2 5/7/3 
f 5/7/3 6/8/3 4/5/2 
f 7/9/4 8/10/4 9/11/4 
f 9/11/4 10/12/4 7/9/4 
f 10/13/5 9/14/5 11/15/6 
f 11/15/6 12/16/6 10/13/5 
f 2/17/7 13/18/7 5/19/7 
f 5/19/7 3/20/7 2/17/7 
f 10/21/8 12/22/8 14/23/8 
f 14/23/8 7/24/8 10/21/8 
f 6/8/3 5/7/3 15/25/9 
f 15/25/9 16/26/9 6/8/3 
f 17/27/10 13/28/10 2/29/5 
f 2/29/5 1/30/5 17/27/10 
f 5/19/7 13/18/7 18/31/7 
f 18/31/7 15/32/7 5/19/7 
f 6/33/8 17/34/8 1/35/8 
f 1/35/8 4/36/8 6/33/8 
f 19/37/11 18/38/11 13/28/10 
f 13/28/10 17/27/10 19/37/11 
f 16/39/8 19/40/8 17/34/8 
f 17/34/8 6/33/8 16/39/8 
f 16/26/9 15/25/9 20/41/12 
f 20/41/12 21/42/12 16/26/9 
f 15/32/7 18/31/7 22/43/7 
f 22/43/7 20/44/7 15/32/7 
f 23/45/13 22/46/13 18/38/11 
f 18/38/11 19/37/11 23/45/13 
f 21/47/8 23/48/8 19/40/8 
f 19/40/8 16/39/8 21/47/8 
f 21/42/12 20/41/12 24/49/14 
f 24/49/14 25/50/14 21/42/12 
f 20/44/7 22/43/7 26/51/7 
f 26/51/7 24/52/7 20/44/7 
f 27/53/15 26/54/15 22/46/13 
f 22/46/13 23/45/13 27/53/15 
f 25/55/8 27/56/8 23/48/8 
f 23/48/8 21/47/8 25/55/8 
f 25/50/14 24/49/14 28/57/16 
f 28/57/16 14/58/16 25/50/14 
f 24/52/7 26/51/7 11/59/7 
f 11/59/7 28/60/7 24/52/7 
f 12/16/6 11/15/6 26/54/15 
f 26/54/15 27/53/15 12/16/6 
f 14/23/8 12/22/8 27/56/8 
f 27/56/8 25/55/8 14/23/8 
f 14/58/16 28/57/16 8/61/2 
f 8/61/2 7/62/2 14/58/16 
f 28/60/7 11/59/7 9/63/7 
f 9/63/7 8/64/7 28/60/7 
f 29/65/1 30/3/1 31/66/1 
f 31/66/1 32/67/1 29/65/1 
f 32/68/2 31/69/2 33/70/3 
f 33/70/3 34/71/3 32/68/2 
f 35/72/4 36/73/4 37/10/4 
f 37/10/4 38/74/4 35/72/4 
f 38/75/5 37/62/5 39/58/6 
f 39/58/6 40/76/6 38/75/5 
f 30/20/7 41/19/7 33/77/7 
f 33/77/7 31/78/7 30/20/7 
f 38/79/8 40/80/8 42/81/8 
f 42/81/8 35/82/8 38/79/8 
f 34/71/3 33/70/3 43/83/9 
f 43/83/9 44/84/9 34/71/3 
f 45/85/10 41/8/10 30/5/5 
f 30/5/5 29/86/5 45/85/10 
f 33/77/7 41/19/7 46/32/7 
f 46/32/7 43/87/7 33/77/7 
f 34/88/8 45/89/8 29/90/8 
f 29/90/8 32/91/8 34/88/8 
f 47/92/11 46/26/11 41/8/10 
f 41/8/10 45/85/10 47/92/11 
f 44/93/8 47/94/8 45/89/8 
f 45/89/8 34/88/8 44/93/8 
f 44/84/9 43/83/9 48/95/12 
f 48/95/12 49/96/12 44/84/9 
f 43/87/7 46/32/7 50/44/7 
f 50/44/7 48/97/7 43/87/7 
f 51/98/13 50/42/13 46/26/11 
f 46/26/11 47/92/11 51/98/13 
f 49/99/8 51/100/8 47/94/8 
f 47/94/8 44/93/8 49/99/8 
f 49/96/12 48/95/12 52/101/14 
f 52/101/14 53/102/14 49/96/12 
f 48/97/7 50/44/7 54/52/7 
f 54/52/7 52/103/7 48/97/7 
f 55/104/15 54/50/15 50/42/13 
f 50/42/13 51/98/13 55/104/15 
f 53/105/8 55/106/8 51/100/8 
f 51/100/8 49/99/8 53/105/8 
f 53/102/14 52/101/14 56/107/16 
f 56/107/16 42/108/16 53/102/14 
f 52/103/7 54/52/7 39/60/7 
f 39/60/7 56/109/7 52/103/7 
f 40/76/6 39/58/6 54/50/15 
f 54/50/15 55/104/15 40/76/6 
f 42/81/8 40/80/8 55/106/8 
f 55/106/8 53/105/8 42/81/8 
f 42/108/16 56/107/16 36/110/2 
f 36/110/2 35/111/2 42/108/16 
f 56/109/7 39/60/7 37/64/7 
f 37/64/7 36/112/7 56/109/7 
f 57/4/1 58/113/1 59/114/1 
f 59/114/1 60/115/1 57/4/1 
f 60/116/2 59/117/2 61/118/3 
f 61/118/3 62/119/3 60/116/2 
f 63/120/4 64/121/4 65/122/4 
f 65/122/4 7/9/4 63/120/4 
f 7/61/5 65/123/5 66/124/6 
f 66/124/6 67/57/6 7/61/5 
f 58/125/7 68/126/7 61/127/7 
f 61/127/7 59/128/7 58/125/7 
f 7/24/8 67/23/8 69/129/8 
f 69/129/8 63/130/8 7/24/8 
f 62/119/3 61/118/3 70/131/9 
f 70/131/9 71/132/9 62/119/3 
f 72/7/10 68/133/10 58/134/5 
f 58/134/5 57/6/5 72/7/10 
f 61/127/7 68/126/7 73/135/7 
f 73/135/7 70/136/7 61/127/7 
f 62/137/8 72/33/8 57/36/8 
f 57/36/8 60/138/8 62/137/8 
f 74/25/11 73/139/11 68/133/10 
f 68/133/10 72/7/10 74/25/11 
f 71/140/8 74/39/8 72/33/8 
f 72/33/8 62/137/8 71/140/8 
f 71/132/9 70/131/9 75/141/12 
f 75/141/12 76/142/12 71/132/9 
f 70/136/7 73/135/7 77/143/7 
f 77/143/7 75/144/7 70/136/7 
f 78/41/13 77/145/13 73/139/11 
f 73/139/11 74/25/11 78/41/13 
f 76/146/8 78/47/8 74/39/8 
f 74/39/8 71/140/8 76/146/8 
f 76/142/12 75/141/12 79/147/14 
f 79/147/14 80/148/14 76/142/12 
f 75/144/7 77/143/7 81/149/7 
f 81/149/7 79/150/7 75/144/7 
f 25/49/15 81/151/15 77/145/13 
f 77/145/13 78/41/13 25/49/15 
f 80/152/8 25/55/8 78/47/8 
f 78/47/8 76/146/8 80/152/8 
f 80/148/14 79/147/14 82/153/16 
f 82/153/16 69/154/16 80/148/14 
f 79/150/7 81/149/7 66/155/7 
f 66/155/7 82/156/7 79/150/7 
f 67/57/6 66/124/6 81/151/15 
f 81/151/15 25/49/15 67/57/6 
f 69/129/8 67/23/8 25/55/8 
f 25/55/8 80/152/8 69/129/8 
f 69/154/16 82/153/16 64/157/2 
f 64/157/2 63/158/2 69/154/16 
f 82/156/7 66/155/7 65/159/7 
f 65/159/7 64/160/7 82/156/7 
# 156 faces

