# 3ds Max Wavefront OBJ Exporter v0.97b - (c)2007 guruware
# File Created: 25.02.2013 15:42:43

mtllib D-Downhill.mtl

#
# object polySurface8
#

v  236.6362 -553.6857 -0.4399
v  236.6362 -474.9455 -0.4399
v  -235.8047 -474.9455 -0.4399
v  -235.8047 -553.6857 -0.4399
v  236.6362 -474.9456 -316.3064
v  -235.8048 -474.9456 -316.3064
v  236.6360 -1.8326 -1889.7313
v  236.6360 -80.5728 -1889.7313
v  -235.8049 -80.5728 -1889.7313
v  -235.8049 -1.8326 -1889.7313
v  236.6361 -80.5727 -1568.7031
v  -235.8049 -80.5727 -1568.7030
v  -235.8048 -553.6857 -316.3066
v  236.6361 -1.8325 -1568.7031
v  236.6362 -403.6341 -629.4056
v  -235.8048 -403.6341 -629.4056
v  236.6362 -553.6857 -316.3066
v  -235.8048 -482.3743 -629.4056
v  236.6362 -482.3743 -629.4056
v  236.6361 -276.4401 -942.5047
v  -235.8048 -276.4401 -942.5046
v  -235.8048 -355.1803 -942.5047
v  236.6361 -355.1803 -942.5048
v  236.6361 -90.6020 -1264.0662
v  -235.8048 -90.6020 -1264.0662
v  -235.8048 -169.3421 -1264.0662
v  236.6361 -169.3421 -1264.0662
v  -235.8049 -1.8325 -1568.7030
v  -196.4347 -474.9456 -0.4399
v  -196.4347 -396.2054 -0.4399
v  -235.8047 -396.2054 -0.4399
v  -235.8047 -474.9456 -0.4399
v  -196.4347 -396.2055 -316.3064
v  -235.8048 -396.2055 -316.3064
v  -196.4348 76.9075 -1889.7313
v  -196.4348 -1.8327 -1889.7313
v  -235.8049 -1.8327 -1889.7313
v  -235.8049 76.9075 -1889.7313
v  -196.4348 -1.8326 -1568.7030
v  -235.8049 -1.8326 -1568.7030
v  -235.8048 -474.9457 -316.3066
v  -196.4348 76.9075 -1568.7030
v  -196.4347 -324.8941 -629.4056
v  -235.8048 -324.8941 -629.4056
v  -196.4347 -474.9457 -316.3066
v  -235.8048 -403.6343 -629.4056
v  -196.4347 -403.6343 -629.4056
v  -196.4348 -197.7000 -942.5047
v  -235.8048 -197.7000 -942.5047
v  -235.8048 -276.4402 -942.5047
v  -196.4348 -276.4402 -942.5048
v  -196.4348 -11.8620 -1264.0662
v  -235.8048 -11.8620 -1264.0662
v  -235.8048 -90.6021 -1264.0662
v  -196.4348 -90.6021 -1264.0662
v  -235.8049 76.9075 -1568.7030
v  236.6362 -474.9456 -0.4399
v  236.6362 -396.2054 -0.4399
v  197.2661 -396.2054 -0.4399
v  197.2661 -474.9456 -0.4399
v  236.6362 -396.2055 -316.3064
v  197.2661 -396.2055 -316.3064
v  236.6360 76.9075 -1889.7313
v  197.2660 -1.8326 -1889.7313
v  197.2660 76.9075 -1889.7313
v  236.6361 -1.8326 -1568.7031
v  197.2660 -1.8326 -1568.7031
v  197.2661 -474.9456 -316.3066
v  236.6361 76.9075 -1568.7031
v  236.6362 -324.8941 -629.4056
v  197.2661 -324.8941 -629.4056
v  236.6362 -474.9456 -316.3066
v  197.2661 -403.6342 -629.4056
v  236.6362 -403.6342 -629.4056
v  236.6361 -197.7000 -942.5047
v  197.2661 -197.7000 -942.5047
v  197.2661 -276.4402 -942.5048
v  236.6361 -276.4402 -942.5048
v  236.6361 -11.8619 -1264.0662
v  197.2660 -11.8619 -1264.0662
v  197.2660 -90.6021 -1264.0662
v  236.6361 -90.6021 -1264.0662
v  197.2660 76.9075 -1568.7031
# 83 vertices

vn 0.0000 0.0000 1.0000
vn 0.0000 1.0000 -0.0000
vn 0.0000 0.9936 0.1127
vn 0.0000 0.0000 -1.0000
vn 0.0000 -1.0000 -0.0000
vn 0.0000 -0.9901 -0.1405
vn -1.0000 0.0000 -0.0000
vn 1.0000 0.0000 -0.0000
vn 0.0000 0.9533 0.3022
vn 0.0000 -0.9936 -0.1127
vn 0.0000 -0.9533 -0.3022
vn 0.0000 0.8968 0.4423
vn 0.0000 -0.8968 -0.4423
vn 0.0000 0.9158 0.4016
vn 0.0000 -0.9158 -0.4016
vn 0.0000 0.9901 0.1405
# 16 vertex normals

vt 1.9990 0.0010 0.0005
vt 1.9990 0.2505 0.0005
vt 0.0010 0.2505 0.0005
vt 0.0010 0.0010 0.0005
vt 1.9990 0.0010 0.1252
vt 1.9990 0.3350 0.1252
vt 0.0010 0.3350 0.1252
vt 0.0010 0.0010 0.1252
vt 0.0010 1.7495 0.9995
vt 0.0010 1.5000 0.9995
vt 1.9990 1.5000 0.9995
vt 1.9990 1.7495 0.9995
vt 0.0010 1.9990 0.7500
vt 0.0010 1.6595 0.7500
vt 1.9990 1.6595 0.7500
vt 1.9990 1.9990 0.7500
vt 1.6650 0.2505 0.0005
vt 1.6650 0.0010 0.0005
vt 1.6595 1.7495 0.9995
vt 1.6595 1.5000 0.9995
vt 1.9990 0.6662 0.2382
vt 0.0010 0.6662 0.2382
vt 0.0010 0.3350 0.0005
vt 1.9990 0.3350 0.0005
vt 1.3338 0.4764 0.0005
vt 1.3338 0.2269 0.0005
vt 0.3350 0.2505 0.9995
vt 0.0010 0.2505 0.9995
vt 0.0010 0.0010 0.9995
vt 0.3350 0.0010 0.9995
vt 0.0010 0.6662 0.1135
vt 1.9990 0.6662 0.1135
vt 0.6662 0.4764 0.9995
vt 0.6662 0.2269 0.9995
vt 1.9990 0.9973 0.4397
vt 0.0010 0.9973 0.4397
vt 1.0027 0.8794 0.0005
vt 1.0027 0.6300 0.0005
vt 0.0010 0.9973 0.3150
vt 1.9990 0.9973 0.3150
vt 0.9973 0.8794 0.9995
vt 0.9973 0.6300 0.9995
vt 1.9990 1.3373 0.7341
vt 0.0010 1.3373 0.7341
vt 0.6627 1.4683 0.0005
vt 0.6627 1.2188 0.0005
vt 0.0010 1.3373 0.6094
vt 1.9990 1.3373 0.6094
vt 1.3373 1.4683 0.9995
vt 1.3373 1.2188 0.9995
vt 1.9990 1.6595 0.8748
vt 0.0010 1.6595 0.8748
vt 0.3405 1.7495 0.0005
vt 0.3405 1.5000 0.0005
vt 1.9990 1.9990 0.8748
vt 0.0010 1.9990 0.8748
vt 0.0010 1.7495 0.0005
vt 0.0010 1.5000 0.0005
vt 0.1675 0.2505 0.0005
vt 0.1675 0.5000 0.0005
vt 0.0010 0.5000 0.0005
vt 0.1675 0.0010 0.2500
vt 0.1675 0.3350 0.2500
vt 0.0010 0.3350 0.2500
vt 0.0010 0.0010 0.2500
vt 1.8325 1.9990 0.9995
vt 1.8325 1.7495 0.9995
vt 1.9990 1.9990 0.9995
vt 1.8325 1.9990 0.8748
vt 1.8325 1.6595 0.8748
vt 1.9990 0.5000 0.0005
vt 1.6650 0.5000 0.0005
vt 1.9990 1.7495 0.0838
vt 1.9990 1.9990 0.0838
vt 1.6595 1.9990 0.0838
vt 1.6595 1.7495 0.0838
vt 0.1675 0.6662 0.3630
vt 0.0010 0.6662 0.3630
vt 1.8325 0.3350 0.1252
vt 1.8325 0.0010 0.1252
vt 1.3338 0.7259 0.0005
vt 0.3350 0.5000 0.0837
vt 0.0010 0.5000 0.0837
vt 0.0010 0.2505 0.0837
vt 0.3350 0.2505 0.0837
vt 1.8325 0.6662 0.2382
vt 0.6662 0.7259 0.0837
vt 0.6662 0.4764 0.0837
vt 0.1675 0.9973 0.5645
vt 0.0010 0.9973 0.5645
vt 1.0027 1.1289 0.0005
vt 1.8325 0.9973 0.4397
vt 0.9973 1.1289 0.0837
vt 0.9973 0.8794 0.0837
vt 0.1675 1.3373 0.8589
vt 0.0010 1.3373 0.8589
vt 0.6627 1.7177 0.0005
vt 1.8325 1.3373 0.7341
vt 1.3373 1.7177 0.0837
vt 1.3373 1.4683 0.0837
vt 0.1675 1.6595 0.9995
vt 0.0010 1.6595 0.9995
vt 0.3405 1.9990 0.0005
vt 0.1675 1.9990 0.9995
vt 0.0010 1.9990 0.9995
vt 0.0010 1.9990 0.0005
vt 1.8325 0.5000 0.0005
vt 1.8325 0.2505 0.0005
vt 1.9990 0.0010 0.2500
vt 1.9990 0.3350 0.2500
vt 1.8325 0.3350 0.2500
vt 1.8325 0.0010 0.2500
vt 0.1675 1.7495 0.9995
vt 0.1675 1.6595 0.8748
vt 0.1675 1.9990 0.8748
vt 1.9990 0.2505 0.9162
vt 1.9990 0.5000 0.9162
vt 1.6650 0.5000 0.9162
vt 1.6650 0.2505 0.9162
vt 1.6595 1.9990 0.9995
vt 1.9990 0.6662 0.3630
vt 1.8325 0.6662 0.3630
vt 0.1675 0.0010 0.1252
vt 0.1675 0.3350 0.1252
vt 1.3338 0.7259 0.9163
vt 1.3338 0.4764 0.9163
vt 0.3350 0.5000 0.9995
vt 0.0010 0.5000 0.9995
vt 0.1675 0.6662 0.2382
vt 0.6662 0.7259 0.9995
vt 1.9990 0.9973 0.5645
vt 1.8325 0.9973 0.5645
vt 1.0027 1.1289 0.9163
vt 1.0027 0.8794 0.9163
vt 0.1675 0.9973 0.4397
vt 0.9973 1.1289 0.9995
vt 1.9990 1.3373 0.8589
vt 1.8325 1.3373 0.8589
vt 0.6627 1.7177 0.9163
vt 0.6627 1.4683 0.9163
vt 0.1675 1.3373 0.7341
vt 1.3373 1.7177 0.9995
vt 1.9990 1.6595 0.9995
vt 1.8325 1.6595 0.9995
vt 0.3405 1.9990 0.9163
vt 0.3405 1.7495 0.9163
vt 0.0010 1.9990 0.9163
vt 0.0010 1.7495 0.9163
# 148 texture coords

g polySurface8
usemtl Material__25
s off
f 1/1/1 2/2/1 3/3/1 
f 3/3/1 4/4/1 1/1/1 
f 2/5/2 5/6/3 6/7/3 
f 6/7/3 3/8/2 2/5/2 
f 7/9/4 8/10/4 9/11/4 
f 9/11/4 10/12/4 7/9/4 
f 8/13/5 11/14/6 12/15/6 
f 12/15/6 9/16/5 8/13/5 
f 4/1/7 3/2/7 6/17/7 
f 6/17/7 13/18/7 4/1/7 
f 8/11/8 7/12/8 14/19/8 
f 14/19/8 11/20/8 8/11/8 
f 5/6/3 15/21/9 16/22/9 
f 16/22/9 6/7/3 5/6/3 
f 17/23/10 1/4/5 4/1/5 
f 4/1/5 13/24/10 17/23/10 
f 6/17/7 16/25/7 18/26/7 
f 18/26/7 13/18/7 6/17/7 
f 5/27/8 2/28/8 1/29/8 
f 1/29/8 17/30/8 5/27/8 
f 19/31/11 17/23/10 13/24/10 
f 13/24/10 18/32/11 19/31/11 
f 15/33/8 5/27/8 17/30/8 
f 17/30/8 19/34/8 15/33/8 
f 15/21/9 20/35/12 21/36/12 
f 21/36/12 16/22/9 15/21/9 
f 16/25/7 21/37/7 22/38/7 
f 22/38/7 18/26/7 16/25/7 
f 23/39/13 19/31/11 18/32/11 
f 18/32/11 22/40/13 23/39/13 
f 20/41/8 15/33/8 19/34/8 
f 19/34/8 23/42/8 20/41/8 
f 20/35/12 24/43/14 25/44/14 
f 25/44/14 21/36/12 20/35/12 
f 21/37/7 25/45/7 26/46/7 
f 26/46/7 22/38/7 21/37/7 
f 27/47/15 23/39/13 22/40/13 
f 22/40/13 26/48/15 27/47/15 
f 24/49/8 20/41/8 23/42/8 
f 23/42/8 27/50/8 24/49/8 
f 24/43/14 14/51/16 28/52/16 
f 28/52/16 25/44/14 24/43/14 
f 25/45/7 28/53/7 12/54/7 
f 12/54/7 26/46/7 25/45/7 
f 11/14/6 27/47/15 26/48/15 
f 26/48/15 12/15/6 11/14/6 
f 14/19/8 24/49/8 27/50/8 
f 27/50/8 11/20/8 14/19/8 
f 14/51/16 7/55/2 10/56/2 
f 10/56/2 28/52/16 14/51/16 
f 28/53/7 10/57/7 9/58/7 
f 9/58/7 12/54/7 28/53/7 
f 29/59/1 30/60/1 31/61/1 
f 31/61/1 32/3/1 29/59/1 
f 30/62/2 33/63/3 34/64/3 
f 34/64/3 31/65/2 30/62/2 
f 35/66/4 36/67/4 37/12/4 
f 37/12/4 38/68/4 35/66/4 
f 36/69/5 39/70/6 40/51/6 
f 40/51/6 37/55/5 36/69/5 
f 32/2/7 31/71/7 34/72/7 
f 34/72/7 41/17/7 32/2/7 
f 36/73/8 35/74/8 42/75/8 
f 42/75/8 39/76/8 36/73/8 
f 33/63/3 43/77/9 44/78/9 
f 44/78/9 34/64/3 33/63/3 
f 45/79/10 29/80/5 32/5/5 
f 32/5/5 41/6/10 45/79/10 
f 34/72/7 44/81/7 46/25/7 
f 46/25/7 41/17/7 34/72/7 
f 33/82/8 30/83/8 29/84/8 
f 29/84/8 45/85/8 33/82/8 
f 47/86/11 45/79/10 41/6/10 
f 41/6/10 46/21/11 47/86/11 
f 43/87/8 33/82/8 45/85/8 
f 45/85/8 47/88/8 43/87/8 
f 43/77/9 48/89/12 49/90/12 
f 49/90/12 44/78/9 43/77/9 
f 44/81/7 49/91/7 50/37/7 
f 50/37/7 46/25/7 44/81/7 
f 51/92/13 47/86/11 46/21/11 
f 46/21/11 50/35/13 51/92/13 
f 48/93/8 43/87/8 47/88/8 
f 47/88/8 51/94/8 48/93/8 
f 48/89/12 52/95/14 53/96/14 
f 53/96/14 49/90/12 48/89/12 
f 49/91/7 53/97/7 54/45/7 
f 54/45/7 50/37/7 49/91/7 
f 55/98/15 51/92/13 50/35/13 
f 50/35/13 54/43/15 55/98/15 
f 52/99/8 48/93/8 51/94/8 
f 51/94/8 55/100/8 52/99/8 
f 52/95/14 42/101/16 56/102/16 
f 56/102/16 53/96/14 52/95/14 
f 53/97/7 56/103/7 40/53/7 
f 40/53/7 54/45/7 53/97/7 
f 39/70/6 55/98/15 54/43/15 
f 54/43/15 40/51/6 39/70/6 
f 42/75/8 52/99/8 55/100/8 
f 55/100/8 39/76/8 42/75/8 
f 42/101/16 35/104/2 38/105/2 
f 38/105/2 56/102/16 42/101/16 
f 56/103/7 38/106/7 37/57/7 
f 37/57/7 40/53/7 56/103/7 
f 57/2/1 58/71/1 59/107/1 
f 59/107/1 60/108/1 57/2/1 
f 58/109/2 61/110/3 62/111/3 
f 62/111/3 59/112/2 58/109/2 
f 63/105/4 7/9/4 64/113/4 
f 64/113/4 65/104/4 63/105/4 
f 7/56/5 66/52/6 67/114/6 
f 67/114/6 64/115/5 7/56/5 
f 60/116/7 59/117/7 62/118/7 
f 62/118/7 68/119/7 60/116/7 
f 7/12/8 63/68/8 69/120/8 
f 69/120/8 66/19/8 7/12/8 
f 61/110/3 70/121/9 71/122/9 
f 71/122/9 62/111/3 61/110/3 
f 72/7/10 57/8/5 60/123/5 
f 60/123/5 68/124/10 72/7/10 
f 62/118/7 71/125/7 73/126/7 
f 73/126/7 68/119/7 62/118/7 
f 61/127/8 58/128/8 57/28/8 
f 57/28/8 72/27/8 61/127/8 
f 74/22/11 72/7/10 68/124/10 
f 68/124/10 73/129/11 74/22/11 
f 70/130/8 61/127/8 72/27/8 
f 72/27/8 74/33/8 70/130/8 
f 70/121/9 75/131/12 76/132/12 
f 76/132/12 71/122/9 70/121/9 
f 71/125/7 76/133/7 77/134/7 
f 77/134/7 73/126/7 71/125/7 
f 78/36/13 74/22/11 73/129/11 
f 73/129/11 77/135/13 78/36/13 
f 75/136/8 70/130/8 74/33/8 
f 74/33/8 78/41/8 75/136/8 
f 75/131/12 79/137/14 80/138/14 
f 80/138/14 76/132/12 75/131/12 
f 76/133/7 80/139/7 81/140/7 
f 81/140/7 77/134/7 76/133/7 
f 82/44/15 78/36/13 77/135/13 
f 77/135/13 81/141/15 82/44/15 
f 79/142/8 75/136/8 78/41/8 
f 78/41/8 82/49/8 79/142/8 
f 79/137/14 69/143/16 83/144/16 
f 83/144/16 80/138/14 79/137/14 
f 80/139/7 83/145/7 67/146/7 
f 67/146/7 81/140/7 80/139/7 
f 66/52/6 82/44/15 81/141/15 
f 81/141/15 67/114/6 66/52/6 
f 69/120/8 79/142/8 82/49/8 
f 82/49/8 66/19/8 69/120/8 
f 69/143/16 63/68/2 65/66/2 
f 65/66/2 83/144/16 69/143/16 
f 83/145/7 65/147/7 64/148/7 
f 64/148/7 67/146/7 83/145/7 
# 156 faces

