# 3ds Max Wavefront OBJ Exporter v0.97b - (c)2007 guruware
# File Created: 06.03.2013 21:27:53

mtllib G-Walls.mtl

#
# object polySurface1
#

v  -79.5848 -0.1625 767.0032
v  -199.0803 -0.1625 767.0032
v  -199.0803 78.4989 767.0032
v  -79.5848 78.4989 767.0032
v  -199.0803 78.4989 806.3340
v  -79.5848 78.4989 806.3339
v  -199.0803 -0.1625 806.3340
v  -79.5848 -0.1625 806.3339
v  195.8250 -0.1625 767.0032
v  77.7380 -0.1625 767.0032
v  77.7380 78.4989 767.0032
v  195.8250 78.4989 767.0032
v  77.7381 78.4989 806.3339
v  195.8250 78.4989 806.3339
v  77.7381 -0.1625 806.3339
v  195.8250 -0.1625 806.3339
v  195.8960 -0.1625 1789.6017
v  0.5121 -0.1625 1789.6017
v  0.5121 78.4989 1789.6017
v  195.8960 78.4989 1789.6017
v  0.5121 78.4989 1828.9324
v  195.8960 78.4989 1828.9324
v  0.5121 -0.1625 1828.9324
v  195.8960 -0.1625 1828.9324
v  -157.7454 -0.1625 1789.6017
v  -197.5155 -0.1625 1789.6017
v  -197.5155 78.4989 1789.6017
v  -157.7454 78.4989 1789.6017
v  -197.5155 78.4989 1828.9324
v  -157.7454 78.4989 1828.9324
v  -197.5155 -0.1625 1828.9324
v  -157.7454 -0.1625 1828.9324
v  155.8989 -0.1624 2812.2002
v  155.8989 78.4990 2812.2002
v  196.1549 78.4990 2812.2002
v  196.1549 -0.1624 2812.2002
v  155.8989 78.4990 2851.5310
v  196.1549 78.4990 2851.5310
v  155.8989 -0.1624 2851.5310
v  196.1549 -0.1624 2851.5310
v  -197.6824 -0.1624 2812.2002
v  -197.6824 78.4990 2812.2002
v  -2.3586 78.4990 2812.2002
v  -2.3586 -0.1624 2812.2002
v  -197.6824 78.4990 2851.5310
v  -2.3586 78.4990 2851.5310
v  -197.6824 -0.1624 2851.5310
v  -2.3586 -0.1624 2851.5310
v  235.0608 -78.8240 -0.2075
v  -236.9077 -78.8240 -0.2074
v  -236.9077 -0.1626 -0.2075
v  235.0608 -0.1626 -0.2075
v  -236.9074 -0.1624 3460.2659
v  235.0611 -0.1624 3460.2659
v  -236.9074 -78.8238 3460.2659
v  235.0611 -78.8238 3460.2659
v  -197.5770 -0.1626 -0.2075
v  -236.9077 78.4989 -0.2075
v  -197.5770 78.4989 -0.2075
v  -236.9074 78.4990 3460.2659
v  -197.5767 78.4990 3460.2659
v  -197.5767 -0.1624 3460.2659
v  195.7301 -0.1626 -0.2075
v  195.7301 78.4989 -0.2075
v  235.0608 78.4989 -0.2075
v  195.7304 78.4990 3460.2659
v  235.0611 78.4990 3460.2659
v  195.7304 -0.1624 3460.2659
# 68 vertices

vn 0.0000 0.0000 -1.0000
vn 0.0000 1.0000 -0.0000
vn 0.0000 0.0000 1.0000
vn 0.0000 -1.0000 -0.0000
vn -1.0000 0.0000 -0.0000
vn 1.0000 0.0000 -0.0000
# 6 vertex normals

vt -1.1842 5.3527 0.7780
vt 5.6737 5.3511 0.7780
vt 5.6737 6.3501 0.7780
vt -1.1842 6.3517 0.7780
vt -1.1873 5.2998 0.9995
vt 5.6706 5.2962 0.9995
vt 5.6706 5.3189 0.9995
vt -1.1872 5.3225 0.9995
vt -1.1979 4.2795 0.7667
vt 5.6600 4.2787 0.7667
vt 5.6589 5.2777 0.7667
vt -1.1989 5.2785 0.7667
vt 1.3327 1.5333 0.5000
vt 1.9982 1.5333 0.5000
vt 1.9982 1.5560 0.5000
vt 1.3327 1.5560 0.5000
vt 0.4440 1.0000 0.0009
vt 0.4667 1.0000 0.0009
vt 0.4667 1.9990 0.0009
vt 0.4440 1.9990 0.0009
vt 1.5333 1.0000 0.3336
vt 1.5560 1.0000 0.3336
vt 1.5560 1.9990 0.3336
vt 1.5333 1.9990 0.3336
vt 5.6869 7.3508 0.7780
vt -1.1735 7.3570 0.7780
vt -1.1741 6.4479 0.7780
vt 5.6864 6.4417 0.7780
vt 5.6883 7.3956 0.9995
vt -1.1721 7.4014 0.9995
vt -1.1721 7.3808 0.9995
vt 5.6883 7.3749 0.9995
vt 5.6883 8.3186 0.7667
vt -1.1721 8.3244 0.7667
vt -1.1721 7.4153 0.7667
vt 5.6883 7.4095 0.7667
vt 0.0018 1.5333 0.5000
vt 0.6673 1.5333 0.5000
vt 0.6673 1.5560 0.5000
vt 0.0018 1.5560 0.5000
vt 0.4440 1.0000 0.6664
vt 0.4667 1.0000 0.6664
vt 0.4667 1.9990 0.6664
vt 0.4440 1.9990 0.6664
vt 1.5333 1.0000 0.9991
vt 1.5560 1.0000 0.9991
vt 1.5560 1.9990 0.9991
vt 1.5333 1.9990 0.9991
vt 5.7076 9.3750 0.4828
vt -1.1670 9.3742 0.4828
vt -1.1662 8.3752 0.4828
vt 5.7084 8.3760 0.4828
vt 5.7270 9.4327 0.9995
vt -1.1476 9.4327 0.9995
vt -1.1476 9.4100 0.9995
vt 5.7270 9.4100 0.9995
vt 5.7268 10.4794 0.4714
vt -1.1478 10.4794 0.4714
vt -1.1478 9.4804 0.4714
vt 5.7268 9.4804 0.4714
vt 0.0388 0.9429 0.5000
vt 0.9939 0.9429 0.5000
vt 0.9939 0.9656 0.5000
vt 0.0388 0.9656 0.5000
vt 1.0344 1.0000 0.5030
vt 1.0571 1.0000 0.5030
vt 1.0571 1.9990 0.5030
vt 1.0344 1.9990 0.5030
vt 0.9429 1.0000 0.9806
vt 0.9656 1.0000 0.9806
vt 0.9656 1.9990 0.9806
vt 0.9429 1.9990 0.9806
vt 0.4098 11.5502 0.4828
vt -1.1440 11.5497 0.4828
vt -1.1425 10.5507 0.4828
vt 0.4113 10.5512 0.4828
vt 0.4159 11.6310 0.9995
vt -1.1379 11.6310 0.9995
vt -1.1379 11.6083 0.9995
vt 0.4159 11.6083 0.9995
vt 0.4128 12.6582 0.4714
vt -1.1410 12.6582 0.4714
vt -1.1410 11.6592 0.4714
vt 0.4128 11.6592 0.4714
vt 1.6634 0.9429 0.5000
vt 1.9990 0.9429 0.5000
vt 1.9990 0.9656 0.5000
vt 1.6634 0.9656 0.5000
vt 1.0344 1.0000 0.0005
vt 1.0571 1.0000 0.0005
vt 1.0571 1.9990 0.0005
vt 1.0344 1.9990 0.0005
vt 0.9429 1.0000 0.1683
vt 0.9656 1.0000 0.1683
vt 0.9656 1.9990 0.1683
vt 0.9429 1.9990 0.1683
vt -1.1029 15.8319 0.1876
vt -1.0988 14.8329 0.1876
vt 0.6735 14.8343 0.1876
vt 0.6694 15.8333 0.1876
vt -1.1079 15.8686 0.9995
vt -1.1079 15.8459 0.9995
vt 0.6644 15.8459 0.9995
vt 0.6644 15.8686 0.9995
vt -1.0996 16.8799 0.1762
vt -1.0996 15.8809 0.1762
vt 0.6727 15.8809 0.1762
vt 0.6727 16.8799 0.1762
vt 0.3366 0.3525 0.5000
vt 0.3366 0.3752 0.5000
vt 0.0010 0.3752 0.5000
vt 0.0010 0.3525 0.5000
vt 0.3752 1.0000 0.9995
vt 0.3752 1.9990 0.9995
vt 0.3525 1.9990 0.9995
vt 0.3525 1.0000 0.9995
vt 1.6475 1.0000 0.8317
vt 1.6475 1.9990 0.8317
vt 1.6248 1.9990 0.8317
vt 1.6248 1.0000 0.8317
vt -1.1336 14.7769 0.1876
vt -1.1328 13.7779 0.1876
vt 5.7845 13.7894 0.1876
vt 5.7836 14.7884 0.1876
vt -1.1368 13.7569 0.9995
vt -1.1368 13.7342 0.9995
vt 5.7804 13.7448 0.9995
vt 5.7804 13.7676 0.9995
vt -1.1368 13.7026 0.1762
vt -1.1368 12.7036 0.1762
vt 5.7804 12.7143 0.1762
vt 5.7804 13.7133 0.1762
vt 1.9612 0.3525 0.5000
vt 1.9612 0.3752 0.5000
vt 1.0061 0.3752 0.5000
vt 1.0061 0.3525 0.5000
vt 0.3752 1.0000 0.4970
vt 0.3752 1.9990 0.4970
vt 0.3525 1.9990 0.4970
vt 0.3525 1.0000 0.4970
vt 1.6475 1.0000 0.0194
vt 1.6475 1.9990 0.0194
vt 1.6248 1.9990 0.0194
vt 1.6248 1.0000 0.0194
vt 0.0018 0.0010 0.9995
vt 1.9982 0.0010 0.9995
vt 1.9982 1.0000 0.9995
vt 0.0018 1.0000 0.9995
vt 1.9982 1.9990 0.5000
vt 0.0018 1.9990 0.5000
vt 0.0018 0.0010 0.5000
vt 1.9982 0.0010 0.5000
vt 1.9982 1.0000 0.0005
vt 0.0018 1.0000 0.0005
vt 0.0018 0.0010 0.0005
vt 1.9982 0.0010 0.0005
vt 1.9982 1.9990 0.0005
vt 0.0018 1.9990 0.0005
vt 0.0010 0.0010 0.0009
vt 1.9990 0.0010 0.0009
vt 1.9990 1.0000 0.0009
vt 0.0010 1.0000 0.0009
vt 0.0010 0.0010 0.9991
vt 1.9990 0.0010 0.9991
vt 1.9990 1.0000 0.9991
vt 0.0010 1.0000 0.9991
vt 1.8319 1.0000 0.9995
vt 1.9982 1.9990 0.9995
vt 1.8319 1.9990 0.9995
vt 0.7540 4.0355 0.9995
vt 0.5877 4.0355 0.9995
vt 0.5877 2.0375 0.9995
vt 0.7540 2.0375 0.9995
vt 0.1681 1.9990 0.0005
vt 0.1681 1.0000 0.0005
vt 1.8319 0.0010 0.5000
vt 1.8319 1.9990 0.5000
vt 1.9990 1.9990 0.0009
vt 0.0010 1.9990 0.0009
vt 1.6291 4.0654 0.0841
vt 1.6291 2.0674 0.0841
vt 1.8781 2.0674 0.0841
vt 1.8781 4.0654 0.0841
vt 0.1681 1.0000 0.9995
vt 0.1681 1.9990 0.9995
vt 0.0018 1.9990 0.9995
vt 0.4045 4.0364 0.9995
vt 0.2382 4.0364 0.9995
vt 0.2382 2.0384 0.9995
vt 0.4045 2.0384 0.9995
vt 1.8319 1.9990 0.0005
vt 1.8319 1.0000 0.0005
vt 0.1681 0.0010 0.5000
vt 0.1681 1.9990 0.5000
vt 1.0432 4.0520 0.9159
vt 1.0429 2.0540 0.9159
vt 1.2825 2.0538 0.9159
vt 1.2829 4.0518 0.9159
vt 1.9990 1.9990 0.9991
vt 0.0010 1.9990 0.9991
# 200 texture coords

g polySurface1
usemtl Material__25
s off
f 1/1/1 2/2/1 3/3/1 
f 3/3/1 4/4/1 1/1/1 
f 4/5/2 3/6/2 5/7/2 
f 5/7/2 6/8/2 4/5/2 
f 6/9/3 5/10/3 7/11/3 
f 7/11/3 8/12/3 6/9/3 
f 8/13/4 7/14/4 2/15/4 
f 2/15/4 1/16/4 8/13/4 
f 2/17/5 7/18/5 5/19/5 
f 5/19/5 3/20/5 2/17/5 
f 8/21/6 1/22/6 4/23/6 
f 4/23/6 6/24/6 8/21/6 
f 9/25/1 10/26/1 11/27/1 
f 11/27/1 12/28/1 9/25/1 
f 12/29/2 11/30/2 13/31/2 
f 13/31/2 14/32/2 12/29/2 
f 14/33/3 13/34/3 15/35/3 
f 15/35/3 16/36/3 14/33/3 
f 16/37/4 15/38/4 10/39/4 
f 10/39/4 9/40/4 16/37/4 
f 10/41/5 15/42/5 13/43/5 
f 13/43/5 11/44/5 10/41/5 
f 16/45/6 9/46/6 12/47/6 
f 12/47/6 14/48/6 16/45/6 
f 17/49/1 18/50/1 19/51/1 
f 19/51/1 20/52/1 17/49/1 
f 20/53/2 19/54/2 21/55/2 
f 21/55/2 22/56/2 20/53/2 
f 22/57/3 21/58/3 23/59/3 
f 23/59/3 24/60/3 22/57/3 
f 24/61/4 23/62/4 18/63/4 
f 18/63/4 17/64/4 24/61/4 
f 18/65/5 23/66/5 21/67/5 
f 21/67/5 19/68/5 18/65/5 
f 24/69/6 17/70/6 20/71/6 
f 20/71/6 22/72/6 24/69/6 
f 25/73/1 26/74/1 27/75/1 
f 27/75/1 28/76/1 25/73/1 
f 28/77/2 27/78/2 29/79/2 
f 29/79/2 30/80/2 28/77/2 
f 30/81/3 29/82/3 31/83/3 
f 31/83/3 32/84/3 30/81/3 
f 32/85/4 31/86/4 26/87/4 
f 26/87/4 25/88/4 32/85/4 
f 26/89/5 31/90/5 29/91/5 
f 29/91/5 27/92/5 26/89/5 
f 32/93/6 25/94/6 28/95/6 
f 28/95/6 30/96/6 32/93/6 
f 33/97/1 34/98/1 35/99/1 
f 35/99/1 36/100/1 33/97/1 
f 34/101/2 37/102/2 38/103/2 
f 38/103/2 35/104/2 34/101/2 
f 37/105/3 39/106/3 40/107/3 
f 40/107/3 38/108/3 37/105/3 
f 39/109/4 33/110/4 36/111/4 
f 36/111/4 40/112/4 39/109/4 
f 36/113/6 35/114/6 38/115/6 
f 38/115/6 40/116/6 36/113/6 
f 39/117/5 37/118/5 34/119/5 
f 34/119/5 33/120/5 39/117/5 
f 41/121/1 42/122/1 43/123/1 
f 43/123/1 44/124/1 41/121/1 
f 42/125/2 45/126/2 46/127/2 
f 46/127/2 43/128/2 42/125/2 
f 45/129/3 47/130/3 48/131/3 
f 48/131/3 46/132/3 45/129/3 
f 47/133/4 41/134/4 44/135/4 
f 44/135/4 48/136/4 47/133/4 
f 44/137/6 43/138/6 46/139/6 
f 46/139/6 48/140/6 44/137/6 
f 47/141/5 45/142/5 42/143/5 
f 42/143/5 41/144/5 47/141/5 
f 49/145/1 50/146/1 51/147/1 
f 51/147/1 52/148/1 49/145/1 
f 52/149/2 51/150/2 53/151/2 
f 53/151/2 54/152/2 52/149/2 
f 54/153/3 53/154/3 55/155/3 
f 55/155/3 56/156/3 54/153/3 
f 56/155/4 55/156/4 50/157/4 
f 50/157/4 49/158/4 56/155/4 
f 50/159/5 55/160/5 53/161/5 
f 53/161/5 51/162/5 50/159/5 
f 56/163/6 49/164/6 52/165/6 
f 52/165/6 54/166/6 56/163/6 
f 57/167/1 51/147/1 58/168/1 
f 58/168/1 59/169/1 57/167/1 
f 59/170/2 58/171/2 60/172/2 
f 60/172/2 61/173/2 59/170/2 
f 61/174/3 60/158/3 53/154/3 
f 53/154/3 62/175/3 61/174/3 
f 62/176/4 53/152/4 51/149/4 
f 51/149/4 57/177/4 62/176/4 
f 51/162/5 53/161/5 60/178/5 
f 60/178/5 58/179/5 51/162/5 
f 62/180/6 57/181/6 59/182/6 
f 59/182/6 61/183/6 62/180/6 
f 52/148/1 63/184/1 64/185/1 
f 64/185/1 65/186/1 52/148/1 
f 65/187/2 64/188/2 66/189/2 
f 66/189/2 67/190/2 65/187/2 
f 67/157/3 66/191/3 68/192/3 
f 68/192/3 54/153/3 67/157/3 
f 54/151/4 68/193/4 63/194/4 
f 63/194/4 52/150/4 54/151/4 
f 63/195/5 68/196/5 66/197/5 
f 66/197/5 64/198/5 63/195/5 
f 54/166/6 52/165/6 65/199/6 
f 65/199/6 67/200/6 54/166/6 
# 108 faces

