# This file uses centimeters as units for non-parametric coordinates.

mtllib I-Drop2.mtl
g default
v 236.274307 -78.758102 -942.851074
v -236.274399 -78.758102 -942.851074
v 236.274307 0.000000 -942.851074
v -236.274399 0.000000 -942.851074
v 236.274399 0.000000 -149.082794
v -236.274307 0.000000 -149.082794
v 236.274399 -78.758102 -149.082794
v -236.274307 -78.758102 -149.082794
v -196.895294 0.000000 -942.851074
v -196.895294 78.758102 -942.851074
v -236.274399 78.758102 -942.851074
v -196.895203 78.758102 -149.082794
v -236.274307 78.758102 -149.082794
v -196.895203 0.000000 -149.082794
v 196.895203 0.000000 -942.851074
v 236.274307 78.758102 -942.851074
v 196.895203 78.758102 -942.851074
v 236.274399 78.758102 -149.082794
v 196.895294 78.758102 -149.082794
v 196.895294 0.000000 -149.082794
vt 0.375000 0.000000
vt 0.625000 0.000000
vt 0.375000 0.250000
vt 0.625000 0.250000
vt 0.998200 0.300300
vt 3.009400 0.300000
vt 0.998200 0.985300
vt 3.009400 0.985000
vt 0.375000 0.500000
vt 0.625000 0.500000
vt 0.375000 0.750000
vt 0.625000 0.750000
vt 0.375000 1.000000
vt 0.625000 1.000000
vt 0.875000 0.000000
vt 0.875000 0.250000
vt 0.125000 0.000000
vt 0.125000 0.250000
vt 0.375000 0.000000
vt 0.625000 0.000000
vt 0.375000 0.250000
vt 0.375000 0.250000
vt 0.625000 0.000000
vt 0.625000 0.250000
vt 0.756600 2.719500
vt 0.525800 2.718000
vt 0.768300 1.510400
vt 0.537500 1.508900
vt 0.375000 0.500000
vt 0.625000 0.500000
vt 0.375000 0.750000
vt 0.375000 0.750000
vt 0.625000 0.500000
vt 0.625000 0.750000
vt 0.375000 0.750000
vt 0.625000 0.750000
vt 0.375000 1.000000
vt 0.375000 1.000000
vt 0.625000 0.750000
vt 0.625000 1.000000
vt 0.625000 0.000000
vt 0.875000 0.000000
vt 0.625000 0.250000
vt 0.625000 0.250000
vt 0.875000 0.000000
vt 0.875000 0.250000
vt 0.129700 2.716700
vt 0.129300 1.491800
vt 0.370700 2.716500
vt 0.370300 1.491500
vt 0.375000 0.000000
vt 0.625000 0.000000
vt 0.375000 0.250000
vt 0.375000 0.250000
vt 0.625000 0.000000
vt 0.625000 0.250000
vt 1.551500 1.490500
vt 1.756800 1.490500
vt 1.551500 2.725200
vt 1.756800 2.725200
vt 0.375000 0.500000
vt 0.625000 0.500000
vt 0.375000 0.750000
vt 0.375000 0.750000
vt 0.625000 0.500000
vt 0.625000 0.750000
vt 0.375000 0.750000
vt 0.625000 0.750000
vt 0.375000 1.000000
vt 0.375000 1.000000
vt 0.625000 0.750000
vt 0.625000 1.000000
vt 1.039600 2.733400
vt 1.039200 1.499400
vt 1.271600 2.732900
vt 1.271200 1.499000
vt 0.125000 0.000000
vt 0.375000 0.000000
vt 0.125000 0.250000
vt 0.125000 0.250000
vt 0.375000 0.000000
vt 0.375000 0.250000
vn 0.000000 0.000000 -1.000000
vn -0.577350 -0.577350 -0.577350
vn 0.000000 0.000000 -1.000000
vn 0.000000 0.000000 -1.000000
vn -0.577350 -0.577350 -0.577350
vn -0.707107 0.000000 -0.707107
vn 0.707107 0.707107 0.000000
vn 0.000000 1.000000 0.000000
vn 0.577350 0.577350 0.577350
vn 0.577350 0.577350 0.577350
vn 0.000000 1.000000 0.000000
vn -0.577284 0.577384 0.577384
vn 0.577350 0.577350 0.577350
vn -0.577284 0.577384 0.577384
vn 0.577350 -0.577350 0.577350
vn 0.577350 -0.577350 0.577350
vn -0.577284 0.577384 0.577384
vn -0.577350 -0.577350 0.577350
vn 0.577350 -0.577350 0.577350
vn -0.577350 -0.577350 0.577350
vn 0.707107 -0.707107 0.000000
vn 0.707107 -0.707107 0.000000
vn -0.577350 -0.577350 0.577350
vn -0.577350 -0.577350 -0.577350
vn -0.577350 -0.577350 -0.577350
vn -0.577350 -0.577350 0.577350
vn -0.707107 0.000000 -0.707107
vn -0.707107 0.000000 -0.707107
vn -0.577350 -0.577350 0.577350
vn -0.577284 0.577384 0.577384
vn 0.577350 -0.577350 0.577350
vn 0.707107 -0.707107 0.000000
vn 0.577350 0.577350 0.577350
vn 0.577350 0.577350 0.577350
vn 0.707107 -0.707107 0.000000
vn 0.707107 0.707107 0.000000
vn 0.577350 -0.577350 -0.577350
vn -0.577350 -0.577350 -0.577350
vn 0.577284 0.577384 -0.577384
vn 0.577284 0.577384 -0.577384
vn -0.577350 -0.577350 -0.577350
vn -0.577384 0.577284 -0.577384
vn 0.577284 0.577384 -0.577384
vn -0.577384 0.577284 -0.577384
vn 0.577350 0.577350 0.577350
vn 0.577350 0.577350 0.577350
vn -0.577384 0.577284 -0.577384
vn -0.577284 0.577384 0.577384
vn 0.577350 0.577350 0.577350
vn -0.577284 0.577384 0.577384
vn 0.577350 -0.577350 0.577350
vn 0.577350 -0.577350 0.577350
vn -0.577284 0.577384 0.577384
vn -0.577384 -0.577284 0.577384
vn 0.577350 -0.577350 0.577350
vn -0.577384 -0.577284 0.577384
vn 0.577350 -0.577350 -0.577350
vn 0.577350 -0.577350 -0.577350
vn -0.577384 -0.577284 0.577384
vn -0.577350 -0.577350 -0.577350
vn -0.577350 -0.577350 -0.577350
vn -0.577384 -0.577284 0.577384
vn -0.577384 0.577284 -0.577384
vn -0.577384 0.577284 -0.577384
vn -0.577384 -0.577284 0.577384
vn -0.577284 0.577384 0.577384
vn 0.577350 -0.577350 0.577350
vn 0.577350 -0.577350 -0.577350
vn 0.577350 0.577350 0.577350
vn 0.577350 0.577350 0.577350
vn 0.577350 -0.577350 -0.577350
vn 0.577284 0.577384 -0.577384
vn 0.000000 0.000000 -1.000000
vn -0.577350 -0.577350 -0.577350
vn 0.577284 0.577384 -0.577384
vn 0.577284 0.577384 -0.577384
vn -0.577350 -0.577350 -0.577350
vn -0.577384 0.577284 -0.577384
vn 0.577284 0.577384 -0.577384
vn -0.577384 0.577284 -0.577384
vn 0.577350 0.577350 0.577350
vn 0.577350 0.577350 0.577350
vn -0.577384 0.577284 -0.577384
vn -0.577284 0.577384 0.577384
vn 0.577350 0.577350 0.577350
vn -0.577284 0.577384 0.577384
vn 0.577350 -0.577350 0.577350
vn 0.577350 -0.577350 0.577350
vn -0.577284 0.577384 0.577384
vn -0.577384 -0.577284 0.577384
vn 0.577350 -0.577350 0.577350
vn -0.577384 -0.577284 0.577384
vn 0.707107 -0.707107 0.000000
vn 0.707107 -0.707107 0.000000
vn -0.577384 -0.577284 0.577384
vn -0.577350 -0.577350 -0.577350
vn -0.577350 -0.577350 -0.577350
vn -0.577384 -0.577284 0.577384
vn -0.577384 0.577284 -0.577384
vn -0.577384 0.577284 -0.577384
vn -0.577384 -0.577284 0.577384
vn -0.577284 0.577384 0.577384
vn 0.577350 -0.577350 0.577350
vn 0.707107 -0.707107 0.000000
vn 0.577350 0.577350 0.577350
vn 0.577350 0.577350 0.577350
vn 0.707107 -0.707107 0.000000
vn 0.577284 0.577384 -0.577384
s off
g polySurface1 I_Drop:polySurface8
usemtl I_Drop:Material__25
f 1/1/1 2/2/2 3/3/3
f 3/3/4 2/2/5 4/4/6
f 3/5/7 4/6/8 5/7/9
f 5/7/10 4/6/11 6/8/12
f 5/9/13 6/10/14 7/11/15
f 7/11/16 6/10/17 8/12/18
f 7/11/19 8/12/20 1/13/21
f 1/13/22 8/12/23 2/14/24
f 2/2/25 8/15/26 4/4/27
f 4/4/28 8/15/29 6/16/30
f 7/17/31 1/1/32 5/18/33
f 5/18/34 1/1/35 3/3/36
f 9/19/37 4/20/38 10/21/39
f 10/22/40 4/23/41 11/24/42
f 10/25/43 11/26/44 12/27/45
f 12/27/46 11/26/47 13/28/48
f 12/29/49 13/30/50 14/31/51
f 14/32/52 13/33/53 6/34/54
f 14/35/55 6/36/56 9/37/57
f 9/38/58 6/39/59 4/40/60
f 4/41/61 6/42/62 11/43/63
f 11/44/64 6/45/65 13/46/66
f 14/47/67 9/48/68 12/49/69
f 12/49/70 9/48/71 10/50/72
f 3/51/73 15/52/74 16/53/75
f 16/54/76 15/55/77 17/56/78
f 16/57/79 17/58/80 18/59/81
f 18/59/82 17/58/83 19/60/84
f 18/61/85 19/62/86 5/63/87
f 5/64/88 19/65/89 20/66/90
f 5/67/91 20/68/92 3/69/93
f 3/70/94 20/71/95 15/72/96
f 15/73/97 20/74/98 17/75/99
f 17/75/100 20/74/101 19/76/102
f 5/77/103 3/78/104 18/79/105
f 18/80/106 3/81/107 16/82/108
