# 3ds Max Wavefront OBJ Exporter v0.97b - (c)2007 guruware
# File Created: 07.03.2013 09:34:30

mtllib J-Left turn.mtl

#
# object polySurface5
#

v  289.4096 -78.6302 341.7430
v  235.4561 -78.6302 1.0943
v  235.4561 0.1100 1.0943
v  289.4096 0.1100 341.7430
v  445.9888 -78.6302 649.0467
v  445.9888 0.1100 649.0467
v  689.8665 -78.6302 892.9241
v  689.8665 0.1100 892.9241
v  997.1702 -78.6302 1049.5031
v  997.1702 0.1100 1049.5031
v  1337.8188 -78.6302 1103.4564
v  1337.8188 0.1099 1103.4564
v  -236.9848 0.1100 1.0943
v  -159.9084 0.1100 487.7353
v  63.7760 0.1100 926.7404
v  412.1725 0.1100 1275.1370
v  851.1778 0.1100 1498.8212
v  1337.8187 0.1099 1575.8975
v  -236.9848 -78.6301 1.0943
v  -159.9084 -78.6301 487.7353
v  63.7760 -78.6301 926.7404
v  412.1725 -78.6302 1275.1370
v  851.1778 -78.6302 1498.8212
v  1337.8187 -78.6302 1575.8975
v  -122.4653 0.1100 475.5694
v  -197.6148 0.1100 1.0944
v  -197.6148 78.8502 1.0944
v  -122.4653 78.8502 475.5694
v  95.6270 0.1100 903.5994
v  95.6270 78.8502 903.5994
v  435.3138 0.1100 1243.2860
v  435.3138 78.8502 1243.2860
v  863.3439 0.1100 1461.3781
v  863.3439 78.8501 1461.3781
v  1337.8190 0.1099 1536.5275
v  1337.8190 78.8501 1536.5275
v  -236.9848 78.8502 1.0943
v  -159.9084 78.8502 487.7353
v  63.7760 78.8502 926.7404
v  412.1725 78.8502 1275.1370
v  851.1778 78.8501 1498.8212
v  1337.8187 78.8501 1575.8975
v  289.4472 0.1100 341.7308
v  235.4956 0.1100 1.0943
v  235.4956 78.8502 1.0943
v  289.4472 78.8502 341.7308
v  446.0207 0.1100 649.0234
v  446.0207 78.8501 649.0234
v  689.8896 0.1100 892.8922
v  689.8896 78.8501 892.8922
v  997.1824 0.1100 1049.4655
v  997.1824 78.8501 1049.4655
v  1337.8188 0.1099 1103.4170
v  1337.8188 78.8501 1103.4170
v  194.6687 78.8502 1.0943
v  250.6186 78.8502 354.3470
v  412.9911 78.8502 673.0209
v  665.8923 78.8501 925.9218
v  984.5662 78.8501 1088.2942
v  1337.8188 78.8501 1144.2438
v  194.6687 0.1100 1.0943
v  250.6186 0.1100 354.3470
v  412.9911 0.1100 673.0209
v  665.8923 0.1100 925.9218
v  984.5662 0.1100 1088.2942
v  1337.8188 0.1099 1144.2438
# 66 vertices

vn 0.9511 0.0000 -0.3090
vn 0.9877 0.0000 -0.1564
vn 0.8090 0.0000 -0.5878
vn 0.5878 0.0000 -0.8090
vn 0.3090 0.0000 -0.9511
vn 0.1564 0.0000 -0.9877
vn 0.0000 1.0000 -0.0000
vn -0.9511 0.0000 0.3090
vn -0.9877 0.0000 0.1564
vn -0.8090 0.0000 0.5878
vn -0.5878 0.0000 0.8090
vn -0.3090 0.0000 0.9511
vn -0.1564 0.0000 0.9877
vn 0.0000 -1.0000 -0.0000
# 14 vertex normals

vt 4.2310 1.1584 0.0000
vt 4.2319 1.5868 0.0000
vt 2.0899 1.5917 0.0000
vt 2.0890 1.1633 0.0000
vt 4.2300 0.7300 0.0000
vt 2.0880 0.7349 0.0000
vt 4.2290 0.3016 0.0000
vt 2.0870 0.3065 0.0000
vt 4.2281 -0.1268 0.0000
vt 2.0861 -0.1219 0.0000
vt 4.2271 -0.5552 0.0000
vt 2.0851 -0.5503 0.0000
vt 2.0890 1.6776 0.0000
vt 1.9986 2.0989 0.0000
vt 0.0030 2.1034 0.0000
vt -0.0530 1.6824 0.0000
vt -0.0530 1.1681 0.0000
vt -0.0540 0.7397 0.0000
vt -0.0550 0.3113 0.0000
vt -0.0559 -0.1171 0.0000
vt 2.0012 -1.1442 0.0000
vt 2.0861 -0.7159 0.0000
vt -0.0487 -0.7328 0.0000
vt -0.0015 -1.1469 0.0000
vt -0.0521 1.5965 0.0000
vt -2.1941 1.6014 0.0000
vt -2.1950 1.1729 0.0000
vt -2.1960 0.7445 0.0000
vt -2.1970 0.3161 0.0000
vt -2.1979 -0.1123 0.0000
vt -0.0569 -0.5455 0.0000
vt -2.1989 -0.5407 0.0000
vt -4.3361 1.6062 0.0000
vt -4.3370 1.1778 0.0000
vt -4.3380 0.7494 0.0000
vt -4.3390 0.3210 0.0000
vt -4.3399 -0.1074 0.0000
vt -4.3409 -0.5358 0.0000
vt 1.9696 4.5858 0.0000
vt 1.9705 5.0142 0.0000
vt 1.7837 5.0191 0.0000
vt 1.7828 4.5907 0.0000
vt 1.9686 4.1574 0.0000
vt 1.7818 4.1623 0.0000
vt 1.9676 3.7290 0.0000
vt 1.7808 3.7339 0.0000
vt 1.9667 3.3006 0.0000
vt 1.7799 3.3055 0.0000
vt 1.9657 2.8722 0.0000
vt 1.7789 2.8771 0.0000
vt 0.7934 4.6260 0.0000
vt 0.7943 5.0544 0.0000
vt 0.6546 5.0474 0.0000
vt 0.6537 4.6190 0.0000
vt 0.7924 4.1976 0.0000
vt 0.6527 4.1906 0.0000
vt 0.7914 3.7692 0.0000
vt 0.6517 3.7622 0.0000
vt 0.7905 3.3408 0.0000
vt 0.6508 3.3338 0.0000
vt 0.8067 2.9192 0.0000
vt 0.7742 3.3475 0.0000
vt 0.6653 3.3306 0.0000
vt 0.6498 2.9054 0.0000
vt 0.7895 2.9124 0.0000
vt 0.3309 4.6947 0.0000
vt 0.3318 5.1231 0.0000
vt 0.1682 5.1279 0.0000
vt 0.1673 4.6995 0.0000
vt 0.3299 4.2663 0.0000
vt 0.1663 4.2711 0.0000
vt 0.3289 3.8379 0.0000
vt 0.1653 3.8427 0.0000
vt 0.3280 3.4095 0.0000
vt 0.1644 3.4143 0.0000
vt 0.3270 2.9811 0.0000
vt 0.1634 2.9859 0.0000
vt 2.3262 4.6308 0.0000
vt 2.3271 5.0592 0.0000
vt 2.1638 5.0641 0.0000
vt 2.1629 4.6356 0.0000
vt 2.3252 4.2024 0.0000
vt 2.1619 4.2072 0.0000
vt 2.3242 3.7740 0.0000
vt 2.1609 3.7788 0.0000
vt 2.3233 3.3456 0.0000
vt 2.1600 3.3504 0.0000
vt 2.3223 2.9172 0.0000
vt 2.1590 2.9220 0.0000
# 89 texture coords

g polySurface5
usemtl Material__25
s off
f 1/1/1 2/2/2 3/3/2 
f 3/3/2 4/4/1 1/1/1 
f 5/5/3 1/1/1 4/4/1 
f 4/4/1 6/6/3 5/5/3 
f 7/7/4 5/5/3 6/6/3 
f 6/6/3 8/8/4 7/7/4 
f 9/9/5 7/7/4 8/8/4 
f 8/8/4 10/10/5 9/9/5 
f 11/11/6 9/9/5 10/10/5 
f 10/10/5 12/12/6 11/11/6 
f 4/13/7 3/14/7 13/15/7 
f 13/15/7 14/16/7 4/13/7 
f 6/6/7 4/4/7 14/17/7 
f 14/17/7 15/18/7 6/6/7 
f 8/8/7 6/6/7 15/18/7 
f 15/18/7 16/19/7 8/8/7 
f 10/10/7 8/8/7 16/19/7 
f 16/19/7 17/20/7 10/10/7 
f 12/21/7 10/22/7 17/23/7 
f 17/23/7 18/24/7 12/21/7 
f 14/17/8 13/25/9 19/26/9 
f 19/26/9 20/27/8 14/17/8 
f 15/18/10 14/17/8 20/27/8 
f 20/27/8 21/28/10 15/18/10 
f 16/19/11 15/18/10 21/28/10 
f 21/28/10 22/29/11 16/19/11 
f 17/20/12 16/19/11 22/29/11 
f 22/29/11 23/30/12 17/20/12 
f 18/31/13 17/20/12 23/30/12 
f 23/30/12 24/32/13 18/31/13 
f 20/27/14 19/26/14 2/33/14 
f 2/33/14 1/34/14 20/27/14 
f 21/28/14 20/27/14 1/34/14 
f 1/34/14 5/35/14 21/28/14 
f 22/29/14 21/28/14 5/35/14 
f 5/35/14 7/36/14 22/29/14 
f 23/30/14 22/29/14 7/36/14 
f 7/36/14 9/37/14 23/30/14 
f 24/32/14 23/30/14 9/37/14 
f 9/37/14 11/38/14 24/32/14 
f 25/39/1 26/40/2 27/41/2 
f 27/41/2 28/42/1 25/39/1 
f 29/43/3 25/39/1 28/42/1 
f 28/42/1 30/44/3 29/43/3 
f 31/45/4 29/43/3 30/44/3 
f 30/44/3 32/46/4 31/45/4 
f 33/47/5 31/45/4 32/46/4 
f 32/46/4 34/48/5 33/47/5 
f 35/49/6 33/47/5 34/48/5 
f 34/48/5 36/50/6 35/49/6 
f 28/51/7 27/52/7 37/53/7 
f 37/53/7 38/54/7 28/51/7 
f 30/55/7 28/51/7 38/54/7 
f 38/54/7 39/56/7 30/55/7 
f 32/57/7 30/55/7 39/56/7 
f 39/56/7 40/58/7 32/57/7 
f 34/59/7 32/57/7 40/58/7 
f 40/58/7 41/60/7 34/59/7 
f 36/61/7 34/62/7 41/63/7 
f 41/60/7 42/64/7 36/65/7 
f 38/17/8 37/25/9 13/26/9 
f 13/26/9 14/27/8 38/17/8 
f 39/18/10 38/17/8 14/27/8 
f 14/27/8 15/28/10 39/18/10 
f 40/19/11 39/18/10 15/28/10 
f 15/28/10 16/29/11 40/19/11 
f 41/20/12 40/19/11 16/29/11 
f 16/29/11 17/30/12 41/20/12 
f 42/31/13 41/20/12 17/30/12 
f 17/30/12 18/32/13 42/31/13 
f 14/27/14 13/26/14 26/33/14 
f 26/33/14 25/34/14 14/27/14 
f 15/28/14 14/27/14 25/34/14 
f 25/34/14 29/35/14 15/28/14 
f 16/29/14 15/28/14 29/35/14 
f 29/35/14 31/36/14 16/29/14 
f 17/30/14 16/29/14 31/36/14 
f 31/36/14 33/37/14 17/30/14 
f 18/32/14 17/30/14 33/37/14 
f 33/37/14 35/38/14 18/32/14 
f 43/1/1 44/2/2 45/3/2 
f 45/3/2 46/4/1 43/1/1 
f 47/5/3 43/1/1 46/4/1 
f 46/4/1 48/6/3 47/5/3 
f 49/7/4 47/5/3 48/6/3 
f 48/6/3 50/8/4 49/7/4 
f 51/9/5 49/7/4 50/8/4 
f 50/8/4 52/10/5 51/9/5 
f 53/11/6 51/9/5 52/10/5 
f 52/10/5 54/12/6 53/11/6 
f 46/66/7 45/67/7 55/68/7 
f 55/68/7 56/69/7 46/66/7 
f 48/70/7 46/66/7 56/69/7 
f 56/69/7 57/71/7 48/70/7 
f 50/72/7 48/70/7 57/71/7 
f 57/71/7 58/73/7 50/72/7 
f 52/74/7 50/72/7 58/73/7 
f 58/73/7 59/75/7 52/74/7 
f 54/76/7 52/74/7 59/75/7 
f 59/75/7 60/77/7 54/76/7 
f 56/78/8 55/79/9 61/80/9 
f 61/80/9 62/81/8 56/78/8 
f 57/82/10 56/78/8 62/81/8 
f 62/81/8 63/83/10 57/82/10 
f 58/84/11 57/82/10 63/83/10 
f 63/83/10 64/85/11 58/84/11 
f 59/86/12 58/84/11 64/85/11 
f 64/85/11 65/87/12 59/86/12 
f 60/88/13 59/86/12 65/87/12 
f 65/87/12 66/89/13 60/88/13 
f 62/27/14 61/26/14 44/33/14 
f 44/33/14 43/34/14 62/27/14 
f 63/28/14 62/27/14 43/34/14 
f 43/34/14 47/35/14 63/28/14 
f 64/29/14 63/28/14 47/35/14 
f 47/35/14 49/36/14 64/29/14 
f 65/30/14 64/29/14 49/36/14 
f 49/36/14 51/37/14 65/30/14 
f 66/32/14 65/30/14 51/37/14 
f 51/37/14 53/38/14 66/32/14 
# 120 faces

