# 3ds Max Wavefront OBJ Exporter v0.97b - (c)2007 guruware
# File Created: 27.02.2013 08:10:32

mtllib M-Zig end.mtl

#
# object polySurface8
#

v  1574.1144 -78.7402 945.6581
v  1574.1144 -78.7402 473.2172
v  1574.1144 0.0000 473.2172
v  1574.1144 0.0000 945.6581
v  314.2719 0.0001 473.2172
v  314.2719 0.0001 945.6581
v  314.2719 -78.7401 473.2172
v  314.2719 -78.7401 945.6581
v  314.2719 -78.7401 0.7762
v  314.2719 0.0001 0.7762
v  -315.6494 0.0001 0.7762
v  -315.6494 0.0001 945.6582
v  -315.6494 -78.7401 0.7762
v  -315.6494 -78.7401 945.6582
v  1574.1144 0.0000 906.2880
v  1574.1144 78.7402 906.2880
v  1574.1144 78.7402 945.6581
v  -315.6494 78.7402 906.2881
v  -315.6494 78.7402 945.6582
v  -315.6494 0.0001 906.2881
v  1574.1144 0.0000 512.5872
v  1574.1144 78.7402 473.2172
v  1574.1144 78.7402 512.5872
v  314.2719 78.7402 473.2172
v  314.2719 78.7402 512.5873
v  314.2719 0.0001 512.5873
v  314.2719 78.7402 0.7762
v  274.9017 78.7402 0.7762
v  274.9017 78.7402 512.5873
v  274.9017 0.0001 0.7762
v  274.9017 0.0001 512.5873
v  -276.2793 0.0001 945.6582
v  -276.2793 0.0001 0.7762
v  -276.2793 78.7402 0.7762
v  -276.2793 78.7402 945.6582
v  -315.6494 78.7402 0.7762
# 36 vertices

vn 1.0000 0.0000 -0.0000
vn 0.0000 1.0000 -0.0000
vn -1.0000 0.0000 -0.0000
vn 0.0000 -1.0000 -0.0000
vn 0.0000 0.0000 -1.0000
vn 0.0000 0.0000 1.0000
# 6 vertex normals

vt 0.0005 0.0005 0.9995
vt 0.5000 0.0005 0.9995
vt 0.5000 0.5000 0.9995
vt 0.0005 0.5000 0.9995
vt 1.1577 1.4969 0.5000
vt -1.1610 1.4969 0.5000
vt -1.1610 -1.5947 0.5000
vt 1.1577 -1.5947 0.5000
vt 0.9995 0.5000 0.3335
vt 0.5000 0.5000 0.3335
vt 0.5000 0.0005 0.3335
vt 0.9995 0.0005 0.3335
vt 0.6665 0.0005 0.0005
vt 0.6665 0.5000 0.0005
vt 0.0005 0.5000 0.0005
vt 0.0005 0.0005 0.0005
vt 0.0005 0.0005 0.5000
vt 0.6665 0.0005 0.5000
vt 0.6665 0.5000 0.5000
vt 0.0005 0.5000 0.5000
vt 0.3335 0.0005 0.0005
vt 0.9995 0.0005 0.0005
vt 0.9995 0.5000 0.0005
vt 0.3335 0.5000 0.0005
vt 0.0005 0.0005 0.3335
vt 0.0005 0.5000 0.3335
vt 2.3535 0.1841 0.5000
vt 2.3535 1.1831 0.5000
vt 2.0205 1.1831 0.5000
vt 2.0205 0.1841 0.5000
vt 0.9995 0.9995 0.0005
vt 0.6665 0.9995 0.0005
vt 0.6665 0.0005 0.9995
vt 0.9995 0.0005 0.9995
vt 0.9995 0.5000 0.9995
vt 0.6665 0.5000 0.9995
vt 0.0421 0.5000 0.9995
vt 0.0421 0.9995 0.9995
vt 0.0005 0.9995 0.9995
vt 0.9995 0.0421 0.9995
vt 0.0005 0.0421 0.9995
vt 0.9579 0.9995 0.0005
vt 0.9579 0.5000 0.0005
vt 0.9995 0.0005 0.5000
vt 0.9995 0.0421 0.5000
vt 0.0005 0.0421 0.5000
vt 0.0005 0.5000 0.0421
vt 0.9995 0.5000 0.0421
vt 0.9995 0.9995 0.0421
vt 0.0005 0.9995 0.0421
vt 0.0005 0.9995 0.0005
vt 0.4584 0.5000 0.9995
vt 0.5000 0.9995 0.9995
vt 0.4584 0.9995 0.9995
vt 0.9995 0.4584 0.9995
vt 0.3335 0.5000 0.9995
vt 0.3335 0.4584 0.9995
vt 0.5416 0.9995 0.3335
vt 0.5000 0.9995 0.3335
vt 0.5416 0.5000 0.3335
vt 0.6665 0.4584 0.5000
vt 0.0005 0.4584 0.5000
vt 0.6665 0.9995 0.5000
vt 0.0005 0.9995 0.5000
vt 0.3335 0.5000 0.4584
vt 0.9995 0.5000 0.4584
vt 0.9995 0.9995 0.4584
vt 0.3335 0.9995 0.4584
vt 0.4584 0.5000 0.3335
vt 0.9995 0.9995 0.3335
vt 0.4584 0.9995 0.3335
vt 0.3335 0.9995 0.9995
vt 0.3127 0.9995 0.9995
vt 0.3127 0.4584 0.9995
vt 0.5416 0.9995 0.3127
vt 0.0005 0.9995 0.3127
vt 0.0005 0.5000 0.3127
vt 0.5416 0.5000 0.3127
vt 0.6873 0.4584 0.5000
vt 0.6873 0.9995 0.5000
vt 0.6873 0.5000 0.9995
vt 0.6873 0.9995 0.9995
vt 0.6665 0.9995 0.9995
vt 0.3127 0.5000 0.4584
vt 0.3127 0.9995 0.4584
vt 0.0005 0.5000 0.0213
vt 0.9995 0.5000 0.0213
vt 0.9995 0.9995 0.0213
vt 0.0005 0.9995 0.0213
vt 0.0213 0.0005 0.9995
vt 0.0213 0.9995 0.9995
vt 0.9995 0.9995 0.5000
vt 0.9787 0.9995 0.5000
vt 0.9787 0.0005 0.5000
vt 0.9787 0.5000 0.9995
vt 0.9995 0.9995 0.9995
vt 0.9787 0.9995 0.9995
vt 0.0213 0.5000 0.0005
vt 0.0213 0.9995 0.0005
# 99 texture coords

g polySurface8
usemtl Material__25
s off
f 1/1/1 2/2/1 3/3/1 
f 3/3/1 4/4/1 1/1/1 
f 4/5/2 3/6/2 5/7/2 
f 5/7/2 6/8/2 4/5/2 
f 6/9/3 5/10/3 7/11/3 
f 7/11/3 8/12/3 6/9/3 
f 8/13/4 7/14/4 2/15/4 
f 2/15/4 1/16/4 8/13/4 
f 2/17/5 7/18/5 5/19/5 
f 5/19/5 3/20/5 2/17/5 
f 8/21/6 1/22/6 4/23/6 
f 4/23/6 6/24/6 8/21/6 
f 8/25/1 9/12/1 10/9/1 
f 10/9/1 6/26/1 8/25/1 
f 6/27/2 10/28/2 11/29/2 
f 11/29/2 12/30/2 6/27/2 
f 12/23/3 11/15/3 13/16/3 
f 13/16/3 14/22/3 12/23/3 
f 14/22/4 13/31/4 9/32/4 
f 9/32/4 8/13/4 14/22/4 
f 9/33/5 13/34/5 11/35/5 
f 11/35/5 10/36/5 9/33/5 
f 14/16/6 8/21/6 6/24/6 
f 6/24/6 12/15/6 14/16/6 
f 4/4/1 15/37/1 16/38/1 
f 16/38/1 17/39/1 4/4/1 
f 17/34/2 16/40/2 18/41/2 
f 18/41/2 19/1/2 17/34/2 
f 19/31/3 18/42/3 20/43/3 
f 20/43/3 12/23/3 19/31/3 
f 12/44/4 20/45/4 15/46/4 
f 15/46/4 4/17/4 12/44/4 
f 15/47/5 20/48/5 18/49/5 
f 18/49/5 16/50/5 15/47/5 
f 12/15/6 4/23/6 17/31/6 
f 17/31/6 19/51/6 12/15/6 
f 21/52/1 3/3/1 22/53/1 
f 22/53/1 23/54/1 21/52/1 
f 23/55/2 22/35/2 24/56/2 
f 24/56/2 25/57/2 23/55/2 
f 25/58/3 24/59/3 5/10/3 
f 5/10/3 26/60/3 25/58/3 
f 26/61/4 5/19/4 3/20/4 
f 3/20/4 21/62/4 26/61/4 
f 3/20/5 5/19/5 24/63/5 
f 24/63/5 22/64/5 3/20/5 
f 26/65/6 21/66/6 23/67/6 
f 23/67/6 25/68/6 26/65/6 
f 26/69/1 10/9/1 27/70/1 
f 27/70/1 25/71/1 26/69/1 
f 25/57/2 27/72/2 28/73/2 
f 28/73/2 29/74/2 25/57/2 
f 29/75/3 28/76/3 30/77/3 
f 30/77/3 31/78/3 29/75/3 
f 31/79/4 30/80/4 10/63/4 
f 10/63/4 26/61/4 31/79/4 
f 10/36/5 30/81/5 28/82/5 
f 28/82/5 27/83/5 10/36/5 
f 31/84/6 26/65/6 25/68/6 
f 25/68/6 29/85/6 31/84/6 
f 32/86/1 33/87/1 34/88/1 
f 34/88/1 35/89/1 32/86/1 
f 35/90/2 34/91/2 36/39/2 
f 36/39/2 19/1/2 35/90/2 
f 19/31/3 36/51/3 11/15/3 
f 11/15/3 12/23/3 19/31/3 
f 12/44/4 11/92/4 33/93/4 
f 33/93/4 32/94/4 12/44/4 
f 33/95/5 11/35/5 36/96/5 
f 36/96/5 34/97/5 33/95/5 
f 12/15/6 32/98/6 35/99/6 
f 35/99/6 19/51/6 12/15/6 
# 72 faces

