# 3ds Max Wavefront OBJ Exporter v0.97b - (c)2007 guruware
# File Created: 27.02.2013 08:16:06

mtllib N-Finish.mtl

#
# object polySurface13
#

v  -235.9088 0.0519 0.0822
v  236.5322 0.0519 0.0822
v  236.5322 -78.6882 0.0822
v  -235.9088 -78.6882 0.0822
v  -275.8580 0.2174 1401.4873
v  277.5634 0.3848 1402.2194
v  -275.8579 -78.6881 1401.4873
v  277.3422 -78.6881 1401.7988
v  -235.9088 78.7921 0.0822
v  -196.5387 78.7921 0.0822
v  -196.5387 0.0519 0.0822
v  -275.8580 80.1193 1401.4872
v  -252.9366 80.1193 1433.5729
v  -252.9366 0.3827 1433.5729
v  197.1621 78.7921 0.0822
v  236.5322 78.7921 0.0822
v  197.1621 0.0519 0.0822
v  252.6397 79.4126 1435.3544
v  277.3423 78.3630 1401.7988
v  252.6397 1.4321 1435.3544
v  -381.9011 0.0520 2062.9670
v  -449.0065 0.0520 1931.2654
v  -449.0065 -78.6881 1931.2654
v  -381.9011 -78.6881 2062.9670
v  -277.3821 0.0520 2167.4861
v  -277.3821 -78.6881 2167.4861
v  -145.6805 0.0520 2234.5913
v  -145.6805 -78.6881 2234.5913
v  0.3119 0.0520 2257.7141
v  0.3119 -78.6881 2257.7141
v  146.3042 0.0520 2234.5913
v  146.3042 -78.6881 2234.5913
v  278.0058 0.0520 2167.4861
v  278.0058 -78.6881 2167.4861
v  382.5247 0.0520 2062.9670
v  382.5247 -78.6881 2062.9670
v  449.6300 0.0520 1931.2654
v  449.6300 -78.6881 1931.2654
v  472.7529 0.0520 1785.2731
v  472.7529 -78.6881 1785.2731
v  449.6300 0.0520 1639.2806
v  449.6300 -78.6881 1639.2806
v  382.5246 0.0520 1507.5791
v  382.5246 -78.6881 1507.5791
v  1.5799 -78.6881 1401.1970
v  1.5799 0.0520 1401.1970
v  -381.9010 -78.6881 1507.5791
v  -381.9010 0.0520 1507.5791
v  -449.0062 0.0520 1639.2809
v  -449.0062 -78.6881 1639.2809
v  -472.1291 0.0520 1785.2731
v  -472.1291 -78.6881 1785.2731
v  0.3118 -78.6881 1785.2731
v  0.3118 0.0520 1785.2731
v  -432.7590 59.1071 1785.2731
v  -411.5631 59.1071 1919.0994
v  -411.5631 19.7371 1919.0994
v  -432.7590 19.7371 1785.2731
v  -350.0499 59.1072 2039.8257
v  -350.0499 19.7371 2039.8257
v  -254.2409 59.1072 2135.6348
v  -254.2409 19.7371 2135.6348
v  -133.5144 59.1072 2197.1479
v  -133.5144 19.7371 2197.1479
v  0.3119 59.1072 2218.3440
v  0.3119 19.7371 2218.3440
v  134.1382 59.1072 2197.1479
v  134.1382 19.7371 2197.1479
v  254.8646 59.1072 2135.6348
v  254.8646 19.7371 2135.6348
v  350.6736 59.1072 2039.8258
v  350.6736 19.7371 2039.8258
v  412.1868 59.1071 1919.0994
v  412.1868 19.7371 1919.0994
v  433.3828 59.1071 1785.2731
v  433.3828 19.7371 1785.2731
v  412.1868 59.1071 1651.4467
v  412.1868 19.7371 1651.4467
v  350.6736 59.1071 1530.7202
v  350.6736 19.7371 1530.7202
v  -350.0500 19.7371 1530.7202
v  -350.0500 59.1071 1530.7202
v  -411.5632 59.1071 1651.4467
v  -411.5632 19.7371 1651.4467
v  -472.1291 59.1071 1785.2731
v  -449.0062 59.1071 1931.2653
v  -381.9009 59.1072 2062.9670
v  -277.3820 59.1072 2167.4858
v  -145.6805 59.1072 2234.5911
v  0.3118 59.1072 2257.7141
v  146.3042 59.1072 2234.5913
v  278.0057 59.1072 2167.4858
v  382.5247 59.1072 2062.9670
v  449.6300 59.1071 1931.2654
v  472.7529 59.1071 1785.2731
v  449.6300 59.1071 1639.2809
v  382.5247 59.1071 1507.5791
v  -381.9011 59.1071 1507.5791
v  -449.0064 59.1071 1639.2806
v  -472.1291 19.7371 1785.2731
v  -449.0062 19.7371 1931.2653
v  -381.9009 19.7371 2062.9670
v  -277.3820 19.7371 2167.4858
v  -145.6805 19.7371 2234.5911
v  0.3118 19.7371 2257.7141
v  146.3042 19.7371 2234.5913
v  278.0057 19.7371 2167.4858
v  382.5247 19.7371 2062.9670
v  449.6300 19.7371 1931.2654
v  472.7529 19.7371 1785.2731
v  449.6300 19.7371 1639.2809
v  382.5247 19.7371 1507.5791
v  -381.9011 19.7371 1507.5791
v  -449.0064 19.7371 1639.2806
# 114 vertices

vn 0.0000 0.0000 -1.0000
vn -0.0002 1.0000 -0.0002
vn 0.0000 1.0000 -0.0000
vn -0.0009 -0.0027 1.0000
vn 0.0000 -1.0000 -0.0000
vn -0.9996 0.0000 -0.0285
vn -1.0000 0.0000 -0.0000
vn 1.0000 0.0000 -0.0000
vn 0.9996 -0.0013 -0.0292
vn 0.0005 1.0000 -0.0009
vn -0.8137 0.0000 0.5813
vn 0.0025 -1.0000 0.0003
vn 0.9992 0.0000 0.0393
vn 0.0161 0.9999 -0.0006
vn 0.8023 0.0027 0.5969
vn -0.0157 -0.9999 0.0011
vn -0.9993 0.0000 0.0386
vn 0.9996 0.0013 -0.0292
vn -0.8090 0.0000 0.5878
vn -0.9511 0.0000 0.3090
vn -0.5878 0.0000 0.8090
vn -0.3090 0.0000 0.9511
vn 0.0000 0.0000 1.0000
vn 0.3090 0.0000 0.9511
vn 0.5878 0.0000 0.8090
vn 0.8090 0.0000 0.5878
vn 0.9511 0.0000 0.3090
vn 0.9511 0.0000 -0.3090
vn 0.8090 0.0000 -0.5878
vn 0.7091 0.0018 -0.7051
vn 0.7084 0.0000 -0.7058
vn 0.0022 0.0000 -1.0000
vn 0.0037 0.0053 -1.0000
vn -0.0010 0.0000 -1.0000
vn -0.7073 0.0000 -0.7069
vn -0.8090 0.0000 -0.5878
vn -0.9511 0.0000 -0.3090
vn 0.0013 1.0000 0.0018
vn -0.0012 1.0000 -0.0000
vn 0.0006 1.0000 -0.0000
vn -0.0007 1.0000 0.0009
vn 0.5878 0.0000 -0.8090
vn 0.3090 0.0000 -0.9511
vn -0.3090 0.0000 -0.9511
vn -0.5878 0.0000 -0.8090
vn -0.6973 0.0000 0.7168
vn 0.7072 0.0000 0.7070
vn 0.0876 0.9888 0.1205
vn 0.1221 0.9908 0.0589
vn -0.1247 0.9882 0.0891
vn -0.0825 0.9901 0.1136
vn 0.7091 0.0000 -0.7051
vn 0.7086 -0.0018 -0.7056
vn 0.0768 -0.9914 0.1056
vn 0.0893 -0.9911 0.0985
vn -0.1035 -0.9915 0.0790
vn -0.0830 -0.9900 0.1143
# 57 vertex normals

vt 0.7498 0.4958 0.9995
vt 0.2502 0.4958 0.9995
vt 0.2502 0.0005 0.9995
vt 0.7498 0.0005 0.9995
vt -0.1629 -0.7943 0.4969
vt 2.1795 -0.7874 0.4979
vt 2.1856 2.1252 0.4958
vt -0.1660 2.1252 0.4958
vt 0.2080 0.0005 0.3794
vt 0.7929 0.0005 0.3792
vt 0.7931 0.4979 0.3791
vt 0.2080 0.4969 0.3794
vt 0.7498 0.9995 0.0005
vt 0.2502 0.9995 0.0005
vt 0.2071 0.3792 0.0005
vt 0.7920 0.3794 0.0005
vt 0.6206 0.4969 0.2080
vt 0.0005 0.4958 0.2502
vt 0.0005 0.0005 0.2502
vt 0.6206 0.0005 0.2080
vt 0.9995 0.4958 0.7498
vt 0.3791 0.4979 0.7931
vt 0.3792 0.0005 0.7929
vt 0.9995 0.0005 0.7498
vt 0.7498 0.9912 0.9995
vt 0.7081 0.9912 0.9995
vt 0.7081 0.4958 0.9995
vt 0.2080 0.3794 0.9995
vt 0.2322 0.3652 0.9995
vt 0.2919 0.9995 0.9912
vt 0.2502 0.9995 0.9912
vt 0.6348 0.4979 0.2322
vt 0.6348 0.9995 0.2322
vt 0.6206 0.9995 0.2080
vt 0.7498 0.9995 0.4958
vt 0.7081 0.9995 0.4958
vt 0.7678 0.3652 0.4979
vt 0.7920 0.3794 0.4969
vt 0.0005 0.9912 0.2502
vt 0.9995 0.9912 0.2919
vt 0.3652 0.9995 0.2322
vt 0.3652 0.4979 0.2322
vt 0.9995 0.4958 0.2919
vt 0.2919 0.9912 0.9995
vt 0.2502 0.9912 0.9995
vt 0.2919 0.4958 0.9995
vt 0.7668 0.3644 0.9951
vt 0.7929 0.3792 0.9885
vt 0.7498 0.9995 0.9912
vt 0.7081 0.9995 0.9912
vt 0.3644 0.5045 0.7668
vt 0.3792 0.9885 0.7929
vt 0.3644 0.9951 0.7668
vt 0.2919 0.9995 0.4958
vt 0.2502 0.9995 0.4958
vt 0.2069 0.3791 0.4979
vt 0.2332 0.3644 0.5045
vt 0.6356 0.9951 0.7668
vt 0.0005 0.9912 0.7081
vt 0.0005 0.4958 0.7081
vt 0.6356 0.5045 0.7668
vt 0.9995 0.9912 0.7498
vt 0.9133 0.4958 0.0959
vt 0.8550 0.4958 0.0249
vt 0.8550 0.0005 0.0249
vt 0.9133 0.0005 0.0959
vt 0.9596 0.4958 0.2064
vt 0.9596 0.0005 0.2064
vt 0.9893 0.4958 0.3456
vt 0.9893 0.0005 0.3456
vt 0.5000 0.4958 0.0005
vt 0.3456 0.4958 0.0107
vt 0.3456 0.0005 0.0107
vt 0.5000 0.0005 0.0005
vt 0.6544 0.4958 0.0107
vt 0.6544 0.0005 0.0107
vt 0.0404 0.4958 0.7936
vt 0.0107 0.4958 0.6544
vt 0.0107 0.0005 0.6544
vt 0.0404 0.0005 0.7936
vt 0.0867 0.4958 0.9041
vt 0.0867 0.0005 0.9041
vt 0.1450 0.4958 0.9751
vt 0.1450 0.0005 0.9751
vt 0.2096 0.4958 0.9995
vt 0.2096 0.0005 0.9995
vt 0.2742 0.4958 0.9751
vt 0.2742 0.0005 0.9751
vt 0.3324 0.4958 0.9041
vt 0.3324 0.0005 0.9041
vt 0.2071 0.0005 0.3792
vt 0.4987 0.0005 0.3795
vt 0.4987 0.4958 0.3795
vt 0.2069 0.4979 0.3791
vt 0.7920 0.0005 0.3794
vt 0.7920 0.4969 0.3794
vt 0.6676 0.0005 0.0959
vt 0.6676 0.4958 0.0959
vt 0.7258 0.4958 0.0249
vt 0.7258 0.0005 0.0249
vt 0.7904 0.4958 0.0005
vt 0.7904 0.0005 0.0005
vt 0.9041 0.0867 0.0005
vt 0.9751 0.1450 0.0005
vt 0.5000 0.2096 0.0005
vt 0.7936 0.0404 0.0005
vt 0.6544 0.0107 0.0005
vt 0.3456 0.0107 0.0005
vt 0.2064 0.0404 0.0005
vt 0.0959 0.0867 0.0005
vt 0.0249 0.1450 0.0005
vt 0.0005 0.2096 0.0005
vt 0.0249 0.2742 0.0005
vt 0.0959 0.3324 0.0005
vt 0.4987 0.3795 0.0005
vt 0.9041 0.3324 0.0005
vt 0.9751 0.2742 0.0005
vt 0.9995 0.2096 0.0005
vt 0.1931 1.5236 0.4958
vt 0.2378 1.4869 0.4958
vt 0.4923 1.5643 0.4958
vt 0.3074 1.4577 0.4958
vt 0.3951 1.4390 0.4958
vt 0.4923 1.4326 0.4958
vt 0.5896 1.4390 0.4958
vt 0.6773 1.4577 0.4958
vt 0.7469 1.4869 0.4958
vt 0.7916 1.5236 0.4958
vt 0.8070 1.5643 0.4958
vt 0.7916 1.6050 0.4958
vt 0.7469 1.6417 0.4958
vt 0.6770 1.6711 0.4979
vt 3.1767 0.1884 0.4979
vt 2.0110 0.1902 0.4958
vt 2.0056 -0.4888 0.4958
vt 0.8391 0.1897 0.4969
vt 0.3084 1.6713 0.4969
vt 0.2378 1.6417 0.4958
vt 0.1931 1.6050 0.4958
vt 0.1777 1.5643 0.4958
vt 0.2096 0.8673 0.0421
vt 0.1503 0.8673 0.0645
vt 0.1503 0.6197 0.0645
vt 0.2096 0.6197 0.0421
vt 0.0969 0.8673 0.1296
vt 0.0969 0.6197 0.1296
vt 0.0545 0.8673 0.2309
vt 0.0545 0.6197 0.2309
vt 0.0273 0.8673 0.3585
vt 0.0273 0.6197 0.3585
vt 0.6415 0.8673 0.0273
vt 0.5000 0.8673 0.0179
vt 0.5000 0.6197 0.0179
vt 0.6415 0.6197 0.0273
vt 0.3585 0.8673 0.0273
vt 0.3585 0.6197 0.0273
vt 0.9727 0.8673 0.6415
vt 0.9455 0.8673 0.7691
vt 0.9455 0.6197 0.7691
vt 0.9727 0.6197 0.6415
vt 0.9031 0.8673 0.8704
vt 0.9031 0.6197 0.8704
vt 0.8497 0.8673 0.9355
vt 0.8497 0.6197 0.9355
vt 0.7904 0.8673 0.9579
vt 0.7904 0.6197 0.9579
vt 0.7312 0.8673 0.9355
vt 0.7312 0.6197 0.9355
vt 0.6778 0.8673 0.8704
vt 0.6778 0.6197 0.8704
vt 0.3222 0.6197 0.1296
vt 0.3222 0.8673 0.1296
vt 0.2688 0.8673 0.0645
vt 0.2688 0.6197 0.0645
vt 0.0005 0.2096 0.8673
vt 0.0249 0.1450 0.8673
vt 0.0645 0.1503 0.8673
vt 0.0421 0.2096 0.8673
vt 0.0959 0.0867 0.8673
vt 0.1296 0.0969 0.8673
vt 0.2064 0.0404 0.8673
vt 0.2309 0.0545 0.8673
vt 0.3456 0.0107 0.8673
vt 0.3585 0.0273 0.8673
vt 0.5000 0.0005 0.8673
vt 0.5000 0.0179 0.8673
vt 0.6544 0.0107 0.8673
vt 0.6415 0.0273 0.8673
vt 0.7936 0.0404 0.8673
vt 0.7691 0.0545 0.8673
vt 0.9041 0.0867 0.8673
vt 0.8704 0.0969 0.8673
vt 0.9751 0.1450 0.8673
vt 0.9355 0.1503 0.8673
vt 0.9995 0.2096 0.8673
vt 0.9579 0.2096 0.8673
vt 0.9751 0.2742 0.8673
vt 0.9355 0.2688 0.8673
vt 0.9041 0.3324 0.8673
vt 0.8704 0.3222 0.8673
vt 0.1296 0.3222 0.8673
vt 0.0959 0.3324 0.8673
vt 0.0249 0.2742 0.8673
vt 0.0645 0.2688 0.8673
vt 0.7904 0.6197 0.0005
vt 0.8550 0.6197 0.0249
vt 0.8550 0.8673 0.0249
vt 0.7904 0.8673 0.0005
vt 0.9133 0.6197 0.0959
vt 0.9133 0.8673 0.0959
vt 0.9596 0.6197 0.2064
vt 0.9596 0.8673 0.2064
vt 0.9893 0.6197 0.3456
vt 0.9893 0.8673 0.3456
vt 0.3456 0.6197 0.0107
vt 0.5000 0.6197 0.0005
vt 0.5000 0.8673 0.0005
vt 0.3456 0.8673 0.0107
vt 0.6544 0.6197 0.0107
vt 0.6544 0.8673 0.0107
vt 0.0107 0.6197 0.6544
vt 0.0404 0.6197 0.7936
vt 0.0404 0.8673 0.7936
vt 0.0107 0.8673 0.6544
vt 0.0867 0.6197 0.9041
vt 0.0867 0.8673 0.9041
vt 0.1450 0.6197 0.9751
vt 0.1450 0.8673 0.9751
vt 0.2096 0.6197 0.9995
vt 0.2096 0.8673 0.9995
vt 0.2742 0.6197 0.9751
vt 0.2742 0.8673 0.9751
vt 0.3324 0.6197 0.9041
vt 0.3324 0.8673 0.9041
vt 0.6676 0.8673 0.0959
vt 0.6676 0.6197 0.0959
vt 0.7258 0.6197 0.0249
vt 0.7258 0.8673 0.0249
vt 0.9579 0.2096 0.6197
vt 0.9355 0.1503 0.6197
vt 0.9751 0.1450 0.6197
vt 0.9995 0.2096 0.6197
vt 0.8704 0.0969 0.6197
vt 0.9041 0.0867 0.6197
vt 0.7691 0.0545 0.6197
vt 0.7936 0.0404 0.6197
vt 0.6415 0.0273 0.6197
vt 0.6544 0.0107 0.6197
vt 0.5000 0.0179 0.6197
vt 0.5000 0.0005 0.6197
vt 0.3585 0.0273 0.6197
vt 0.3456 0.0107 0.6197
vt 0.2309 0.0545 0.6197
vt 0.2064 0.0404 0.6197
vt 0.1296 0.0969 0.6197
vt 0.0959 0.0867 0.6197
vt 0.0645 0.1503 0.6197
vt 0.0249 0.1450 0.6197
vt 0.0421 0.2096 0.6197
vt 0.0005 0.2096 0.6197
vt 0.0645 0.2688 0.6197
vt 0.0249 0.2742 0.6197
vt 0.1296 0.3222 0.6197
vt 0.0959 0.3324 0.6197
vt 0.9041 0.3324 0.6197
vt 0.8704 0.3222 0.6197
vt 0.9355 0.2688 0.6197
vt 0.9751 0.2742 0.6197
# 268 texture coords

g polySurface13
usemtl Material__25
s off
f 1/1/1 2/2/1 3/3/1 
f 3/3/1 4/4/1 1/1/1 
f 5/5/2 6/6/2 2/7/3 
f 2/7/3 1/8/3 5/5/2 
f 7/9/4 8/10/4 6/11/4 
f 6/11/4 5/12/4 7/9/4 
f 4/13/5 3/14/5 8/15/5 
f 8/15/5 7/16/5 4/13/5 
f 5/17/6 1/18/7 4/19/7 
f 4/19/7 7/20/6 5/17/6 
f 2/21/8 6/22/9 8/23/9 
f 8/23/9 3/24/8 2/21/8 
f 9/25/1 10/26/1 11/27/1 
f 11/27/1 1/1/1 9/25/1 
f 12/28/10 13/29/10 10/30/3 
f 10/30/3 9/31/3 12/28/10 
f 5/17/11 14/32/11 13/33/11 
f 13/33/11 12/34/11 5/17/11 
f 1/35/5 11/36/5 14/37/12 
f 14/37/12 5/38/12 1/35/5 
f 12/34/6 9/39/7 1/18/7 
f 1/18/7 5/17/6 12/34/6 
f 10/40/8 13/41/13 14/42/13 
f 14/42/13 11/43/8 10/40/8 
f 15/44/1 16/45/1 2/2/1 
f 2/2/1 17/46/1 15/44/1 
f 18/47/14 19/48/14 16/49/3 
f 16/49/3 15/50/3 18/47/14 
f 20/51/15 6/22/15 19/52/15 
f 19/52/15 18/53/15 20/51/15 
f 17/54/5 2/55/5 6/56/16 
f 6/56/16 20/57/16 17/54/5 
f 18/58/17 15/59/7 17/60/7 
f 17/60/7 20/61/17 18/58/17 
f 16/62/8 19/52/18 6/22/18 
f 6/22/18 2/21/8 16/62/8 
f 21/63/19 22/64/20 23/65/20 
f 23/65/20 24/66/19 21/63/19 
f 25/67/21 21/63/19 24/66/19 
f 24/66/19 26/68/21 25/67/21 
f 27/69/22 25/67/21 26/68/21 
f 26/68/21 28/70/22 27/69/22 
f 29/71/23 27/72/22 28/73/22 
f 28/73/22 30/74/23 29/71/23 
f 31/75/24 29/71/23 30/74/23 
f 30/74/23 32/76/24 31/75/24 
f 33/77/25 31/78/24 32/79/24 
f 32/79/24 34/80/25 33/77/25 
f 35/81/26 33/77/25 34/80/25 
f 34/80/25 36/82/26 35/81/26 
f 37/83/27 35/81/26 36/82/26 
f 36/82/26 38/84/27 37/83/27 
f 39/85/8 37/83/27 38/84/27 
f 38/84/27 40/86/8 39/85/8 
f 41/87/28 39/85/8 40/86/8 
f 40/86/8 42/88/28 41/87/28 
f 43/89/29 41/87/28 42/88/28 
f 42/88/28 44/90/29 43/89/29 
f 44/90/29 8/23/30 6/22/30 
f 6/22/31 43/89/29 44/90/29 
f 8/91/32 45/92/32 46/93/32 
f 46/93/33 6/94/33 8/91/33 
f 45/92/34 7/95/34 5/96/34 
f 5/96/34 46/93/34 45/92/34 
f 7/20/35 47/97/36 48/98/36 
f 48/98/36 5/17/35 7/20/35 
f 49/99/37 48/98/36 47/97/36 
f 47/97/36 50/100/37 49/99/37 
f 51/101/7 49/99/37 50/100/37 
f 50/100/37 52/102/7 51/101/7 
f 22/64/20 51/101/7 52/102/7 
f 52/102/7 23/65/20 22/64/20 
f 24/103/5 23/104/5 53/105/5 
f 26/106/5 24/103/5 53/105/5 
f 28/107/5 26/106/5 53/105/5 
f 30/74/5 28/107/5 53/105/5 
f 32/108/5 30/74/5 53/105/5 
f 34/109/5 32/108/5 53/105/5 
f 36/110/5 34/109/5 53/105/5 
f 38/111/5 36/110/5 53/105/5 
f 40/112/5 38/111/5 53/105/5 
f 42/113/5 40/112/5 53/105/5 
f 44/114/5 42/113/5 53/105/5 
f 8/15/5 44/114/5 53/105/5 
f 45/115/5 8/15/5 53/105/5 
f 7/16/5 45/115/5 53/105/5 
f 47/116/5 7/16/5 53/105/5 
f 50/117/5 47/116/5 53/105/5 
f 52/118/5 50/117/5 53/105/5 
f 23/104/5 52/118/5 53/105/5 
f 22/119/3 21/120/3 54/121/3 
f 21/120/3 25/122/3 54/121/3 
f 25/122/3 27/123/3 54/121/3 
f 27/123/3 29/124/3 54/121/3 
f 29/124/3 31/125/3 54/121/3 
f 31/125/3 33/126/3 54/121/3 
f 33/126/3 35/127/3 54/121/3 
f 35/127/3 37/128/3 54/121/3 
f 37/128/3 39/129/3 54/121/3 
f 39/129/3 41/130/3 54/121/3 
f 41/130/3 43/131/3 54/121/3 
f 43/131/3 6/132/38 54/121/3 
f 6/133/39 46/134/39 54/135/3 
f 46/134/40 5/136/40 54/135/3 
f 5/137/41 48/138/3 54/121/3 
f 48/138/3 49/139/3 54/121/3 
f 49/139/3 51/140/3 54/121/3 
f 51/140/3 22/119/3 54/121/3 
f 55/141/8 56/142/28 57/143/28 
f 57/143/28 58/144/8 55/141/8 
f 56/142/28 59/145/29 60/146/29 
f 60/146/29 57/143/28 56/142/28 
f 59/145/29 61/147/42 62/148/42 
f 62/148/42 60/146/29 59/145/29 
f 61/147/42 63/149/43 64/150/43 
f 64/150/43 62/148/42 61/147/42 
f 63/151/43 65/152/1 66/153/1 
f 66/153/1 64/154/43 63/151/43 
f 65/152/1 67/155/44 68/156/44 
f 68/156/44 66/153/1 65/152/1 
f 67/157/44 69/158/45 70/159/45 
f 70/159/45 68/160/44 67/157/44 
f 69/158/45 71/161/36 72/162/36 
f 72/162/36 70/159/45 69/158/45 
f 71/161/36 73/163/37 74/164/37 
f 74/164/37 72/162/36 71/161/36 
f 73/163/37 75/165/7 76/166/7 
f 76/166/7 74/164/37 73/163/37 
f 75/165/7 77/167/20 78/168/20 
f 78/168/20 76/166/7 75/165/7 
f 77/167/20 79/169/19 80/170/19 
f 80/170/19 78/168/20 77/167/20 
f 20/61/46 80/170/19 79/169/19 
f 79/169/19 18/58/46 20/61/46 
f 81/171/26 14/42/47 13/41/47 
f 13/41/47 82/172/26 81/171/26 
f 82/172/26 83/173/27 84/174/27 
f 84/174/27 81/171/26 82/172/26 
f 83/173/27 55/141/8 58/144/8 
f 58/144/8 84/174/27 83/173/27 
f 85/175/3 86/176/3 56/177/3 
f 56/177/3 55/178/3 85/175/3 
f 86/176/3 87/179/3 59/180/3 
f 59/180/3 56/177/3 86/176/3 
f 87/179/3 88/181/3 61/182/3 
f 61/182/3 59/180/3 87/179/3 
f 88/181/3 89/183/3 63/184/3 
f 63/184/3 61/182/3 88/181/3 
f 89/183/3 90/185/3 65/186/3 
f 65/186/3 63/184/3 89/183/3 
f 90/185/3 91/187/3 67/188/3 
f 67/188/3 65/186/3 90/185/3 
f 91/187/3 92/189/3 69/190/3 
f 69/190/3 67/188/3 91/187/3 
f 92/189/3 93/191/3 71/192/3 
f 71/192/3 69/190/3 92/189/3 
f 93/191/3 94/193/3 73/194/3 
f 73/194/3 71/192/3 93/191/3 
f 94/193/3 95/195/3 75/196/3 
f 75/196/3 73/194/3 94/193/3 
f 95/195/3 96/197/3 77/198/3 
f 77/198/3 75/196/3 95/195/3 
f 96/197/3 97/199/3 79/200/3 
f 79/200/3 77/198/3 96/197/3 
f 18/47/48 79/200/3 97/199/3 
f 97/199/3 19/48/49 18/47/49 
f 82/201/3 13/29/50 12/28/50 
f 12/28/51 98/202/3 82/201/3 
f 98/202/3 99/203/3 83/204/3 
f 83/204/3 82/201/3 98/202/3 
f 99/203/3 85/175/3 55/178/3 
f 55/178/3 83/204/3 99/203/3 
f 100/205/7 101/206/20 86/207/20 
f 86/207/20 85/208/7 100/205/7 
f 101/206/20 102/209/19 87/210/19 
f 87/210/19 86/207/20 101/206/20 
f 102/209/19 103/211/21 88/212/21 
f 88/212/21 87/210/19 102/209/19 
f 103/211/21 104/213/22 89/214/22 
f 89/214/22 88/212/21 103/211/21 
f 104/215/22 105/216/23 90/217/23 
f 90/217/23 89/218/22 104/215/22 
f 105/216/23 106/219/24 91/220/24 
f 91/220/24 90/217/23 105/216/23 
f 106/221/24 107/222/25 92/223/25 
f 92/223/25 91/224/24 106/221/24 
f 107/222/25 108/225/26 93/226/26 
f 93/226/26 92/223/25 107/222/25 
f 108/225/26 109/227/27 94/228/27 
f 94/228/27 93/226/26 108/225/26 
f 109/227/27 110/229/8 95/230/8 
f 95/230/8 94/228/27 109/227/27 
f 110/229/8 111/231/28 96/232/28 
f 96/232/28 95/230/8 110/229/8 
f 111/231/28 112/233/29 97/234/29 
f 97/234/29 96/232/28 111/231/28 
f 19/52/52 97/234/29 112/233/29 
f 112/233/29 6/22/53 19/52/53 
f 98/235/36 12/34/35 5/17/35 
f 5/17/35 113/236/36 98/235/36 
f 113/236/36 114/237/37 99/238/37 
f 99/238/37 98/235/36 113/236/36 
f 114/237/37 100/205/7 85/208/7 
f 85/208/7 99/238/37 114/237/37 
f 58/239/5 57/240/5 101/241/5 
f 101/241/5 100/242/5 58/239/5 
f 57/240/5 60/243/5 102/244/5 
f 102/244/5 101/241/5 57/240/5 
f 60/243/5 62/245/5 103/246/5 
f 103/246/5 102/244/5 60/243/5 
f 62/245/5 64/247/5 104/248/5 
f 104/248/5 103/246/5 62/245/5 
f 64/247/5 66/249/5 105/250/5 
f 105/250/5 104/248/5 64/247/5 
f 66/249/5 68/251/5 106/252/5 
f 106/252/5 105/250/5 66/249/5 
f 68/251/5 70/253/5 107/254/5 
f 107/254/5 106/252/5 68/251/5 
f 70/253/5 72/255/5 108/256/5 
f 108/256/5 107/254/5 70/253/5 
f 72/255/5 74/257/5 109/258/5 
f 109/258/5 108/256/5 72/255/5 
f 74/257/5 76/259/5 110/260/5 
f 110/260/5 109/258/5 74/257/5 
f 76/259/5 78/261/5 111/262/5 
f 111/262/5 110/260/5 76/259/5 
f 78/261/5 80/263/5 112/264/5 
f 112/264/5 111/262/5 78/261/5 
f 6/56/54 112/264/5 80/263/5 
f 80/263/5 20/57/55 6/56/55 
f 113/265/5 5/38/56 14/37/56 
f 14/37/57 81/266/5 113/265/5 
f 81/266/5 84/267/5 114/268/5 
f 114/268/5 113/265/5 81/266/5 
f 84/267/5 58/239/5 100/242/5 
f 100/242/5 114/268/5 84/267/5 
# 236 faces

