# This file uses centimeters as units for non-parametric coordinates.

mtllib E - Sharp R.mtl
g default
v 210.000000 -70.000000 4.199996
v -210.000000 -70.000000 4.199996
v 210.000000 0.000000 4.199996
v -210.000000 0.000000 4.199996
v 210.000000 0.000000 835.800064
v -210.000000 0.000000 835.800064
v 210.000000 -70.000000 835.800064
v -210.000000 -70.000000 835.800064
v -175.000000 0.000000 2.192507
v -210.000000 0.000000 2.192507
v -175.000000 70.000000 2.192507
v -210.000000 70.000000 2.192507
v -175.000000 70.000000 450.671570
v -210.000000 70.000000 450.671570
v -175.000000 0.000000 450.671570
v -210.000000 0.000000 450.671570
v 210.000000 0.000000 4.199996
v 175.000000 0.000000 4.199996
v 210.000000 70.000000 4.199996
v 175.000000 70.000000 4.199996
v 210.000000 70.000000 835.800064
v 175.000000 70.000000 835.800064
v 210.000000 0.000000 835.800064
v 175.000000 0.000000 835.800064
v -631.939697 0.000000 805.000000
v -631.939697 0.000000 840.000000
v -631.939697 70.000000 805.000000
v -631.939697 70.000000 840.000000
v 214.370567 70.000000 805.000000
v 214.370567 70.000000 840.000000
v 214.370567 0.000000 805.000000
v 214.370567 0.000000 840.000000
v -630.721939 0.000000 420.000000
v -630.721939 0.000000 455.000000
v -630.721939 70.000000 420.000000
v -630.721939 70.000000 455.000000
v -179.553976 70.000000 420.000000
v -179.553976 70.000000 455.000000
v -179.553976 0.000000 420.000000
v -179.553976 0.000000 455.000000
v -210.000000 -70.000000 420.000000
v -630.000000 -70.000000 420.000000
v -210.000000 0.000000 420.000000
v -630.000000 0.000000 420.000000
v -210.000000 0.000000 840.000000
v -630.000000 0.000000 840.000000
v -210.000000 -70.000000 840.000000
v -630.000000 -70.000000 840.000000
vt 0.375000 0.000000
vt 0.625000 0.000000
vt 0.375000 0.250000
vt 0.625000 0.250000
vt 0.375000 0.500000
vt 0.625000 0.500000
vt 0.375000 0.750000
vt 0.625000 0.750000
vt 0.375000 1.000000
vt 0.625000 1.000000
vt 0.875000 0.000000
vt 0.875000 0.250000
vt 0.125000 0.000000
vt 0.125000 0.250000
vt 0.375000 0.000000
vt 0.625000 0.000000
vt 0.375000 0.250000
vt 0.625000 0.250000
vt 0.375000 0.375649
vt 0.625000 0.375649
vt 0.750649 0.000000
vt 0.750649 0.250000
vt 0.375000 0.874351
vt 0.625000 0.874351
vt 0.375000 1.000000
vt 0.625000 1.000000
vt 0.249351 0.250000
vt 0.249351 0.000000
vt 0.375000 0.000000
vt 0.625000 0.000000
vt 0.375000 0.250000
vt 0.625000 0.250000
vt 0.375000 0.500000
vt 0.625000 0.500000
vt 0.375000 0.750000
vt 0.625000 0.750000
vt 0.375000 1.000000
vt 0.625000 1.000000
vt 0.875000 0.000000
vt 0.875000 0.250000
vt 0.125000 0.000000
vt 0.125000 0.250000
vt 0.375000 0.000000
vt 0.625000 0.000000
vt 0.375000 0.250000
vt 0.625000 0.250000
vt 0.375000 0.375649
vt 0.625000 0.375649
vt 0.750649 0.000000
vt 0.750649 0.250000
vt 0.375000 0.874351
vt 0.625000 0.874351
vt 0.375000 1.000000
vt 0.625000 1.000000
vt 0.249351 0.250000
vt 0.249351 0.000000
vt 0.375000 0.000000
vt 0.625000 0.000000
vt 0.375000 0.250000
vt 0.625000 0.250000
vt 0.375000 0.375649
vt 0.625000 0.375649
vt 0.750649 0.000000
vt 0.750649 0.250000
vt 0.375000 0.874351
vt 0.625000 0.874351
vt 0.375000 1.000000
vt 0.625000 1.000000
vt 0.249351 0.250000
vt 0.249351 0.000000
vt 0.375000 0.000000
vt 0.625000 0.000000
vt 0.375000 0.250000
vt 0.625000 0.250000
vt 0.375000 0.500000
vt 0.625000 0.500000
vt 0.375000 0.750000
vt 0.625000 0.750000
vt 0.375000 1.000000
vt 0.625000 1.000000
vt 0.875000 0.000000
vt 0.875000 0.250000
vt 0.125000 0.000000
vt 0.125000 0.250000
vn 0.000000 0.000000 -1.000000
vn 0.000000 0.000000 -1.000000
vn 0.000000 0.000000 -1.000000
vn 0.000000 0.000000 -1.000000
vn 0.000000 1.000000 -0.000000
vn 0.000000 1.000000 -0.000000
vn 0.000000 1.000000 -0.000000
vn 0.000000 1.000000 -0.000000
vn -0.000000 0.000000 1.000000
vn -0.000000 0.000000 1.000000
vn -0.000000 0.000000 1.000000
vn -0.000000 0.000000 1.000000
vn 0.000000 -1.000000 0.000000
vn 0.000000 -1.000000 0.000000
vn 0.000000 -1.000000 0.000000
vn 0.000000 -1.000000 0.000000
vn -1.000000 0.000000 -0.000000
vn -1.000000 0.000000 -0.000000
vn -1.000000 0.000000 -0.000000
vn -1.000000 0.000000 -0.000000
vn 1.000000 0.000000 0.000000
vn 1.000000 0.000000 0.000000
vn 1.000000 0.000000 0.000000
vn 1.000000 0.000000 0.000000
vn 0.000000 0.000000 -1.000000
vn 0.000000 0.000000 -1.000000
vn 0.000000 0.000000 -1.000000
vn 0.000000 0.000000 -1.000000
vn 0.000000 1.000000 -0.000000
vn 0.000000 1.000000 -0.000000
vn 0.000000 1.000000 -0.000000
vn 0.000000 1.000000 -0.000000
vn -1.000000 0.000000 -0.000000
vn -1.000000 0.000000 -0.000000
vn -1.000000 0.000000 -0.000000
vn -1.000000 0.000000 -0.000000
vn 0.000000 -1.000000 0.000000
vn 0.000000 -1.000000 0.000000
vn 0.000000 -1.000000 0.000000
vn 0.000000 -1.000000 0.000000
vn 1.000000 0.000000 0.000000
vn 1.000000 0.000000 0.000000
vn 1.000000 0.000000 0.000000
vn 1.000000 0.000000 0.000000
vn 0.000000 0.000000 -1.000000
vn 0.000000 0.000000 -1.000000
vn 0.000000 0.000000 -1.000000
vn 0.000000 0.000000 -1.000000
vn 0.000000 1.000000 -0.000000
vn 0.000000 1.000000 -0.000000
vn 0.000000 1.000000 -0.000000
vn 0.000000 1.000000 -0.000000
vn -0.000000 0.000000 1.000000
vn -0.000000 0.000000 1.000000
vn -0.000000 0.000000 1.000000
vn -0.000000 0.000000 1.000000
vn 0.000000 -1.000000 0.000000
vn 0.000000 -1.000000 0.000000
vn 0.000000 -1.000000 0.000000
vn 0.000000 -1.000000 0.000000
vn -1.000000 0.000000 -0.000000
vn -1.000000 0.000000 -0.000000
vn -1.000000 0.000000 -0.000000
vn -1.000000 0.000000 -0.000000
vn 1.000000 0.000000 0.000000
vn 1.000000 0.000000 0.000000
vn 1.000000 0.000000 0.000000
vn 1.000000 0.000000 0.000000
vn -1.000000 0.000000 -0.000000
vn -1.000000 0.000000 -0.000000
vn -1.000000 0.000000 -0.000000
vn -1.000000 0.000000 -0.000000
vn 0.000000 1.000000 -0.000000
vn 0.000000 1.000000 -0.000000
vn 0.000000 1.000000 -0.000000
vn 0.000000 1.000000 -0.000000
vn -0.000000 0.000000 1.000000
vn -0.000000 0.000000 1.000000
vn -0.000000 0.000000 1.000000
vn -0.000000 0.000000 1.000000
vn 0.000000 -1.000000 0.000000
vn 0.000000 -1.000000 0.000000
vn 0.000000 -1.000000 0.000000
vn 0.000000 -1.000000 0.000000
vn 0.000000 0.000000 -1.000000
vn 0.000000 0.000000 -1.000000
vn 0.000000 0.000000 -1.000000
vn 0.000000 0.000000 -1.000000
vn -1.000000 0.000000 -0.000000
vn -1.000000 0.000000 -0.000000
vn -1.000000 0.000000 -0.000000
vn -1.000000 0.000000 -0.000000
vn 0.000000 1.000000 -0.000000
vn 0.000000 1.000000 -0.000000
vn 0.000000 1.000000 -0.000000
vn 0.000000 1.000000 -0.000000
vn -0.000000 0.000000 1.000000
vn -0.000000 0.000000 1.000000
vn -0.000000 0.000000 1.000000
vn -0.000000 0.000000 1.000000
vn 0.000000 -1.000000 0.000000
vn 0.000000 -1.000000 0.000000
vn 0.000000 -1.000000 0.000000
vn 0.000000 -1.000000 0.000000
vn 0.000000 0.000000 -1.000000
vn 0.000000 0.000000 -1.000000
vn 0.000000 0.000000 -1.000000
vn 0.000000 0.000000 -1.000000
vn 0.000000 0.000000 -1.000000
vn 0.000000 0.000000 -1.000000
vn 0.000000 0.000000 -1.000000
vn 0.000000 0.000000 -1.000000
vn 0.000000 1.000000 -0.000000
vn 0.000000 1.000000 -0.000000
vn 0.000000 1.000000 -0.000000
vn 0.000000 1.000000 -0.000000
vn -0.000000 0.000000 1.000000
vn -0.000000 0.000000 1.000000
vn -0.000000 0.000000 1.000000
vn -0.000000 0.000000 1.000000
vn 0.000000 -1.000000 0.000000
vn 0.000000 -1.000000 0.000000
vn 0.000000 -1.000000 0.000000
vn 0.000000 -1.000000 0.000000
vn -1.000000 0.000000 -0.000000
vn -1.000000 0.000000 -0.000000
vn -1.000000 0.000000 -0.000000
vn -1.000000 0.000000 -0.000000
vn 1.000000 0.000000 0.000000
vn 1.000000 0.000000 0.000000
vn 1.000000 0.000000 0.000000
vn 1.000000 0.000000 0.000000
s 1
g polySurface15
usemtl initialShadingGroup
f 1/1/1 2/2/2 3/3/3
f 3/3/3 2/2/2 4/4/4
s 2
f 3/3/5 4/4/6 5/5/7
f 5/5/7 4/4/6 6/6/8
s 3
f 5/5/9 6/6/10 7/7/11
f 7/7/11 6/6/10 8/8/12
s 4
f 7/7/13 8/8/14 1/9/15
f 1/9/15 8/8/14 2/10/16
s 5
f 2/2/17 8/11/18 4/4/19
f 4/4/19 8/11/18 6/12/20
s 6
f 7/13/21 1/1/22 5/14/23
f 5/14/23 1/1/22 3/3/24
s 7
f 9/15/25 10/16/26 11/17/27
f 11/17/27 10/16/26 12/18/28
s 8
f 11/17/29 12/18/30 13/19/31
f 13/19/31 12/18/30 14/20/32
s 9
f 10/16/33 16/21/34 12/18/35
f 12/18/35 16/21/34 14/22/36
s 10
f 15/23/37 16/24/38 9/25/39
f 9/25/39 16/24/38 10/26/40
s 11
f 13/27/41 15/28/42 11/17/43
f 11/17/43 15/28/42 9/15/44
s 12
f 17/29/45 18/30/46 19/31/47
f 19/31/47 18/30/46 20/32/48
s 13
f 19/31/49 20/32/50 21/33/51
f 21/33/51 20/32/50 22/34/52
s 14
f 21/33/53 22/34/54 23/35/55
f 23/35/55 22/34/54 24/36/56
s 15
f 23/35/57 24/36/58 17/37/59
f 17/37/59 24/36/58 18/38/60
s 16
f 18/30/61 24/39/62 20/32/63
f 20/32/63 24/39/62 22/40/64
s 17
f 23/41/65 17/29/66 21/42/67
f 21/42/67 17/29/66 19/31/68
s 18
f 25/43/69 26/44/70 27/45/71
f 27/45/71 26/44/70 28/46/72
s 19
f 27/45/73 28/46/74 29/47/75
f 29/47/75 28/46/74 30/48/76
s 20
f 26/44/77 32/49/78 28/46/79
f 28/46/79 32/49/78 30/50/80
s 21
f 31/51/81 32/52/82 25/53/83
f 25/53/83 32/52/82 26/54/84
s 22
f 29/55/85 31/56/86 27/45/87
f 27/45/87 31/56/86 25/43/88
s 23
f 33/57/89 34/58/90 35/59/91
f 35/59/91 34/58/90 36/60/92
s 24
f 35/59/93 36/60/94 37/61/95
f 37/61/95 36/60/94 38/62/96
s 25
f 34/58/97 40/63/98 36/60/99
f 36/60/99 40/63/98 38/64/100
s 26
f 39/65/101 40/66/102 33/67/103
f 33/67/103 40/66/102 34/68/104
s 27
f 37/69/105 39/70/106 35/59/107
f 35/59/107 39/70/106 33/57/108
s 28
f 41/71/109 42/72/110 43/73/111
f 43/73/111 42/72/110 44/74/112
s 29
f 43/73/113 44/74/114 45/75/115
f 45/75/115 44/74/114 46/76/116
s 30
f 45/75/117 46/76/118 47/77/119
f 47/77/119 46/76/118 48/78/120
s 31
f 47/77/121 48/78/122 41/79/123
f 41/79/123 48/78/122 42/80/124
s 32
f 42/72/125 48/81/126 44/74/127
f 44/74/127 48/81/126 46/82/128
s 33
f 47/83/129 41/71/130 45/84/131
f 45/84/131 41/71/130 43/73/132
