# This file uses centimeters as units for non-parametric coordinates.

mtllib G - Sharp L.mtl
g default
v -210.000000 -70.000000 4.199996
v 210.000000 -70.000000 4.199996
v -210.000000 0.000000 4.199996
v 210.000000 0.000000 4.199996
v -210.000000 0.000000 835.800064
v 210.000000 0.000000 835.800064
v -210.000000 -70.000000 835.800064
v 210.000000 -70.000000 835.800064
v 175.000000 0.000000 2.192507
v 210.000000 0.000000 2.192507
v 175.000000 70.000000 2.192507
v 210.000000 70.000000 2.192507
v 175.000000 70.000000 450.671570
v 210.000000 70.000000 450.671570
v 175.000000 0.000000 450.671570
v 210.000000 0.000000 450.671570
v -210.000000 0.000000 4.199996
v -175.000000 0.000000 4.199996
v -210.000000 70.000000 4.199996
v -175.000000 70.000000 4.199996
v -210.000000 70.000000 835.800064
v -175.000000 70.000000 835.800064
v -210.000000 0.000000 835.800064
v -175.000000 0.000000 835.800064
v 631.939697 0.000000 805.000000
v 631.939697 0.000000 840.000000
v 631.939697 70.000000 805.000000
v 631.939697 70.000000 840.000000
v -214.370567 70.000000 805.000000
v -214.370567 70.000000 840.000000
v -214.370567 0.000000 805.000000
v -214.370567 0.000000 840.000000
v 630.721939 0.000000 420.000000
v 630.721939 0.000000 455.000000
v 630.721939 70.000000 420.000000
v 630.721939 70.000000 455.000000
v 179.553976 70.000000 420.000000
v 179.553976 70.000000 455.000000
v 179.553976 0.000000 420.000000
v 179.553976 0.000000 455.000000
v 210.000000 -70.000000 420.000000
v 630.000000 -70.000000 420.000000
v 210.000000 0.000000 420.000000
v 630.000000 0.000000 420.000000
v 210.000000 0.000000 840.000000
v 630.000000 0.000000 840.000000
v 210.000000 -70.000000 840.000000
v 630.000000 -70.000000 840.000000
vt 0.375000 0.000000
vt 0.625000 0.000000
vt 0.375000 0.250000
vt 0.625000 0.250000
vt 0.375000 0.500000
vt 0.625000 0.500000
vt 0.375000 0.750000
vt 0.625000 0.750000
vt 0.375000 1.000000
vt 0.625000 1.000000
vt 0.875000 0.000000
vt 0.875000 0.250000
vt 0.125000 0.000000
vt 0.125000 0.250000
vt 0.375000 0.000000
vt 0.625000 0.000000
vt 0.375000 0.250000
vt 0.625000 0.250000
vt 0.375000 0.375649
vt 0.625000 0.375649
vt 0.750649 0.000000
vt 0.750649 0.250000
vt 0.375000 0.874351
vt 0.625000 0.874351
vt 0.375000 1.000000
vt 0.625000 1.000000
vt 0.249351 0.250000
vt 0.249351 0.000000
vt 0.375000 0.000000
vt 0.625000 0.000000
vt 0.375000 0.250000
vt 0.625000 0.250000
vt 0.375000 0.500000
vt 0.625000 0.500000
vt 0.375000 0.750000
vt 0.625000 0.750000
vt 0.375000 1.000000
vt 0.625000 1.000000
vt 0.875000 0.000000
vt 0.875000 0.250000
vt 0.125000 0.000000
vt 0.125000 0.250000
vt 0.375000 0.000000
vt 0.625000 0.000000
vt 0.375000 0.250000
vt 0.625000 0.250000
vt 0.375000 0.375649
vt 0.625000 0.375649
vt 0.750649 0.000000
vt 0.750649 0.250000
vt 0.375000 0.874351
vt 0.625000 0.874351
vt 0.375000 1.000000
vt 0.625000 1.000000
vt 0.249351 0.250000
vt 0.249351 0.000000
vt 0.375000 0.000000
vt 0.625000 0.000000
vt 0.375000 0.250000
vt 0.625000 0.250000
vt 0.375000 0.375649
vt 0.625000 0.375649
vt 0.750649 0.000000
vt 0.750649 0.250000
vt 0.375000 0.874351
vt 0.625000 0.874351
vt 0.375000 1.000000
vt 0.625000 1.000000
vt 0.249351 0.250000
vt 0.249351 0.000000
vt 0.375000 0.000000
vt 0.625000 0.000000
vt 0.375000 0.250000
vt 0.625000 0.250000
vt 0.375000 0.500000
vt 0.625000 0.500000
vt 0.375000 0.750000
vt 0.625000 0.750000
vt 0.375000 1.000000
vt 0.625000 1.000000
vt 0.875000 0.000000
vt 0.875000 0.250000
vt 0.125000 0.000000
vt 0.125000 0.250000
vn 0.000000 0.000000 -1.000000
vn 0.000000 0.000000 -1.000000
vn 0.000000 0.000000 -1.000000
vn 0.000000 0.000000 -1.000000
vn 0.000000 1.000000 -0.000000
vn 0.000000 1.000000 -0.000000
vn 0.000000 1.000000 -0.000000
vn 0.000000 1.000000 -0.000000
vn -0.000000 0.000000 1.000000
vn -0.000000 0.000000 1.000000
vn -0.000000 0.000000 1.000000
vn -0.000000 0.000000 1.000000
vn 0.000000 -1.000000 0.000000
vn 0.000000 -1.000000 0.000000
vn 0.000000 -1.000000 0.000000
vn 0.000000 -1.000000 0.000000
vn 1.000000 0.000000 0.000000
vn 1.000000 0.000000 0.000000
vn 1.000000 0.000000 0.000000
vn 1.000000 0.000000 0.000000
vn -1.000000 0.000000 -0.000000
vn -1.000000 0.000000 -0.000000
vn -1.000000 0.000000 -0.000000
vn -1.000000 0.000000 -0.000000
vn 0.000000 0.000000 -1.000000
vn 0.000000 0.000000 -1.000000
vn 0.000000 0.000000 -1.000000
vn 0.000000 0.000000 -1.000000
vn 0.000000 1.000000 -0.000000
vn 0.000000 1.000000 -0.000000
vn 0.000000 1.000000 -0.000000
vn 0.000000 1.000000 -0.000000
vn 1.000000 0.000000 0.000000
vn 1.000000 0.000000 0.000000
vn 1.000000 0.000000 0.000000
vn 1.000000 0.000000 0.000000
vn 0.000000 -1.000000 0.000000
vn 0.000000 -1.000000 0.000000
vn 0.000000 -1.000000 0.000000
vn 0.000000 -1.000000 0.000000
vn -1.000000 0.000000 -0.000000
vn -1.000000 0.000000 -0.000000
vn -1.000000 0.000000 -0.000000
vn -1.000000 0.000000 -0.000000
vn 0.000000 0.000000 -1.000000
vn 0.000000 0.000000 -1.000000
vn 0.000000 0.000000 -1.000000
vn 0.000000 0.000000 -1.000000
vn 0.000000 1.000000 -0.000000
vn 0.000000 1.000000 -0.000000
vn 0.000000 1.000000 -0.000000
vn 0.000000 1.000000 -0.000000
vn -0.000000 0.000000 1.000000
vn -0.000000 0.000000 1.000000
vn -0.000000 0.000000 1.000000
vn -0.000000 0.000000 1.000000
vn 0.000000 -1.000000 0.000000
vn 0.000000 -1.000000 0.000000
vn 0.000000 -1.000000 0.000000
vn 0.000000 -1.000000 0.000000
vn 1.000000 0.000000 0.000000
vn 1.000000 0.000000 0.000000
vn 1.000000 0.000000 0.000000
vn 1.000000 0.000000 0.000000
vn -1.000000 0.000000 -0.000000
vn -1.000000 0.000000 -0.000000
vn -1.000000 0.000000 -0.000000
vn -1.000000 0.000000 -0.000000
vn 1.000000 0.000000 0.000000
vn 1.000000 0.000000 0.000000
vn 1.000000 0.000000 0.000000
vn 1.000000 0.000000 0.000000
vn 0.000000 1.000000 -0.000000
vn 0.000000 1.000000 -0.000000
vn 0.000000 1.000000 -0.000000
vn 0.000000 1.000000 -0.000000
vn -0.000000 0.000000 1.000000
vn -0.000000 0.000000 1.000000
vn -0.000000 0.000000 1.000000
vn -0.000000 0.000000 1.000000
vn 0.000000 -1.000000 0.000000
vn 0.000000 -1.000000 0.000000
vn 0.000000 -1.000000 0.000000
vn 0.000000 -1.000000 0.000000
vn 0.000000 0.000000 -1.000000
vn 0.000000 0.000000 -1.000000
vn 0.000000 0.000000 -1.000000
vn 0.000000 0.000000 -1.000000
vn 1.000000 0.000000 0.000000
vn 1.000000 0.000000 0.000000
vn 1.000000 0.000000 0.000000
vn 1.000000 0.000000 0.000000
vn 0.000000 1.000000 -0.000000
vn 0.000000 1.000000 -0.000000
vn 0.000000 1.000000 -0.000000
vn 0.000000 1.000000 -0.000000
vn -0.000000 0.000000 1.000000
vn -0.000000 0.000000 1.000000
vn -0.000000 0.000000 1.000000
vn -0.000000 0.000000 1.000000
vn 0.000000 -1.000000 0.000000
vn 0.000000 -1.000000 0.000000
vn 0.000000 -1.000000 0.000000
vn 0.000000 -1.000000 0.000000
vn 0.000000 0.000000 -1.000000
vn 0.000000 0.000000 -1.000000
vn 0.000000 0.000000 -1.000000
vn 0.000000 0.000000 -1.000000
vn 0.000000 0.000000 -1.000000
vn 0.000000 0.000000 -1.000000
vn 0.000000 0.000000 -1.000000
vn 0.000000 0.000000 -1.000000
vn 0.000000 1.000000 -0.000000
vn 0.000000 1.000000 -0.000000
vn 0.000000 1.000000 -0.000000
vn 0.000000 1.000000 -0.000000
vn -0.000000 0.000000 1.000000
vn -0.000000 0.000000 1.000000
vn -0.000000 0.000000 1.000000
vn -0.000000 0.000000 1.000000
vn 0.000000 -1.000000 0.000000
vn 0.000000 -1.000000 0.000000
vn 0.000000 -1.000000 0.000000
vn 0.000000 -1.000000 0.000000
vn 1.000000 0.000000 0.000000
vn 1.000000 0.000000 0.000000
vn 1.000000 0.000000 0.000000
vn 1.000000 0.000000 0.000000
vn -1.000000 0.000000 -0.000000
vn -1.000000 0.000000 -0.000000
vn -1.000000 0.000000 -0.000000
vn -1.000000 0.000000 -0.000000
s 1
g polySurface8
usemtl initialShadingGroup
f 1/1/1 3/3/2 2/2/3
f 3/3/2 4/4/4 2/2/3
s 2
f 3/3/5 5/5/6 4/4/7
f 5/5/6 6/6/8 4/4/7
s 3
f 5/5/9 7/7/10 6/6/11
f 7/7/10 8/8/12 6/6/11
s 4
f 7/7/13 1/9/14 8/8/15
f 1/9/14 2/10/16 8/8/15
s 5
f 2/2/17 4/4/18 8/11/19
f 4/4/18 6/12/20 8/11/19
s 6
f 7/13/21 5/14/22 1/1/23
f 5/14/22 3/3/24 1/1/23
s 7
f 9/15/25 11/17/26 10/16/27
f 11/17/26 12/18/28 10/16/27
s 8
f 11/17/29 13/19/30 12/18/31
f 13/19/30 14/20/32 12/18/31
s 9
f 10/16/33 12/18/34 16/21/35
f 12/18/34 14/22/36 16/21/35
s 10
f 15/23/37 9/25/38 16/24/39
f 9/25/38 10/26/40 16/24/39
s 11
f 13/27/41 11/17/42 15/28/43
f 11/17/42 9/15/44 15/28/43
s 12
f 17/29/45 19/31/46 18/30/47
f 19/31/46 20/32/48 18/30/47
s 13
f 19/31/49 21/33/50 20/32/51
f 21/33/50 22/34/52 20/32/51
s 14
f 21/33/53 23/35/54 22/34/55
f 23/35/54 24/36/56 22/34/55
s 15
f 23/35/57 17/37/58 24/36/59
f 17/37/58 18/38/60 24/36/59
s 16
f 18/30/61 20/32/62 24/39/63
f 20/32/62 22/40/64 24/39/63
s 17
f 23/41/65 21/42/66 17/29/67
f 21/42/66 19/31/68 17/29/67
s 18
f 25/43/69 27/45/70 26/44/71
f 27/45/70 28/46/72 26/44/71
s 19
f 27/45/73 29/47/74 28/46/75
f 29/47/74 30/48/76 28/46/75
s 20
f 26/44/77 28/46/78 32/49/79
f 28/46/78 30/50/80 32/49/79
s 21
f 31/51/81 25/53/82 32/52/83
f 25/53/82 26/54/84 32/52/83
s 22
f 29/55/85 27/45/86 31/56/87
f 27/45/86 25/43/88 31/56/87
s 23
f 33/57/89 35/59/90 34/58/91
f 35/59/90 36/60/92 34/58/91
s 24
f 35/59/93 37/61/94 36/60/95
f 37/61/94 38/62/96 36/60/95
s 25
f 34/58/97 36/60/98 40/63/99
f 36/60/98 38/64/100 40/63/99
s 26
f 39/65/101 33/67/102 40/66/103
f 33/67/102 34/68/104 40/66/103
s 27
f 37/69/105 35/59/106 39/70/107
f 35/59/106 33/57/108 39/70/107
s 28
f 41/71/109 43/73/110 42/72/111
f 43/73/110 44/74/112 42/72/111
s 29
f 43/73/113 45/75/114 44/74/115
f 45/75/114 46/76/116 44/74/115
s 30
f 45/75/117 47/77/118 46/76/119
f 47/77/118 48/78/120 46/76/119
s 31
f 47/77/121 41/79/122 48/78/123
f 41/79/122 42/80/124 48/78/123
s 32
f 42/72/125 44/74/126 48/81/127
f 44/74/126 46/82/128 48/81/127
s 33
f 47/83/129 45/84/130 41/71/131
f 45/84/130 43/73/132 41/71/131
