# This file uses centimeters as units for non-parametric coordinates.

mtllib K - Bumps R.mtl
g default
v -30.000000 -10.000000 0.000000
v 30.000000 -10.000000 0.000000
v -30.000000 0.000000 0.000000
v 30.000000 0.000000 0.000000
v -30.000000 0.000000 -120.000000
v 30.000000 0.000000 -120.000000
v -30.000000 -10.000000 -120.000000
v 30.000000 -10.000000 -120.000000
v -30.000000 5.630503 -117.260113
v 30.000000 5.630503 -117.260113
v -30.000000 -4.369497 -117.260113
v 30.000000 -4.369497 -117.260113
v -30.000000 0.000002 -107.004576
v 30.000000 0.000002 -107.004576
v -30.000000 -9.999998 -107.004576
v 30.000000 -9.999998 -107.004576
v -30.000000 -10.000000 -120.000000
v 90.000000 -10.000000 -120.000000
v -30.000000 0.000000 -120.000000
v 90.000000 0.000000 -120.000000
v -30.000000 0.000000 -240.000000
v 90.000000 0.000000 -240.000000
v -30.000000 -10.000000 -240.000000
v 90.000000 -10.000000 -240.000000
v -30.000000 0.000000 -120.000000
v -25.000000 0.000000 -120.000000
v -30.000000 10.000000 -120.000000
v -25.000000 10.000000 -120.000000
v -30.000000 10.000000 -240.000000
v -25.000000 10.000000 -240.000000
v -30.000000 0.000000 -240.000000
v -25.000000 0.000000 -240.000000
v 85.000000 0.000000 -120.000000
v 90.000000 0.000000 -120.000000
v 85.000000 10.000000 -120.000000
v 90.000000 10.000000 -120.000000
v 85.000000 10.000000 -240.000000
v 90.000000 10.000000 -240.000000
v 85.000000 0.000000 -240.000000
v 90.000000 0.000000 -240.000000
v -30.000000 0.000000 -235.000000
v 35.000000 0.000000 -235.000000
v -30.000000 10.000000 -235.000000
v 35.000000 10.000000 -235.000000
v -30.000000 10.000000 -240.000000
v 35.000000 10.000000 -240.000000
v -30.000000 0.000000 -240.000000
v 35.000000 0.000000 -240.000000
v 25.000000 0.000000 -120.000000
v 90.000000 0.000000 -120.000000
v 25.000000 10.000000 -120.000000
v 90.000000 10.000000 -120.000000
v 25.000000 10.000000 -125.000000
v 90.000000 10.000000 -125.000000
v 25.000000 0.000000 -125.000000
v 90.000000 0.000000 -125.000000
v 25.000000 0.000000 0.000000
v 30.000000 0.000000 0.000000
v 25.000000 10.000000 0.000000
v 30.000000 10.000000 0.000000
v 25.000000 10.000000 -120.000000
v 30.000000 10.000000 -120.000000
v 25.000000 0.000000 -120.000000
v 30.000000 0.000000 -120.000000
v -30.000000 0.000000 0.000000
v -25.000000 0.000000 0.000000
v -30.000000 10.000000 0.000000
v -25.000000 10.000000 0.000000
v -30.000000 10.000000 -120.000000
v -25.000000 10.000000 -120.000000
v -30.000000 0.000000 -120.000000
v -25.000000 0.000000 -120.000000
vt 0.375000 0.000000
vt 0.625000 0.000000
vt 0.625000 0.250000
vt 0.375000 0.250000
vt 0.625000 0.472926
vt 0.375000 0.472926
vt 0.375000 0.500000
vt 0.625000 0.500000
vt 0.625000 0.750000
vt 0.375000 0.750000
vt 0.625000 0.755708
vt 0.375000 0.755708
vt 0.847926 0.000000
vt 0.847926 0.250000
vt 0.125000 0.000000
vt 0.130708 0.000000
vt 0.130708 0.250000
vt 0.125000 0.250000
vt 0.375000 0.494292
vt 0.625000 0.494292
vt 0.625000 0.777074
vt 0.375000 0.777074
vt 0.869292 0.250000
vt 0.869292 0.000000
vt 0.875000 0.000000
vt 0.875000 0.250000
vt 0.152074 0.000000
vt 0.152074 0.250000
vt 0.625000 1.000000
vt 0.375000 1.000000
vt 0.375000 0.000000
vt 0.625000 0.000000
vt 0.625000 0.250000
vt 0.375000 0.250000
vt 0.625000 0.500000
vt 0.375000 0.500000
vt 0.625000 0.750000
vt 0.375000 0.750000
vt 0.625000 1.000000
vt 0.375000 1.000000
vt 0.875000 0.000000
vt 0.875000 0.250000
vt 0.125000 0.000000
vt 0.125000 0.250000
vt 0.375000 0.000000
vt 0.625000 0.000000
vt 0.625000 0.250000
vt 0.375000 0.250000
vt 0.625000 0.500000
vt 0.375000 0.500000
vt 0.625000 0.750000
vt 0.375000 0.750000
vt 0.625000 1.000000
vt 0.375000 1.000000
vt 0.875000 0.000000
vt 0.875000 0.250000
vt 0.125000 0.000000
vt 0.125000 0.250000
vt 0.375000 0.000000
vt 0.625000 0.000000
vt 0.625000 0.250000
vt 0.375000 0.250000
vt 0.625000 0.500000
vt 0.375000 0.500000
vt 0.625000 0.750000
vt 0.375000 0.750000
vt 0.625000 1.000000
vt 0.375000 1.000000
vt 0.875000 0.000000
vt 0.875000 0.250000
vt 0.125000 0.000000
vt 0.125000 0.250000
vt 0.375000 0.000000
vt 0.625000 0.000000
vt 0.625000 0.250000
vt 0.375000 0.250000
vt 0.625000 0.500000
vt 0.375000 0.500000
vt 0.625000 0.750000
vt 0.375000 0.750000
vt 0.625000 1.000000
vt 0.375000 1.000000
vt 0.875000 0.000000
vt 0.875000 0.250000
vt 0.125000 0.000000
vt 0.125000 0.250000
vt 0.375000 0.000000
vt 0.625000 0.000000
vt 0.625000 0.250000
vt 0.375000 0.250000
vt 0.625000 0.500000
vt 0.375000 0.500000
vt 0.625000 0.750000
vt 0.375000 0.750000
vt 0.625000 1.000000
vt 0.375000 1.000000
vt 0.875000 0.000000
vt 0.875000 0.250000
vt 0.125000 0.000000
vt 0.125000 0.250000
vt 0.375000 0.000000
vt 0.625000 0.000000
vt 0.625000 0.250000
vt 0.375000 0.250000
vt 0.625000 0.500000
vt 0.375000 0.500000
vt 0.625000 0.750000
vt 0.375000 0.750000
vt 0.625000 1.000000
vt 0.375000 1.000000
vt 0.875000 0.000000
vt 0.875000 0.250000
vt 0.125000 0.000000
vt 0.125000 0.250000
vt 0.375000 0.000000
vt 0.625000 0.000000
vt 0.625000 0.250000
vt 0.375000 0.250000
vt 0.625000 0.500000
vt 0.375000 0.500000
vt 0.625000 0.750000
vt 0.375000 0.750000
vt 0.625000 1.000000
vt 0.375000 1.000000
vt 0.875000 0.000000
vt 0.875000 0.250000
vt 0.125000 0.000000
vt 0.125000 0.250000
vn 0.000000 0.000000 1.000000
vn 0.000000 0.000000 1.000000
vn 0.000000 0.000000 1.000000
vn 0.000000 0.000000 1.000000
vn 0.000000 1.000000 0.000000
vn 0.000000 1.000000 0.000000
vn 0.000000 0.998849 0.047962
vn 0.000000 0.998849 0.047962
vn 0.000000 0.000000 -1.000000
vn 0.000000 0.000000 -1.000000
vn 0.000000 0.000000 -1.000000
vn 0.000000 0.000000 -1.000000
vn 0.000000 -0.437559 0.899190
vn 0.000000 -0.437559 0.899190
vn 0.000000 -1.000000 0.000000
vn 0.000000 -1.000000 0.000000
vn 1.000000 0.000000 0.000000
vn 1.000000 0.000000 0.000000
vn 1.000000 0.000000 0.000000
vn 1.000000 0.000000 0.000000
vn -1.000000 0.000000 0.000000
vn -1.000000 0.000000 0.000000
vn -1.000000 0.000000 0.000000
vn -1.000000 0.000000 0.000000
vn 0.000000 1.000000 -0.000000
vn 0.000000 1.000000 0.000000
vn 0.000000 0.437559 -0.899190
vn 0.000000 0.437559 -0.899190
vn 0.000000 -0.998849 -0.047962
vn 0.000000 -0.998849 -0.047962
vn 1.000000 0.000000 0.000000
vn 1.000000 0.000000 0.000000
vn 1.000000 0.000000 0.000000
vn 1.000000 0.000000 0.000000
vn -1.000000 0.000000 0.000000
vn -1.000000 0.000000 0.000000
vn 0.000000 -1.000000 -0.000000
vn 0.000000 -1.000000 -0.000000
vn -1.000000 0.000000 0.000000
vn -1.000000 0.000000 0.000000
vn 0.000000 0.000000 1.000000
vn 0.000000 0.000000 1.000000
vn 0.000000 0.000000 1.000000
vn 0.000000 0.000000 1.000000
vn 0.000000 1.000000 0.000000
vn 0.000000 1.000000 0.000000
vn 0.000000 1.000000 0.000000
vn 0.000000 1.000000 0.000000
vn 0.000000 0.000000 -1.000000
vn 0.000000 0.000000 -1.000000
vn 0.000000 0.000000 -1.000000
vn 0.000000 0.000000 -1.000000
vn 0.000000 -1.000000 0.000000
vn 0.000000 -1.000000 0.000000
vn 0.000000 -1.000000 0.000000
vn 0.000000 -1.000000 0.000000
vn 1.000000 0.000000 0.000000
vn 1.000000 0.000000 0.000000
vn 1.000000 0.000000 0.000000
vn 1.000000 0.000000 0.000000
vn -1.000000 0.000000 0.000000
vn -1.000000 0.000000 0.000000
vn -1.000000 0.000000 0.000000
vn -1.000000 0.000000 0.000000
vn 0.000000 0.000000 1.000000
vn 0.000000 0.000000 1.000000
vn 0.000000 0.000000 1.000000
vn 0.000000 0.000000 1.000000
vn 0.000000 1.000000 0.000000
vn 0.000000 1.000000 0.000000
vn 0.000000 1.000000 0.000000
vn 0.000000 1.000000 0.000000
vn 0.000000 0.000000 -1.000000
vn 0.000000 0.000000 -1.000000
vn 0.000000 0.000000 -1.000000
vn 0.000000 0.000000 -1.000000
vn 0.000000 -1.000000 0.000000
vn 0.000000 -1.000000 0.000000
vn 0.000000 -1.000000 0.000000
vn 0.000000 -1.000000 0.000000
vn 1.000000 0.000000 0.000000
vn 1.000000 0.000000 0.000000
vn 1.000000 0.000000 0.000000
vn 1.000000 0.000000 0.000000
vn -1.000000 0.000000 0.000000
vn -1.000000 0.000000 0.000000
vn -1.000000 0.000000 0.000000
vn -1.000000 0.000000 0.000000
vn 0.000000 0.000000 1.000000
vn 0.000000 0.000000 1.000000
vn 0.000000 0.000000 1.000000
vn 0.000000 0.000000 1.000000
vn 0.000000 1.000000 0.000000
vn 0.000000 1.000000 0.000000
vn 0.000000 1.000000 0.000000
vn 0.000000 1.000000 0.000000
vn 0.000000 0.000000 -1.000000
vn 0.000000 0.000000 -1.000000
vn 0.000000 0.000000 -1.000000
vn 0.000000 0.000000 -1.000000
vn 0.000000 -1.000000 0.000000
vn 0.000000 -1.000000 0.000000
vn 0.000000 -1.000000 0.000000
vn 0.000000 -1.000000 0.000000
vn 1.000000 0.000000 0.000000
vn 1.000000 0.000000 0.000000
vn 1.000000 0.000000 0.000000
vn 1.000000 0.000000 0.000000
vn -1.000000 0.000000 0.000000
vn -1.000000 0.000000 0.000000
vn -1.000000 0.000000 0.000000
vn -1.000000 0.000000 0.000000
vn 0.000000 0.000000 1.000000
vn 0.000000 0.000000 1.000000
vn 0.000000 0.000000 1.000000
vn 0.000000 0.000000 1.000000
vn 0.000000 1.000000 0.000000
vn 0.000000 1.000000 0.000000
vn 0.000000 1.000000 0.000000
vn 0.000000 1.000000 0.000000
vn 0.000000 0.000000 -1.000000
vn 0.000000 0.000000 -1.000000
vn 0.000000 0.000000 -1.000000
vn 0.000000 0.000000 -1.000000
vn 0.000000 -1.000000 0.000000
vn 0.000000 -1.000000 0.000000
vn 0.000000 -1.000000 0.000000
vn 0.000000 -1.000000 0.000000
vn 1.000000 0.000000 0.000000
vn 1.000000 0.000000 0.000000
vn 1.000000 0.000000 0.000000
vn 1.000000 0.000000 0.000000
vn -1.000000 0.000000 0.000000
vn -1.000000 0.000000 0.000000
vn -1.000000 0.000000 0.000000
vn -1.000000 0.000000 0.000000
vn 0.000000 0.000000 1.000000
vn 0.000000 0.000000 1.000000
vn 0.000000 0.000000 1.000000
vn 0.000000 0.000000 1.000000
vn 0.000000 1.000000 0.000000
vn 0.000000 1.000000 0.000000
vn 0.000000 1.000000 0.000000
vn 0.000000 1.000000 0.000000
vn 0.000000 0.000000 -1.000000
vn 0.000000 0.000000 -1.000000
vn 0.000000 0.000000 -1.000000
vn 0.000000 0.000000 -1.000000
vn 0.000000 -1.000000 0.000000
vn 0.000000 -1.000000 0.000000
vn 0.000000 -1.000000 0.000000
vn 0.000000 -1.000000 0.000000
vn 1.000000 0.000000 0.000000
vn 1.000000 0.000000 0.000000
vn 1.000000 0.000000 0.000000
vn 1.000000 0.000000 0.000000
vn -1.000000 0.000000 0.000000
vn -1.000000 0.000000 0.000000
vn -1.000000 0.000000 0.000000
vn -1.000000 0.000000 0.000000
vn 0.000000 0.000000 1.000000
vn 0.000000 0.000000 1.000000
vn 0.000000 0.000000 1.000000
vn 0.000000 0.000000 1.000000
vn 0.000000 1.000000 0.000000
vn 0.000000 1.000000 0.000000
vn 0.000000 1.000000 0.000000
vn 0.000000 1.000000 0.000000
vn 0.000000 0.000000 -1.000000
vn 0.000000 0.000000 -1.000000
vn 0.000000 0.000000 -1.000000
vn 0.000000 0.000000 -1.000000
vn 0.000000 -1.000000 0.000000
vn 0.000000 -1.000000 0.000000
vn 0.000000 -1.000000 0.000000
vn 0.000000 -1.000000 0.000000
vn 1.000000 0.000000 0.000000
vn 1.000000 0.000000 0.000000
vn 1.000000 0.000000 0.000000
vn 1.000000 0.000000 0.000000
vn -1.000000 0.000000 0.000000
vn -1.000000 0.000000 0.000000
vn -1.000000 0.000000 0.000000
vn -1.000000 0.000000 0.000000
vn 0.000000 0.000000 1.000000
vn 0.000000 0.000000 1.000000
vn 0.000000 0.000000 1.000000
vn 0.000000 0.000000 1.000000
vn 0.000000 1.000000 0.000000
vn 0.000000 1.000000 0.000000
vn 0.000000 1.000000 0.000000
vn 0.000000 1.000000 0.000000
vn 0.000000 0.000000 -1.000000
vn 0.000000 0.000000 -1.000000
vn 0.000000 0.000000 -1.000000
vn 0.000000 0.000000 -1.000000
vn 0.000000 -1.000000 0.000000
vn 0.000000 -1.000000 0.000000
vn 0.000000 -1.000000 0.000000
vn 0.000000 -1.000000 0.000000
vn 1.000000 0.000000 0.000000
vn 1.000000 0.000000 0.000000
vn 1.000000 0.000000 0.000000
vn 1.000000 0.000000 0.000000
vn -1.000000 0.000000 0.000000
vn -1.000000 0.000000 0.000000
vn -1.000000 0.000000 0.000000
vn -1.000000 0.000000 0.000000
s 1
g polySurface8
usemtl initialShadingGroup
f 1/1/1 2/2/2 3/4/3
f 3/4/3 2/2/2 4/3/4
s 2
f 3/4/5 4/3/6 13/6/7
f 13/6/7 4/3/6 14/5/8
s 3
f 5/7/9 6/8/10 7/10/11
f 7/10/11 6/8/10 8/9/12
s 4
f 7/10/13 8/9/14 11/12/15
f 11/12/15 8/9/14 12/11/16
s 5
f 2/2/17 16/13/18 4/3/19
f 4/3/19 16/13/18 14/14/20
s 6
f 7/15/21 11/16/22 5/18/23
f 5/18/23 11/16/22 9/17/24
s 2
f 9/19/25 10/20/26 5/7/27
f 5/7/27 10/20/26 6/8/28
s 4
f 11/12/15 12/11/16 15/22/29
f 15/22/29 12/11/16 16/21/30
s 5
f 10/23/31 12/24/32 6/26/33
f 6/26/33 12/24/32 8/25/34
s 6
f 9/17/24 11/16/22 13/28/35
f 13/28/35 11/16/22 15/27/36
s 2
f 13/6/7 14/5/8 9/19/25
f 9/19/25 14/5/8 10/20/26
s 5
f 16/13/18 12/24/32 14/14/20
f 14/14/20 12/24/32 10/23/31
s 4
f 15/22/29 16/21/30 1/30/37
f 1/30/37 16/21/30 2/29/38
s 6
f 13/28/35 15/27/36 3/4/39
f 3/4/39 15/27/36 1/1/40
s 9
f 17/31/41 18/32/42 19/34/43
f 19/34/43 18/32/42 20/33/44
s 10
f 19/34/45 20/33/46 21/36/47
f 21/36/47 20/33/46 22/35/48
s 11
f 21/36/49 22/35/50 23/38/51
f 23/38/51 22/35/50 24/37/52
s 12
f 23/38/53 24/37/54 17/40/55
f 17/40/55 24/37/54 18/39/56
s 13
f 18/32/57 24/41/58 20/33/59
f 20/33/59 24/41/58 22/42/60
s 14
f 23/43/61 17/31/62 21/44/63
f 21/44/63 17/31/62 19/34/64
s 15
f 25/45/65 26/46/66 27/48/67
f 27/48/67 26/46/66 28/47/68
s 16
f 27/48/69 28/47/70 29/50/71
f 29/50/71 28/47/70 30/49/72
s 17
f 29/50/73 30/49/74 31/52/75
f 31/52/75 30/49/74 32/51/76
s 18
f 31/52/77 32/51/78 25/54/79
f 25/54/79 32/51/78 26/53/80
s 19
f 26/46/81 32/55/82 28/47/83
f 28/47/83 32/55/82 30/56/84
s 20
f 31/57/85 25/45/86 29/58/87
f 29/58/87 25/45/86 27/48/88
s 21
f 33/59/89 34/60/90 35/62/91
f 35/62/91 34/60/90 36/61/92
s 22
f 35/62/93 36/61/94 37/64/95
f 37/64/95 36/61/94 38/63/96
s 23
f 37/64/97 38/63/98 39/66/99
f 39/66/99 38/63/98 40/65/100
s 24
f 39/66/101 40/65/102 33/68/103
f 33/68/103 40/65/102 34/67/104
s 25
f 34/60/105 40/69/106 36/61/107
f 36/61/107 40/69/106 38/70/108
s 26
f 39/71/109 33/59/110 37/72/111
f 37/72/111 33/59/110 35/62/112
s 27
f 41/73/113 42/74/114 43/76/115
f 43/76/115 42/74/114 44/75/116
s 28
f 43/76/117 44/75/118 45/78/119
f 45/78/119 44/75/118 46/77/120
s 29
f 45/78/121 46/77/122 47/80/123
f 47/80/123 46/77/122 48/79/124
s 30
f 47/80/125 48/79/126 41/82/127
f 41/82/127 48/79/126 42/81/128
s 31
f 42/74/129 48/83/130 44/75/131
f 44/75/131 48/83/130 46/84/132
s 32
f 47/85/133 41/73/134 45/86/135
f 45/86/135 41/73/134 43/76/136
s 33
f 49/87/137 50/88/138 51/90/139
f 51/90/139 50/88/138 52/89/140
s 34
f 51/90/141 52/89/142 53/92/143
f 53/92/143 52/89/142 54/91/144
s 35
f 53/92/145 54/91/146 55/94/147
f 55/94/147 54/91/146 56/93/148
s 36
f 55/94/149 56/93/150 49/96/151
f 49/96/151 56/93/150 50/95/152
s 37
f 50/88/153 56/97/154 52/89/155
f 52/89/155 56/97/154 54/98/156
s 38
f 55/99/157 49/87/158 53/100/159
f 53/100/159 49/87/158 51/90/160
s 39
f 57/101/161 58/102/162 59/104/163
f 59/104/163 58/102/162 60/103/164
s 40
f 59/104/165 60/103/166 61/106/167
f 61/106/167 60/103/166 62/105/168
s 41
f 61/106/169 62/105/170 63/108/171
f 63/108/171 62/105/170 64/107/172
s 42
f 63/108/173 64/107/174 57/110/175
f 57/110/175 64/107/174 58/109/176
s 43
f 58/102/177 64/111/178 60/103/179
f 60/103/179 64/111/178 62/112/180
s 44
f 63/113/181 57/101/182 61/114/183
f 61/114/183 57/101/182 59/104/184
s 45
f 65/115/185 66/116/186 67/118/187
f 67/118/187 66/116/186 68/117/188
s 46
f 67/118/189 68/117/190 69/120/191
f 69/120/191 68/117/190 70/119/192
s 47
f 69/120/193 70/119/194 71/122/195
f 71/122/195 70/119/194 72/121/196
s 48
f 71/122/197 72/121/198 65/124/199
f 65/124/199 72/121/198 66/123/200
s 49
f 66/116/201 72/125/202 68/117/203
f 68/117/203 72/125/202 70/126/204
s 50
f 71/127/205 65/115/206 69/128/207
f 69/128/207 65/115/206 67/118/208
