# This file uses centimeters as units for non-parametric coordinates.

mtllib L - Window End.mtl
g default
v 130.000000 -10.000000 -309.400005
v 190.000000 -10.000000 -309.400005
v 130.000000 0.000000 -309.400005
v 190.000000 0.000000 -309.400005
v 130.000000 0.000000 -190.599995
v 190.000000 0.000000 -190.599995
v 130.000000 -10.000000 -190.599995
v 190.000000 -10.000000 -190.599995
v 185.000000 0.000000 -309.400005
v 190.000000 0.000000 -309.400005
v 185.000000 10.000000 -309.400005
v 190.000000 10.000000 -309.400005
v 185.000000 10.000000 -190.599995
v 190.000000 10.000000 -190.599995
v 185.000000 0.000000 -190.599995
v 190.000000 0.000000 -190.599995
v 130.000000 0.000000 -309.400005
v 135.000000 0.000000 -309.400005
v 130.000000 10.000000 -309.400005
v 135.000000 10.000000 -309.400005
v 130.000000 10.000000 -245.069237
v 135.000000 10.000000 -245.148010
v 130.000000 0.000000 -244.882240
v 135.000000 0.000000 -244.961033
v 135.000019 8.333333 -245.116844
v 130.000000 8.333333 -245.038052
v 135.000000 6.666666 -245.085678
v 130.000000 6.666666 -245.006905
v 135.000000 5.000000 -245.054512
v 130.000000 5.000000 -244.975719
v 135.000000 3.333333 -245.023346
v 130.000019 3.333333 -244.944572
v 135.000000 1.666666 -244.992180
v 130.000000 1.666666 -244.913406
v 190.000000 0.000000 -195.000000
v 190.000000 10.000000 -195.000000
v 190.000000 10.000000 -190.000000
v 190.000000 0.000000 -190.000000
v 139.106197 0.000000 -195.000000
v 138.916473 10.000000 -195.000000
v 134.281998 10.000000 -190.000000
v 134.471703 0.000000 -190.000000
v 30.000000 -10.000000 0.000000
v 127.774639 -10.000000 -182.923107
v 94.436646 -10.000000 -155.563297
v 67.076855 -10.000000 -122.225285
v 46.746712 -10.000000 -84.190216
v 34.227486 -10.000000 -42.919769
v 30.000000 0.000000 0.000000
v 127.774639 0.000000 -182.923107
v 94.436646 0.000000 -155.563297
v 67.076855 0.000000 -122.225285
v 46.746712 0.000000 -84.190216
v 34.227486 0.000000 -42.919769
v -30.000000 0.000000 0.000000
v 94.440441 0.000000 -232.811203
v 52.010269 0.000000 -197.989635
v 17.188721 0.000000 -155.559435
v -8.685989 0.000000 -107.151184
v -24.619598 0.000000 -54.625149
v -30.000000 -10.000000 0.000000
v 94.440441 -10.000000 -232.811203
v 52.010269 -10.000000 -197.989635
v 17.188721 -10.000000 -155.559435
v -8.685989 -10.000000 -107.151184
v -24.619598 -10.000000 -54.625149
v 139.924641 -10.000000 -189.417419
v 139.924641 0.000000 -189.417419
v 128.788815 0.000000 -251.170807
v 128.788815 -10.000000 -251.170807
v -25.000000 0.000000 0.000000
v 97.218266 0.000000 -228.654003
v 55.545750 0.000000 -194.454250
v 21.345978 0.000000 -152.781725
v -4.066696 0.000000 -105.237885
v -19.715805 0.000000 -53.649788
v -25.000000 10.000000 0.000000
v 97.218266 10.000000 -228.654003
v 55.545750 10.000000 -194.454250
v 21.345978 10.000000 -152.781725
v -4.066696 10.000000 -105.237885
v -19.715805 10.000000 -53.649788
v -30.000000 10.000000 0.000000
v 94.440441 10.000000 -232.811203
v 52.010269 10.000000 -197.989635
v 17.188721 10.000000 -155.559435
v -8.685989 10.000000 -107.151184
v -24.619598 10.000000 -54.625149
v -30.000000 0.000000 0.000000
v 94.440441 0.000000 -232.811203
v 52.010269 0.000000 -197.989635
v 17.188721 0.000000 -155.559435
v -8.685989 0.000000 -107.151184
v -24.619598 0.000000 -54.625149
v 129.716759 0.000000 -246.024818
v 129.716759 10.000000 -246.024818
v 128.788815 10.000000 -251.170807
v 128.788815 0.000000 -251.170807
v 30.000000 0.000000 0.000000
v 127.774639 0.000000 -182.923107
v 94.436646 0.000000 -155.563297
v 67.076855 0.000000 -122.225285
v 46.746712 0.000000 -84.190216
v 34.227486 0.000000 -42.919769
v 30.000000 10.000000 0.000000
v 127.774639 10.000000 -182.923107
v 94.436646 10.000000 -155.563297
v 67.076855 10.000000 -122.225285
v 46.746712 10.000000 -84.190216
v 34.227486 10.000000 -42.919769
v 25.000000 10.000000 0.000000
v 124.996758 10.000000 -187.080574
v 90.901031 10.000000 -159.098949
v 62.919426 10.000000 -125.003242
v 42.127228 10.000000 -86.103706
v 29.323425 10.000000 -43.895283
v 25.000000 0.000000 0.000000
v 124.996758 0.000000 -187.080574
v 90.901031 0.000000 -159.098949
v 62.919426 0.000000 -125.003242
v 42.127228 0.000000 -86.103706
v 29.323425 0.000000 -43.895283
v 139.924641 0.000000 -189.417419
v 139.924641 10.000000 -189.417419
v 138.996620 10.000000 -194.563675
v 138.996620 0.000000 -194.563675
vt 0.375000 0.000000
vt 0.375000 0.250000
vt 0.625000 0.250000
vt 0.625000 0.000000
vt 0.375000 0.500000
vt 0.625000 0.500000
vt 0.375000 0.750000
vt 0.625000 0.750000
vt 0.375000 1.000000
vt 0.625000 1.000000
vt 0.875000 0.250000
vt 0.875000 0.000000
vt 0.125000 0.000000
vt 0.125000 0.250000
vt 0.375000 0.000000
vt 0.375000 0.250000
vt 0.625000 0.250000
vt 0.625000 0.000000
vt 0.375000 0.500000
vt 0.625000 0.500000
vt 0.375000 0.750000
vt 0.625000 0.750000
vt 0.375000 1.000000
vt 0.625000 1.000000
vt 0.875000 0.250000
vt 0.875000 0.000000
vt 0.125000 0.000000
vt 0.125000 0.250000
vt 0.375000 0.000000
vt 0.375000 0.250000
vt 0.625000 0.250000
vt 0.625000 0.000000
vt 0.375000 0.385376
vt 0.625000 0.385210
vt 0.760210 0.250000
vt 0.760604 0.000000
vt 0.375000 0.864230
vt 0.375000 1.000000
vt 0.625000 1.000000
vt 0.625000 0.864396
vt 0.239624 0.250000
vt 0.239230 0.000000
vt 0.375000 0.465185
vt 0.625000 0.465075
vt 0.375000 0.544994
vt 0.625000 0.544939
vt 0.375000 0.624803
vt 0.625000 0.624803
vt 0.375000 0.704612
vt 0.625000 0.704668
vt 0.375000 0.784421
vt 0.625000 0.784532
vt 0.625000 0.000000
vt 0.625000 0.250000
vt 0.875000 0.250000
vt 0.875000 0.000000
vt 0.412152 0.250000
vt 0.412942 0.000000
vt 0.392842 0.500000
vt 0.625000 0.500000
vt 0.393632 0.750000
vt 0.625000 0.750000
vt 0.412942 1.000000
vt 0.625000 1.000000
vt 0.843750 1.000000
vt 0.833767 1.000000
vt 0.833767 0.750000
vt 0.843750 0.750000
vt 0.875000 1.000000
vt 0.875000 0.750000
vt 0.906250 1.000000
vt 0.906250 0.750000
vt 0.937500 1.000000
vt 0.937500 0.750000
vt 0.968750 1.000000
vt 0.968750 0.750000
vt 1.000000 1.000000
vt 1.000000 0.750000
vt 0.821576 0.500000
vt 0.843750 0.500000
vt 0.875000 0.500000
vt 0.906250 0.500000
vt 0.937500 0.500000
vt 0.968750 0.500000
vt 1.000000 0.500000
vt 0.821576 0.250000
vt 0.843750 0.250000
vt 0.875000 0.250000
vt 0.906250 0.250000
vt 0.937500 0.250000
vt 0.968750 0.250000
vt 1.000000 0.250000
vt 0.833767 0.000000
vt 0.843750 0.000000
vt 0.875000 0.000000
vt 0.906250 0.000000
vt 0.937500 0.000000
vt 0.968750 0.000000
vt 1.000000 0.000000
vt 0.843750 1.000000
vt 0.822389 1.000000
vt 0.822389 0.750000
vt 0.843750 0.750000
vt 0.875000 1.000000
vt 0.875000 0.750000
vt 0.906250 1.000000
vt 0.906250 0.750000
vt 0.937500 1.000000
vt 0.937500 0.750000
vt 0.968750 1.000000
vt 0.968750 0.750000
vt 1.000000 1.000000
vt 1.000000 0.750000
vt 0.821576 0.500000
vt 0.843750 0.500000
vt 0.875000 0.500000
vt 0.906250 0.500000
vt 0.937500 0.500000
vt 0.968750 0.500000
vt 1.000000 0.500000
vt 0.821576 0.250000
vt 0.843750 0.250000
vt 0.875000 0.250000
vt 0.906250 0.250000
vt 0.937500 0.250000
vt 0.968750 0.250000
vt 1.000000 0.250000
vt 0.822389 0.000000
vt 0.843750 0.000000
vt 0.875000 0.000000
vt 0.906250 0.000000
vt 0.937500 0.000000
vt 0.968750 0.000000
vt 1.000000 0.000000
vt 0.843750 1.000000
vt 0.833767 1.000000
vt 0.833767 0.750000
vt 0.843750 0.750000
vt 0.875000 1.000000
vt 0.875000 0.750000
vt 0.906250 1.000000
vt 0.906250 0.750000
vt 0.937500 1.000000
vt 0.937500 0.750000
vt 0.968750 1.000000
vt 0.968750 0.750000
vt 1.000000 1.000000
vt 1.000000 0.750000
vt 0.832503 0.500000
vt 0.843750 0.500000
vt 0.875000 0.500000
vt 0.906250 0.500000
vt 0.937500 0.500000
vt 0.968750 0.500000
vt 1.000000 0.500000
vt 0.832503 0.250000
vt 0.843750 0.250000
vt 0.875000 0.250000
vt 0.906250 0.250000
vt 0.937500 0.250000
vt 0.968750 0.250000
vt 1.000000 0.250000
vt 0.833767 0.000000
vt 0.843750 0.000000
vt 0.875000 0.000000
vt 0.906250 0.000000
vt 0.937500 0.000000
vt 0.968750 0.000000
vt 1.000000 0.000000
vn 0.000000 0.000000 -1.000000
vn 0.000000 0.000000 -1.000000
vn 0.000000 0.000000 -1.000000
vn 0.000000 0.000000 -1.000000
vn 0.000000 1.000000 0.000000
vn 0.000000 1.000000 0.000000
vn 0.000000 1.000000 0.000000
vn 0.000000 1.000000 0.000000
vn 0.000000 0.000000 1.000000
vn 0.000000 0.000000 1.000000
vn 0.000000 0.000000 1.000000
vn 0.000000 0.000000 1.000000
vn 0.000000 -1.000000 0.000000
vn 0.000000 -1.000000 0.000000
vn 0.000000 -1.000000 0.000000
vn 0.000000 -1.000000 0.000000
vn 1.000000 0.000000 0.000000
vn 1.000000 0.000000 0.000000
vn 1.000000 0.000000 0.000000
vn 1.000000 0.000000 0.000000
vn -1.000000 0.000000 0.000000
vn -1.000000 0.000000 0.000000
vn -1.000000 0.000000 0.000000
vn -1.000000 0.000000 0.000000
vn 0.000000 0.000000 -1.000000
vn 0.000000 0.000000 -1.000000
vn 0.000000 0.000000 -1.000000
vn 0.000000 0.000000 -1.000000
vn 0.000000 1.000000 0.000000
vn 0.000000 1.000000 0.000000
vn 0.000000 1.000000 0.000000
vn 0.000000 1.000000 0.000000
vn 0.000000 0.000000 1.000000
vn 0.000000 0.000000 1.000000
vn 0.000000 0.000000 1.000000
vn 0.000000 0.000000 1.000000
vn 0.000000 -1.000000 0.000000
vn 0.000000 -1.000000 0.000000
vn 0.000000 -1.000000 0.000000
vn 0.000000 -1.000000 0.000000
vn 1.000000 0.000000 0.000000
vn 1.000000 0.000000 0.000000
vn 1.000000 0.000000 0.000000
vn 1.000000 0.000000 0.000000
vn -1.000000 0.000000 0.000000
vn -1.000000 0.000000 0.000000
vn -1.000000 0.000000 0.000000
vn -1.000000 0.000000 0.000000
vn 0.000000 0.000000 -1.000000
vn 0.000000 0.000000 -1.000000
vn 0.000000 0.000000 -1.000000
vn 0.000000 0.000000 -1.000000
vn 0.000000 1.000000 0.000000
vn 0.000000 1.000000 0.000000
vn 0.000000 1.000000 0.000000
vn 0.000000 1.000000 0.000000
vn 1.000000 0.000000 0.000000
vn 1.000000 0.000000 0.000000
vn 1.000000 0.000000 0.000000
vn 1.000000 0.000000 0.000000
vn 0.000000 -1.000000 0.000000
vn 0.000000 -1.000000 0.000000
vn 0.000000 -1.000000 0.000000
vn 0.000000 -1.000000 0.000000
vn -1.000000 0.000000 0.000000
vn -1.000000 0.000000 0.000000
vn -1.000000 0.000000 0.000000
vn -1.000000 0.000000 0.000000
vn 0.015754 0.018700 0.999701
vn 0.015754 0.018694 0.999701
vn 0.015754 0.018694 0.999701
vn 0.015754 0.018700 0.999701
vn 0.015754 0.018694 0.999701
vn 0.015754 0.018694 0.999701
vn 0.015754 0.018694 0.999701
vn 0.015754 0.018694 0.999701
vn 0.015751 0.018691 0.999701
vn 0.015751 0.018691 0.999701
vn 0.015751 0.018691 0.999701
vn 0.015751 0.018691 0.999701
vn 0.015754 0.018688 0.999701
vn 0.015754 0.018688 0.999701
vn 1.000000 0.000000 0.000000
vn 1.000000 0.000000 0.000000
vn 1.000000 0.000000 0.000000
vn 1.000000 0.000000 0.000000
vn 0.000000 0.000000 -1.000000
vn 0.000000 0.000000 -1.000000
vn 0.000000 0.000000 -1.000000
vn 0.000000 0.000000 -1.000000
vn 0.000000 1.000000 0.000000
vn 0.000000 1.000000 0.000000
vn 0.000000 1.000000 0.000000
vn 0.000000 1.000000 0.000000
vn 0.000000 0.000000 1.000000
vn 0.000000 0.000000 1.000000
vn 0.000000 0.000000 1.000000
vn 0.000000 0.000000 1.000000
vn 0.000000 -1.000000 0.000000
vn 0.000000 -1.000000 0.000000
vn 0.000000 -1.000000 0.000000
vn 0.000000 -1.000000 0.000000
vn 0.597040 0.000000 0.802211
vn 0.471397 0.000000 0.881921
vn 0.471397 0.000000 0.881921
vn 0.597040 0.000000 0.802211
vn 0.707107 0.000000 0.707107
vn 0.707107 0.000000 0.707107
vn 0.831470 0.000000 0.555570
vn 0.831470 0.000000 0.555570
vn 0.923880 0.000000 0.382683
vn 0.923880 0.000000 0.382683
vn 0.980785 0.000000 0.195093
vn 0.980785 0.000000 0.195093
vn 0.995184 0.000000 0.098023
vn 0.995184 0.000000 0.098023
vn 0.000000 1.000000 0.000000
vn 0.000000 1.000000 0.000000
vn 0.000000 1.000000 0.000000
vn 0.000000 1.000000 0.000000
vn 0.000000 1.000000 0.000000
vn 0.000000 1.000000 0.000000
vn 0.000000 1.000000 0.000000
vn 0.000000 1.000000 0.000000
vn 0.000000 1.000000 0.000000
vn 0.000000 1.000000 0.000000
vn 0.000000 1.000000 0.000000
vn 0.000000 1.000000 0.000000
vn 0.000000 1.000000 0.000000
vn 0.000000 1.000000 0.000000
vn -0.569404 0.000000 -0.822058
vn -0.471397 0.000000 -0.881921
vn -0.471397 0.000000 -0.881921
vn -0.569404 0.000000 -0.822058
vn -0.707107 0.000000 -0.707107
vn -0.707107 0.000000 -0.707107
vn -0.831470 0.000000 -0.555570
vn -0.831470 0.000000 -0.555570
vn -0.923880 0.000000 -0.382683
vn -0.923880 0.000000 -0.382683
vn -0.980785 0.000000 -0.195093
vn -0.980785 0.000000 -0.195093
vn -0.995184 0.000000 -0.098022
vn -0.995184 0.000000 -0.098022
vn 0.000000 -1.000000 0.000000
vn 0.000000 -1.000000 0.000000
vn 0.000000 -1.000000 0.000000
vn 0.000000 -1.000000 0.000000
vn 0.000000 -1.000000 0.000000
vn 0.000000 -1.000000 0.000000
vn 0.000000 -1.000000 0.000000
vn 0.000000 -1.000000 0.000000
vn 0.000000 -1.000000 0.000000
vn 0.000000 -1.000000 0.000000
vn 0.000000 -1.000000 0.000000
vn 0.000000 -1.000000 0.000000
vn 0.000000 -1.000000 0.000000
vn 0.000000 -1.000000 0.000000
vn 0.570866 0.000000 0.821044
vn 0.471397 0.000000 0.881921
vn 0.471397 0.000000 0.881921
vn 0.570866 0.000000 0.821044
vn 0.707107 0.000000 0.707107
vn 0.707107 0.000000 0.707107
vn 0.831470 0.000000 0.555570
vn 0.831470 0.000000 0.555570
vn 0.923880 0.000000 0.382683
vn 0.923880 0.000000 0.382683
vn 0.980785 0.000000 0.195092
vn 0.980785 0.000000 0.195092
vn 0.995184 0.000000 0.098020
vn 0.995184 0.000000 0.098020
vn 0.000000 1.000000 0.000000
vn 0.000000 1.000000 0.000000
vn 0.000000 1.000000 0.000000
vn 0.000000 1.000000 0.000000
vn 0.000000 1.000000 0.000000
vn 0.000000 1.000000 0.000000
vn 0.000000 1.000000 0.000000
vn 0.000000 1.000000 0.000000
vn 0.000000 1.000000 0.000000
vn 0.000000 1.000000 0.000000
vn 0.000000 1.000000 0.000000
vn 0.000000 1.000000 0.000000
vn 0.000000 1.000000 0.000000
vn 0.000000 1.000000 0.000000
vn -0.569404 0.000000 -0.822058
vn -0.471397 0.000000 -0.881921
vn -0.471397 0.000000 -0.881921
vn -0.569404 0.000000 -0.822058
vn -0.707107 0.000000 -0.707107
vn -0.707107 0.000000 -0.707107
vn -0.831470 0.000000 -0.555570
vn -0.831470 0.000000 -0.555570
vn -0.923880 0.000000 -0.382683
vn -0.923880 0.000000 -0.382683
vn -0.980785 0.000000 -0.195093
vn -0.980785 0.000000 -0.195093
vn -0.995184 0.000000 -0.098022
vn -0.995184 0.000000 -0.098022
vn 0.000000 -1.000000 0.000000
vn 0.000000 -1.000000 0.000000
vn 0.000000 -1.000000 0.000000
vn 0.000000 -1.000000 0.000000
vn 0.000000 -1.000000 0.000000
vn 0.000000 -1.000000 0.000000
vn 0.000000 -1.000000 0.000000
vn 0.000000 -1.000000 0.000000
vn 0.000000 -1.000000 0.000000
vn 0.000000 -1.000000 0.000000
vn 0.000000 -1.000000 0.000000
vn 0.000000 -1.000000 0.000000
vn 0.000000 -1.000000 0.000000
vn 0.000000 -1.000000 0.000000
vn 0.597040 0.000000 0.802211
vn 0.471397 0.000000 0.881921
vn 0.471397 0.000000 0.881921
vn 0.597040 0.000000 0.802211
vn 0.707107 0.000000 0.707107
vn 0.707107 0.000000 0.707107
vn 0.831470 0.000000 0.555570
vn 0.831470 0.000000 0.555570
vn 0.923880 0.000000 0.382683
vn 0.923880 0.000000 0.382683
vn 0.980785 0.000000 0.195093
vn 0.980785 0.000000 0.195093
vn 0.995184 0.000000 0.098023
vn 0.995184 0.000000 0.098023
vn 0.000000 1.000000 0.000000
vn 0.000000 1.000000 0.000000
vn 0.000000 1.000000 0.000000
vn 0.000000 1.000000 0.000000
vn 0.000000 1.000000 0.000000
vn 0.000000 1.000000 0.000000
vn 0.000000 1.000000 0.000000
vn 0.000000 1.000000 0.000000
vn 0.000000 1.000000 0.000000
vn 0.000000 1.000000 0.000000
vn 0.000000 1.000000 0.000000
vn 0.000000 1.000000 0.000000
vn 0.000000 1.000000 0.000000
vn 0.000000 1.000000 0.000000
vn -0.593480 0.000000 -0.804849
vn -0.471398 0.000000 -0.881921
vn -0.471398 0.000000 -0.881921
vn -0.593480 0.000000 -0.804849
vn -0.707107 0.000000 -0.707107
vn -0.707107 0.000000 -0.707107
vn -0.831470 0.000000 -0.555570
vn -0.831470 0.000000 -0.555570
vn -0.923880 0.000000 -0.382683
vn -0.923880 0.000000 -0.382683
vn -0.980785 0.000000 -0.195092
vn -0.980785 0.000000 -0.195092
vn -0.995184 0.000000 -0.098020
vn -0.995184 0.000000 -0.098020
vn 0.000000 -1.000000 0.000000
vn 0.000000 -1.000000 0.000000
vn 0.000000 -1.000000 0.000000
vn 0.000000 -1.000000 0.000000
vn 0.000000 -1.000000 0.000000
vn 0.000000 -1.000000 0.000000
vn 0.000000 -1.000000 0.000000
vn 0.000000 -1.000000 0.000000
vn 0.000000 -1.000000 0.000000
vn 0.000000 -1.000000 0.000000
vn 0.000000 -1.000000 0.000000
vn 0.000000 -1.000000 0.000000
vn 0.000000 -1.000000 0.000000
vn 0.000000 -1.000000 0.000000
s off
g polySurface9
usemtl initialShadingGroup
f 1/1/1 3/2/2 4/3/3 2/4/4
f 3/2/5 5/5/6 6/6/7 4/3/8
f 5/5/9 7/7/10 8/8/11 6/6/12
f 7/7/13 1/9/14 2/10/15 8/8/16
f 2/4/17 4/3/18 6/11/19 8/12/20
f 7/13/21 5/14/22 3/2/23 1/1/24
f 9/15/25 11/16/26 12/17/27 10/18/28
f 11/16/29 13/19/30 14/20/31 12/17/32
f 13/19/33 15/21/34 16/22/35 14/20/36
f 15/21/37 9/23/38 10/24/39 16/22/40
f 10/18/41 12/17/42 14/25/43 16/26/44
f 15/27/45 13/28/46 11/16/47 9/15/48
f 17/29/49 19/30/50 20/31/51 18/32/52
f 19/30/53 21/33/54 22/34/55 20/31/56
f 18/32/57 20/31/58 22/35/59 24/36/60
f 23/37/61 17/38/62 18/39/63 24/40/64
f 21/41/65 19/30/66 17/29/67 23/42/68
s 1
f 21/33/69 26/43/70 25/44/71 22/34/72
f 26/43/70 28/45/73 27/46/74 25/44/71
f 28/45/73 30/47/75 29/48/76 27/46/74
f 30/47/75 32/49/77 31/50/78 29/48/76
f 32/49/77 34/51/79 33/52/80 31/50/78
f 34/51/79 23/37/81 24/40/82 33/52/80
s off
f 35/53/83 36/54/84 37/55/85 38/56/86
f 40/57/87 36/54/88 35/53/89 39/58/90
f 41/59/91 37/60/92 36/54/93 40/57/94
f 42/61/95 38/62/96 37/60/97 41/59/98
f 39/63/99 35/64/100 38/62/101 42/61/102
s 2
f 44/65/103 67/66/104 68/67/105 50/68/106
f 45/69/107 44/65/103 50/68/106 51/70/108
f 46/71/109 45/69/107 51/70/108 52/72/110
f 47/73/111 46/71/109 52/72/110 53/74/112
f 48/75/113 47/73/111 53/74/112 54/76/114
f 43/77/115 48/75/113 54/76/114 49/78/116
s 3
f 50/68/117 68/67/118 69/79/119 56/80/120
f 51/70/121 50/68/117 56/80/120 57/81/122
f 52/72/123 51/70/121 57/81/122 58/82/124
f 53/74/125 52/72/123 58/82/124 59/83/126
f 54/76/127 53/74/125 59/83/126 60/84/128
f 49/78/129 54/76/127 60/84/128 55/85/130
s 4
f 56/80/131 69/79/132 70/86/133 62/87/134
f 57/81/135 56/80/131 62/87/134 63/88/136
f 58/82/137 57/81/135 63/88/136 64/89/138
f 59/83/139 58/82/137 64/89/138 65/90/140
f 60/84/141 59/83/139 65/90/140 66/91/142
f 55/85/143 60/84/141 66/91/142 61/92/144
s 5
f 62/87/145 70/86/146 67/93/147 44/94/148
f 63/88/149 62/87/145 44/94/148 45/95/150
f 64/89/151 63/88/149 45/95/150 46/96/152
f 65/90/153 64/89/151 46/96/152 47/97/154
f 66/91/155 65/90/153 47/97/154 48/98/156
f 61/92/157 66/91/155 48/98/156 43/99/158
s 6
f 72/100/159 95/101/160 96/102/161 78/103/162
f 73/104/163 72/100/159 78/103/162 79/105/164
f 74/106/165 73/104/163 79/105/164 80/107/166
f 75/108/167 74/106/165 80/107/166 81/109/168
f 76/110/169 75/108/167 81/109/168 82/111/170
f 71/112/171 76/110/169 82/111/170 77/113/172
s 7
f 78/103/173 96/102/174 97/114/175 84/115/176
f 79/105/177 78/103/173 84/115/176 85/116/178
f 80/107/179 79/105/177 85/116/178 86/117/180
f 81/109/181 80/107/179 86/117/180 87/118/182
f 82/111/183 81/109/181 87/118/182 88/119/184
f 77/113/185 82/111/183 88/119/184 83/120/186
s 8
f 84/115/187 97/114/188 98/121/189 90/122/190
f 85/116/191 84/115/187 90/122/190 91/123/192
f 86/117/193 85/116/191 91/123/192 92/124/194
f 87/118/195 86/117/193 92/124/194 93/125/196
f 88/119/197 87/118/195 93/125/196 94/126/198
f 83/120/199 88/119/197 94/126/198 89/127/200
s 9
f 90/122/201 98/121/202 95/128/203 72/129/204
f 91/123/205 90/122/201 72/129/204 73/130/206
f 92/124/207 91/123/205 73/130/206 74/131/208
f 93/125/209 92/124/207 74/131/208 75/132/210
f 94/126/211 93/125/209 75/132/210 76/133/212
f 89/127/213 94/126/211 76/133/212 71/134/214
s 10
f 100/135/215 123/136/216 124/137/217 106/138/218
f 101/139/219 100/135/215 106/138/218 107/140/220
f 102/141/221 101/139/219 107/140/220 108/142/222
f 103/143/223 102/141/221 108/142/222 109/144/224
f 104/145/225 103/143/223 109/144/224 110/146/226
f 99/147/227 104/145/225 110/146/226 105/148/228
s 11
f 106/138/229 124/137/230 125/149/231 112/150/232
f 107/140/233 106/138/229 112/150/232 113/151/234
f 108/142/235 107/140/233 113/151/234 114/152/236
f 109/144/237 108/142/235 114/152/236 115/153/238
f 110/146/239 109/144/237 115/153/238 116/154/240
f 105/148/241 110/146/239 116/154/240 111/155/242
s 12
f 112/150/243 125/149/244 126/156/245 118/157/246
f 113/151/247 112/150/243 118/157/246 119/158/248
f 114/152/249 113/151/247 119/158/248 120/159/250
f 115/153/251 114/152/249 120/159/250 121/160/252
f 116/154/253 115/153/251 121/160/252 122/161/254
f 111/155/255 116/154/253 122/161/254 117/162/256
s 13
f 118/157/257 126/156/258 123/163/259 100/164/260
f 119/158/261 118/157/257 100/164/260 101/165/262
f 120/159/263 119/158/261 101/165/262 102/166/264
f 121/160/265 120/159/263 102/166/264 103/167/266
f 122/161/267 121/160/265 103/167/266 104/168/268
f 117/162/269 122/161/267 104/168/268 99/169/270
