# This file uses centimeters as units for non-parametric coordinates.

mtllib N - Outside Window Begin.mtl
g default
v -630.000000 -70.000000 420.000107
v -500.212837 -70.000000 399.443855
v -383.130131 -70.000000 339.787243
v -290.212784 -70.000000 246.869896
v -230.556145 -70.000000 129.787203
v -209.999866 -70.000000 0.000033
v -630.000000 0.000000 420.000107
v -500.212837 0.000000 399.443855
v -383.130131 0.000000 339.787243
v -290.212784 0.000000 246.869896
v -230.556145 0.000000 129.787203
v -209.999866 0.000000 0.000033
v -630.000053 0.000000 840.000214
v -370.425701 0.000000 798.887711
v -136.260288 0.000000 679.574486
v 49.574432 0.000000 493.739792
v 168.887711 0.000000 259.574406
v 210.000267 0.000000 0.000067
v -630.000053 -70.000000 840.000214
v -370.425701 -70.000000 798.887711
v -136.260288 -70.000000 679.574486
v 49.574432 -70.000000 493.739792
v 168.887711 -70.000000 259.574406
v 210.000267 -70.000000 0.000067
v -630.000000 0.000000 805.000053
v -381.241302 0.000000 765.600540
v -156.832829 0.000000 651.258751
v 21.258764 0.000000 473.167252
v 135.600634 0.000000 248.758751
v 175.000134 0.000000 0.000033
v -630.000000 70.000000 805.000053
v -381.241302 70.000000 765.600540
v -156.832829 70.000000 651.258751
v 21.258764 70.000000 473.167252
v 135.600634 70.000000 248.758751
v 175.000134 70.000000 0.000033
v -630.000053 70.000000 840.000214
v -370.425701 70.000000 798.887711
v -136.260288 70.000000 679.574486
v 49.574432 70.000000 493.739792
v 168.887711 70.000000 259.574406
v 210.000267 70.000000 0.000067
v -630.000053 0.000000 840.000214
v -370.425701 0.000000 798.887711
v -136.260288 0.000000 679.574486
v 49.574432 0.000000 493.739792
v 168.887711 0.000000 259.574406
v 210.000267 0.000000 0.000067
v -630.000000 0.000000 420.000107
v -500.212837 0.000000 399.443855
v -383.130131 0.000000 339.787243
v -290.212784 0.000000 246.869896
v -230.556145 0.000000 129.787203
v -209.999866 0.000000 0.000033
v -630.000000 70.000000 420.000107
v -500.212837 70.000000 399.443855
v -383.130131 70.000000 339.787243
v -290.212784 70.000000 246.869896
v -230.556145 70.000000 129.787203
v -209.999866 70.000000 0.000033
v -630.000053 70.000000 455.000053
v -489.397316 70.000000 432.730812
v -362.557697 70.000000 368.102818
v -261.897209 70.000000 267.442383
v -197.269201 70.000000 140.602804
v -174.999893 70.000000 0.000033
v -630.000053 0.000000 455.000053
v -489.397316 0.000000 432.730812
v -362.557697 0.000000 368.102818
v -261.897209 0.000000 267.442383
v -197.269201 0.000000 140.602804
v -174.999893 0.000000 0.000033
v -630.000000 -70.000000 420.000000
v -1890.000000 -70.000000 420.000000
v -630.000000 0.000000 420.000000
v -1890.000000 0.000000 420.000000
v -630.000000 0.000000 840.000000
v -1890.000000 0.000000 840.000000
v -630.000000 -70.000000 840.000000
v -1890.000000 -70.000000 840.000000
v -630.000000 0.000000 420.000000
v -1890.000000 0.000000 420.000000
v -630.000000 70.000000 420.000000
v -1890.000000 70.000000 420.000000
v -630.000000 70.000000 455.000000
v -1890.000000 70.000000 455.000000
v -630.000000 0.000000 455.000000
v -1890.000000 0.000000 455.000000
v -630.000000 0.000000 805.000000
v -1890.000000 0.000000 805.000000
v -630.000000 70.000000 805.000000
v -1890.000000 70.000000 805.000000
v -630.000000 70.000000 840.000000
v -1890.000000 70.000000 840.000000
v -630.000000 0.000000 840.000000
v -1890.000000 0.000000 840.000000
v -1277.500000 0.000000 420.000000
v -1277.500000 0.000000 560.000000
v -1277.500000 70.000000 420.000000
v -1277.500000 70.000000 560.000000
v -1242.500000 70.000000 420.000000
v -1242.500000 70.000000 560.000000
v -1242.500000 0.000000 420.000000
v -1242.500000 0.000000 560.000000
v -1277.500000 0.000000 700.000000
v -1277.500000 0.000000 840.000000
v -1277.500000 70.000000 700.000000
v -1277.500000 70.000000 840.000000
v -1242.500000 70.000000 700.000000
v -1242.500000 70.000000 840.000000
v -1242.500000 0.000000 700.000000
v -1242.500000 0.000000 840.000000
vt 0.300000 1.000000
vt 0.250000 1.000000
vt 0.250000 0.750000
vt 0.300000 0.750000
vt 0.350000 1.000000
vt 0.350000 0.750000
vt 0.400000 1.000000
vt 0.400000 0.750000
vt 0.450000 1.000000
vt 0.450000 0.750000
vt 0.500000 1.000000
vt 0.500000 0.750000
vt 0.250000 0.500000
vt 0.300000 0.500000
vt 0.350000 0.500000
vt 0.400000 0.500000
vt 0.450000 0.500000
vt 0.500000 0.500000
vt 0.250000 0.250000
vt 0.300000 0.250000
vt 0.350000 0.250000
vt 0.400000 0.250000
vt 0.450000 0.250000
vt 0.500000 0.250000
vt 0.250000 0.000000
vt 0.300000 0.000000
vt 0.350000 0.000000
vt 0.400000 0.000000
vt 0.450000 0.000000
vt 0.500000 0.000000
vt 0.300000 1.000000
vt 0.250000 1.000000
vt 0.250000 0.750000
vt 0.300000 0.750000
vt 0.350000 1.000000
vt 0.350000 0.750000
vt 0.400000 1.000000
vt 0.400000 0.750000
vt 0.450000 1.000000
vt 0.450000 0.750000
vt 0.500000 1.000000
vt 0.500000 0.750000
vt 0.250000 0.500000
vt 0.300000 0.500000
vt 0.350000 0.500000
vt 0.400000 0.500000
vt 0.450000 0.500000
vt 0.500000 0.500000
vt 0.250000 0.250000
vt 0.300000 0.250000
vt 0.350000 0.250000
vt 0.400000 0.250000
vt 0.450000 0.250000
vt 0.500000 0.250000
vt 0.250000 0.000000
vt 0.300000 0.000000
vt 0.350000 0.000000
vt 0.400000 0.000000
vt 0.450000 0.000000
vt 0.500000 0.000000
vt 0.300000 1.000000
vt 0.250000 1.000000
vt 0.250000 0.750000
vt 0.300000 0.750000
vt 0.350000 1.000000
vt 0.350000 0.750000
vt 0.400000 1.000000
vt 0.400000 0.750000
vt 0.450000 1.000000
vt 0.450000 0.750000
vt 0.500000 1.000000
vt 0.500000 0.750000
vt 0.250000 0.500000
vt 0.300000 0.500000
vt 0.350000 0.500000
vt 0.400000 0.500000
vt 0.450000 0.500000
vt 0.500000 0.500000
vt 0.250000 0.250000
vt 0.300000 0.250000
vt 0.350000 0.250000
vt 0.400000 0.250000
vt 0.450000 0.250000
vt 0.500000 0.250000
vt 0.250000 0.000000
vt 0.300000 0.000000
vt 0.350000 0.000000
vt 0.400000 0.000000
vt 0.450000 0.000000
vt 0.500000 0.000000
vt 0.375000 0.000000
vt 0.625000 0.000000
vt 0.625000 0.250000
vt 0.375000 0.250000
vt 0.625000 0.500000
vt 0.375000 0.500000
vt 0.625000 0.750000
vt 0.375000 0.750000
vt 0.625000 1.000000
vt 0.375000 1.000000
vt 0.875000 0.000000
vt 0.875000 0.250000
vt 0.125000 0.000000
vt 0.125000 0.250000
vt 0.375000 0.000000
vt 0.625000 0.000000
vt 0.625000 0.250000
vt 0.375000 0.250000
vt 0.625000 0.500000
vt 0.375000 0.500000
vt 0.625000 0.750000
vt 0.375000 0.750000
vt 0.625000 1.000000
vt 0.375000 1.000000
vt 0.875000 0.000000
vt 0.875000 0.250000
vt 0.125000 0.000000
vt 0.125000 0.250000
vt 0.375000 0.000000
vt 0.625000 0.000000
vt 0.625000 0.250000
vt 0.375000 0.250000
vt 0.625000 0.500000
vt 0.375000 0.500000
vt 0.625000 0.750000
vt 0.375000 0.750000
vt 0.625000 1.000000
vt 0.375000 1.000000
vt 0.875000 0.000000
vt 0.875000 0.250000
vt 0.125000 0.000000
vt 0.125000 0.250000
vt 0.375000 0.000000
vt 0.625000 0.000000
vt 0.375000 0.250000
vt 0.625000 0.250000
vt 0.375000 0.500000
vt 0.625000 0.500000
vt 0.375000 0.750000
vt 0.625000 0.750000
vt 0.375000 1.000000
vt 0.625000 1.000000
vt 0.875000 0.000000
vt 0.875000 0.250000
vt 0.125000 0.000000
vt 0.125000 0.250000
vt 0.375000 0.000000
vt 0.625000 0.000000
vt 0.375000 0.250000
vt 0.625000 0.250000
vt 0.375000 0.500000
vt 0.625000 0.500000
vt 0.375000 0.750000
vt 0.625000 0.750000
vt 0.375000 1.000000
vt 0.625000 1.000000
vt 0.875000 0.000000
vt 0.875000 0.250000
vt 0.125000 0.000000
vt 0.125000 0.250000
vn -0.309017 0.000000 -0.951057
vn -0.156434 0.000000 -0.987688
vn -0.309017 0.000000 -0.951057
vn -0.156434 0.000000 -0.987688
vn -0.587785 0.000000 -0.809017
vn -0.587785 0.000000 -0.809017
vn -0.809017 0.000000 -0.587785
vn -0.809017 0.000000 -0.587785
vn -0.951057 0.000000 -0.309017
vn -0.951057 0.000000 -0.309017
vn -0.987688 0.000000 -0.156435
vn -0.987688 0.000000 -0.156435
vn 0.000000 1.000000 -0.000000
vn 0.000000 1.000000 -0.000000
vn 0.000000 1.000000 -0.000000
vn 0.000000 1.000000 -0.000000
vn 0.000000 1.000000 -0.000000
vn 0.000000 1.000000 -0.000000
vn 0.000000 1.000000 -0.000000
vn 0.000000 1.000000 -0.000000
vn 0.000000 1.000000 -0.000000
vn 0.000000 1.000000 -0.000000
vn 0.000000 1.000000 -0.000000
vn 0.000000 1.000000 -0.000000
vn 0.309017 0.000000 0.951057
vn 0.156434 0.000000 0.987688
vn 0.309017 0.000000 0.951057
vn 0.156434 0.000000 0.987688
vn 0.587785 0.000000 0.809017
vn 0.587785 0.000000 0.809017
vn 0.809017 0.000000 0.587785
vn 0.809017 0.000000 0.587785
vn 0.951057 0.000000 0.309017
vn 0.951057 0.000000 0.309017
vn 0.987688 0.000000 0.156435
vn 0.987688 0.000000 0.156435
vn -0.000000 -1.000000 0.000000
vn 0.000000 -1.000000 0.000000
vn -0.000000 -1.000000 0.000000
vn 0.000000 -1.000000 0.000000
vn 0.000000 -1.000000 0.000000
vn -0.000000 -1.000000 0.000000
vn -0.000000 -1.000000 0.000000
vn 0.000000 -1.000000 -0.000000
vn -0.000000 -1.000000 0.000000
vn 0.000000 -1.000000 -0.000000
vn 0.000000 -1.000000 0.000000
vn 0.000000 -1.000000 -0.000000
vn -0.309017 0.000000 -0.951057
vn -0.156434 0.000000 -0.987688
vn -0.309017 0.000000 -0.951057
vn -0.156434 0.000000 -0.987688
vn -0.587785 0.000000 -0.809017
vn -0.587785 0.000000 -0.809017
vn -0.809017 0.000000 -0.587785
vn -0.809017 0.000000 -0.587785
vn -0.951057 0.000000 -0.309017
vn -0.951057 0.000000 -0.309017
vn -0.987688 0.000000 -0.156434
vn -0.987688 0.000000 -0.156434
vn 0.000000 1.000000 -0.000000
vn 0.000000 1.000000 -0.000000
vn 0.000000 1.000000 -0.000000
vn 0.000000 1.000000 -0.000000
vn 0.000000 1.000000 -0.000000
vn 0.000000 1.000000 -0.000000
vn 0.000000 1.000000 -0.000000
vn 0.000000 1.000000 -0.000000
vn 0.000000 1.000000 -0.000000
vn 0.000000 1.000000 -0.000000
vn -0.000000 1.000000 0.000000
vn -0.000000 1.000000 0.000000
vn 0.309017 0.000000 0.951057
vn 0.156434 0.000000 0.987688
vn 0.309017 0.000000 0.951057
vn 0.156434 0.000000 0.987688
vn 0.587785 0.000000 0.809017
vn 0.587785 0.000000 0.809017
vn 0.809017 0.000000 0.587785
vn 0.809017 0.000000 0.587785
vn 0.951057 0.000000 0.309017
vn 0.951057 0.000000 0.309017
vn 0.987688 0.000000 0.156435
vn 0.987688 0.000000 0.156435
vn 0.000000 -1.000000 0.000000
vn 0.000000 -1.000000 0.000000
vn 0.000000 -1.000000 0.000000
vn 0.000000 -1.000000 0.000000
vn 0.000000 -1.000000 0.000000
vn 0.000000 -1.000000 0.000000
vn 0.000000 -1.000000 0.000000
vn 0.000000 -1.000000 0.000000
vn 0.000000 -1.000000 0.000000
vn 0.000000 -1.000000 0.000000
vn 0.000000 -1.000000 0.000000
vn 0.000000 -1.000000 0.000000
vn -0.309017 0.000000 -0.951057
vn -0.156434 0.000000 -0.987688
vn -0.309017 0.000000 -0.951057
vn -0.156434 0.000000 -0.987688
vn -0.587785 0.000000 -0.809017
vn -0.587785 0.000000 -0.809017
vn -0.809017 0.000000 -0.587785
vn -0.809017 0.000000 -0.587785
vn -0.951057 0.000000 -0.309017
vn -0.951057 0.000000 -0.309017
vn -0.987688 0.000000 -0.156435
vn -0.987688 0.000000 -0.156435
vn 0.000000 1.000000 -0.000000
vn 0.000000 1.000000 -0.000000
vn 0.000000 1.000000 -0.000000
vn 0.000000 1.000000 -0.000000
vn -0.000000 1.000000 0.000000
vn 0.000000 1.000000 -0.000000
vn -0.000000 1.000000 0.000000
vn -0.000000 1.000000 0.000000
vn 0.000000 1.000000 -0.000000
vn 0.000000 1.000000 -0.000000
vn 0.000000 1.000000 -0.000000
vn 0.000000 1.000000 -0.000000
vn 0.309017 0.000000 0.951057
vn 0.156434 0.000000 0.987688
vn 0.309017 0.000000 0.951057
vn 0.156434 0.000000 0.987688
vn 0.587785 0.000000 0.809017
vn 0.587785 0.000000 0.809017
vn 0.809017 0.000000 0.587785
vn 0.809017 0.000000 0.587785
vn 0.951057 0.000000 0.309017
vn 0.951057 0.000000 0.309017
vn 0.987688 0.000000 0.156435
vn 0.987688 0.000000 0.156435
vn 0.000000 -1.000000 0.000000
vn 0.000000 -1.000000 0.000000
vn 0.000000 -1.000000 0.000000
vn 0.000000 -1.000000 0.000000
vn 0.000000 -1.000000 0.000000
vn 0.000000 -1.000000 0.000000
vn 0.000000 -1.000000 0.000000
vn 0.000000 -1.000000 0.000000
vn 0.000000 -1.000000 0.000000
vn 0.000000 -1.000000 0.000000
vn 0.000000 -1.000000 0.000000
vn 0.000000 -1.000000 0.000000
vn 0.000000 0.000000 -1.000000
vn 0.000000 0.000000 -1.000000
vn 0.000000 0.000000 -1.000000
vn 0.000000 0.000000 -1.000000
vn 0.000000 1.000000 -0.000000
vn 0.000000 1.000000 -0.000000
vn 0.000000 1.000000 -0.000000
vn 0.000000 1.000000 -0.000000
vn -0.000000 0.000000 1.000000
vn -0.000000 0.000000 1.000000
vn -0.000000 0.000000 1.000000
vn -0.000000 0.000000 1.000000
vn 0.000000 -1.000000 0.000000
vn 0.000000 -1.000000 0.000000
vn 0.000000 -1.000000 0.000000
vn 0.000000 -1.000000 0.000000
vn -1.000000 0.000000 -0.000000
vn -1.000000 0.000000 -0.000000
vn -1.000000 0.000000 -0.000000
vn -1.000000 0.000000 -0.000000
vn 1.000000 0.000000 0.000000
vn 1.000000 0.000000 0.000000
vn 1.000000 0.000000 0.000000
vn 1.000000 0.000000 0.000000
vn 0.000000 0.000000 -1.000000
vn 0.000000 0.000000 -1.000000
vn 0.000000 0.000000 -1.000000
vn 0.000000 0.000000 -1.000000
vn 0.000000 1.000000 -0.000000
vn 0.000000 1.000000 -0.000000
vn 0.000000 1.000000 -0.000000
vn 0.000000 1.000000 -0.000000
vn -0.000000 0.000000 1.000000
vn -0.000000 0.000000 1.000000
vn -0.000000 0.000000 1.000000
vn -0.000000 0.000000 1.000000
vn 0.000000 -1.000000 0.000000
vn 0.000000 -1.000000 0.000000
vn 0.000000 -1.000000 0.000000
vn 0.000000 -1.000000 0.000000
vn -1.000000 0.000000 -0.000000
vn -1.000000 0.000000 -0.000000
vn -1.000000 0.000000 -0.000000
vn -1.000000 0.000000 -0.000000
vn 1.000000 0.000000 0.000000
vn 1.000000 0.000000 0.000000
vn 1.000000 0.000000 0.000000
vn 1.000000 0.000000 0.000000
vn 0.000000 0.000000 -1.000000
vn 0.000000 0.000000 -1.000000
vn 0.000000 0.000000 -1.000000
vn 0.000000 0.000000 -1.000000
vn 0.000000 1.000000 -0.000000
vn 0.000000 1.000000 -0.000000
vn 0.000000 1.000000 -0.000000
vn 0.000000 1.000000 -0.000000
vn -0.000000 0.000000 1.000000
vn -0.000000 0.000000 1.000000
vn -0.000000 0.000000 1.000000
vn -0.000000 0.000000 1.000000
vn 0.000000 -1.000000 0.000000
vn 0.000000 -1.000000 0.000000
vn 0.000000 -1.000000 0.000000
vn 0.000000 -1.000000 0.000000
vn -1.000000 0.000000 -0.000000
vn -1.000000 0.000000 -0.000000
vn -1.000000 0.000000 -0.000000
vn -1.000000 0.000000 -0.000000
vn 1.000000 0.000000 0.000000
vn 1.000000 0.000000 0.000000
vn 1.000000 0.000000 0.000000
vn 1.000000 0.000000 0.000000
vn -1.000000 0.000000 -0.000000
vn -1.000000 0.000000 -0.000000
vn -1.000000 0.000000 -0.000000
vn -1.000000 0.000000 -0.000000
vn 0.000000 1.000000 -0.000000
vn 0.000000 1.000000 -0.000000
vn 0.000000 1.000000 -0.000000
vn 0.000000 1.000000 -0.000000
vn 1.000000 0.000000 0.000000
vn 1.000000 0.000000 0.000000
vn 1.000000 0.000000 0.000000
vn 1.000000 0.000000 0.000000
vn 0.000000 -1.000000 0.000000
vn 0.000000 -1.000000 0.000000
vn 0.000000 -1.000000 0.000000
vn 0.000000 -1.000000 0.000000
vn -0.000000 0.000000 1.000000
vn -0.000000 0.000000 1.000000
vn -0.000000 0.000000 1.000000
vn -0.000000 0.000000 1.000000
vn 0.000000 0.000000 -1.000000
vn 0.000000 0.000000 -1.000000
vn 0.000000 0.000000 -1.000000
vn 0.000000 0.000000 -1.000000
vn -1.000000 0.000000 -0.000000
vn -1.000000 0.000000 -0.000000
vn -1.000000 0.000000 -0.000000
vn -1.000000 0.000000 -0.000000
vn 0.000000 1.000000 -0.000000
vn 0.000000 1.000000 -0.000000
vn 0.000000 1.000000 -0.000000
vn 0.000000 1.000000 -0.000000
vn 1.000000 0.000000 0.000000
vn 1.000000 0.000000 0.000000
vn 1.000000 0.000000 0.000000
vn 1.000000 0.000000 0.000000
vn 0.000000 -1.000000 0.000000
vn 0.000000 -1.000000 0.000000
vn 0.000000 -1.000000 0.000000
vn 0.000000 -1.000000 0.000000
vn -0.000000 0.000000 1.000000
vn -0.000000 0.000000 1.000000
vn -0.000000 0.000000 1.000000
vn -0.000000 0.000000 1.000000
vn 0.000000 0.000000 -1.000000
vn 0.000000 0.000000 -1.000000
vn 0.000000 0.000000 -1.000000
vn 0.000000 0.000000 -1.000000
s 1
g polySurface10
usemtl initialShadingGroup
f 2/1/1 1/2/2 8/4/3
f 8/4/3 1/2/2 7/3/4
f 3/5/5 2/1/1 9/6/6
f 9/6/6 2/1/1 8/4/3
f 4/7/7 3/5/5 10/8/8
f 10/8/8 3/5/5 9/6/6
f 5/9/9 4/7/7 11/10/10
f 11/10/10 4/7/7 10/8/8
f 6/11/11 5/9/9 12/12/12
f 12/12/12 5/9/9 11/10/10
s 2
f 8/4/13 7/3/14 14/14/15
f 14/14/15 7/3/14 13/13/16
f 9/6/17 8/4/13 15/15/18
f 15/15/18 8/4/13 14/14/15
f 10/8/19 9/6/17 16/16/20
f 16/16/20 9/6/17 15/15/18
f 11/10/21 10/8/19 17/17/22
f 17/17/22 10/8/19 16/16/20
f 12/12/23 11/10/21 18/18/24
f 18/18/24 11/10/21 17/17/22
s 3
f 14/14/25 13/13/26 20/20/27
f 20/20/27 13/13/26 19/19/28
f 15/15/29 14/14/25 21/21/30
f 21/21/30 14/14/25 20/20/27
f 16/16/31 15/15/29 22/22/32
f 22/22/32 15/15/29 21/21/30
f 17/17/33 16/16/31 23/23/34
f 23/23/34 16/16/31 22/22/32
f 18/18/35 17/17/33 24/24/36
f 24/24/36 17/17/33 23/23/34
s 4
f 20/20/37 19/19/38 2/26/39
f 2/26/39 19/19/38 1/25/40
f 21/21/41 20/20/37 3/27/42
f 3/27/42 20/20/37 2/26/39
f 22/22/43 21/21/41 4/28/44
f 4/28/44 21/21/41 3/27/42
f 23/23/45 22/22/43 5/29/46
f 5/29/46 22/22/43 4/28/44
f 24/24/47 23/23/45 6/30/48
f 6/30/48 23/23/45 5/29/46
s 5
f 26/31/49 25/32/50 32/34/51
f 32/34/51 25/32/50 31/33/52
f 27/35/53 26/31/49 33/36/54
f 33/36/54 26/31/49 32/34/51
f 28/37/55 27/35/53 34/38/56
f 34/38/56 27/35/53 33/36/54
f 29/39/57 28/37/55 35/40/58
f 35/40/58 28/37/55 34/38/56
f 30/41/59 29/39/57 36/42/60
f 36/42/60 29/39/57 35/40/58
s 6
f 32/34/61 31/33/62 38/44/63
f 38/44/63 31/33/62 37/43/64
f 33/36/65 32/34/61 39/45/66
f 39/45/66 32/34/61 38/44/63
f 34/38/67 33/36/65 40/46/68
f 40/46/68 33/36/65 39/45/66
f 35/40/69 34/38/67 41/47/70
f 41/47/70 34/38/67 40/46/68
f 36/42/71 35/40/69 42/48/72
f 42/48/72 35/40/69 41/47/70
s 7
f 38/44/73 37/43/74 44/50/75
f 44/50/75 37/43/74 43/49/76
f 39/45/77 38/44/73 45/51/78
f 45/51/78 38/44/73 44/50/75
f 40/46/79 39/45/77 46/52/80
f 46/52/80 39/45/77 45/51/78
f 41/47/81 40/46/79 47/53/82
f 47/53/82 40/46/79 46/52/80
f 42/48/83 41/47/81 48/54/84
f 48/54/84 41/47/81 47/53/82
s 8
f 44/50/85 43/49/86 26/56/87
f 26/56/87 43/49/86 25/55/88
f 45/51/89 44/50/85 27/57/90
f 27/57/90 44/50/85 26/56/87
f 46/52/91 45/51/89 28/58/92
f 28/58/92 45/51/89 27/57/90
f 47/53/93 46/52/91 29/59/94
f 29/59/94 46/52/91 28/58/92
f 48/54/95 47/53/93 30/60/96
f 30/60/96 47/53/93 29/59/94
s 9
f 50/61/97 49/62/98 56/64/99
f 56/64/99 49/62/98 55/63/100
f 51/65/101 50/61/97 57/66/102
f 57/66/102 50/61/97 56/64/99
f 52/67/103 51/65/101 58/68/104
f 58/68/104 51/65/101 57/66/102
f 53/69/105 52/67/103 59/70/106
f 59/70/106 52/67/103 58/68/104
f 54/71/107 53/69/105 60/72/108
f 60/72/108 53/69/105 59/70/106
s 10
f 56/64/109 55/63/110 62/74/111
f 62/74/111 55/63/110 61/73/112
f 57/66/113 56/64/109 63/75/114
f 63/75/114 56/64/109 62/74/111
f 58/68/115 57/66/113 64/76/116
f 64/76/116 57/66/113 63/75/114
f 59/70/117 58/68/115 65/77/118
f 65/77/118 58/68/115 64/76/116
f 60/72/119 59/70/117 66/78/120
f 66/78/120 59/70/117 65/77/118
s 11
f 62/74/121 61/73/122 68/80/123
f 68/80/123 61/73/122 67/79/124
f 63/75/125 62/74/121 69/81/126
f 69/81/126 62/74/121 68/80/123
f 64/76/127 63/75/125 70/82/128
f 70/82/128 63/75/125 69/81/126
f 65/77/129 64/76/127 71/83/130
f 71/83/130 64/76/127 70/82/128
f 66/78/131 65/77/129 72/84/132
f 72/84/132 65/77/129 71/83/130
s 12
f 68/80/133 67/79/134 50/86/135
f 50/86/135 67/79/134 49/85/136
f 69/81/137 68/80/133 51/87/138
f 51/87/138 68/80/133 50/86/135
f 70/82/139 69/81/137 52/88/140
f 52/88/140 69/81/137 51/87/138
f 71/83/141 70/82/139 53/89/142
f 53/89/142 70/82/139 52/88/140
f 72/84/143 71/83/141 54/90/144
f 54/90/144 71/83/141 53/89/142
s 13
f 73/91/145 74/92/146 75/94/147
f 75/94/147 74/92/146 76/93/148
s 14
f 75/94/149 76/93/150 77/96/151
f 77/96/151 76/93/150 78/95/152
s 15
f 77/96/153 78/95/154 79/98/155
f 79/98/155 78/95/154 80/97/156
s 16
f 79/98/157 80/97/158 73/100/159
f 73/100/159 80/97/158 74/99/160
s 17
f 74/92/161 80/101/162 76/93/163
f 76/93/163 80/101/162 78/102/164
s 18
f 79/103/165 73/91/166 77/104/167
f 77/104/167 73/91/166 75/94/168
s 19
f 81/105/169 82/106/170 83/108/171
f 83/108/171 82/106/170 84/107/172
s 20
f 83/108/173 84/107/174 85/110/175
f 85/110/175 84/107/174 86/109/176
s 21
f 85/110/177 86/109/178 87/112/179
f 87/112/179 86/109/178 88/111/180
s 22
f 87/112/181 88/111/182 81/114/183
f 81/114/183 88/111/182 82/113/184
s 23
f 82/106/185 88/115/186 84/107/187
f 84/107/187 88/115/186 86/116/188
s 24
f 87/117/189 81/105/190 85/118/191
f 85/118/191 81/105/190 83/108/192
s 25
f 89/119/193 90/120/194 91/122/195
f 91/122/195 90/120/194 92/121/196
s 26
f 91/122/197 92/121/198 93/124/199
f 93/124/199 92/121/198 94/123/200
s 27
f 93/124/201 94/123/202 95/126/203
f 95/126/203 94/123/202 96/125/204
s 28
f 95/126/205 96/125/206 89/128/207
f 89/128/207 96/125/206 90/127/208
s 29
f 90/120/209 96/129/210 92/121/211
f 92/121/211 96/129/210 94/130/212
s 30
f 95/131/213 89/119/214 93/132/215
f 93/132/215 89/119/214 91/122/216
s 31
f 97/133/217 98/134/218 99/135/219
f 99/135/219 98/134/218 100/136/220
s 32
f 99/135/221 100/136/222 101/137/223
f 101/137/223 100/136/222 102/138/224
s 33
f 101/137/225 102/138/226 103/139/227
f 103/139/227 102/138/226 104/140/228
s 34
f 103/139/229 104/140/230 97/141/231
f 97/141/231 104/140/230 98/142/232
s 35
f 98/134/233 104/143/234 100/136/235
f 100/136/235 104/143/234 102/144/236
s 36
f 103/145/237 97/133/238 101/146/239
f 101/146/239 97/133/238 99/135/240
s 37
f 105/147/241 106/148/242 107/149/243
f 107/149/243 106/148/242 108/150/244
s 38
f 107/149/245 108/150/246 109/151/247
f 109/151/247 108/150/246 110/152/248
s 39
f 109/151/249 110/152/250 111/153/251
f 111/153/251 110/152/250 112/154/252
s 40
f 111/153/253 112/154/254 105/155/255
f 105/155/255 112/154/254 106/156/256
s 41
f 106/148/257 112/157/258 108/150/259
f 108/150/259 112/157/258 110/158/260
s 42
f 111/159/261 105/147/262 109/160/263
f 109/160/263 105/147/262 107/149/264
