# This file uses centimeters as units for non-parametric coordinates.

mtllib Q - Outside Window End.mtl
g default
v 35.000000 0.000000 682.500000
v -35.000000 0.000000 682.500000
v 35.000000 70.000000 682.500000
v -35.000000 70.000000 682.500000
v 35.000000 70.000000 717.500000
v -35.000000 70.000000 717.500000
v 35.000000 0.000000 717.500000
v -35.000000 0.000000 717.500000
v -209.999893 -70.000000 1260.000000
v -230.556145 -70.000000 1389.787109
v -290.212757 -70.000000 1506.869843
v -383.130131 -70.000000 1599.787216
v -500.212784 -70.000000 1659.443909
v -630.000000 -70.000000 1680.000107
v -209.999893 0.000000 1260.000000
v -230.556145 0.000000 1389.787109
v -290.212757 0.000000 1506.869843
v -383.130131 0.000000 1599.787216
v -500.212784 0.000000 1659.443909
v -630.000000 0.000000 1680.000107
v 210.000200 0.000000 1260.000000
v 168.887711 0.000000 1519.574326
v 49.574499 0.000000 1753.739685
v -136.260195 0.000000 1939.574432
v -370.425568 0.000000 2058.887817
v -629.999947 0.000000 2100.000214
v 210.000200 -70.000000 1260.000000
v 168.887711 -70.000000 1519.574326
v 49.574499 -70.000000 1753.739685
v -136.260195 -70.000000 1939.574432
v -370.425568 -70.000000 2058.887817
v -629.999947 -70.000000 2100.000214
v 175.000067 0.000000 1260.000000
v 135.600567 0.000000 1508.758698
v 21.258764 0.000000 1733.167145
v -156.832762 0.000000 1911.258698
v -381.241249 0.000000 2025.600647
v -630.000000 0.000000 2065.000214
v 175.000067 70.000000 1260.000000
v 135.600567 70.000000 1508.758698
v 21.258764 70.000000 1733.167145
v -156.832762 70.000000 1911.258698
v -381.241249 70.000000 2025.600647
v -630.000000 70.000000 2065.000214
v 210.000200 70.000000 1260.000000
v 168.887711 70.000000 1519.574326
v 49.574499 70.000000 1753.739685
v -136.260195 70.000000 1939.574432
v -370.425568 70.000000 2058.887817
v -629.999947 70.000000 2100.000214
v 210.000200 0.000000 1260.000000
v 168.887711 0.000000 1519.574326
v 49.574499 0.000000 1753.739685
v -136.260195 0.000000 1939.574432
v -370.425568 0.000000 2058.887817
v -629.999947 0.000000 2100.000214
v -209.999893 0.000000 1260.000000
v -230.556145 0.000000 1389.787109
v -290.212757 0.000000 1506.869843
v -383.130131 0.000000 1599.787216
v -500.212784 0.000000 1659.443909
v -630.000000 0.000000 1680.000107
v -209.999893 70.000000 1260.000000
v -230.556145 70.000000 1389.787109
v -290.212757 70.000000 1506.869843
v -383.130131 70.000000 1599.787216
v -500.212784 70.000000 1659.443909
v -630.000000 70.000000 1680.000107
v -174.999933 70.000000 1260.000000
v -197.269201 70.000000 1400.602631
v -261.897182 70.000000 1527.442276
v -362.557617 70.000000 1628.102844
v -489.397156 70.000000 1692.730865
v -630.000000 70.000000 1715.000107
v -174.999933 0.000000 1260.000000
v -197.269201 0.000000 1400.602631
v -261.897182 0.000000 1527.442276
v -362.557617 0.000000 1628.102844
v -489.397156 0.000000 1692.730865
v -630.000000 0.000000 1715.000107
v -210.000000 -70.000000 1260.000000
v -210.000000 -70.000000 -0.000000
v -210.000000 0.000000 1260.000000
v -210.000000 0.000000 -0.000000
v 210.000000 0.000000 1260.000000
v 210.000000 0.000000 0.000000
v 210.000000 -70.000000 1260.000000
v 210.000000 -70.000000 0.000000
v -210.000000 0.000000 1260.000000
v -210.000000 0.000000 -0.000000
v -210.000000 70.000000 1260.000000
v -210.000000 70.000000 -0.000000
v -175.000000 70.000000 1260.000000
v -175.000000 70.000000 -0.000000
v -175.000000 0.000000 1260.000000
v -175.000000 0.000000 -0.000000
v 175.000000 0.000000 1260.000000
v 175.000000 0.000000 0.000000
v 175.000000 70.000000 1260.000000
v 175.000000 70.000000 0.000000
v 210.000000 70.000000 1260.000000
v 210.000000 70.000000 0.000000
v 210.000000 0.000000 1260.000000
v 210.000000 0.000000 0.000000
vt 0.375000 0.000000
vt 0.625000 0.000000
vt 0.375000 0.250000
vt 0.625000 0.250000
vt 0.375000 0.500000
vt 0.625000 0.500000
vt 0.375000 0.750000
vt 0.625000 0.750000
vt 0.375000 1.000000
vt 0.625000 1.000000
vt 0.875000 0.000000
vt 0.875000 0.250000
vt 0.125000 0.000000
vt 0.125000 0.250000
vt 0.300000 1.000000
vt 0.300000 0.750000
vt 0.250000 1.000000
vt 0.250000 0.750000
vt 0.350000 1.000000
vt 0.350000 0.750000
vt 0.400000 1.000000
vt 0.400000 0.750000
vt 0.450000 1.000000
vt 0.450000 0.750000
vt 0.500000 1.000000
vt 0.500000 0.750000
vt 0.300000 0.500000
vt 0.250000 0.500000
vt 0.350000 0.500000
vt 0.400000 0.500000
vt 0.450000 0.500000
vt 0.500000 0.500000
vt 0.300000 0.250000
vt 0.250000 0.250000
vt 0.350000 0.250000
vt 0.400000 0.250000
vt 0.450000 0.250000
vt 0.500000 0.250000
vt 0.300000 0.000000
vt 0.250000 0.000000
vt 0.350000 0.000000
vt 0.400000 0.000000
vt 0.450000 0.000000
vt 0.500000 0.000000
vt 0.300000 1.000000
vt 0.300000 0.750000
vt 0.250000 1.000000
vt 0.250000 0.750000
vt 0.350000 1.000000
vt 0.350000 0.750000
vt 0.400000 1.000000
vt 0.400000 0.750000
vt 0.450000 1.000000
vt 0.450000 0.750000
vt 0.500000 1.000000
vt 0.500000 0.750000
vt 0.300000 0.500000
vt 0.250000 0.500000
vt 0.350000 0.500000
vt 0.400000 0.500000
vt 0.450000 0.500000
vt 0.500000 0.500000
vt 0.300000 0.250000
vt 0.250000 0.250000
vt 0.350000 0.250000
vt 0.400000 0.250000
vt 0.450000 0.250000
vt 0.500000 0.250000
vt 0.300000 0.000000
vt 0.250000 0.000000
vt 0.350000 0.000000
vt 0.400000 0.000000
vt 0.450000 0.000000
vt 0.500000 0.000000
vt 0.300000 1.000000
vt 0.300000 0.750000
vt 0.250000 1.000000
vt 0.250000 0.750000
vt 0.350000 1.000000
vt 0.350000 0.750000
vt 0.400000 1.000000
vt 0.400000 0.750000
vt 0.450000 1.000000
vt 0.450000 0.750000
vt 0.500000 1.000000
vt 0.500000 0.750000
vt 0.300000 0.500000
vt 0.250000 0.500000
vt 0.350000 0.500000
vt 0.400000 0.500000
vt 0.450000 0.500000
vt 0.500000 0.500000
vt 0.300000 0.250000
vt 0.250000 0.250000
vt 0.350000 0.250000
vt 0.400000 0.250000
vt 0.450000 0.250000
vt 0.500000 0.250000
vt 0.300000 0.000000
vt 0.250000 0.000000
vt 0.350000 0.000000
vt 0.400000 0.000000
vt 0.450000 0.000000
vt 0.500000 0.000000
vt 0.375000 0.000000
vt 0.375000 0.250000
vt 0.625000 0.000000
vt 0.625000 0.250000
vt 0.375000 0.500000
vt 0.625000 0.500000
vt 0.375000 0.750000
vt 0.625000 0.750000
vt 0.375000 1.000000
vt 0.625000 1.000000
vt 0.875000 0.000000
vt 0.875000 0.250000
vt 0.125000 0.000000
vt 0.125000 0.250000
vt 0.375000 0.000000
vt 0.375000 0.250000
vt 0.625000 0.000000
vt 0.625000 0.250000
vt 0.375000 0.500000
vt 0.625000 0.500000
vt 0.375000 0.750000
vt 0.625000 0.750000
vt 0.375000 1.000000
vt 0.625000 1.000000
vt 0.875000 0.000000
vt 0.875000 0.250000
vt 0.125000 0.000000
vt 0.125000 0.250000
vt 0.375000 0.000000
vt 0.375000 0.250000
vt 0.625000 0.000000
vt 0.625000 0.250000
vt 0.375000 0.500000
vt 0.625000 0.500000
vt 0.375000 0.750000
vt 0.625000 0.750000
vt 0.375000 1.000000
vt 0.625000 1.000000
vt 0.875000 0.000000
vt 0.875000 0.250000
vt 0.125000 0.000000
vt 0.125000 0.250000
vn 0.000000 0.000000 -1.000000
vn 0.000000 0.000000 -1.000000
vn 0.000000 0.000000 -1.000000
vn 0.000000 0.000000 -1.000000
vn 0.000000 1.000000 -0.000000
vn 0.000000 1.000000 -0.000000
vn 0.000000 1.000000 -0.000000
vn 0.000000 1.000000 -0.000000
vn -0.000000 0.000000 1.000000
vn -0.000000 0.000000 1.000000
vn -0.000000 0.000000 1.000000
vn -0.000000 0.000000 1.000000
vn 0.000000 -1.000000 0.000000
vn 0.000000 -1.000000 0.000000
vn 0.000000 -1.000000 0.000000
vn 0.000000 -1.000000 0.000000
vn -1.000000 0.000000 -0.000000
vn -1.000000 0.000000 -0.000000
vn -1.000000 0.000000 -0.000000
vn -1.000000 0.000000 -0.000000
vn 1.000000 0.000000 0.000000
vn 1.000000 0.000000 0.000000
vn 1.000000 0.000000 0.000000
vn 1.000000 0.000000 0.000000
vn -0.951057 0.000000 -0.309017
vn -0.951057 0.000000 -0.309017
vn -0.987688 0.000000 -0.156434
vn -0.987688 0.000000 -0.156434
vn -0.809017 0.000000 -0.587785
vn -0.809017 0.000000 -0.587785
vn -0.587786 0.000000 -0.809017
vn -0.587785 0.000000 -0.809017
vn -0.309017 0.000000 -0.951056
vn -0.309017 0.000000 -0.951057
vn -0.156435 0.000000 -0.987688
vn -0.156434 0.000000 -0.987688
vn 0.000000 1.000000 -0.000000
vn 0.000000 1.000000 -0.000000
vn 0.000000 1.000000 -0.000000
vn 0.000000 1.000000 -0.000000
vn 0.000000 1.000000 -0.000000
vn 0.000000 1.000000 -0.000000
vn 0.000000 1.000000 -0.000000
vn 0.000000 1.000000 -0.000000
vn 0.000000 1.000000 -0.000000
vn 0.000000 1.000000 -0.000000
vn 0.000000 1.000000 -0.000000
vn 0.000000 1.000000 -0.000000
vn 0.951057 0.000000 0.309017
vn 0.951057 0.000000 0.309017
vn 0.987688 0.000000 0.156434
vn 0.987688 0.000000 0.156434
vn 0.809017 0.000000 0.587785
vn 0.809017 0.000000 0.587785
vn 0.587785 0.000000 0.809017
vn 0.587785 0.000000 0.809017
vn 0.309017 0.000000 0.951057
vn 0.309017 0.000000 0.951057
vn 0.156434 0.000000 0.987688
vn 0.156434 0.000000 0.987689
vn 0.000000 -1.000000 -0.000000
vn 0.000000 -1.000000 -0.000000
vn 0.000000 -1.000000 -0.000000
vn 0.000000 -1.000000 0.000000
vn 0.000000 -1.000000 -0.000000
vn -0.000000 -1.000000 0.000000
vn 0.000000 -1.000000 -0.000000
vn -0.000000 -1.000000 0.000000
vn 0.000000 -1.000000 0.000000
vn -0.000000 -1.000000 0.000000
vn 0.000000 -1.000000 0.000000
vn 0.000000 -1.000000 0.000000
vn -0.951057 0.000000 -0.309017
vn -0.951057 0.000000 -0.309017
vn -0.987688 0.000000 -0.156434
vn -0.987688 0.000000 -0.156434
vn -0.809017 0.000000 -0.587785
vn -0.809017 0.000000 -0.587785
vn -0.587785 0.000000 -0.809017
vn -0.587785 0.000000 -0.809017
vn -0.309018 0.000000 -0.951056
vn -0.309018 0.000000 -0.951056
vn -0.156434 0.000000 -0.987689
vn -0.156434 0.000000 -0.987688
vn 0.000000 1.000000 -0.000000
vn 0.000000 1.000000 -0.000000
vn 0.000000 1.000000 -0.000000
vn 0.000000 1.000000 -0.000000
vn 0.000000 1.000000 -0.000000
vn 0.000000 1.000000 -0.000000
vn -0.000000 1.000000 0.000000
vn -0.000000 1.000000 0.000000
vn 0.000000 1.000000 -0.000000
vn 0.000000 1.000000 -0.000000
vn 0.000000 1.000000 -0.000000
vn 0.000000 1.000000 -0.000000
vn 0.951057 0.000000 0.309017
vn 0.951057 0.000000 0.309017
vn 0.987688 0.000000 0.156434
vn 0.987688 0.000000 0.156434
vn 0.809017 0.000000 0.587785
vn 0.809017 0.000000 0.587785
vn 0.587785 0.000000 0.809017
vn 0.587785 0.000000 0.809017
vn 0.309017 0.000000 0.951057
vn 0.309017 0.000000 0.951057
vn 0.156434 0.000000 0.987688
vn 0.156434 0.000000 0.987689
vn 0.000000 -1.000000 0.000000
vn 0.000000 -1.000000 0.000000
vn 0.000000 -1.000000 0.000000
vn 0.000000 -1.000000 0.000000
vn 0.000000 -1.000000 0.000000
vn 0.000000 -1.000000 0.000000
vn 0.000000 -1.000000 0.000000
vn 0.000000 -1.000000 0.000000
vn 0.000000 -1.000000 0.000000
vn 0.000000 -1.000000 0.000000
vn 0.000000 -1.000000 0.000000
vn 0.000000 -1.000000 0.000000
vn -0.951057 0.000000 -0.309017
vn -0.951057 0.000000 -0.309017
vn -0.987688 0.000000 -0.156434
vn -0.987688 0.000000 -0.156434
vn -0.809017 0.000000 -0.587785
vn -0.809017 0.000000 -0.587785
vn -0.587786 0.000000 -0.809017
vn -0.587785 0.000000 -0.809017
vn -0.309017 0.000000 -0.951056
vn -0.309017 0.000000 -0.951057
vn -0.156435 0.000000 -0.987688
vn -0.156434 0.000000 -0.987688
vn -0.000000 1.000000 0.000000
vn -0.000000 1.000000 0.000000
vn 0.000000 1.000000 -0.000000
vn 0.000000 1.000000 -0.000000
vn 0.000000 1.000000 -0.000000
vn 0.000000 1.000000 -0.000000
vn 0.000000 1.000000 -0.000000
vn 0.000000 1.000000 -0.000000
vn 0.000000 1.000000 -0.000000
vn 0.000000 1.000000 -0.000000
vn 0.000000 1.000000 -0.000000
vn 0.000000 1.000000 -0.000000
vn 0.951057 0.000000 0.309017
vn 0.951056 0.000000 0.309017
vn 0.987688 0.000000 0.156435
vn 0.987688 0.000000 0.156435
vn 0.809018 0.000000 0.587784
vn 0.809018 0.000000 0.587784
vn 0.587785 0.000000 0.809017
vn 0.587786 0.000000 0.809017
vn 0.309017 0.000000 0.951057
vn 0.309017 0.000000 0.951056
vn 0.156433 0.000000 0.987689
vn 0.156434 0.000000 0.987688
vn 0.000000 -1.000000 0.000000
vn 0.000000 -1.000000 0.000000
vn 0.000000 -1.000000 0.000000
vn 0.000000 -1.000000 0.000000
vn 0.000000 -1.000000 0.000000
vn 0.000000 -1.000000 0.000000
vn 0.000000 -1.000000 0.000000
vn 0.000000 -1.000000 0.000000
vn 0.000000 -1.000000 0.000000
vn 0.000000 -1.000000 0.000000
vn 0.000000 -1.000000 0.000000
vn 0.000000 -1.000000 0.000000
vn -1.000000 0.000000 -0.000000
vn -1.000000 0.000000 -0.000000
vn -1.000000 0.000000 -0.000000
vn -1.000000 0.000000 -0.000000
vn 0.000000 1.000000 -0.000000
vn 0.000000 1.000000 -0.000000
vn 0.000000 1.000000 -0.000000
vn 0.000000 1.000000 -0.000000
vn 1.000000 0.000000 0.000000
vn 1.000000 0.000000 0.000000
vn 1.000000 0.000000 0.000000
vn 1.000000 0.000000 0.000000
vn 0.000000 -1.000000 0.000000
vn 0.000000 -1.000000 0.000000
vn 0.000000 -1.000000 0.000000
vn 0.000000 -1.000000 0.000000
vn 0.000000 0.000000 -1.000000
vn 0.000000 0.000000 -1.000000
vn 0.000000 0.000000 -1.000000
vn 0.000000 0.000000 -1.000000
vn -0.000000 0.000000 1.000000
vn -0.000000 0.000000 1.000000
vn -0.000000 0.000000 1.000000
vn -0.000000 0.000000 1.000000
vn -1.000000 0.000000 -0.000000
vn -1.000000 0.000000 -0.000000
vn -1.000000 0.000000 -0.000000
vn -1.000000 0.000000 -0.000000
vn 0.000000 1.000000 -0.000000
vn 0.000000 1.000000 -0.000000
vn 0.000000 1.000000 -0.000000
vn 0.000000 1.000000 -0.000000
vn 1.000000 0.000000 0.000000
vn 1.000000 0.000000 0.000000
vn 1.000000 0.000000 0.000000
vn 1.000000 0.000000 0.000000
vn 0.000000 -1.000000 0.000000
vn 0.000000 -1.000000 0.000000
vn 0.000000 -1.000000 0.000000
vn 0.000000 -1.000000 0.000000
vn 0.000000 0.000000 -1.000000
vn 0.000000 0.000000 -1.000000
vn 0.000000 0.000000 -1.000000
vn 0.000000 0.000000 -1.000000
vn -0.000000 0.000000 1.000000
vn -0.000000 0.000000 1.000000
vn -0.000000 0.000000 1.000000
vn -0.000000 0.000000 1.000000
vn -1.000000 0.000000 -0.000000
vn -1.000000 0.000000 -0.000000
vn -1.000000 0.000000 -0.000000
vn -1.000000 0.000000 -0.000000
vn 0.000000 1.000000 -0.000000
vn 0.000000 1.000000 -0.000000
vn 0.000000 1.000000 -0.000000
vn 0.000000 1.000000 -0.000000
vn 1.000000 0.000000 0.000000
vn 1.000000 0.000000 0.000000
vn 1.000000 0.000000 0.000000
vn 1.000000 0.000000 0.000000
vn 0.000000 -1.000000 0.000000
vn 0.000000 -1.000000 0.000000
vn 0.000000 -1.000000 0.000000
vn 0.000000 -1.000000 0.000000
vn 0.000000 0.000000 -1.000000
vn 0.000000 0.000000 -1.000000
vn 0.000000 0.000000 -1.000000
vn 0.000000 0.000000 -1.000000
vn -0.000000 0.000000 1.000000
vn -0.000000 0.000000 1.000000
vn -0.000000 0.000000 1.000000
vn -0.000000 0.000000 1.000000
s 1
g polySurface17
usemtl initialShadingGroup
f 1/1/1 2/2/2 3/3/3
f 3/3/3 2/2/2 4/4/4
s 2
f 3/3/5 4/4/6 5/5/7
f 5/5/7 4/4/6 6/6/8
s 3
f 5/5/9 6/6/10 7/7/11
f 7/7/11 6/6/10 8/8/12
s 4
f 7/7/13 8/8/14 1/9/15
f 1/9/15 8/8/14 2/10/16
s 5
f 2/2/17 8/11/18 4/4/19
f 4/4/19 8/11/18 6/12/20
s 6
f 7/13/21 1/1/22 5/14/23
f 5/14/23 1/1/22 3/3/24
s 7
f 10/15/25 16/16/26 9/17/27
f 9/17/27 16/16/26 15/18/28
f 11/19/29 17/20/30 10/15/25
f 10/15/25 17/20/30 16/16/26
f 12/21/31 18/22/32 11/19/29
f 11/19/29 18/22/32 17/20/30
f 13/23/33 19/24/34 12/21/31
f 12/21/31 19/24/34 18/22/32
f 14/25/35 20/26/36 13/23/33
f 13/23/33 20/26/36 19/24/34
s 11
f 16/16/37 22/27/38 15/18/39
f 15/18/39 22/27/38 21/28/40
f 17/20/41 23/29/42 16/16/37
f 16/16/37 23/29/42 22/27/38
f 18/22/43 24/30/44 17/20/41
f 17/20/41 24/30/44 23/29/42
f 19/24/45 25/31/46 18/22/43
f 18/22/43 25/31/46 24/30/44
f 20/26/47 26/32/48 19/24/45
f 19/24/45 26/32/48 25/31/46
s 15
f 22/27/49 28/33/50 21/28/51
f 21/28/51 28/33/50 27/34/52
f 23/29/53 29/35/54 22/27/49
f 22/27/49 29/35/54 28/33/50
f 24/30/55 30/36/56 23/29/53
f 23/29/53 30/36/56 29/35/54
f 25/31/57 31/37/58 24/30/55
f 24/30/55 31/37/58 30/36/56
f 26/32/59 32/38/60 25/31/57
f 25/31/57 32/38/60 31/37/58
s 19
f 28/33/61 10/39/62 27/34/63
f 27/34/63 10/39/62 9/40/64
f 29/35/65 11/41/66 28/33/61
f 28/33/61 11/41/66 10/39/62
f 30/36/67 12/42/68 29/35/65
f 29/35/65 12/42/68 11/41/66
f 31/37/69 13/43/70 30/36/67
f 30/36/67 13/43/70 12/42/68
f 32/38/71 14/44/72 31/37/69
f 31/37/69 14/44/72 13/43/70
s 23
f 34/45/73 40/46/74 33/47/75
f 33/47/75 40/46/74 39/48/76
f 35/49/77 41/50/78 34/45/73
f 34/45/73 41/50/78 40/46/74
f 36/51/79 42/52/80 35/49/77
f 35/49/77 42/52/80 41/50/78
f 37/53/81 43/54/82 36/51/79
f 36/51/79 43/54/82 42/52/80
f 38/55/83 44/56/84 37/53/81
f 37/53/81 44/56/84 43/54/82
s 27
f 40/46/85 46/57/86 39/48/87
f 39/48/87 46/57/86 45/58/88
f 41/50/89 47/59/90 40/46/85
f 40/46/85 47/59/90 46/57/86
f 42/52/91 48/60/92 41/50/89
f 41/50/89 48/60/92 47/59/90
f 43/54/93 49/61/94 42/52/91
f 42/52/91 49/61/94 48/60/92
f 44/56/95 50/62/96 43/54/93
f 43/54/93 50/62/96 49/61/94
s 31
f 46/57/97 52/63/98 45/58/99
f 45/58/99 52/63/98 51/64/100
f 47/59/101 53/65/102 46/57/97
f 46/57/97 53/65/102 52/63/98
f 48/60/103 54/66/104 47/59/101
f 47/59/101 54/66/104 53/65/102
f 49/61/105 55/67/106 48/60/103
f 48/60/103 55/67/106 54/66/104
f 50/62/107 56/68/108 49/61/105
f 49/61/105 56/68/108 55/67/106
s 35
f 52/63/109 34/69/110 51/64/111
f 51/64/111 34/69/110 33/70/112
f 53/65/113 35/71/114 52/63/109
f 52/63/109 35/71/114 34/69/110
f 54/66/115 36/72/116 53/65/113
f 53/65/113 36/72/116 35/71/114
f 55/67/117 37/73/118 54/66/115
f 54/66/115 37/73/118 36/72/116
f 56/68/119 38/74/120 55/67/117
f 55/67/117 38/74/120 37/73/118
s 39
f 58/75/121 64/76/122 57/77/123
f 57/77/123 64/76/122 63/78/124
f 59/79/125 65/80/126 58/75/121
f 58/75/121 65/80/126 64/76/122
f 60/81/127 66/82/128 59/79/125
f 59/79/125 66/82/128 65/80/126
f 61/83/129 67/84/130 60/81/127
f 60/81/127 67/84/130 66/82/128
f 62/85/131 68/86/132 61/83/129
f 61/83/129 68/86/132 67/84/130
s 43
f 64/76/133 70/87/134 63/78/135
f 63/78/135 70/87/134 69/88/136
f 65/80/137 71/89/138 64/76/133
f 64/76/133 71/89/138 70/87/134
f 66/82/139 72/90/140 65/80/137
f 65/80/137 72/90/140 71/89/138
f 67/84/141 73/91/142 66/82/139
f 66/82/139 73/91/142 72/90/140
f 68/86/143 74/92/144 67/84/141
f 67/84/141 74/92/144 73/91/142
s 47
f 70/87/145 76/93/146 69/88/147
f 69/88/147 76/93/146 75/94/148
f 71/89/149 77/95/150 70/87/145
f 70/87/145 77/95/150 76/93/146
f 72/90/151 78/96/152 71/89/149
f 71/89/149 78/96/152 77/95/150
f 73/91/153 79/97/154 72/90/151
f 72/90/151 79/97/154 78/96/152
f 74/92/155 80/98/156 73/91/153
f 73/91/153 80/98/156 79/97/154
s 51
f 76/93/157 58/99/158 75/94/159
f 75/94/159 58/99/158 57/100/160
f 77/95/161 59/101/162 76/93/157
f 76/93/157 59/101/162 58/99/158
f 78/96/163 60/102/164 77/95/161
f 77/95/161 60/102/164 59/101/162
f 79/97/165 61/103/166 78/96/163
f 78/96/163 61/103/166 60/102/164
f 80/98/167 62/104/168 79/97/165
f 79/97/165 62/104/168 61/103/166
s 55
f 81/105/169 83/106/170 82/107/171
f 82/107/171 83/106/170 84/108/172
s 56
f 83/106/173 85/109/174 84/108/175
f 84/108/175 85/109/174 86/110/176
s 57
f 85/109/177 87/111/178 86/110/179
f 86/110/179 87/111/178 88/112/180
s 58
f 87/111/181 81/113/182 88/112/183
f 88/112/183 81/113/182 82/114/184
s 59
f 82/107/185 84/108/186 88/115/187
f 88/115/187 84/108/186 86/116/188
s 60
f 87/117/189 85/118/190 81/105/191
f 81/105/191 85/118/190 83/106/192
s 61
f 89/119/193 91/120/194 90/121/195
f 90/121/195 91/120/194 92/122/196
s 62
f 91/120/197 93/123/198 92/122/199
f 92/122/199 93/123/198 94/124/200
s 63
f 93/123/201 95/125/202 94/124/203
f 94/124/203 95/125/202 96/126/204
s 64
f 95/125/205 89/127/206 96/126/207
f 96/126/207 89/127/206 90/128/208
s 65
f 90/121/209 92/122/210 96/129/211
f 96/129/211 92/122/210 94/130/212
s 66
f 95/131/213 93/132/214 89/119/215
f 89/119/215 93/132/214 91/120/216
s 67
f 97/133/217 99/134/218 98/135/219
f 98/135/219 99/134/218 100/136/220
s 68
f 99/134/221 101/137/222 100/136/223
f 100/136/223 101/137/222 102/138/224
s 69
f 101/137/225 103/139/226 102/138/227
f 102/138/227 103/139/226 104/140/228
s 70
f 103/139/229 97/141/230 104/140/231
f 104/140/231 97/141/230 98/142/232
s 71
f 98/135/233 100/136/234 104/143/235
f 104/143/235 100/136/234 102/144/236
s 72
f 103/145/237 101/146/238 97/133/239
f 97/133/239 101/146/238 99/134/240
