# This file uses centimeters as units for non-parametric coordinates.

mtllib Q - Outside Window End.mtl
g default
v 29.999986 -10.000000 -180.000000
v 32.936592 -10.000000 -198.541012
v 41.458964 -10.000000 -215.267124
v 54.732876 -10.000000 -228.541031
v 71.458969 -10.000000 -237.063408
v 90.000000 -10.000000 -240.000019
v 29.999986 0.000000 -180.000000
v 32.936592 0.000000 -198.541012
v 41.458964 0.000000 -215.267124
v 54.732876 0.000000 -228.541031
v 71.458969 0.000000 -237.063408
v 90.000000 0.000000 -240.000019
v -30.000029 0.000000 -180.000000
v -24.126816 0.000000 -217.082043
v -7.082071 0.000000 -250.534248
v 19.465742 0.000000 -277.082062
v 52.917938 0.000000 -294.126816
v 89.999990 0.000000 -300.000038
v -30.000029 -10.000000 -180.000000
v -24.126816 -10.000000 -217.082043
v -7.082071 -10.000000 -250.534248
v 19.465742 -10.000000 -277.082062
v 52.917938 -10.000000 -294.126816
v 89.999990 -10.000000 -300.000038
v -25.000010 0.000000 -180.000000
v -19.371510 0.000000 -215.536957
v -3.036966 0.000000 -247.595310
v 22.404680 0.000000 -273.036957
v 54.463034 0.000000 -289.371529
v 90.000000 0.000000 -295.000019
v -25.000010 10.000000 -180.000000
v -19.371510 10.000000 -215.536957
v -3.036966 10.000000 -247.595310
v 22.404680 10.000000 -273.036957
v 54.463034 10.000000 -289.371529
v 90.000000 10.000000 -295.000019
v -30.000029 10.000000 -180.000000
v -24.126816 10.000000 -217.082043
v -7.082071 10.000000 -250.534248
v 19.465742 10.000000 -277.082062
v 52.917938 10.000000 -294.126816
v 89.999990 10.000000 -300.000038
v -30.000029 0.000000 -180.000000
v -24.126816 0.000000 -217.082043
v -7.082071 0.000000 -250.534248
v 19.465742 0.000000 -277.082062
v 52.917938 0.000000 -294.126816
v 89.999990 0.000000 -300.000038
v 29.999986 0.000000 -180.000000
v 32.936592 0.000000 -198.541012
v 41.458964 0.000000 -215.267124
v 54.732876 0.000000 -228.541031
v 71.458969 0.000000 -237.063408
v 90.000000 0.000000 -240.000019
v 29.999986 10.000000 -180.000000
v 32.936592 10.000000 -198.541012
v 41.458964 10.000000 -215.267124
v 54.732876 10.000000 -228.541031
v 71.458969 10.000000 -237.063408
v 90.000000 10.000000 -240.000019
v 24.999990 10.000000 -180.000000
v 28.181314 10.000000 -200.086098
v 37.413883 10.000000 -218.206043
v 51.793947 10.000000 -232.586117
v 69.913883 10.000000 -241.818695
v 90.000000 10.000000 -245.000019
v 24.999990 0.000000 -180.000000
v 28.181314 0.000000 -200.086098
v 37.413883 0.000000 -218.206043
v 51.793947 0.000000 -232.586117
v 69.913883 0.000000 -241.818695
v 90.000000 0.000000 -245.000019
v 30.000000 -10.000000 -180.000000
v 30.000000 -10.000000 0.000000
v 30.000000 0.000000 -180.000000
v 30.000000 0.000000 0.000000
v -30.000000 0.000000 -180.000000
v -30.000000 0.000000 0.000000
v -30.000000 -10.000000 -180.000000
v -30.000000 -10.000000 0.000000
v 30.000000 0.000000 -180.000000
v 30.000000 0.000000 0.000000
v 30.000000 10.000000 -180.000000
v 30.000000 10.000000 0.000000
v 25.000000 10.000000 -180.000000
v 25.000000 10.000000 0.000000
v 25.000000 0.000000 -180.000000
v 25.000000 0.000000 0.000000
v -25.000000 0.000000 -180.000000
v -25.000000 0.000000 0.000000
v -25.000000 10.000000 -180.000000
v -25.000000 10.000000 0.000000
v -30.000000 10.000000 -180.000000
v -30.000000 10.000000 0.000000
v -30.000000 0.000000 -180.000000
v -30.000000 0.000000 0.000000
vt 0.300000 1.000000
vt 0.300000 0.750000
vt 0.250000 0.750000
vt 0.250000 1.000000
vt 0.350000 1.000000
vt 0.350000 0.750000
vt 0.400000 1.000000
vt 0.400000 0.750000
vt 0.450000 1.000000
vt 0.450000 0.750000
vt 0.500000 1.000000
vt 0.500000 0.750000
vt 0.300000 0.500000
vt 0.250000 0.500000
vt 0.350000 0.500000
vt 0.400000 0.500000
vt 0.450000 0.500000
vt 0.500000 0.500000
vt 0.300000 0.250000
vt 0.250000 0.250000
vt 0.350000 0.250000
vt 0.400000 0.250000
vt 0.450000 0.250000
vt 0.500000 0.250000
vt 0.300000 0.000000
vt 0.250000 0.000000
vt 0.350000 0.000000
vt 0.400000 0.000000
vt 0.450000 0.000000
vt 0.500000 0.000000
vt 0.300000 1.000000
vt 0.300000 0.750000
vt 0.250000 0.750000
vt 0.250000 1.000000
vt 0.350000 1.000000
vt 0.350000 0.750000
vt 0.400000 1.000000
vt 0.400000 0.750000
vt 0.450000 1.000000
vt 0.450000 0.750000
vt 0.500000 1.000000
vt 0.500000 0.750000
vt 0.300000 0.500000
vt 0.250000 0.500000
vt 0.350000 0.500000
vt 0.400000 0.500000
vt 0.450000 0.500000
vt 0.500000 0.500000
vt 0.300000 0.250000
vt 0.250000 0.250000
vt 0.350000 0.250000
vt 0.400000 0.250000
vt 0.450000 0.250000
vt 0.500000 0.250000
vt 0.300000 0.000000
vt 0.250000 0.000000
vt 0.350000 0.000000
vt 0.400000 0.000000
vt 0.450000 0.000000
vt 0.500000 0.000000
vt 0.300000 1.000000
vt 0.300000 0.750000
vt 0.250000 0.750000
vt 0.250000 1.000000
vt 0.350000 1.000000
vt 0.350000 0.750000
vt 0.400000 1.000000
vt 0.400000 0.750000
vt 0.450000 1.000000
vt 0.450000 0.750000
vt 0.500000 1.000000
vt 0.500000 0.750000
vt 0.300000 0.500000
vt 0.250000 0.500000
vt 0.350000 0.500000
vt 0.400000 0.500000
vt 0.450000 0.500000
vt 0.500000 0.500000
vt 0.300000 0.250000
vt 0.250000 0.250000
vt 0.350000 0.250000
vt 0.400000 0.250000
vt 0.450000 0.250000
vt 0.500000 0.250000
vt 0.300000 0.000000
vt 0.250000 0.000000
vt 0.350000 0.000000
vt 0.400000 0.000000
vt 0.450000 0.000000
vt 0.500000 0.000000
vt 0.375000 0.000000
vt 0.375000 0.250000
vt 0.625000 0.250000
vt 0.625000 0.000000
vt 0.375000 0.500000
vt 0.625000 0.500000
vt 0.375000 0.750000
vt 0.625000 0.750000
vt 0.375000 1.000000
vt 0.625000 1.000000
vt 0.875000 0.250000
vt 0.875000 0.000000
vt 0.125000 0.000000
vt 0.125000 0.250000
vt 0.375000 0.000000
vt 0.375000 0.250000
vt 0.625000 0.250000
vt 0.625000 0.000000
vt 0.375000 0.500000
vt 0.625000 0.500000
vt 0.375000 0.750000
vt 0.625000 0.750000
vt 0.375000 1.000000
vt 0.625000 1.000000
vt 0.875000 0.250000
vt 0.875000 0.000000
vt 0.125000 0.000000
vt 0.125000 0.250000
vt 0.375000 0.000000
vt 0.375000 0.250000
vt 0.625000 0.250000
vt 0.625000 0.000000
vt 0.375000 0.500000
vt 0.625000 0.500000
vt 0.375000 0.750000
vt 0.625000 0.750000
vt 0.375000 1.000000
vt 0.625000 1.000000
vt 0.875000 0.250000
vt 0.875000 0.000000
vt 0.125000 0.000000
vt 0.125000 0.250000
vn 0.951056 0.000000 0.309017
vn 0.951057 0.000000 0.309017
vn 0.987688 0.000000 0.156434
vn 0.987688 0.000000 0.156434
vn 0.809017 0.000000 0.587785
vn 0.809017 0.000000 0.587785
vn 0.587786 0.000000 0.809017
vn 0.587785 0.000000 0.809017
vn 0.309017 0.000000 0.951056
vn 0.309018 0.000000 0.951056
vn 0.156433 0.000000 0.987689
vn 0.156434 0.000000 0.987688
vn 0.000000 1.000000 0.000000
vn 0.000000 1.000000 0.000000
vn 0.000000 1.000000 0.000000
vn 0.000000 1.000000 0.000000
vn 0.000000 1.000000 0.000000
vn 0.000000 1.000000 0.000000
vn 0.000000 1.000000 0.000000
vn 0.000000 1.000000 0.000000
vn 0.000000 1.000000 0.000000
vn 0.000000 1.000000 0.000000
vn 0.000000 1.000000 0.000000
vn 0.000000 1.000000 0.000000
vn -0.951057 0.000000 -0.309017
vn -0.951056 0.000000 -0.309017
vn -0.987688 0.000000 -0.156434
vn -0.987688 0.000000 -0.156434
vn -0.809017 0.000000 -0.587785
vn -0.809017 0.000000 -0.587785
vn -0.587785 0.000000 -0.809017
vn -0.587785 0.000000 -0.809017
vn -0.309017 0.000000 -0.951056
vn -0.309017 0.000000 -0.951056
vn -0.156435 0.000000 -0.987688
vn -0.156435 0.000000 -0.987688
vn 0.000000 -1.000000 0.000000
vn 0.000000 -1.000000 0.000000
vn 0.000000 -1.000000 0.000000
vn 0.000000 -1.000000 0.000000
vn 0.000000 -1.000000 0.000000
vn 0.000000 -1.000000 0.000000
vn 0.000000 -1.000000 0.000000
vn 0.000000 -1.000000 0.000000
vn 0.000000 -1.000000 0.000000
vn 0.000000 -1.000000 0.000000
vn 0.000000 -1.000000 0.000000
vn 0.000000 -1.000000 0.000000
vn 0.951057 0.000000 0.309017
vn 0.951057 0.000000 0.309017
vn 0.987688 0.000000 0.156434
vn 0.987688 0.000000 0.156434
vn 0.809017 0.000000 0.587785
vn 0.809017 0.000000 0.587785
vn 0.587786 0.000000 0.809017
vn 0.587786 0.000000 0.809017
vn 0.309017 0.000000 0.951056
vn 0.309017 0.000000 0.951056
vn 0.156434 0.000000 0.987688
vn 0.156434 0.000000 0.987688
vn 0.000000 1.000000 0.000000
vn 0.000000 1.000000 0.000000
vn 0.000000 1.000000 0.000000
vn 0.000000 1.000000 0.000000
vn 0.000000 1.000000 0.000000
vn 0.000000 1.000000 0.000000
vn 0.000000 1.000000 0.000000
vn 0.000000 1.000000 0.000000
vn 0.000000 1.000000 0.000000
vn 0.000000 1.000000 0.000000
vn 0.000000 1.000000 0.000000
vn 0.000000 1.000000 0.000000
vn -0.951057 0.000000 -0.309017
vn -0.951056 0.000000 -0.309017
vn -0.987688 0.000000 -0.156434
vn -0.987688 0.000000 -0.156434
vn -0.809017 0.000000 -0.587785
vn -0.809017 0.000000 -0.587785
vn -0.587785 0.000000 -0.809017
vn -0.587785 0.000000 -0.809017
vn -0.309017 0.000000 -0.951056
vn -0.309017 0.000000 -0.951056
vn -0.156435 0.000000 -0.987688
vn -0.156435 0.000000 -0.987688
vn 0.000000 -1.000000 0.000000
vn 0.000000 -1.000000 0.000000
vn 0.000000 -1.000000 0.000000
vn 0.000000 -1.000000 0.000000
vn 0.000000 -1.000000 0.000000
vn 0.000000 -1.000000 0.000000
vn 0.000000 -1.000000 0.000000
vn 0.000000 -1.000000 0.000000
vn 0.000000 -1.000000 0.000000
vn 0.000000 -1.000000 0.000000
vn 0.000000 -1.000000 0.000000
vn 0.000000 -1.000000 0.000000
vn 0.951056 0.000000 0.309017
vn 0.951057 0.000000 0.309017
vn 0.987688 0.000000 0.156434
vn 0.987688 0.000000 0.156434
vn 0.809017 0.000000 0.587785
vn 0.809017 0.000000 0.587785
vn 0.587786 0.000000 0.809017
vn 0.587785 0.000000 0.809017
vn 0.309017 0.000000 0.951056
vn 0.309018 0.000000 0.951056
vn 0.156433 0.000000 0.987689
vn 0.156434 0.000000 0.987688
vn 0.000000 1.000000 0.000000
vn 0.000000 1.000000 0.000000
vn 0.000000 1.000000 0.000000
vn 0.000000 1.000000 0.000000
vn 0.000000 1.000000 0.000000
vn 0.000000 1.000000 0.000000
vn 0.000000 1.000000 0.000000
vn 0.000000 1.000000 0.000000
vn 0.000000 1.000000 0.000000
vn 0.000000 1.000000 0.000000
vn 0.000000 1.000000 0.000000
vn 0.000000 1.000000 0.000000
vn -0.951057 0.000000 -0.309017
vn -0.951057 0.000000 -0.309017
vn -0.987688 0.000000 -0.156434
vn -0.987688 0.000000 -0.156434
vn -0.809017 0.000000 -0.587785
vn -0.809017 0.000000 -0.587785
vn -0.587786 0.000000 -0.809017
vn -0.587786 0.000000 -0.809017
vn -0.309016 0.000000 -0.951057
vn -0.309016 0.000000 -0.951057
vn -0.156435 0.000000 -0.987688
vn -0.156435 0.000000 -0.987688
vn 0.000000 -1.000000 0.000000
vn 0.000000 -1.000000 0.000000
vn 0.000000 -1.000000 0.000000
vn 0.000000 -1.000000 0.000000
vn 0.000000 -1.000000 0.000000
vn 0.000000 -1.000000 0.000000
vn 0.000000 -1.000000 0.000000
vn 0.000000 -1.000000 0.000000
vn 0.000000 -1.000000 0.000000
vn 0.000000 -1.000000 0.000000
vn 0.000000 -1.000000 0.000000
vn 0.000000 -1.000000 0.000000
vn 1.000000 0.000000 0.000000
vn 1.000000 0.000000 0.000000
vn 1.000000 0.000000 0.000000
vn 1.000000 0.000000 0.000000
vn 0.000000 1.000000 0.000000
vn 0.000000 1.000000 0.000000
vn 0.000000 1.000000 0.000000
vn 0.000000 1.000000 0.000000
vn -1.000000 0.000000 0.000000
vn -1.000000 0.000000 0.000000
vn -1.000000 0.000000 0.000000
vn -1.000000 0.000000 0.000000
vn 0.000000 -1.000000 0.000000
vn 0.000000 -1.000000 0.000000
vn 0.000000 -1.000000 0.000000
vn 0.000000 -1.000000 0.000000
vn 0.000000 0.000000 1.000000
vn 0.000000 0.000000 1.000000
vn 0.000000 0.000000 1.000000
vn 0.000000 0.000000 1.000000
vn 0.000000 0.000000 -1.000000
vn 0.000000 0.000000 -1.000000
vn 0.000000 0.000000 -1.000000
vn 0.000000 0.000000 -1.000000
vn 1.000000 0.000000 0.000000
vn 1.000000 0.000000 0.000000
vn 1.000000 0.000000 0.000000
vn 1.000000 0.000000 0.000000
vn 0.000000 1.000000 0.000000
vn 0.000000 1.000000 0.000000
vn 0.000000 1.000000 0.000000
vn 0.000000 1.000000 0.000000
vn -1.000000 0.000000 0.000000
vn -1.000000 0.000000 0.000000
vn -1.000000 0.000000 0.000000
vn -1.000000 0.000000 0.000000
vn 0.000000 -1.000000 0.000000
vn 0.000000 -1.000000 0.000000
vn 0.000000 -1.000000 0.000000
vn 0.000000 -1.000000 0.000000
vn 0.000000 0.000000 1.000000
vn 0.000000 0.000000 1.000000
vn 0.000000 0.000000 1.000000
vn 0.000000 0.000000 1.000000
vn 0.000000 0.000000 -1.000000
vn 0.000000 0.000000 -1.000000
vn 0.000000 0.000000 -1.000000
vn 0.000000 0.000000 -1.000000
vn 1.000000 0.000000 0.000000
vn 1.000000 0.000000 0.000000
vn 1.000000 0.000000 0.000000
vn 1.000000 0.000000 0.000000
vn 0.000000 1.000000 0.000000
vn 0.000000 1.000000 0.000000
vn 0.000000 1.000000 0.000000
vn 0.000000 1.000000 0.000000
vn -1.000000 0.000000 0.000000
vn -1.000000 0.000000 0.000000
vn -1.000000 0.000000 0.000000
vn -1.000000 0.000000 0.000000
vn 0.000000 -1.000000 0.000000
vn 0.000000 -1.000000 0.000000
vn 0.000000 -1.000000 0.000000
vn 0.000000 -1.000000 0.000000
vn 0.000000 0.000000 1.000000
vn 0.000000 0.000000 1.000000
vn 0.000000 0.000000 1.000000
vn 0.000000 0.000000 1.000000
vn 0.000000 0.000000 -1.000000
vn 0.000000 0.000000 -1.000000
vn 0.000000 0.000000 -1.000000
vn 0.000000 0.000000 -1.000000
s 1
g polySurface9
usemtl initialShadingGroup
f 2/1/1 8/2/2 1/4/3
f 1/4/3 8/2/2 7/3/4
f 3/5/5 9/6/6 2/1/1
f 2/1/1 9/6/6 8/2/2
f 4/7/7 10/8/8 3/5/5
f 3/5/5 10/8/8 9/6/6
f 5/9/9 11/10/10 4/7/7
f 4/7/7 11/10/10 10/8/8
f 6/11/11 12/12/12 5/9/9
f 5/9/9 12/12/12 11/10/10
s 5
f 8/2/13 14/13/14 7/3/15
f 7/3/15 14/13/14 13/14/16
f 9/6/17 15/15/18 8/2/13
f 8/2/13 15/15/18 14/13/14
f 10/8/19 16/16/20 9/6/17
f 9/6/17 16/16/20 15/15/18
f 11/10/21 17/17/22 10/8/19
f 10/8/19 17/17/22 16/16/20
f 12/12/23 18/18/24 11/10/21
f 11/10/21 18/18/24 17/17/22
s 9
f 14/13/25 20/19/26 13/14/27
f 13/14/27 20/19/26 19/20/28
f 15/15/29 21/21/30 14/13/25
f 14/13/25 21/21/30 20/19/26
f 16/16/31 22/22/32 15/15/29
f 15/15/29 22/22/32 21/21/30
f 17/17/33 23/23/34 16/16/31
f 16/16/31 23/23/34 22/22/32
f 18/18/35 24/24/36 17/17/33
f 17/17/33 24/24/36 23/23/34
s 13
f 20/19/37 2/25/38 19/20/39
f 19/20/39 2/25/38 1/26/40
f 21/21/41 3/27/42 20/19/37
f 20/19/37 3/27/42 2/25/38
f 22/22/43 4/28/44 21/21/41
f 21/21/41 4/28/44 3/27/42
f 23/23/45 5/29/46 22/22/43
f 22/22/43 5/29/46 4/28/44
f 24/24/47 6/30/48 23/23/45
f 23/23/45 6/30/48 5/29/46
s 17
f 26/31/49 32/32/50 25/34/51
f 25/34/51 32/32/50 31/33/52
f 27/35/53 33/36/54 26/31/49
f 26/31/49 33/36/54 32/32/50
f 28/37/55 34/38/56 27/35/53
f 27/35/53 34/38/56 33/36/54
f 29/39/57 35/40/58 28/37/55
f 28/37/55 35/40/58 34/38/56
f 30/41/59 36/42/60 29/39/57
f 29/39/57 36/42/60 35/40/58
s 21
f 32/32/61 38/43/62 31/33/63
f 31/33/63 38/43/62 37/44/64
f 33/36/65 39/45/66 32/32/61
f 32/32/61 39/45/66 38/43/62
f 34/38/67 40/46/68 33/36/65
f 33/36/65 40/46/68 39/45/66
f 35/40/69 41/47/70 34/38/67
f 34/38/67 41/47/70 40/46/68
f 36/42/71 42/48/72 35/40/69
f 35/40/69 42/48/72 41/47/70
s 25
f 38/43/73 44/49/74 37/44/75
f 37/44/75 44/49/74 43/50/76
f 39/45/77 45/51/78 38/43/73
f 38/43/73 45/51/78 44/49/74
f 40/46/79 46/52/80 39/45/77
f 39/45/77 46/52/80 45/51/78
f 41/47/81 47/53/82 40/46/79
f 40/46/79 47/53/82 46/52/80
f 42/48/83 48/54/84 41/47/81
f 41/47/81 48/54/84 47/53/82
s 29
f 44/49/85 26/55/86 43/50/87
f 43/50/87 26/55/86 25/56/88
f 45/51/89 27/57/90 44/49/85
f 44/49/85 27/57/90 26/55/86
f 46/52/91 28/58/92 45/51/89
f 45/51/89 28/58/92 27/57/90
f 47/53/93 29/59/94 46/52/91
f 46/52/91 29/59/94 28/58/92
f 48/54/95 30/60/96 47/53/93
f 47/53/93 30/60/96 29/59/94
s 33
f 50/61/97 56/62/98 49/64/99
f 49/64/99 56/62/98 55/63/100
f 51/65/101 57/66/102 50/61/97
f 50/61/97 57/66/102 56/62/98
f 52/67/103 58/68/104 51/65/101
f 51/65/101 58/68/104 57/66/102
f 53/69/105 59/70/106 52/67/103
f 52/67/103 59/70/106 58/68/104
f 54/71/107 60/72/108 53/69/105
f 53/69/105 60/72/108 59/70/106
s 37
f 56/62/109 62/73/110 55/63/111
f 55/63/111 62/73/110 61/74/112
f 57/66/113 63/75/114 56/62/109
f 56/62/109 63/75/114 62/73/110
f 58/68/115 64/76/116 57/66/113
f 57/66/113 64/76/116 63/75/114
f 59/70/117 65/77/118 58/68/115
f 58/68/115 65/77/118 64/76/116
f 60/72/119 66/78/120 59/70/117
f 59/70/117 66/78/120 65/77/118
s 41
f 62/73/121 68/79/122 61/74/123
f 61/74/123 68/79/122 67/80/124
f 63/75/125 69/81/126 62/73/121
f 62/73/121 69/81/126 68/79/122
f 64/76/127 70/82/128 63/75/125
f 63/75/125 70/82/128 69/81/126
f 65/77/129 71/83/130 64/76/127
f 64/76/127 71/83/130 70/82/128
f 66/78/131 72/84/132 65/77/129
f 65/77/129 72/84/132 71/83/130
s 45
f 68/79/133 50/85/134 67/80/135
f 67/80/135 50/85/134 49/86/136
f 69/81/137 51/87/138 68/79/133
f 68/79/133 51/87/138 50/85/134
f 70/82/139 52/88/140 69/81/137
f 69/81/137 52/88/140 51/87/138
f 71/83/141 53/89/142 70/82/139
f 70/82/139 53/89/142 52/88/140
f 72/84/143 54/90/144 71/83/141
f 71/83/141 54/90/144 53/89/142
s 49
f 73/91/145 75/92/146 74/94/147
f 74/94/147 75/92/146 76/93/148
s 50
f 75/92/149 77/95/150 76/93/151
f 76/93/151 77/95/150 78/96/152
s 51
f 77/95/153 79/97/154 78/96/155
f 78/96/155 79/97/154 80/98/156
s 52
f 79/97/157 73/99/158 80/98/159
f 80/98/159 73/99/158 74/100/160
s 53
f 74/94/161 76/93/162 80/102/163
f 80/102/163 76/93/162 78/101/164
s 54
f 79/103/165 77/104/166 73/91/167
f 73/91/167 77/104/166 75/92/168
s 55
f 81/105/169 83/106/170 82/108/171
f 82/108/171 83/106/170 84/107/172
s 56
f 83/106/173 85/109/174 84/107/175
f 84/107/175 85/109/174 86/110/176
s 57
f 85/109/177 87/111/178 86/110/179
f 86/110/179 87/111/178 88/112/180
s 58
f 87/111/181 81/113/182 88/112/183
f 88/112/183 81/113/182 82/114/184
s 59
f 82/108/185 84/107/186 88/116/187
f 88/116/187 84/107/186 86/115/188
s 60
f 87/117/189 85/118/190 81/105/191
f 81/105/191 85/118/190 83/106/192
s 61
f 89/119/193 91/120/194 90/122/195
f 90/122/195 91/120/194 92/121/196
s 62
f 91/120/197 93/123/198 92/121/199
f 92/121/199 93/123/198 94/124/200
s 63
f 93/123/201 95/125/202 94/124/203
f 94/124/203 95/125/202 96/126/204
s 64
f 95/125/205 89/127/206 96/126/207
f 96/126/207 89/127/206 90/128/208
s 65
f 90/122/209 92/121/210 96/130/211
f 96/130/211 92/121/210 94/129/212
s 66
f 95/131/213 93/132/214 89/119/215
f 89/119/215 93/132/214 91/120/216
g default
v -5.000000 0.000000 -97.500000
v 5.000000 0.000000 -97.500000
v -5.000000 10.000000 -97.500000
v 5.000000 10.000000 -97.500000
v -5.000000 10.000000 -102.500000
v 5.000000 10.000000 -102.500000
v -5.000000 0.000000 -102.500000
v 5.000000 0.000000 -102.500000
vt 0.375000 0.000000
vt 0.625000 0.000000
vt 0.375000 0.250000
vt 0.625000 0.250000
vt 0.375000 0.500000
vt 0.625000 0.500000
vt 0.375000 0.750000
vt 0.625000 0.750000
vt 0.375000 1.000000
vt 0.625000 1.000000
vt 0.875000 0.000000
vt 0.875000 0.250000
vt 0.125000 0.000000
vt 0.125000 0.250000
vn 0.000000 0.000000 1.000000
vn 0.000000 0.000000 1.000000
vn 0.000000 0.000000 1.000000
vn 0.000000 0.000000 1.000000
vn 0.000000 1.000000 0.000000
vn 0.000000 1.000000 0.000000
vn 0.000000 1.000000 0.000000
vn 0.000000 1.000000 0.000000
vn 0.000000 0.000000 -1.000000
vn 0.000000 0.000000 -1.000000
vn 0.000000 0.000000 -1.000000
vn 0.000000 0.000000 -1.000000
vn 0.000000 -1.000000 0.000000
vn 0.000000 -1.000000 0.000000
vn 0.000000 -1.000000 0.000000
vn 0.000000 -1.000000 0.000000
vn 1.000000 0.000000 0.000000
vn 1.000000 0.000000 0.000000
vn 1.000000 0.000000 0.000000
vn 1.000000 0.000000 0.000000
vn -1.000000 0.000000 0.000000
vn -1.000000 0.000000 0.000000
vn -1.000000 0.000000 0.000000
vn -1.000000 0.000000 0.000000
s 1
g pCube4
usemtl initialShadingGroup
f 97/133/217 98/134/218 99/135/219
f 99/135/219 98/134/218 100/136/220
s 2
f 99/135/221 100/136/222 101/137/223
f 101/137/223 100/136/222 102/138/224
s 3
f 101/137/225 102/138/226 103/139/227
f 103/139/227 102/138/226 104/140/228
s 4
f 103/139/229 104/140/230 97/141/231
f 97/141/231 104/140/230 98/142/232
s 5
f 98/134/233 104/143/234 100/136/235
f 100/136/235 104/143/234 102/144/236
s 6
f 103/145/237 97/133/238 101/146/239
f 101/146/239 97/133/238 99/135/240
