# This file uses centimeters as units for non-parametric coordinates.

mtllib S - No Walls 1.mtl
g default
v 210.000000 -70.000000 0.000000
v -210.000000 -70.000000 -0.000000
v 210.000000 0.000000 0.000000
v -210.000000 0.000000 -0.000000
v 210.000000 0.000000 840.000000
v -210.000000 0.000000 840.000000
v 210.000000 -70.000000 840.000000
v -210.000000 -70.000000 840.000000
v 210.000000 -70.000000 840.000000
v 243.392700 -70.000000 1093.642654
v 341.295128 -70.000000 1330.000000
v 497.035408 -70.000000 1532.964539
v 700.000053 -70.000000 1688.704926
v 936.357452 -70.000000 1786.607300
v 1190.000000 -70.000000 1820.000000
v 1443.642654 -70.000000 1786.607300
v 1680.000000 -70.000000 1688.704926
v 1882.964539 -70.000000 1532.964539
v 210.000000 0.000000 840.000000
v 243.392700 0.000000 1093.642654
v 341.295128 0.000000 1330.000000
v 497.035408 0.000000 1532.964539
v 700.000053 0.000000 1688.704926
v 936.357452 0.000000 1786.607300
v 1190.000000 0.000000 1820.000000
v 1443.642654 0.000000 1786.607300
v 1680.000000 0.000000 1688.704926
v 1882.964539 0.000000 1532.964539
v -210.000000 0.000000 840.000000
v -162.296104 0.000000 1202.346558
v -22.435493 0.000000 1540.000000
v 200.050507 0.000000 1829.949493
v 490.000000 0.000000 2052.435547
v 827.653389 0.000000 2192.296051
v 1190.000000 0.000000 2240.000000
v 1552.346771 0.000000 2192.296051
v 1890.000000 0.000000 2052.435547
v 2179.949493 0.000000 1829.949493
v -210.000000 -70.000000 840.000000
v -162.296104 -70.000000 1202.346558
v -22.435493 -70.000000 1540.000000
v 200.050507 -70.000000 1829.949493
v 490.000000 -70.000000 2052.435547
v 827.653389 -70.000000 2192.296051
v 1190.000000 -70.000000 2240.000000
v 1552.346771 -70.000000 2192.296051
v 1890.000000 -70.000000 2052.435547
v 2179.949493 -70.000000 1829.949493
v 3025.400085 -70.000000 1719.182312
v 2856.573578 -70.000000 1649.252060
v 2675.400085 -70.000000 1625.400085
v 2494.226593 -70.000000 1649.252060
v 2325.400085 -70.000000 1719.182312
v 2180.425232 -70.000000 1830.425232
v 3025.400085 0.000000 1719.182312
v 2856.573578 0.000000 1649.252060
v 2675.400085 0.000000 1625.400085
v 2494.226593 0.000000 1649.252060
v 2325.400085 0.000000 1719.182312
v 2180.425232 0.000000 1830.425232
v 3235.399872 0.000000 1355.452011
v 2965.277161 0.000000 1243.563629
v 2675.400085 0.000000 1205.400620
v 2385.522583 0.000000 1243.563843
v 2115.400299 0.000000 1355.452225
v 1883.440918 0.000000 1533.440918
v 3235.399872 -70.000000 1355.452011
v 2965.277161 -70.000000 1243.563629
v 2675.400085 -70.000000 1205.400620
v 2385.522583 -70.000000 1243.563843
v 2115.400299 -70.000000 1355.452225
v 1883.440918 -70.000000 1533.440918
v 3235.707275 -70.000000 1357.331467
v 3025.707275 -70.000000 1721.062088
v 3235.707275 0.000000 1357.331467
v 3025.707275 0.000000 1721.062088
v 3872.459473 0.000000 1724.960709
v 3662.459473 0.000000 2088.691223
v 3872.459473 -70.000000 1724.960709
v 3662.459473 -70.000000 2088.691223
v 3872.294556 -70.000000 1726.037689
v 4041.121277 -70.000000 1795.967834
v 4222.294556 -70.000000 1819.820129
v 3872.294556 0.000000 1726.037689
v 4041.121277 0.000000 1795.967834
v 4222.294556 0.000000 1819.820129
v 3662.294556 0.000000 2089.768311
v 3932.417480 0.000000 2201.656799
v 4222.294556 0.000000 2239.819702
v 3662.294556 -70.000000 2089.768311
v 3932.417480 -70.000000 2201.656799
v 4222.294556 -70.000000 2239.819702
v 4223.343018 -70.000000 1819.819916
v 4223.343018 0.000000 1819.819916
v 4223.343018 0.000000 2239.819916
v 4223.343018 -70.000000 2239.819916
v 5457.890259 -70.000000 1819.819916
v 5457.890259 0.000000 1819.819916
v 5457.890259 0.000000 2239.819916
v 5457.890259 -70.000000 2239.819916
v 5457.890259 -11.666668 2239.819916
v 5457.890259 -11.666668 1819.819916
v 5457.890259 -23.333331 2239.820129
v 5457.890259 -23.333331 1819.819916
v 5457.890259 -35.000000 2239.820129
v 5457.890259 -35.000000 1819.819916
v 5457.890259 -46.666669 2239.819916
v 5457.890259 -46.666669 1819.819916
v 5457.890259 -58.333338 2239.819916
v 5457.890259 -58.333338 1819.819916
vt 0.375000 0.000000
vt 0.625000 0.000000
vt 0.375000 0.250000
vt 0.625000 0.250000
vt 0.375000 0.500000
vt 0.625000 0.500000
vt 0.375000 0.750000
vt 0.625000 0.750000
vt 0.375000 1.000000
vt 0.625000 1.000000
vt 0.875000 0.000000
vt 0.875000 0.250000
vt 0.125000 0.000000
vt 0.125000 0.250000
vt 0.041667 1.000000
vt 0.000000 1.000000
vt 0.041667 0.750000
vt 0.000000 0.750000
vt 0.083333 1.000000
vt 0.083333 0.750000
vt 0.125000 1.000000
vt 0.125000 0.750000
vt 0.166667 1.000000
vt 0.166667 0.750000
vt 0.208333 1.000000
vt 0.208333 0.750000
vt 0.250000 1.000000
vt 0.250000 0.750000
vt 0.291667 1.000000
vt 0.291667 0.750000
vt 0.333333 1.000000
vt 0.333333 0.750000
vt 0.375000 1.000000
vt 0.375000 0.750000
vt 0.041667 0.500000
vt 0.000000 0.500000
vt 0.083333 0.500000
vt 0.125000 0.500000
vt 0.166667 0.500000
vt 0.208333 0.500000
vt 0.250000 0.500000
vt 0.291667 0.500000
vt 0.333333 0.500000
vt 0.375000 0.500000
vt 0.041667 0.250000
vt 0.000000 0.250000
vt 0.083333 0.250000
vt 0.125000 0.250000
vt 0.166667 0.250000
vt 0.208333 0.250000
vt 0.250000 0.250000
vt 0.291667 0.250000
vt 0.333333 0.250000
vt 0.375000 0.250000
vt 0.041667 0.000000
vt 0.000000 0.000000
vt 0.083333 0.000000
vt 0.125000 0.000000
vt 0.166667 0.000000
vt 0.208333 0.000000
vt 0.250000 0.000000
vt 0.291667 0.000000
vt 0.333333 0.000000
vt 0.375000 0.000000
vt 0.708333 1.000000
vt 0.666667 1.000000
vt 0.708333 0.750000
vt 0.666667 0.750000
vt 0.750000 1.000000
vt 0.750000 0.750000
vt 0.791667 1.000000
vt 0.791667 0.750000
vt 0.833333 1.000000
vt 0.833333 0.750000
vt 0.875000 1.000000
vt 0.875000 0.750000
vt 0.708333 0.500000
vt 0.666667 0.500000
vt 0.750000 0.500000
vt 0.791667 0.500000
vt 0.833333 0.500000
vt 0.875000 0.500000
vt 0.708333 0.250000
vt 0.666667 0.250000
vt 0.750000 0.250000
vt 0.791667 0.250000
vt 0.833333 0.250000
vt 0.875000 0.250000
vt 0.708333 0.000000
vt 0.666667 0.000000
vt 0.750000 0.000000
vt 0.791667 0.000000
vt 0.833333 0.000000
vt 0.875000 0.000000
vt 0.375000 0.000000
vt 0.625000 0.000000
vt 0.375000 0.250000
vt 0.625000 0.250000
vt 0.375000 0.500000
vt 0.625000 0.500000
vt 0.375000 0.750000
vt 0.625000 0.750000
vt 0.375000 1.000000
vt 0.625000 1.000000
vt 0.875000 0.000000
vt 0.875000 0.250000
vt 0.125000 0.000000
vt 0.125000 0.250000
vt 0.208333 1.000000
vt 0.166667 1.000000
vt 0.208333 0.750000
vt 0.166667 0.750000
vt 0.250000 1.000000
vt 0.250000 0.750000
vt 0.208333 0.500000
vt 0.166667 0.500000
vt 0.250000 0.500000
vt 0.208333 0.250000
vt 0.166667 0.250000
vt 0.250000 0.250000
vt 0.208333 0.000000
vt 0.166667 0.000000
vt 0.250000 0.000000
vt 0.625000 0.000000
vt 0.875000 0.000000
vt 0.625000 0.250000
vt 0.875000 0.250000
vt 0.381269 0.250000
vt 0.381269 0.000000
vt 0.381269 0.500000
vt 0.625000 0.500000
vt 0.381269 0.750000
vt 0.625000 0.750000
vt 0.381269 1.000000
vt 0.625000 1.000000
vt 0.381269 0.375000
vt 0.381269 0.541667
vt 0.381269 0.500000
vt 0.381269 0.583333
vt 0.381269 0.625000
vt 0.381269 0.625000
vt 0.381269 0.750000
vt 0.381269 0.666667
vt 0.381269 0.875000
vt 0.381269 0.708333
vn 0.000000 0.000000 -1.000000
vn 0.000000 0.000000 -1.000000
vn 0.000000 0.000000 -1.000000
vn 0.000000 0.000000 -1.000000
vn 0.000000 1.000000 -0.000000
vn 0.000000 1.000000 -0.000000
vn 0.000000 1.000000 -0.000000
vn 0.000000 1.000000 -0.000000
vn -0.000000 0.000000 1.000000
vn -0.000000 0.000000 1.000000
vn -0.000000 0.000000 1.000000
vn -0.000000 0.000000 1.000000
vn 0.000000 -1.000000 0.000000
vn 0.000000 -1.000000 0.000000
vn 0.000000 -1.000000 0.000000
vn 0.000000 -1.000000 0.000000
vn -1.000000 0.000000 -0.000000
vn -1.000000 0.000000 -0.000000
vn -1.000000 0.000000 -0.000000
vn -1.000000 0.000000 -0.000000
vn 1.000000 0.000000 0.000000
vn 1.000000 0.000000 0.000000
vn 1.000000 0.000000 0.000000
vn 1.000000 0.000000 0.000000
vn 0.965926 0.000000 -0.258819
vn 0.991445 0.000000 -0.130526
vn 0.965926 0.000000 -0.258819
vn 0.991445 0.000000 -0.130526
vn 0.866025 0.000000 -0.500000
vn 0.866025 0.000000 -0.500000
vn 0.707107 0.000000 -0.707107
vn 0.707107 0.000000 -0.707107
vn 0.500000 0.000000 -0.866025
vn 0.500000 0.000000 -0.866025
vn 0.258819 0.000000 -0.965926
vn 0.258819 0.000000 -0.965926
vn 0.000000 0.000000 -1.000000
vn -0.000000 0.000000 -1.000000
vn -0.258819 0.000000 -0.965926
vn -0.258819 0.000000 -0.965926
vn -0.500001 0.000000 -0.866025
vn -0.500001 0.000000 -0.866025
vn -0.608762 0.000000 -0.793353
vn -0.608762 0.000000 -0.793353
vn 0.000000 1.000000 -0.000000
vn 0.000000 1.000000 -0.000000
vn 0.000000 1.000000 -0.000000
vn 0.000000 1.000000 -0.000000
vn 0.000000 1.000000 -0.000000
vn 0.000000 1.000000 -0.000000
vn 0.000000 1.000000 -0.000000
vn 0.000000 1.000000 -0.000000
vn 0.000000 1.000000 -0.000000
vn 0.000000 1.000000 -0.000000
vn 0.000000 1.000000 -0.000000
vn 0.000000 1.000000 -0.000000
vn 0.000000 1.000000 -0.000000
vn 0.000000 1.000000 -0.000000
vn 0.000000 1.000000 -0.000000
vn 0.000000 1.000000 -0.000000
vn 0.000000 1.000000 -0.000000
vn 0.000000 1.000000 -0.000000
vn 0.000000 1.000000 -0.000000
vn 0.000000 1.000000 -0.000000
vn -0.965926 0.000000 0.258819
vn -0.991445 0.000000 0.130526
vn -0.965926 0.000000 0.258819
vn -0.991445 0.000000 0.130526
vn -0.866025 0.000000 0.500000
vn -0.866025 0.000000 0.500000
vn -0.707107 0.000000 0.707107
vn -0.707107 0.000000 0.707107
vn -0.500000 0.000000 0.866026
vn -0.500000 0.000000 0.866026
vn -0.258819 0.000000 0.965926
vn -0.258819 0.000000 0.965926
vn 0.000000 0.000000 1.000000
vn 0.000000 0.000000 1.000000
vn 0.258819 0.000000 0.965926
vn 0.258819 0.000000 0.965926
vn 0.500000 0.000000 0.866026
vn 0.500000 0.000000 0.866026
vn 0.608762 0.000000 0.793353
vn 0.608762 0.000000 0.793353
vn 0.000000 -1.000000 -0.000000
vn 0.000000 -1.000000 0.000000
vn -0.000000 -1.000000 0.000000
vn 0.000000 -1.000000 0.000000
vn 0.000000 -1.000000 -0.000000
vn 0.000000 -1.000000 -0.000000
vn -0.000000 -1.000000 0.000000
vn -0.000000 -1.000000 0.000000
vn 0.000000 -1.000000 -0.000000
vn -0.000000 -1.000000 0.000000
vn 0.000000 -1.000000 -0.000000
vn 0.000000 -1.000000 -0.000000
vn 0.000000 -1.000000 0.000000
vn 0.000000 -1.000000 0.000000
vn 0.000000 -1.000000 0.000000
vn 0.000000 -1.000000 0.000000
vn 0.000000 -1.000000 0.000000
vn 0.000000 -1.000000 0.000000
vn 0.000000 -1.000000 0.000000
vn 0.000000 -1.000000 0.000000
vn -0.258819 0.000000 0.965926
vn -0.382683 0.000000 0.923880
vn -0.258819 0.000000 0.965926
vn -0.382684 0.000000 0.923880
vn 0.000000 0.000000 1.000000
vn -0.000000 0.000000 1.000000
vn 0.258819 0.000000 0.965926
vn 0.258819 0.000000 0.965926
vn 0.500000 0.000000 0.866025
vn 0.500000 0.000000 0.866025
vn 0.608760 0.000000 0.793355
vn 0.608760 0.000000 0.793354
vn 0.000000 1.000000 -0.000000
vn 0.000000 1.000000 -0.000000
vn 0.000000 1.000000 -0.000000
vn 0.000000 1.000000 -0.000000
vn 0.000000 1.000000 -0.000000
vn 0.000000 1.000000 -0.000000
vn 0.000000 1.000000 -0.000000
vn 0.000000 1.000000 -0.000000
vn 0.000000 1.000000 -0.000000
vn 0.000000 1.000000 -0.000000
vn 0.000000 1.000000 -0.000000
vn 0.000000 1.000000 -0.000000
vn 0.258819 0.000000 -0.965926
vn 0.382683 0.000000 -0.923880
vn 0.258819 0.000000 -0.965926
vn 0.382683 0.000000 -0.923880
vn -0.000000 0.000000 -1.000000
vn -0.000000 0.000000 -1.000000
vn -0.258820 0.000000 -0.965926
vn -0.258820 0.000000 -0.965926
vn -0.500000 0.000000 -0.866025
vn -0.500000 0.000000 -0.866025
vn -0.608761 0.000000 -0.793353
vn -0.608761 0.000000 -0.793353
vn 0.000000 -1.000000 0.000000
vn 0.000000 -1.000000 0.000000
vn 0.000000 -1.000000 0.000000
vn 0.000000 -1.000000 0.000000
vn 0.000000 -1.000000 0.000000
vn 0.000000 -1.000000 0.000000
vn 0.000000 -1.000000 0.000000
vn 0.000000 -1.000000 0.000000
vn 0.000000 -1.000000 0.000000
vn 0.000000 -1.000000 0.000000
vn 0.000000 -1.000000 0.000000
vn 0.000000 -1.000000 0.000000
vn -0.866025 0.000000 -0.500000
vn -0.866025 0.000000 -0.500000
vn -0.866025 0.000000 -0.500000
vn -0.866025 0.000000 -0.500000
vn 0.000000 1.000000 -0.000000
vn 0.000000 1.000000 -0.000000
vn 0.000000 1.000000 -0.000000
vn 0.000000 1.000000 -0.000000
vn 0.866025 0.000000 0.500000
vn 0.866025 0.000000 0.500000
vn 0.866025 0.000000 0.500000
vn 0.866025 0.000000 0.500000
vn 0.000000 -1.000000 0.000000
vn 0.000000 -1.000000 0.000000
vn 0.000000 -1.000000 0.000000
vn 0.000000 -1.000000 0.000000
vn -0.500000 0.000000 0.866025
vn -0.500000 0.000000 0.866025
vn -0.500000 0.000000 0.866025
vn -0.500000 0.000000 0.866025
vn 0.500000 0.000000 -0.866025
vn 0.500000 0.000000 -0.866025
vn 0.500000 0.000000 -0.866025
vn 0.500000 0.000000 -0.866025
vn 0.258820 0.000000 -0.965926
vn 0.382683 0.000000 -0.923880
vn 0.258819 0.000000 -0.965926
vn 0.382683 0.000000 -0.923880
vn 0.130530 0.000000 -0.991444
vn 0.130529 0.000000 -0.991444
vn 0.000000 1.000000 -0.000000
vn 0.000000 1.000000 -0.000000
vn 0.000000 1.000000 -0.000000
vn 0.000000 1.000000 -0.000000
vn 0.000000 1.000000 -0.000000
vn 0.000000 1.000000 -0.000000
vn -0.258819 0.000000 0.965926
vn -0.382683 0.000000 0.923880
vn -0.258819 0.000000 0.965926
vn -0.382683 0.000000 0.923880
vn -0.130526 0.000000 0.991445
vn -0.130526 0.000000 0.991445
vn 0.000000 -1.000000 0.000000
vn 0.000000 -1.000000 0.000000
vn 0.000000 -1.000000 0.000000
vn 0.000000 -1.000000 0.000000
vn 0.000000 -1.000000 0.000000
vn 0.000000 -1.000000 0.000000
vn -1.000000 0.000000 -0.000000
vn -1.000000 0.000000 -0.000000
vn -1.000000 0.000000 -0.000000
vn -1.000000 0.000000 -0.000000
vn 0.000000 0.000000 -1.000000
vn 0.000000 0.000000 -1.000000
vn 0.000000 0.000000 -1.000000
vn 0.000000 0.000000 -1.000000
vn 0.000000 1.000000 -0.000000
vn 0.000000 1.000000 -0.000000
vn 0.000000 1.000000 -0.000000
vn 0.000000 1.000000 -0.000000
vn -0.000000 0.000000 1.000000
vn -0.000000 0.000000 1.000000
vn -0.000000 0.000000 1.000000
vn -0.000000 0.000000 1.000000
vn 0.000000 -1.000000 0.000000
vn 0.000000 -1.000000 0.000000
vn 0.000000 -1.000000 0.000000
vn 0.000000 -1.000000 0.000000
vn 1.000000 0.000000 0.000000
vn 1.000000 0.000000 0.000000
vn 1.000000 0.000000 0.000000
vn 1.000000 0.000000 0.000000
vn 1.000000 0.000000 0.000000
vn 1.000000 0.000000 0.000000
vn 1.000000 0.000000 0.000000
vn 1.000000 0.000000 0.000000
vn 1.000000 0.000000 0.000000
vn 1.000000 0.000000 0.000000
vn 1.000000 0.000000 0.000000
vn 1.000000 0.000000 0.000000
vn 1.000000 0.000000 0.000000
vn 1.000000 0.000000 0.000000
s 1
g polySurface15
usemtl initialShadingGroup
f 1/1/1 2/2/2 3/3/3
f 3/3/3 2/2/2 4/4/4
s 2
f 3/3/5 4/4/6 5/5/7
f 5/5/7 4/4/6 6/6/8
s 3
f 5/5/9 6/6/10 7/7/11
f 7/7/11 6/6/10 8/8/12
s 4
f 7/7/13 8/8/14 1/9/15
f 1/9/15 8/8/14 2/10/16
s 5
f 2/2/17 8/11/18 4/4/19
f 4/4/19 8/11/18 6/12/20
s 6
f 7/13/21 1/1/22 5/14/23
f 5/14/23 1/1/22 3/3/24
s 7
f 10/15/25 9/16/26 20/17/27
f 20/17/27 9/16/26 19/18/28
f 11/19/29 10/15/25 21/20/30
f 21/20/30 10/15/25 20/17/27
f 12/21/31 11/19/29 22/22/32
f 22/22/32 11/19/29 21/20/30
f 13/23/33 12/21/31 23/24/34
f 23/24/34 12/21/31 22/22/32
f 14/25/35 13/23/33 24/26/36
f 24/26/36 13/23/33 23/24/34
f 15/27/37 14/25/35 25/28/38
f 25/28/38 14/25/35 24/26/36
f 16/29/39 15/27/37 26/30/40
f 26/30/40 15/27/37 25/28/38
f 17/31/41 16/29/39 27/32/42
f 27/32/42 16/29/39 26/30/40
f 18/33/43 17/31/41 28/34/44
f 28/34/44 17/31/41 27/32/42
s 8
f 20/17/45 19/18/46 30/35/47
f 30/35/47 19/18/46 29/36/48
f 21/20/49 20/17/45 31/37/50
f 31/37/50 20/17/45 30/35/47
f 22/22/51 21/20/49 32/38/52
f 32/38/52 21/20/49 31/37/50
f 23/24/53 22/22/51 33/39/54
f 33/39/54 22/22/51 32/38/52
f 24/26/55 23/24/53 34/40/56
f 34/40/56 23/24/53 33/39/54
f 25/28/57 24/26/55 35/41/58
f 35/41/58 24/26/55 34/40/56
f 26/30/59 25/28/57 36/42/60
f 36/42/60 25/28/57 35/41/58
f 27/32/61 26/30/59 37/43/62
f 37/43/62 26/30/59 36/42/60
f 28/34/63 27/32/61 38/44/64
f 38/44/64 27/32/61 37/43/62
s 9
f 30/35/65 29/36/66 40/45/67
f 40/45/67 29/36/66 39/46/68
f 31/37/69 30/35/65 41/47/70
f 41/47/70 30/35/65 40/45/67
f 32/38/71 31/37/69 42/48/72
f 42/48/72 31/37/69 41/47/70
f 33/39/73 32/38/71 43/49/74
f 43/49/74 32/38/71 42/48/72
f 34/40/75 33/39/73 44/50/76
f 44/50/76 33/39/73 43/49/74
f 35/41/77 34/40/75 45/51/78
f 45/51/78 34/40/75 44/50/76
f 36/42/79 35/41/77 46/52/80
f 46/52/80 35/41/77 45/51/78
f 37/43/81 36/42/79 47/53/82
f 47/53/82 36/42/79 46/52/80
f 38/44/83 37/43/81 48/54/84
f 48/54/84 37/43/81 47/53/82
s 10
f 40/45/85 39/46/86 10/55/87
f 10/55/87 39/46/86 9/56/88
f 41/47/89 40/45/85 11/57/90
f 11/57/90 40/45/85 10/55/87
f 42/48/91 41/47/89 12/58/92
f 12/58/92 41/47/89 11/57/90
f 43/49/93 42/48/91 13/59/94
f 13/59/94 42/48/91 12/58/92
f 44/50/95 43/49/93 14/60/96
f 14/60/96 43/49/93 13/59/94
f 45/51/97 44/50/95 15/61/98
f 15/61/98 44/50/95 14/60/96
f 46/52/99 45/51/97 16/62/100
f 16/62/100 45/51/97 15/61/98
f 47/53/101 46/52/99 17/63/102
f 17/63/102 46/52/99 16/62/100
f 48/54/103 47/53/101 18/64/104
f 18/64/104 47/53/101 17/63/102
s 11
f 50/65/105 49/66/106 56/67/107
f 56/67/107 49/66/106 55/68/108
f 51/69/109 50/65/105 57/70/110
f 57/70/110 50/65/105 56/67/107
f 52/71/111 51/69/109 58/72/112
f 58/72/112 51/69/109 57/70/110
f 53/73/113 52/71/111 59/74/114
f 59/74/114 52/71/111 58/72/112
f 54/75/115 53/73/113 60/76/116
f 60/76/116 53/73/113 59/74/114
s 12
f 56/67/117 55/68/118 62/77/119
f 62/77/119 55/68/118 61/78/120
f 57/70/121 56/67/117 63/79/122
f 63/79/122 56/67/117 62/77/119
f 58/72/123 57/70/121 64/80/124
f 64/80/124 57/70/121 63/79/122
f 59/74/125 58/72/123 65/81/126
f 65/81/126 58/72/123 64/80/124
f 60/76/127 59/74/125 66/82/128
f 66/82/128 59/74/125 65/81/126
s 13
f 62/77/129 61/78/130 68/83/131
f 68/83/131 61/78/130 67/84/132
f 63/79/133 62/77/129 69/85/134
f 69/85/134 62/77/129 68/83/131
f 64/80/135 63/79/133 70/86/136
f 70/86/136 63/79/133 69/85/134
f 65/81/137 64/80/135 71/87/138
f 71/87/138 64/80/135 70/86/136
f 66/82/139 65/81/137 72/88/140
f 72/88/140 65/81/137 71/87/138
s 14
f 68/83/141 67/84/142 50/89/143
f 50/89/143 67/84/142 49/90/144
f 69/85/145 68/83/141 51/91/146
f 51/91/146 68/83/141 50/89/143
f 70/86/147 69/85/145 52/92/148
f 52/92/148 69/85/145 51/91/146
f 71/87/149 70/86/147 53/93/150
f 53/93/150 70/86/147 52/92/148
f 72/88/151 71/87/149 54/94/152
f 54/94/152 71/87/149 53/93/150
s 15
f 73/95/153 74/96/154 75/97/155
f 75/97/155 74/96/154 76/98/156
s 16
f 75/97/157 76/98/158 77/99/159
f 77/99/159 76/98/158 78/100/160
s 17
f 77/99/161 78/100/162 79/101/163
f 79/101/163 78/100/162 80/102/164
s 18
f 79/101/165 80/102/166 73/103/167
f 73/103/167 80/102/166 74/104/168
s 19
f 74/96/169 80/105/170 76/98/171
f 76/98/171 80/105/170 78/106/172
s 20
f 79/107/173 73/95/174 77/108/175
f 77/108/175 73/95/174 75/97/176
s 21
f 82/109/177 81/110/178 85/111/179
f 85/111/179 81/110/178 84/112/180
f 83/113/181 82/109/177 86/114/182
f 86/114/182 82/109/177 85/111/179
s 22
f 85/111/183 84/112/184 88/115/185
f 88/115/185 84/112/184 87/116/186
f 86/114/187 85/111/183 89/117/188
f 89/117/188 85/111/183 88/115/185
s 23
f 88/115/189 87/116/190 91/118/191
f 91/118/191 87/116/190 90/119/192
f 89/117/193 88/115/189 92/120/194
f 92/120/194 88/115/189 91/118/191
s 24
f 91/118/195 90/119/196 82/121/197
f 82/121/197 90/119/196 81/122/198
f 92/120/199 91/118/195 83/123/200
f 83/123/200 91/118/195 82/121/197
s 25
f 93/124/201 96/125/202 94/126/203
f 94/126/203 96/125/202 95/127/204
s 26
f 98/128/205 97/129/206 94/126/207
f 94/126/207 97/129/206 93/124/208
s 27
f 99/130/209 98/128/210 95/131/211
f 95/131/211 98/128/210 94/126/212
s 28
f 100/132/213 99/130/214 96/133/215
f 96/133/215 99/130/214 95/131/216
s 29
f 97/134/217 100/132/218 93/135/219
f 93/135/219 100/132/218 96/133/220
s 30
f 98/128/221 99/130/222 102/136/223
f 102/136/223 99/130/222 101/137/224
f 102/136/223 101/137/224 104/138/225
f 104/138/225 101/137/224 103/139/226
f 104/138/225 103/139/226 106/140/227
f 106/140/227 103/139/226 105/141/228
f 106/140/227 105/141/228 108/142/229
f 108/142/229 105/141/228 107/143/230
f 108/142/229 107/143/230 110/144/231
f 110/144/231 107/143/230 109/145/232
f 110/144/231 109/145/232 97/134/233
f 97/134/233 109/145/232 100/132/234
