# 3ds Max Wavefront OBJ Exporter v0.97b - (c)2007 guruware
# File Created: 24.03.2013 23:32:24

mtllib B.mtl

#
# object polySurface14
#

v  210.0000 2.3596 48.0284
v  210.0000 0.0001 0.0000
v  -210.0000 2.3596 48.0284
v  -210.0000 0.0001 0.0000
v  210.0000 9.4153 95.5943
v  -210.0000 9.4153 95.5943
v  210.0000 21.0993 142.2395
v  -210.0000 21.0993 142.2395
v  210.0000 37.2991 187.5149
v  -210.0000 37.2991 187.5149
v  210.0000 57.8587 230.9844
v  -210.0000 57.8587 230.9844
v  210.0000 82.5800 272.2294
v  -210.0000 82.5800 272.2294
v  210.0000 111.2250 310.8527
v  -210.0000 111.2250 310.8527
v  210.0000 143.5178 346.4823
v  -210.0000 143.5178 346.4823
v  210.0000 179.1474 378.7751
v  -210.0000 179.1474 378.7751
v  210.0000 217.7706 407.4200
v  -210.0000 217.7706 407.4200
v  210.0000 259.0157 432.1414
v  -210.0000 259.0157 432.1414
v  210.0000 302.4852 452.7009
v  -210.0000 302.4852 452.7009
v  210.0000 347.7606 468.9007
v  -210.0000 347.7606 468.9007
v  210.0000 394.4058 480.5847
v  -210.0000 394.4058 480.5847
v  210.0000 441.9716 487.6405
v  -210.0000 441.9716 487.6405
v  210.0000 490.0000 490.0000
v  -210.0000 490.0000 490.0000
v  -210.0000 -67.3033 54.8897
v  -210.0000 -69.9998 0.0002
v  -210.0000 -59.2396 109.2507
v  -210.0000 -45.8864 162.5595
v  -210.0000 -27.3723 214.3028
v  -210.0000 -3.8757 263.9822
v  -210.0000 24.3773 311.1194
v  -210.0000 57.1144 355.2603
v  -210.0000 94.0204 395.9798
v  -210.0000 134.7400 432.8858
v  -210.0000 178.8809 465.6229
v  -210.0000 226.0181 493.8758
v  -210.0000 275.6975 517.3724
v  -210.0000 327.4408 535.8864
v  -210.0000 380.7496 549.2396
v  -210.0000 435.1106 557.3032
v  -210.0000 490.0000 560.0000
v  210.0000 -67.3033 54.8897
v  210.0000 -69.9998 0.0002
v  210.0000 -59.2396 109.2507
v  210.0000 -45.8864 162.5595
v  210.0000 -27.3723 214.3028
v  210.0000 -3.8757 263.9822
v  210.0000 24.3773 311.1194
v  210.0000 57.1144 355.2603
v  210.0000 94.0204 395.9798
v  210.0000 134.7400 432.8858
v  210.0000 178.8809 465.6229
v  210.0000 226.0181 493.8758
v  210.0000 275.6975 517.3724
v  210.0000 327.4408 535.8864
v  210.0000 380.7496 549.2396
v  210.0000 435.1106 557.3032
v  210.0000 490.0000 560.0000
v  -175.0000 72.0225 41.1673
v  -175.0000 70.0001 0.0001
v  -210.0000 72.0225 41.1673
v  -210.0000 70.0001 0.0001
v  -175.0000 78.0702 81.9380
v  -210.0000 78.0702 81.9380
v  -175.0000 88.0851 121.9196
v  -210.0000 88.0851 121.9196
v  -175.0000 101.9707 160.7271
v  -210.0000 101.9707 160.7271
v  -175.0000 119.5931 197.9866
v  -210.0000 119.5931 197.9866
v  -175.0000 140.7828 233.3395
v  -210.0000 140.7828 233.3395
v  -175.0000 165.3357 266.4452
v  -210.0000 165.3357 266.4452
v  -175.0000 193.0152 296.9849
v  -210.0000 193.0152 296.9849
v  -175.0000 223.5549 324.6644
v  -210.0000 223.5549 324.6644
v  -175.0000 256.6606 349.2172
v  -210.0000 256.6606 349.2172
v  -175.0000 292.0135 370.4069
v  -210.0000 292.0135 370.4069
v  -175.0000 329.2730 388.0294
v  -210.0000 329.2730 388.0294
v  -175.0000 368.0805 401.9149
v  -210.0000 368.0805 401.9149
v  -175.0000 408.0622 411.9298
v  -210.0000 408.0622 411.9298
v  -175.0000 448.8329 417.9775
v  -210.0000 448.8329 417.9775
v  -175.0000 490.0000 420.0000
v  -210.0000 490.0000 420.0000
v  -175.0000 2.3596 48.0284
v  -175.0000 0.0001 0.0000
v  -175.0000 9.4153 95.5943
v  -175.0000 21.0993 142.2395
v  -175.0000 37.2991 187.5149
v  -175.0000 57.8587 230.9844
v  -175.0000 82.5800 272.2294
v  -175.0000 111.2250 310.8527
v  -175.0000 143.5178 346.4823
v  -175.0000 179.1474 378.7751
v  -175.0000 217.7706 407.4200
v  -175.0000 259.0157 432.1414
v  -175.0000 302.4852 452.7009
v  -175.0000 347.7606 468.9007
v  -175.0000 394.4058 480.5847
v  -175.0000 441.9716 487.6405
v  -175.0000 490.0000 490.0000
v  210.0000 72.0225 41.1673
v  210.0000 70.0001 0.0001
v  175.0000 72.0225 41.1673
v  175.0000 70.0001 0.0001
v  210.0000 78.0702 81.9380
v  175.0000 78.0702 81.9380
v  210.0000 88.0851 121.9196
v  175.0000 88.0851 121.9196
v  210.0000 101.9707 160.7271
v  175.0000 101.9707 160.7271
v  210.0000 119.5931 197.9866
v  175.0000 119.5931 197.9866
v  210.0000 140.7828 233.3395
v  175.0000 140.7828 233.3395
v  210.0000 165.3357 266.4452
v  175.0000 165.3357 266.4452
v  210.0000 193.0152 296.9849
v  175.0000 193.0152 296.9849
v  210.0000 223.5549 324.6644
v  175.0000 223.5549 324.6644
v  210.0000 256.6606 349.2172
v  175.0000 256.6606 349.2172
v  210.0000 292.0135 370.4069
v  175.0000 292.0135 370.4069
v  210.0000 329.2730 388.0294
v  175.0000 329.2730 388.0294
v  210.0000 368.0805 401.9149
v  175.0000 368.0805 401.9149
v  210.0000 408.0622 411.9298
v  175.0000 408.0622 411.9298
v  210.0000 448.8329 417.9775
v  175.0000 448.8329 417.9775
v  210.0000 490.0000 420.0000
v  175.0000 490.0000 420.0000
v  175.0000 2.3596 48.0284
v  175.0000 0.0001 0.0000
v  175.0000 9.4153 95.5943
v  175.0000 21.0993 142.2395
v  175.0000 37.2991 187.5149
v  175.0000 57.8587 230.9844
v  175.0000 82.5800 272.2294
v  175.0000 111.2250 310.8527
v  175.0000 143.5178 346.4823
v  175.0000 179.1474 378.7751
v  175.0000 217.7706 407.4200
v  175.0000 259.0157 432.1414
v  175.0000 302.4852 452.7009
v  175.0000 347.7606 468.9007
v  175.0000 394.4058 480.5847
v  175.0000 441.9716 487.6405
v  175.0000 490.0000 490.0000
# 170 vertices

vn 0.0000 0.9952 -0.0980
vn 0.0000 0.9988 -0.0491
vn 0.0000 0.9808 -0.1951
vn 0.0000 0.9569 -0.2903
vn 0.0000 0.9239 -0.3827
vn 0.0000 0.8819 -0.4714
vn 0.0000 0.8315 -0.5556
vn 0.0000 0.7730 -0.6344
vn 0.0000 0.7071 -0.7071
vn 0.0000 0.6344 -0.7730
vn 0.0000 0.5556 -0.8315
vn 0.0000 0.4714 -0.8819
vn 0.0000 0.3827 -0.9239
vn 0.0000 0.2903 -0.9569
vn 0.0000 0.1951 -0.9808
vn 0.0000 0.0980 -0.9952
vn 0.0000 0.0491 -0.9988
vn -1.0000 0.0000 -0.0000
vn 0.0000 -0.9952 0.0980
vn 0.0000 -0.9988 0.0491
vn 0.0000 -0.9808 0.1951
vn 0.0000 -0.9569 0.2903
vn 0.0000 -0.9239 0.3827
vn 0.0000 -0.8819 0.4714
vn 0.0000 -0.8315 0.5556
vn 0.0000 -0.7730 0.6344
vn 0.0000 -0.7071 0.7071
vn 0.0000 -0.6344 0.7730
vn 0.0000 -0.5556 0.8315
vn 0.0000 -0.4714 0.8819
vn 0.0000 -0.3827 0.9239
vn 0.0000 -0.2903 0.9569
vn 0.0000 -0.1951 0.9808
vn 0.0000 -0.0980 0.9952
vn 0.0000 -0.0491 0.9988
vn 1.0000 0.0000 -0.0000
vn 1.0000 -0.0000 -0.0000
# 37 vertex normals

vt 0.7656 1.0000 0.0000
vt 0.7500 1.0000 0.0000
vt 0.7656 0.7500 0.0000
vt 0.7500 0.7500 0.0000
vt 0.7813 1.0000 0.0000
vt 0.7813 0.7500 0.0000
vt 0.7969 1.0000 0.0000
vt 0.7969 0.7500 0.0000
vt 0.8125 1.0000 0.0000
vt 0.8125 0.7500 0.0000
vt 0.8281 1.0000 0.0000
vt 0.8281 0.7500 0.0000
vt 0.8438 1.0000 0.0000
vt 0.8438 0.7500 0.0000
vt 0.8594 1.0000 0.0000
vt 0.8594 0.7500 0.0000
vt 0.8750 1.0000 0.0000
vt 0.8750 0.7500 0.0000
vt 0.8906 1.0000 0.0000
vt 0.8906 0.7500 0.0000
vt 0.9063 1.0000 0.0000
vt 0.9063 0.7500 0.0000
vt 0.9219 1.0000 0.0000
vt 0.9219 0.7500 0.0000
vt 0.9375 1.0000 0.0000
vt 0.9375 0.7500 0.0000
vt 0.9531 1.0000 0.0000
vt 0.9531 0.7500 0.0000
vt 0.9688 1.0000 0.0000
vt 0.9688 0.7500 0.0000
vt 0.9844 1.0000 0.0000
vt 0.9844 0.7500 0.0000
vt 1.0000 1.0000 0.0000
vt 1.0000 0.7500 0.0000
vt 0.7656 0.5000 0.0000
vt 0.7500 0.5000 0.0000
vt 0.7813 0.5000 0.0000
vt 0.7969 0.5000 0.0000
vt 0.8125 0.5000 0.0000
vt 0.8281 0.5000 0.0000
vt 0.8438 0.5000 0.0000
vt 0.8594 0.5000 0.0000
vt 0.8750 0.5000 0.0000
vt 0.8906 0.5000 0.0000
vt 0.9063 0.5000 0.0000
vt 0.9219 0.5000 0.0000
vt 0.9375 0.5000 0.0000
vt 0.9531 0.5000 0.0000
vt 0.9688 0.5000 0.0000
vt 0.9844 0.5000 0.0000
vt 1.0000 0.5000 0.0000
vt 0.7656 0.2500 0.0000
vt 0.7500 0.2500 0.0000
vt 0.7813 0.2500 0.0000
vt 0.7969 0.2500 0.0000
vt 0.8125 0.2500 0.0000
vt 0.8281 0.2500 0.0000
vt 0.8438 0.2500 0.0000
vt 0.8594 0.2500 0.0000
vt 0.8750 0.2500 0.0000
vt 0.8906 0.2500 0.0000
vt 0.9063 0.2500 0.0000
vt 0.9219 0.2500 0.0000
vt 0.9375 0.2500 0.0000
vt 0.9531 0.2500 0.0000
vt 0.9688 0.2500 0.0000
vt 0.9844 0.2500 0.0000
vt 1.0000 0.2500 0.0000
vt 0.7656 0.0000 0.0000
vt 0.7500 0.0000 0.0000
vt 0.7813 0.0000 0.0000
vt 0.7969 0.0000 0.0000
vt 0.8125 0.0000 0.0000
vt 0.8281 0.0000 0.0000
vt 0.8438 0.0000 0.0000
vt 0.8594 0.0000 0.0000
vt 0.8750 0.0000 0.0000
vt 0.8906 0.0000 0.0000
vt 0.9063 0.0000 0.0000
vt 0.9219 0.0000 0.0000
vt 0.9375 0.0000 0.0000
vt 0.9531 0.0000 0.0000
vt 0.9688 0.0000 0.0000
vt 0.9844 0.0000 0.0000
vt 1.0000 0.0000 0.0000
# 85 texture coords

g polySurface14
usemtl Material__25
s 1
f 1/1/1 2/2/2 3/3/1 
f 3/3/1 2/2/2 4/4/2 
f 5/5/3 1/1/1 6/6/3 
f 6/6/3 1/1/1 3/3/1 
f 7/7/4 5/5/3 8/8/4 
f 8/8/4 5/5/3 6/6/3 
f 9/9/5 7/7/4 10/10/5 
f 10/10/5 7/7/4 8/8/4 
f 11/11/6 9/9/5 12/12/6 
f 12/12/6 9/9/5 10/10/5 
f 13/13/7 11/11/6 14/14/7 
f 14/14/7 11/11/6 12/12/6 
f 15/15/8 13/13/7 16/16/8 
f 16/16/8 13/13/7 14/14/7 
f 17/17/9 15/15/8 18/18/9 
f 18/18/9 15/15/8 16/16/8 
f 19/19/10 17/17/9 20/20/10 
f 20/20/10 17/17/9 18/18/9 
f 21/21/11 19/19/10 22/22/11 
f 22/22/11 19/19/10 20/20/10 
f 23/23/12 21/21/11 24/24/12 
f 24/24/12 21/21/11 22/22/11 
f 25/25/13 23/23/12 26/26/13 
f 26/26/13 23/23/12 24/24/12 
f 27/27/14 25/25/13 28/28/14 
f 28/28/14 25/25/13 26/26/13 
f 29/29/15 27/27/14 30/30/15 
f 30/30/15 27/27/14 28/28/14 
f 31/31/16 29/29/15 32/32/16 
f 32/32/16 29/29/15 30/30/15 
f 33/33/17 31/31/16 34/34/17 
f 34/34/17 31/31/16 32/32/16 
s 2
f 3/3/18 4/4/18 35/35/18 
f 35/35/18 4/4/18 36/36/18 
f 6/6/18 3/3/18 37/37/18 
f 37/37/18 3/3/18 35/35/18 
f 8/8/18 6/6/18 38/38/18 
f 38/38/18 6/6/18 37/37/18 
f 10/10/18 8/8/18 39/39/18 
f 39/39/18 8/8/18 38/38/18 
f 12/12/18 10/10/18 40/40/18 
f 40/40/18 10/10/18 39/39/18 
f 14/14/18 12/12/18 41/41/18 
f 41/41/18 12/12/18 40/40/18 
f 16/16/18 14/14/18 42/42/18 
f 42/42/18 14/14/18 41/41/18 
f 18/18/18 16/16/18 43/43/18 
f 43/43/18 16/16/18 42/42/18 
f 20/20/18 18/18/18 44/44/18 
f 44/44/18 18/18/18 43/43/18 
f 22/22/18 20/20/18 45/45/18 
f 45/45/18 20/20/18 44/44/18 
f 24/24/18 22/22/18 46/46/18 
f 46/46/18 22/22/18 45/45/18 
f 26/26/18 24/24/18 47/47/18 
f 47/47/18 24/24/18 46/46/18 
f 28/28/18 26/26/18 48/48/18 
f 48/48/18 26/26/18 47/47/18 
f 30/30/18 28/28/18 49/49/18 
f 49/49/18 28/28/18 48/48/18 
f 32/32/18 30/30/18 50/50/18 
f 50/50/18 30/30/18 49/49/18 
f 34/34/18 32/32/18 51/51/18 
f 51/51/18 32/32/18 50/50/18 
s 3
f 35/35/19 36/36/20 52/52/19 
f 52/52/19 36/36/20 53/53/20 
f 37/37/21 35/35/19 54/54/21 
f 54/54/21 35/35/19 52/52/19 
f 38/38/22 37/37/21 55/55/22 
f 55/55/22 37/37/21 54/54/21 
f 39/39/23 38/38/22 56/56/23 
f 56/56/23 38/38/22 55/55/22 
f 40/40/24 39/39/23 57/57/24 
f 57/57/24 39/39/23 56/56/23 
f 41/41/25 40/40/24 58/58/25 
f 58/58/25 40/40/24 57/57/24 
f 42/42/26 41/41/25 59/59/26 
f 59/59/26 41/41/25 58/58/25 
f 43/43/27 42/42/26 60/60/27 
f 60/60/27 42/42/26 59/59/26 
f 44/44/28 43/43/27 61/61/28 
f 61/61/28 43/43/27 60/60/27 
f 45/45/29 44/44/28 62/62/29 
f 62/62/29 44/44/28 61/61/28 
f 46/46/30 45/45/29 63/63/30 
f 63/63/30 45/45/29 62/62/29 
f 47/47/31 46/46/30 64/64/31 
f 64/64/31 46/46/30 63/63/30 
f 48/48/32 47/47/31 65/65/32 
f 65/65/32 47/47/31 64/64/31 
f 49/49/33 48/48/32 66/66/33 
f 66/66/33 48/48/32 65/65/32 
f 50/50/34 49/49/33 67/67/34 
f 67/67/34 49/49/33 66/66/33 
f 51/51/35 50/50/34 68/68/35 
f 68/68/35 50/50/34 67/67/34 
s 4
f 52/52/36 53/53/36 1/69/36 
f 1/69/36 53/53/36 2/70/36 
f 54/54/36 52/52/36 5/71/36 
f 5/71/36 52/52/36 1/69/36 
f 55/55/36 54/54/36 7/72/36 
f 7/72/36 54/54/36 5/71/36 
f 56/56/36 55/55/36 9/73/36 
f 9/73/36 55/55/36 7/72/36 
f 57/57/36 56/56/36 11/74/36 
f 11/74/36 56/56/36 9/73/36 
f 58/58/36 57/57/36 13/75/36 
f 13/75/36 57/57/36 11/74/36 
f 59/59/36 58/58/36 15/76/36 
f 15/76/36 58/58/36 13/75/36 
f 60/60/36 59/59/36 17/77/36 
f 17/77/36 59/59/36 15/76/36 
f 61/61/36 60/60/36 19/78/36 
f 19/78/36 60/60/36 17/77/36 
f 62/62/36 61/61/36 21/79/36 
f 21/79/36 61/61/36 19/78/36 
f 63/63/36 62/62/36 23/80/36 
f 23/80/36 62/62/36 21/79/36 
f 64/64/36 63/63/36 25/81/36 
f 25/81/36 63/63/36 23/80/36 
f 65/65/36 64/64/36 27/82/36 
f 27/82/36 64/64/36 25/81/36 
f 66/66/36 65/65/36 29/83/36 
f 29/83/36 65/65/36 27/82/36 
f 67/67/36 66/66/36 31/84/36 
f 31/84/36 66/66/36 29/83/36 
f 68/68/36 67/67/36 33/85/36 
f 33/85/36 67/67/36 31/84/36 
s 5
f 69/1/1 70/2/2 71/3/1 
f 71/3/1 70/2/2 72/4/2 
f 73/5/3 69/1/1 74/6/3 
f 74/6/3 69/1/1 71/3/1 
f 75/7/4 73/5/3 76/8/4 
f 76/8/4 73/5/3 74/6/3 
f 77/9/5 75/7/4 78/10/5 
f 78/10/5 75/7/4 76/8/4 
f 79/11/6 77/9/5 80/12/6 
f 80/12/6 77/9/5 78/10/5 
f 81/13/7 79/11/6 82/14/7 
f 82/14/7 79/11/6 80/12/6 
f 83/15/8 81/13/7 84/16/8 
f 84/16/8 81/13/7 82/14/7 
f 85/17/9 83/15/8 86/18/9 
f 86/18/9 83/15/8 84/16/8 
f 87/19/10 85/17/9 88/20/10 
f 88/20/10 85/17/9 86/18/9 
f 89/21/11 87/19/10 90/22/11 
f 90/22/11 87/19/10 88/20/10 
f 91/23/12 89/21/11 92/24/12 
f 92/24/12 89/21/11 90/22/11 
f 93/25/13 91/23/12 94/26/13 
f 94/26/13 91/23/12 92/24/12 
f 95/27/14 93/25/13 96/28/14 
f 96/28/14 93/25/13 94/26/13 
f 97/29/15 95/27/14 98/30/15 
f 98/30/15 95/27/14 96/28/14 
f 99/31/16 97/29/15 100/32/16 
f 100/32/16 97/29/15 98/30/15 
f 101/33/17 99/31/16 102/34/17 
f 102/34/17 99/31/16 100/32/16 
s 6
f 71/3/18 72/4/18 3/35/18 
f 3/35/18 72/4/18 4/36/18 
f 74/6/18 71/3/18 6/37/18 
f 6/37/18 71/3/18 3/35/18 
f 76/8/18 74/6/18 8/38/18 
f 8/38/18 74/6/18 6/37/18 
f 78/10/18 76/8/18 10/39/18 
f 10/39/18 76/8/18 8/38/18 
f 80/12/18 78/10/18 12/40/18 
f 12/40/18 78/10/18 10/39/18 
f 82/14/18 80/12/18 14/41/18 
f 14/41/18 80/12/18 12/40/18 
f 84/16/18 82/14/18 16/42/18 
f 16/42/18 82/14/18 14/41/18 
f 86/18/18 84/16/18 18/43/18 
f 18/43/18 84/16/18 16/42/18 
f 88/20/18 86/18/18 20/44/18 
f 20/44/18 86/18/18 18/43/18 
f 90/22/18 88/20/18 22/45/18 
f 22/45/18 88/20/18 20/44/18 
f 92/24/18 90/22/18 24/46/18 
f 24/46/18 90/22/18 22/45/18 
f 94/26/18 92/24/18 26/47/18 
f 26/47/18 92/24/18 24/46/18 
f 96/28/18 94/26/18 28/48/18 
f 28/48/18 94/26/18 26/47/18 
f 98/30/18 96/28/18 30/49/18 
f 30/49/18 96/28/18 28/48/18 
f 100/32/18 98/30/18 32/50/18 
f 32/50/18 98/30/18 30/49/18 
f 102/34/18 100/32/18 34/51/18 
f 34/51/18 100/32/18 32/50/18 
s 7
f 3/35/19 4/36/20 103/52/19 
f 103/52/19 4/36/20 104/53/20 
f 6/37/21 3/35/19 105/54/21 
f 105/54/21 3/35/19 103/52/19 
f 8/38/22 6/37/21 106/55/22 
f 106/55/22 6/37/21 105/54/21 
f 10/39/23 8/38/22 107/56/23 
f 107/56/23 8/38/22 106/55/22 
f 12/40/24 10/39/23 108/57/24 
f 108/57/24 10/39/23 107/56/23 
f 14/41/25 12/40/24 109/58/25 
f 109/58/25 12/40/24 108/57/24 
f 16/42/26 14/41/25 110/59/26 
f 110/59/26 14/41/25 109/58/25 
f 18/43/27 16/42/26 111/60/27 
f 111/60/27 16/42/26 110/59/26 
f 20/44/28 18/43/27 112/61/28 
f 112/61/28 18/43/27 111/60/27 
f 22/45/29 20/44/28 113/62/29 
f 113/62/29 20/44/28 112/61/28 
f 24/46/30 22/45/29 114/63/30 
f 114/63/30 22/45/29 113/62/29 
f 26/47/31 24/46/30 115/64/31 
f 115/64/31 24/46/30 114/63/30 
f 28/48/32 26/47/31 116/65/32 
f 116/65/32 26/47/31 115/64/31 
f 30/49/33 28/48/32 117/66/33 
f 117/66/33 28/48/32 116/65/32 
f 32/50/34 30/49/33 118/67/34 
f 118/67/34 30/49/33 117/66/33 
f 34/51/35 32/50/34 119/68/35 
f 119/68/35 32/50/34 118/67/34 
s 8
f 103/52/36 104/53/36 69/69/36 
f 69/69/36 104/53/36 70/70/36 
f 105/54/36 103/52/36 73/71/36 
f 73/71/36 103/52/36 69/69/36 
f 106/55/36 105/54/36 75/72/36 
f 75/72/36 105/54/36 73/71/36 
f 107/56/36 106/55/36 77/73/36 
f 77/73/36 106/55/36 75/72/36 
f 108/57/36 107/56/36 79/74/36 
f 79/74/36 107/56/36 77/73/36 
f 109/58/36 108/57/36 81/75/36 
f 81/75/36 108/57/36 79/74/36 
f 110/59/36 109/58/36 83/76/36 
f 83/76/36 109/58/36 81/75/36 
f 111/60/36 110/59/36 85/77/36 
f 85/77/36 110/59/36 83/76/36 
f 112/61/36 111/60/36 87/78/36 
f 87/78/36 111/60/36 85/77/36 
f 113/62/36 112/61/36 89/79/36 
f 89/79/36 112/61/36 87/78/36 
f 114/63/36 113/62/36 91/80/36 
f 91/80/36 113/62/36 89/79/36 
f 115/64/36 114/63/36 93/81/36 
f 93/81/36 114/63/36 91/80/36 
f 116/65/36 115/64/36 95/82/36 
f 95/82/36 115/64/36 93/81/36 
f 117/66/36 116/65/36 97/83/36 
f 97/83/36 116/65/36 95/82/36 
f 118/67/36 117/66/36 99/84/36 
f 99/84/36 117/66/36 97/83/36 
f 119/68/36 118/67/36 101/85/36 
f 101/85/36 118/67/36 99/84/36 
s 9
f 120/1/1 121/2/2 122/3/1 
f 122/3/1 121/2/2 123/4/2 
f 124/5/3 120/1/1 125/6/3 
f 125/6/3 120/1/1 122/3/1 
f 126/7/4 124/5/3 127/8/4 
f 127/8/4 124/5/3 125/6/3 
f 128/9/5 126/7/4 129/10/5 
f 129/10/5 126/7/4 127/8/4 
f 130/11/6 128/9/5 131/12/6 
f 131/12/6 128/9/5 129/10/5 
f 132/13/7 130/11/6 133/14/7 
f 133/14/7 130/11/6 131/12/6 
f 134/15/8 132/13/7 135/16/8 
f 135/16/8 132/13/7 133/14/7 
f 136/17/9 134/15/8 137/18/9 
f 137/18/9 134/15/8 135/16/8 
f 138/19/10 136/17/9 139/20/10 
f 139/20/10 136/17/9 137/18/9 
f 140/21/11 138/19/10 141/22/11 
f 141/22/11 138/19/10 139/20/10 
f 142/23/12 140/21/11 143/24/12 
f 143/24/12 140/21/11 141/22/11 
f 144/25/13 142/23/12 145/26/13 
f 145/26/13 142/23/12 143/24/12 
f 146/27/14 144/25/13 147/28/14 
f 147/28/14 144/25/13 145/26/13 
f 148/29/15 146/27/14 149/30/15 
f 149/30/15 146/27/14 147/28/14 
f 150/31/16 148/29/15 151/32/16 
f 151/32/16 148/29/15 149/30/15 
f 152/33/17 150/31/16 153/34/17 
f 153/34/17 150/31/16 151/32/16 
s 10
f 122/3/18 123/4/18 154/35/18 
f 154/35/18 123/4/18 155/36/18 
f 125/6/18 122/3/18 156/37/18 
f 156/37/18 122/3/18 154/35/18 
f 127/8/18 125/6/18 157/38/18 
f 157/38/18 125/6/18 156/37/18 
f 129/10/18 127/8/18 158/39/18 
f 158/39/18 127/8/18 157/38/18 
f 131/12/18 129/10/18 159/40/18 
f 159/40/18 129/10/18 158/39/18 
f 133/14/18 131/12/18 160/41/18 
f 160/41/18 131/12/18 159/40/18 
f 135/16/18 133/14/18 161/42/18 
f 161/42/18 133/14/18 160/41/18 
f 137/18/18 135/16/18 162/43/18 
f 162/43/18 135/16/18 161/42/18 
f 139/20/18 137/18/18 163/44/18 
f 163/44/18 137/18/18 162/43/18 
f 141/22/18 139/20/18 164/45/18 
f 164/45/18 139/20/18 163/44/18 
f 143/24/18 141/22/18 165/46/18 
f 165/46/18 141/22/18 164/45/18 
f 145/26/18 143/24/18 166/47/18 
f 166/47/18 143/24/18 165/46/18 
f 147/28/18 145/26/18 167/48/18 
f 167/48/18 145/26/18 166/47/18 
f 149/30/18 147/28/18 168/49/18 
f 168/49/18 147/28/18 167/48/18 
f 151/32/18 149/30/18 169/50/18 
f 169/50/18 149/30/18 168/49/18 
f 153/34/18 151/32/18 170/51/18 
f 170/51/18 151/32/18 169/50/18 
s 11
f 154/35/19 155/36/20 1/52/19 
f 1/52/19 155/36/20 2/53/20 
f 156/37/21 154/35/19 5/54/21 
f 5/54/21 154/35/19 1/52/19 
f 157/38/22 156/37/21 7/55/22 
f 7/55/22 156/37/21 5/54/21 
f 158/39/23 157/38/22 9/56/23 
f 9/56/23 157/38/22 7/55/22 
f 159/40/24 158/39/23 11/57/24 
f 11/57/24 158/39/23 9/56/23 
f 160/41/25 159/40/24 13/58/25 
f 13/58/25 159/40/24 11/57/24 
f 161/42/26 160/41/25 15/59/26 
f 15/59/26 160/41/25 13/58/25 
f 162/43/27 161/42/26 17/60/27 
f 17/60/27 161/42/26 15/59/26 
f 163/44/28 162/43/27 19/61/28 
f 19/61/28 162/43/27 17/60/27 
f 164/45/29 163/44/28 21/62/29 
f 21/62/29 163/44/28 19/61/28 
f 165/46/30 164/45/29 23/63/30 
f 23/63/30 164/45/29 21/62/29 
f 166/47/31 165/46/30 25/64/31 
f 25/64/31 165/46/30 23/63/30 
f 167/48/32 166/47/31 27/65/32 
f 27/65/32 166/47/31 25/64/31 
f 168/49/33 167/48/32 29/66/33 
f 29/66/33 167/48/32 27/65/32 
f 169/50/34 168/49/33 31/67/34 
f 31/67/34 168/49/33 29/66/33 
f 170/51/35 169/50/34 33/68/35 
f 33/68/35 169/50/34 31/67/34 
s 12
f 1/52/36 2/53/36 120/69/36 
f 120/69/36 2/53/36 121/70/37 
f 5/54/36 1/52/36 124/71/36 
f 124/71/36 1/52/36 120/69/36 
f 7/55/36 5/54/36 126/72/36 
f 126/72/36 5/54/36 124/71/36 
f 9/56/36 7/55/36 128/73/36 
f 128/73/36 7/55/36 126/72/36 
f 11/57/36 9/56/36 130/74/36 
f 130/74/36 9/56/36 128/73/36 
f 13/58/36 11/57/36 132/75/36 
f 132/75/36 11/57/36 130/74/36 
f 15/59/36 13/58/36 134/76/36 
f 134/76/36 13/58/36 132/75/36 
f 17/60/36 15/59/36 136/77/36 
f 136/77/36 15/59/36 134/76/36 
f 19/61/36 17/60/36 138/78/36 
f 138/78/36 17/60/36 136/77/36 
f 21/62/36 19/61/36 140/79/36 
f 140/79/36 19/61/36 138/78/36 
f 23/63/36 21/62/36 142/80/36 
f 142/80/36 21/62/36 140/79/36 
f 25/64/36 23/63/36 144/81/36 
f 144/81/36 23/63/36 142/80/36 
f 27/65/36 25/64/36 146/82/36 
f 146/82/36 25/64/36 144/81/36 
f 29/66/36 27/65/36 148/83/36 
f 148/83/36 27/65/36 146/82/36 
f 31/67/36 29/66/36 150/84/36 
f 150/84/36 29/66/36 148/83/36 
f 33/68/36 31/67/36 152/85/36 
f 152/85/36 31/67/36 150/84/36 
# 384 faces

