# 3ds Max Wavefront OBJ Exporter v0.97b - (c)2007 guruware
# File Created: 24.03.2013 23:30:19

mtllib D.mtl

#
# object polySurface9
#

v  210.0000 -70.0000 4.2000
v  -210.0000 -70.0000 4.2000
v  210.0000 0.0000 4.2000
v  -210.0000 0.0000 4.2000
v  210.0000 0.0000 835.8000
v  -210.0000 0.0000 835.8000
v  210.0000 -70.0000 835.8000
v  -210.0000 -70.0000 835.8000
v  -175.0000 0.0000 4.2000
v  -175.0000 70.0000 4.2000
v  -210.0000 70.0000 4.2000
v  -175.0000 70.0000 835.8000
v  -210.0000 70.0000 835.8000
v  -175.0000 0.0000 835.8000
v  175.0000 0.0000 4.2000
v  210.0000 70.0000 4.2000
v  175.0000 70.0000 4.2000
v  210.0000 70.0000 835.8000
v  175.0000 70.0000 835.8000
v  175.0000 0.0000 835.8000
# 20 vertices

vn 0.0000 0.0000 -1.0000
vn 0.0000 1.0000 -0.0000
vn 0.0000 0.0000 1.0000
vn 0.0000 -1.0000 -0.0000
vn -1.0000 0.0000 -0.0000
vn 1.0000 0.0000 -0.0000
# 6 vertex normals

vt 0.3750 0.0000 0.0000
vt 0.6250 0.0000 0.0000
vt 0.3750 0.2500 0.0000
vt 0.6250 0.2500 0.0000
vt 0.3750 0.5000 0.0000
vt 0.6250 0.5000 0.0000
vt 0.3750 0.7500 0.0000
vt 0.6250 0.7500 0.0000
vt 0.3750 1.0000 0.0000
vt 0.6250 1.0000 0.0000
vt 0.8750 0.0000 0.0000
vt 0.8750 0.2500 0.0000
vt 0.1250 0.0000 0.0000
vt 0.1250 0.2500 0.0000
# 14 texture coords

g polySurface9
usemtl Material__25
s 1
f 1/1/1 2/2/1 3/3/1 
f 3/3/1 2/2/1 4/4/1 
s 2
f 3/3/2 4/4/2 5/5/2 
f 5/5/2 4/4/2 6/6/2 
s 3
f 5/5/3 6/6/3 7/7/3 
f 7/7/3 6/6/3 8/8/3 
s 4
f 7/7/4 8/8/4 1/9/4 
f 1/9/4 8/8/4 2/10/4 
s 5
f 2/2/5 8/11/5 4/4/5 
f 4/4/5 8/11/5 6/12/5 
s 6
f 7/13/6 1/1/6 5/14/6 
f 5/14/6 1/1/6 3/3/6 
s 7
f 9/1/1 4/2/1 10/3/1 
f 10/3/1 4/2/1 11/4/1 
s 8
f 10/3/2 11/4/2 12/5/2 
f 12/5/2 11/4/2 13/6/2 
s 9
f 12/5/3 13/6/3 14/7/3 
f 14/7/3 13/6/3 6/8/3 
s 10
f 14/7/4 6/8/4 9/9/4 
f 9/9/4 6/8/4 4/10/4 
s 11
f 4/2/5 6/11/5 11/4/5 
f 11/4/5 6/11/5 13/12/5 
s 12
f 14/13/6 9/1/6 12/14/6 
f 12/14/6 9/1/6 10/3/6 
s 13
f 3/1/1 15/2/1 16/3/1 
f 16/3/1 15/2/1 17/4/1 
s 14
f 16/3/2 17/4/2 18/5/2 
f 18/5/2 17/4/2 19/6/2 
s 15
f 18/5/3 19/6/3 5/7/3 
f 5/7/3 19/6/3 20/8/3 
s 16
f 5/7/4 20/8/4 3/9/4 
f 3/9/4 20/8/4 15/10/4 
s 17
f 15/2/5 20/11/5 17/4/5 
f 17/4/5 20/11/5 19/12/5 
s 18
f 5/13/6 3/1/6 18/14/6 
f 18/14/6 3/1/6 16/3/6 
# 36 faces

