# 3ds Max Wavefront OBJ Exporter v0.97b - (c)2007 guruware
# File Created: 24.03.2013 23:29:21

mtllib E.mtl

#
# object polySurface15
#

v  210.0000 -70.0000 4.2000
v  -210.0000 -70.0000 4.2000
v  210.0000 0.0000 4.2000
v  -210.0000 0.0000 4.2000
v  210.0000 0.0000 835.8000
v  -210.0000 0.0000 835.8000
v  210.0000 -70.0000 835.8000
v  -210.0000 -70.0000 835.8000
v  -175.0000 0.0000 2.1925
v  -210.0000 0.0000 2.1925
v  -175.0000 70.0000 2.1925
v  -210.0000 70.0000 2.1925
v  -175.0000 70.0000 450.6716
v  -210.0000 70.0000 450.6716
v  -210.0000 0.0000 450.6716
v  -175.0000 0.0000 450.6716
v  175.0000 0.0000 4.2000
v  210.0000 70.0000 4.2000
v  175.0000 70.0000 4.2000
v  210.0000 70.0000 835.8000
v  175.0000 70.0000 835.8000
v  175.0000 0.0000 835.8000
v  -631.9397 0.0000 805.0000
v  -631.9397 0.0000 840.0000
v  -631.9397 70.0000 805.0000
v  -631.9397 70.0000 840.0000
v  214.3706 70.0000 805.0000
v  214.3706 70.0000 840.0000
v  214.3706 0.0000 840.0000
v  214.3706 0.0000 805.0000
v  -630.7219 0.0000 420.0000
v  -630.7219 0.0000 455.0000
v  -630.7219 70.0000 420.0000
v  -630.7219 70.0000 455.0000
v  -179.5540 70.0000 420.0000
v  -179.5540 70.0000 455.0000
v  -179.5540 0.0000 455.0000
v  -179.5540 0.0000 420.0000
v  -210.0000 -70.0000 420.0000
v  -630.0000 -70.0000 420.0000
v  -210.0000 0.0000 420.0000
v  -630.0000 0.0000 420.0000
v  -210.0000 0.0000 840.0000
v  -630.0000 0.0000 840.0000
v  -210.0000 -70.0000 840.0000
v  -630.0000 -70.0000 840.0000
# 46 vertices

vn 0.0000 0.0000 -1.0000
vn 0.0000 1.0000 -0.0000
vn 0.0000 0.0000 1.0000
vn 0.0000 -1.0000 -0.0000
vn -1.0000 0.0000 -0.0000
vn 1.0000 0.0000 -0.0000
# 6 vertex normals

vt 0.3750 0.0000 0.0000
vt 0.6250 0.0000 0.0000
vt 0.3750 0.2500 0.0000
vt 0.6250 0.2500 0.0000
vt 0.3750 0.5000 0.0000
vt 0.6250 0.5000 0.0000
vt 0.3750 0.7500 0.0000
vt 0.6250 0.7500 0.0000
vt 0.3750 1.0000 0.0000
vt 0.6250 1.0000 0.0000
vt 0.8750 0.0000 0.0000
vt 0.8750 0.2500 0.0000
vt 0.1250 0.0000 0.0000
vt 0.1250 0.2500 0.0000
vt 0.3750 0.3756 0.0000
vt 0.6250 0.3756 0.0000
vt 0.7506 0.0000 0.0000
vt 0.7506 0.2500 0.0000
vt 0.3750 0.8744 0.0000
vt 0.6250 0.8744 0.0000
vt 0.2494 0.2500 0.0000
vt 0.2494 0.0000 0.0000
# 22 texture coords

g polySurface15
usemtl Material__25
s 1
f 1/1/1 2/2/1 3/3/1 
f 3/3/1 2/2/1 4/4/1 
s 2
f 3/3/2 4/4/2 5/5/2 
f 5/5/2 4/4/2 6/6/2 
s 3
f 5/5/3 6/6/3 7/7/3 
f 7/7/3 6/6/3 8/8/3 
s 4
f 7/7/4 8/8/4 1/9/4 
f 1/9/4 8/8/4 2/10/4 
s 5
f 2/2/5 8/11/5 4/4/5 
f 4/4/5 8/11/5 6/12/5 
s 6
f 7/13/6 1/1/6 5/14/6 
f 5/14/6 1/1/6 3/3/6 
s 7
f 9/1/1 10/2/1 11/3/1 
f 11/3/1 10/2/1 12/4/1 
s 8
f 11/3/2 12/4/2 13/15/2 
f 13/15/2 12/4/2 14/16/2 
s 9
f 10/2/5 15/17/5 12/4/5 
f 12/4/5 15/17/5 14/18/5 
s 10
f 16/19/4 15/20/4 9/9/4 
f 9/9/4 15/20/4 10/10/4 
s 11
f 13/21/6 16/22/6 11/3/6 
f 11/3/6 16/22/6 9/1/6 
s 12
f 3/1/1 17/2/1 18/3/1 
f 18/3/1 17/2/1 19/4/1 
s 13
f 18/3/2 19/4/2 20/5/2 
f 20/5/2 19/4/2 21/6/2 
s 14
f 20/5/3 21/6/3 5/7/3 
f 5/7/3 21/6/3 22/8/3 
s 15
f 5/7/4 22/8/4 3/9/4 
f 3/9/4 22/8/4 17/10/4 
s 16
f 17/2/5 22/11/5 19/4/5 
f 19/4/5 22/11/5 21/12/5 
s 17
f 5/13/6 3/1/6 20/14/6 
f 20/14/6 3/1/6 18/3/6 
s 18
f 23/1/5 24/2/5 25/3/5 
f 25/3/5 24/2/5 26/4/5 
s 19
f 25/3/2 26/4/2 27/15/2 
f 27/15/2 26/4/2 28/16/2 
s 20
f 24/2/3 29/17/3 26/4/3 
f 26/4/3 29/17/3 28/18/3 
s 21
f 30/19/4 29/20/4 23/9/4 
f 23/9/4 29/20/4 24/10/4 
s 22
f 27/21/1 30/22/1 25/3/1 
f 25/3/1 30/22/1 23/1/1 
s 23
f 31/1/5 32/2/5 33/3/5 
f 33/3/5 32/2/5 34/4/5 
s 24
f 33/3/2 34/4/2 35/15/2 
f 35/15/2 34/4/2 36/16/2 
s 25
f 32/2/3 37/17/3 34/4/3 
f 34/4/3 37/17/3 36/18/3 
s 26
f 38/19/4 37/20/4 31/9/4 
f 31/9/4 37/20/4 32/10/4 
s 27
f 35/21/1 38/22/1 33/3/1 
f 33/3/1 38/22/1 31/1/1 
s 28
f 39/1/1 40/2/1 41/3/1 
f 41/3/1 40/2/1 42/4/1 
s 29
f 41/3/2 42/4/2 43/5/2 
f 43/5/2 42/4/2 44/6/2 
s 30
f 43/5/3 44/6/3 45/7/3 
f 45/7/3 44/6/3 46/8/3 
s 31
f 45/7/4 46/8/4 39/9/4 
f 39/9/4 46/8/4 40/10/4 
s 32
f 40/2/5 46/11/5 42/4/5 
f 42/4/5 46/11/5 44/12/5 
s 33
f 45/13/6 39/1/6 43/14/6 
f 43/14/6 39/1/6 41/3/6 
# 66 faces

