# 3ds Max Wavefront OBJ Exporter v0.97b - (c)2007 guruware
# File Created: 24.03.2013 23:26:27

mtllib H.mtl

#
# object polySurface32
#

v  210.0000 -70.0000 -0.0000
v  -210.0000 -70.0000 -0.0000
v  210.0000 0.0000 -0.0000
v  -210.0000 0.0000 -0.0000
v  210.0000 0.0000 630.0000
v  -210.0000 0.0000 630.0000
v  210.0000 -70.0000 630.0000
v  -210.0000 -70.0000 630.0000
v  630.0000 -70.0000 630.0000
v  -2310.0000 -70.0000 630.0000
v  630.0000 0.0000 630.0000
v  -2310.0000 0.0000 630.0000
v  630.0000 0.0000 3150.0000
v  -2310.0000 0.0000 3150.0000
v  630.0000 -70.0000 3150.0000
v  -2310.0000 -70.0000 3150.0000
v  175.0000 0.0000 -0.0000
v  210.0000 70.0000 -0.0000
v  175.0000 70.0000 -0.0000
v  210.0000 70.0000 630.0000
v  175.0000 70.0000 630.0000
v  175.0000 0.0000 630.0000
v  -175.0000 0.0000 -0.0000
v  -175.0000 70.0000 -0.0000
v  -210.0000 70.0000 -0.0000
v  -175.0000 70.0000 630.0000
v  -210.0000 70.0000 630.0000
v  -175.0000 0.0000 630.0000
v  629.9523 0.0000 630.0000
v  174.9523 0.0000 630.0000
v  629.9523 70.0000 630.0000
v  174.9523 70.0000 630.0000
v  629.9523 70.0000 665.0000
v  174.9523 70.0000 665.0000
v  629.9523 0.0000 665.0000
v  174.9523 0.0000 665.0000
v  595.0000 0.0000 630.0000
v  630.0000 70.0000 630.0000
v  595.0000 70.0000 630.0000
v  630.0000 70.0000 3150.0000
v  595.0000 70.0000 3150.0000
v  595.0000 0.0000 3150.0000
v  -2275.0000 0.0000 630.0000
v  -2275.0000 70.0000 630.0000
v  -2310.0000 70.0000 630.0000
v  -2275.0000 70.0000 3150.0000
v  -2310.0000 70.0000 3150.0000
v  -2275.0000 0.0000 3150.0000
v  -1855.0000 0.0000 3115.0000
v  -2310.0000 0.0000 3115.0000
v  -1855.0000 70.0000 3115.0000
v  -2310.0000 70.0000 3115.0000
v  -1855.0000 70.0000 3150.0000
v  -1855.0000 0.0000 3150.0000
v  630.0000 0.0000 3115.0000
v  -1505.0000 0.0000 3115.0000
v  630.0000 70.0000 3115.0000
v  -1505.0000 70.0000 3115.0000
v  -1505.0000 70.0000 3150.0000
v  -1505.0000 0.0000 3150.0000
v  -175.0000 70.0000 665.0000
v  -2310.0000 70.0000 665.0000
v  -175.0000 0.0000 665.0000
v  -2310.0000 0.0000 665.0000
v  139.2034 7.2605 1606.0593
v  -46.4121 168.1273 1606.0593
v  185.6073 47.4772 1606.0593
v  -0.0083 208.3440 1606.0593
v  185.6073 47.4772 1632.3093
v  -0.0083 208.3440 1632.3093
v  139.2034 7.2605 1632.3093
v  -46.4121 168.1273 1632.3093
v  188.9594 291.8720 1606.0593
v  3.3439 131.0052 1606.0593
v  142.5556 332.0887 1606.0593
v  -43.0600 171.2219 1606.0593
v  142.5556 332.0887 1632.3093
v  -43.0600 171.2219 1632.3093
v  188.9594 291.8720 1632.3093
v  3.3439 131.0052 1632.3093
v  -490.7966 7.2605 2166.0593
v  -676.4121 168.1273 2166.0593
v  -444.3927 47.4772 2166.0593
v  -630.0082 208.3440 2166.0593
v  -444.3927 47.4772 2192.3093
v  -630.0082 208.3440 2192.3093
v  -490.7966 7.2605 2192.3093
v  -676.4121 168.1273 2192.3093
v  -441.0405 291.8720 2166.0593
v  -626.6561 131.0052 2166.0593
v  -487.4444 332.0887 2166.0593
v  -673.0599 171.2219 2166.0593
v  -487.4444 332.0887 2192.3093
v  -673.0599 171.2219 2192.3093
v  -441.0405 291.8720 2192.3093
v  -626.6561 131.0052 2192.3093
v  -1120.7966 7.2605 2726.0593
v  -1306.4121 168.1273 2726.0593
v  -1074.3927 47.4772 2726.0593
v  -1260.0083 208.3440 2726.0593
v  -1074.3927 47.4772 2752.3093
v  -1260.0083 208.3440 2752.3093
v  -1120.7966 7.2605 2752.3093
v  -1306.4121 168.1273 2752.3093
v  -1071.0405 291.8720 2726.0593
v  -1256.6561 131.0052 2726.0593
v  -1117.4445 332.0887 2726.0593
v  -1303.0601 171.2219 2726.0593
v  -1117.4445 332.0887 2752.3093
v  -1303.0601 171.2219 2752.3093
v  -1071.0405 291.8720 2752.3093
v  -1256.6561 131.0052 2752.3093
v  41.1953 -14.7251 1034.9290
v  13.1953 -14.7251 1034.9290
v  41.1953 220.4581 1034.9290
v  13.1953 220.4581 1034.9290
v  41.1953 220.4581 1062.9290
v  13.1953 220.4581 1062.9290
v  41.1953 -14.7251 1062.9290
v  13.1953 -14.7251 1062.9290
v  -321.5045 -14.7251 938.2827
v  -349.5045 -14.7251 938.2827
v  -321.5045 220.4581 938.2827
v  -349.5045 220.4581 938.2827
v  -321.5045 220.4581 966.2827
v  -349.5045 220.4581 966.2827
v  -321.5045 -14.7251 966.2827
v  -349.5045 -14.7251 966.2827
v  -1912.8357 -14.7251 2607.5083
v  -1940.8357 -14.7251 2607.5083
v  -1912.8357 220.4581 2607.5083
v  -1940.8357 220.4581 2607.5083
v  -1912.8357 220.4581 2635.5083
v  -1940.8357 220.4581 2635.5083
v  -1912.8357 -14.7251 2635.5083
v  -1940.8357 -14.7251 2635.5083
v  -318.6724 -14.7251 1574.0537
v  -346.6724 -14.7251 1574.0537
v  -318.6724 220.4581 1574.0537
v  -346.6724 220.4581 1574.0537
v  -318.6724 220.4581 1602.0537
v  -346.6724 220.4581 1602.0537
v  -318.6724 -14.7251 1602.0537
v  -346.6724 -14.7251 1602.0537
v  -1644.3180 -14.7251 1615.3734
v  -1672.3180 -14.7251 1615.3734
v  -1644.3180 220.4581 1615.3734
v  -1672.3180 220.4581 1615.3734
v  -1644.3180 220.4581 1643.3734
v  -1672.3180 220.4581 1643.3734
v  -1644.3180 -14.7251 1643.3734
v  -1672.3180 -14.7251 1643.3734
v  -495.0973 -14.7251 1935.3374
v  -523.0973 -14.7251 1935.3374
v  -495.0973 220.4581 1935.3374
v  -523.0973 220.4581 1935.3374
v  -495.0973 220.4581 1963.3374
v  -523.0973 220.4581 1963.3374
v  -495.0973 -14.7251 1963.3374
v  -523.0973 -14.7251 1963.3374
v  -555.3009 -14.7251 1076.8488
v  -583.3009 -14.7251 1076.8488
v  -555.3009 220.4581 1076.8488
v  -583.3009 220.4581 1076.8488
v  -555.3009 220.4581 1104.8488
v  -583.3009 220.4581 1104.8488
v  -555.3009 -14.7251 1104.8488
v  -583.3009 -14.7251 1104.8488
v  -1508.6932 -14.7251 2446.6748
v  -1536.6932 -14.7251 2446.6748
v  -1508.6932 220.4581 2446.6748
v  -1536.6932 220.4581 2446.6748
v  -1508.6932 220.4581 2474.6748
v  -1536.6932 220.4581 2474.6748
v  -1508.6932 -14.7251 2474.6748
v  -1536.6932 -14.7251 2474.6748
v  -977.4864 -14.7251 876.4891
v  -1005.4864 -14.7251 876.4891
v  -977.4864 220.4581 876.4891
v  -1005.4864 220.4581 876.4891
v  -977.4864 220.4581 904.4891
v  -1005.4864 220.4581 904.4891
v  -977.4864 -14.7251 904.4891
v  -1005.4864 -14.7251 904.4891
v  -1643.3273 -14.7251 1974.7377
v  -1671.3273 -14.7251 1974.7377
v  -1643.3273 220.4581 1974.7377
v  -1671.3273 220.4581 1974.7377
v  -1643.3273 220.4581 2002.7377
v  -1671.3273 220.4581 2002.7377
v  -1643.3273 -14.7251 2002.7377
v  -1671.3273 -14.7251 2002.7377
v  -1058.6810 -14.7251 1148.1444
v  -1086.6810 -14.7251 1148.1444
v  -1058.6810 220.4581 1148.1444
v  -1086.6810 220.4581 1148.1444
v  -1058.6810 220.4581 1176.1444
v  -1086.6810 220.4581 1176.1444
v  -1058.6810 -14.7251 1176.1444
v  -1086.6810 -14.7251 1176.1444
v  -1029.9739 -14.7251 2173.3196
v  -1057.9739 -14.7251 2173.3196
v  -1029.9739 220.4581 2173.3196
v  -1057.9739 220.4581 2173.3196
v  -1029.9739 220.4581 2201.3196
v  -1057.9739 220.4581 2201.3196
v  -1029.9739 -14.7251 2201.3196
v  -1057.9739 -14.7251 2201.3196
v  -692.4510 -14.7251 1488.4862
v  -720.4510 -14.7251 1488.4862
v  -692.4510 220.4581 1488.4862
v  -720.4510 220.4581 1488.4862
v  -692.4510 220.4581 1516.4862
v  -720.4510 220.4581 1516.4862
v  -692.4510 -14.7251 1516.4862
v  -720.4510 -14.7251 1516.4862
v  -1413.6648 -14.7251 1408.6453
v  -1441.6648 -14.7251 1408.6453
v  -1413.6648 220.4581 1408.6453
v  -1441.6648 220.4581 1408.6453
v  -1413.6648 220.4581 1436.6453
v  -1441.6648 220.4581 1436.6453
v  -1413.6648 -14.7251 1436.6453
v  -1441.6648 -14.7251 1436.6453
v  -1165.7705 -14.7251 1883.3806
v  -1193.7705 -14.7251 1883.3806
v  -1165.7705 220.4581 1883.3806
v  -1193.7705 220.4581 1883.3806
v  -1165.7705 220.4581 1911.3806
v  -1193.7705 220.4581 1911.3806
v  -1165.7705 -14.7251 1911.3806
v  -1193.7705 -14.7251 1911.3806
# 232 vertices

vn 0.0000 0.0000 -1.0000
vn 0.0000 1.0000 -0.0000
vn 0.0000 0.0000 1.0000
vn 0.0000 -1.0000 -0.0000
vn -1.0000 0.0000 -0.0000
vn 1.0000 0.0000 -0.0000
vn 0.6549 0.7557 -0.0000
vn -0.0000 0.0000 1.0000
vn -0.6549 -0.7557 -0.0000
vn -0.6549 0.7557 -0.0000
vn 0.6549 -0.7557 -0.0000
vn -0.0000 0.0000 -1.0000
# 12 vertex normals

vt 0.3750 0.0000 0.0000
vt 0.6250 0.0000 0.0000
vt 0.3750 0.2500 0.0000
vt 0.6250 0.2500 0.0000
vt 0.3750 0.5000 0.0000
vt 0.6250 0.5000 0.0000
vt 0.3750 0.7500 0.0000
vt 0.6250 0.7500 0.0000
vt 0.3750 1.0000 0.0000
vt 0.6250 1.0000 0.0000
vt 0.8750 0.0000 0.0000
vt 0.8750 0.2500 0.0000
vt 0.1250 0.0000 0.0000
vt 0.1250 0.2500 0.0000
# 14 texture coords

g polySurface32
usemtl Material__25
s 1
f 1/1/1 2/2/1 3/3/1 
f 3/3/1 2/2/1 4/4/1 
s 2
f 3/3/2 4/4/2 5/5/2 
f 5/5/2 4/4/2 6/6/2 
s 3
f 5/5/3 6/6/3 7/7/3 
f 7/7/3 6/6/3 8/8/3 
s 4
f 7/7/4 8/8/4 1/9/4 
f 1/9/4 8/8/4 2/10/4 
s 5
f 2/2/5 8/11/5 4/4/5 
f 4/4/5 8/11/5 6/12/5 
s 6
f 7/13/6 1/1/6 5/14/6 
f 5/14/6 1/1/6 3/3/6 
s 7
f 9/1/1 10/2/1 11/3/1 
f 11/3/1 10/2/1 12/4/1 
s 8
f 11/3/2 12/4/2 13/5/2 
f 13/5/2 12/4/2 14/6/2 
s 9
f 13/5/3 14/6/3 15/7/3 
f 15/7/3 14/6/3 16/8/3 
s 10
f 15/7/4 16/8/4 9/9/4 
f 9/9/4 16/8/4 10/10/4 
s 11
f 10/2/5 16/11/5 12/4/5 
f 12/4/5 16/11/5 14/12/5 
s 12
f 15/13/6 9/1/6 13/14/6 
f 13/14/6 9/1/6 11/3/6 
s 13
f 3/1/1 17/2/1 18/3/1 
f 18/3/1 17/2/1 19/4/1 
s 14
f 18/3/2 19/4/2 20/5/2 
f 20/5/2 19/4/2 21/6/2 
s 15
f 20/5/3 21/6/3 5/7/3 
f 5/7/3 21/6/3 22/8/3 
s 16
f 5/7/4 22/8/4 3/9/4 
f 3/9/4 22/8/4 17/10/4 
s 17
f 17/2/5 22/11/5 19/4/5 
f 19/4/5 22/11/5 21/12/5 
s 18
f 5/13/6 3/1/6 20/14/6 
f 20/14/6 3/1/6 18/3/6 
s 19
f 23/1/1 4/2/1 24/3/1 
f 24/3/1 4/2/1 25/4/1 
s 20
f 24/3/2 25/4/2 26/5/2 
f 26/5/2 25/4/2 27/6/2 
s 21
f 26/5/3 27/6/3 28/7/3 
f 28/7/3 27/6/3 6/8/3 
s 22
f 28/7/4 6/8/4 23/9/4 
f 23/9/4 6/8/4 4/10/4 
s 23
f 4/2/5 6/11/5 25/4/5 
f 25/4/5 6/11/5 27/12/5 
s 24
f 28/13/6 23/1/6 26/14/6 
f 26/14/6 23/1/6 24/3/6 
s 25
f 29/1/1 30/2/1 31/3/1 
f 31/3/1 30/2/1 32/4/1 
s 26
f 31/3/2 32/4/2 33/5/2 
f 33/5/2 32/4/2 34/6/2 
s 27
f 33/5/3 34/6/3 35/7/3 
f 35/7/3 34/6/3 36/8/3 
s 28
f 35/7/4 36/8/4 29/9/4 
f 29/9/4 36/8/4 30/10/4 
s 29
f 30/2/5 36/11/5 32/4/5 
f 32/4/5 36/11/5 34/12/5 
s 30
f 35/13/6 29/1/6 33/14/6 
f 33/14/6 29/1/6 31/3/6 
s 31
f 11/1/1 37/2/1 38/3/1 
f 38/3/1 37/2/1 39/4/1 
s 32
f 38/3/2 39/4/2 40/5/2 
f 40/5/2 39/4/2 41/6/2 
s 33
f 40/5/3 41/6/3 13/7/3 
f 13/7/3 41/6/3 42/8/3 
s 34
f 13/7/4 42/8/4 11/9/4 
f 11/9/4 42/8/4 37/10/4 
s 35
f 37/2/5 42/11/5 39/4/5 
f 39/4/5 42/11/5 41/12/5 
s 36
f 13/13/6 11/1/6 40/14/6 
f 40/14/6 11/1/6 38/3/6 
s 37
f 43/1/1 12/2/1 44/3/1 
f 44/3/1 12/2/1 45/4/1 
s 38
f 44/3/2 45/4/2 46/5/2 
f 46/5/2 45/4/2 47/6/2 
s 39
f 46/5/3 47/6/3 48/7/3 
f 48/7/3 47/6/3 14/8/3 
s 40
f 48/7/4 14/8/4 43/9/4 
f 43/9/4 14/8/4 12/10/4 
s 41
f 12/2/5 14/11/5 45/4/5 
f 45/4/5 14/11/5 47/12/5 
s 42
f 48/13/6 43/1/6 46/14/6 
f 46/14/6 43/1/6 44/3/6 
s 43
f 49/1/1 50/2/1 51/3/1 
f 51/3/1 50/2/1 52/4/1 
s 44
f 51/3/2 52/4/2 53/5/2 
f 53/5/2 52/4/2 47/6/2 
s 45
f 53/5/3 47/6/3 54/7/3 
f 54/7/3 47/6/3 14/8/3 
s 46
f 54/7/4 14/8/4 49/9/4 
f 49/9/4 14/8/4 50/10/4 
s 47
f 50/2/5 14/11/5 52/4/5 
f 52/4/5 14/11/5 47/12/5 
s 48
f 54/13/6 49/1/6 53/14/6 
f 53/14/6 49/1/6 51/3/6 
s 49
f 55/1/1 56/2/1 57/3/1 
f 57/3/1 56/2/1 58/4/1 
s 50
f 57/3/2 58/4/2 40/5/2 
f 40/5/2 58/4/2 59/6/2 
s 51
f 40/5/3 59/6/3 13/7/3 
f 13/7/3 59/6/3 60/8/3 
s 52
f 13/7/4 60/8/4 55/9/4 
f 55/9/4 60/8/4 56/10/4 
s 53
f 56/2/5 60/11/5 58/4/5 
f 58/4/5 60/11/5 59/12/5 
s 54
f 13/13/6 55/1/6 40/14/6 
f 40/14/6 55/1/6 57/3/6 
s 55
f 28/1/1 12/2/1 26/3/1 
f 26/3/1 12/2/1 45/4/1 
s 56
f 26/3/2 45/4/2 61/5/2 
f 61/5/2 45/4/2 62/6/2 
s 57
f 61/5/3 62/6/3 63/7/3 
f 63/7/3 62/6/3 64/8/3 
s 58
f 63/7/4 64/8/4 28/9/4 
f 28/9/4 64/8/4 12/10/4 
s 59
f 12/2/5 64/11/5 45/4/5 
f 45/4/5 64/11/5 62/12/5 
s 60
f 63/13/6 28/1/6 61/14/6 
f 61/14/6 28/1/6 26/3/6 
s 61
f 65/1/1 66/2/1 67/3/1 
f 67/3/1 66/2/1 68/4/1 
s 62
f 67/3/7 68/4/7 69/5/7 
f 69/5/7 68/4/7 70/6/7 
s 63
f 69/5/8 70/6/3 71/7/8 
f 71/7/8 70/6/3 72/8/3 
s 64
f 71/7/9 72/8/9 65/9/9 
f 65/9/9 72/8/9 66/10/9 
s 65
f 66/2/10 72/11/10 68/4/10 
f 68/4/10 72/11/10 70/12/10 
s 66
f 71/13/11 65/1/11 69/14/11 
f 69/14/11 65/1/11 67/3/11 
s 67
f 73/1/1 74/2/12 75/3/1 
f 75/3/1 74/2/12 76/4/12 
s 68
f 75/3/10 76/4/10 77/5/10 
f 77/5/10 76/4/10 78/6/10 
s 69
f 77/5/3 78/6/8 79/7/3 
f 79/7/3 78/6/8 80/8/8 
s 70
f 79/7/11 80/8/11 73/9/11 
f 73/9/11 80/8/11 74/10/11 
s 71
f 74/2/9 80/11/9 76/4/9 
f 76/4/9 80/11/9 78/12/9 
s 72
f 79/13/7 73/1/7 77/14/7 
f 77/14/7 73/1/7 75/3/7 
s 73
f 81/1/1 82/2/1 83/3/1 
f 83/3/1 82/2/1 84/4/1 
s 74
f 83/3/7 84/4/7 85/5/7 
f 85/5/7 84/4/7 86/6/7 
s 75
f 85/5/8 86/6/3 87/7/8 
f 87/7/8 86/6/3 88/8/3 
s 76
f 87/7/9 88/8/9 81/9/9 
f 81/9/9 88/8/9 82/10/9 
s 77
f 82/2/10 88/11/10 84/4/10 
f 84/4/10 88/11/10 86/12/10 
s 78
f 87/13/11 81/1/11 85/14/11 
f 85/14/11 81/1/11 83/3/11 
s 79
f 89/1/1 90/2/12 91/3/1 
f 91/3/1 90/2/12 92/4/12 
s 80
f 91/3/10 92/4/10 93/5/10 
f 93/5/10 92/4/10 94/6/10 
s 81
f 93/5/3 94/6/8 95/7/3 
f 95/7/3 94/6/8 96/8/8 
s 82
f 95/7/11 96/8/11 89/9/11 
f 89/9/11 96/8/11 90/10/11 
s 83
f 90/2/9 96/11/9 92/4/9 
f 92/4/9 96/11/9 94/12/9 
s 84
f 95/13/7 89/1/7 93/14/7 
f 93/14/7 89/1/7 91/3/7 
s 85
f 97/1/12 98/2/12 99/3/12 
f 99/3/12 98/2/12 100/4/1 
s 86
f 99/3/7 100/4/7 101/5/7 
f 101/5/7 100/4/7 102/6/7 
s 87
f 101/5/3 102/6/8 103/7/8 
f 103/7/8 102/6/8 104/8/8 
s 88
f 103/7/9 104/8/9 97/9/9 
f 97/9/9 104/8/9 98/10/9 
s 89
f 98/2/10 104/11/10 100/4/10 
f 100/4/10 104/11/10 102/12/10 
s 90
f 103/13/11 97/1/11 101/14/11 
f 101/14/11 97/1/11 99/3/11 
s 91
f 105/1/1 106/2/1 107/3/1 
f 107/3/1 106/2/1 108/4/1 
s 92
f 107/3/10 108/4/10 109/5/10 
f 109/5/10 108/4/10 110/6/10 
s 93
f 109/5/8 110/6/3 111/7/8 
f 111/7/8 110/6/3 112/8/3 
s 94
f 111/7/11 112/8/11 105/9/11 
f 105/9/11 112/8/11 106/10/11 
s 95
f 106/2/9 112/11/9 108/4/9 
f 108/4/9 112/11/9 110/12/9 
s 96
f 111/13/7 105/1/7 109/14/7 
f 109/14/7 105/1/7 107/3/7 
s 97
f 113/1/1 114/2/1 115/3/1 
f 115/3/1 114/2/1 116/4/1 
s 98
f 115/3/2 116/4/2 117/5/2 
f 117/5/2 116/4/2 118/6/2 
s 99
f 117/5/3 118/6/3 119/7/3 
f 119/7/3 118/6/3 120/8/3 
s 100
f 119/7/4 120/8/4 113/9/4 
f 113/9/4 120/8/4 114/10/4 
s 101
f 114/2/5 120/11/5 116/4/5 
f 116/4/5 120/11/5 118/12/5 
s 102
f 119/13/6 113/1/6 117/14/6 
f 117/14/6 113/1/6 115/3/6 
s 103
f 121/1/1 122/2/1 123/3/1 
f 123/3/1 122/2/1 124/4/1 
s 104
f 123/3/2 124/4/2 125/5/2 
f 125/5/2 124/4/2 126/6/2 
s 105
f 125/5/3 126/6/3 127/7/3 
f 127/7/3 126/6/3 128/8/3 
s 106
f 127/7/4 128/8/4 121/9/4 
f 121/9/4 128/8/4 122/10/4 
s 107
f 122/2/5 128/11/5 124/4/5 
f 124/4/5 128/11/5 126/12/5 
s 108
f 127/13/6 121/1/6 125/14/6 
f 125/14/6 121/1/6 123/3/6 
s 109
f 129/1/1 130/2/1 131/3/1 
f 131/3/1 130/2/1 132/4/1 
s 110
f 131/3/2 132/4/2 133/5/2 
f 133/5/2 132/4/2 134/6/2 
s 111
f 133/5/3 134/6/3 135/7/3 
f 135/7/3 134/6/3 136/8/3 
s 112
f 135/7/4 136/8/4 129/9/4 
f 129/9/4 136/8/4 130/10/4 
s 113
f 130/2/5 136/11/5 132/4/5 
f 132/4/5 136/11/5 134/12/5 
s 114
f 135/13/6 129/1/6 133/14/6 
f 133/14/6 129/1/6 131/3/6 
s 115
f 137/1/1 138/2/1 139/3/1 
f 139/3/1 138/2/1 140/4/1 
s 116
f 139/3/2 140/4/2 141/5/2 
f 141/5/2 140/4/2 142/6/2 
s 117
f 141/5/3 142/6/3 143/7/3 
f 143/7/3 142/6/3 144/8/3 
s 118
f 143/7/4 144/8/4 137/9/4 
f 137/9/4 144/8/4 138/10/4 
s 119
f 138/2/5 144/11/5 140/4/5 
f 140/4/5 144/11/5 142/12/5 
s 120
f 143/13/6 137/1/6 141/14/6 
f 141/14/6 137/1/6 139/3/6 
s 121
f 145/1/1 146/2/1 147/3/1 
f 147/3/1 146/2/1 148/4/1 
s 122
f 147/3/2 148/4/2 149/5/2 
f 149/5/2 148/4/2 150/6/2 
s 123
f 149/5/3 150/6/3 151/7/3 
f 151/7/3 150/6/3 152/8/3 
s 124
f 151/7/4 152/8/4 145/9/4 
f 145/9/4 152/8/4 146/10/4 
s 125
f 146/2/5 152/11/5 148/4/5 
f 148/4/5 152/11/5 150/12/5 
s 126
f 151/13/6 145/1/6 149/14/6 
f 149/14/6 145/1/6 147/3/6 
s 127
f 153/1/1 154/2/1 155/3/1 
f 155/3/1 154/2/1 156/4/1 
s 128
f 155/3/2 156/4/2 157/5/2 
f 157/5/2 156/4/2 158/6/2 
s 129
f 157/5/3 158/6/3 159/7/3 
f 159/7/3 158/6/3 160/8/3 
s 130
f 159/7/4 160/8/4 153/9/4 
f 153/9/4 160/8/4 154/10/4 
s 131
f 154/2/5 160/11/5 156/4/5 
f 156/4/5 160/11/5 158/12/5 
s 132
f 159/13/6 153/1/6 157/14/6 
f 157/14/6 153/1/6 155/3/6 
s 133
f 161/1/1 162/2/1 163/3/1 
f 163/3/1 162/2/1 164/4/1 
s 134
f 163/3/2 164/4/2 165/5/2 
f 165/5/2 164/4/2 166/6/2 
s 135
f 165/5/3 166/6/3 167/7/3 
f 167/7/3 166/6/3 168/8/3 
s 136
f 167/7/4 168/8/4 161/9/4 
f 161/9/4 168/8/4 162/10/4 
s 137
f 162/2/5 168/11/5 164/4/5 
f 164/4/5 168/11/5 166/12/5 
s 138
f 167/13/6 161/1/6 165/14/6 
f 165/14/6 161/1/6 163/3/6 
s 139
f 169/1/1 170/2/1 171/3/1 
f 171/3/1 170/2/1 172/4/1 
s 140
f 171/3/2 172/4/2 173/5/2 
f 173/5/2 172/4/2 174/6/2 
s 141
f 173/5/3 174/6/3 175/7/3 
f 175/7/3 174/6/3 176/8/3 
s 142
f 175/7/4 176/8/4 169/9/4 
f 169/9/4 176/8/4 170/10/4 
s 143
f 170/2/5 176/11/5 172/4/5 
f 172/4/5 176/11/5 174/12/5 
s 144
f 175/13/6 169/1/6 173/14/6 
f 173/14/6 169/1/6 171/3/6 
s 145
f 177/1/1 178/2/1 179/3/1 
f 179/3/1 178/2/1 180/4/1 
s 146
f 179/3/2 180/4/2 181/5/2 
f 181/5/2 180/4/2 182/6/2 
s 147
f 181/5/3 182/6/3 183/7/3 
f 183/7/3 182/6/3 184/8/3 
s 148
f 183/7/4 184/8/4 177/9/4 
f 177/9/4 184/8/4 178/10/4 
s 149
f 178/2/5 184/11/5 180/4/5 
f 180/4/5 184/11/5 182/12/5 
s 150
f 183/13/6 177/1/6 181/14/6 
f 181/14/6 177/1/6 179/3/6 
s 151
f 185/1/1 186/2/1 187/3/1 
f 187/3/1 186/2/1 188/4/1 
s 152
f 187/3/2 188/4/2 189/5/2 
f 189/5/2 188/4/2 190/6/2 
s 153
f 189/5/3 190/6/3 191/7/3 
f 191/7/3 190/6/3 192/8/3 
s 154
f 191/7/4 192/8/4 185/9/4 
f 185/9/4 192/8/4 186/10/4 
s 155
f 186/2/5 192/11/5 188/4/5 
f 188/4/5 192/11/5 190/12/5 
s 156
f 191/13/6 185/1/6 189/14/6 
f 189/14/6 185/1/6 187/3/6 
s 157
f 193/1/1 194/2/1 195/3/1 
f 195/3/1 194/2/1 196/4/1 
s 158
f 195/3/2 196/4/2 197/5/2 
f 197/5/2 196/4/2 198/6/2 
s 159
f 197/5/3 198/6/3 199/7/3 
f 199/7/3 198/6/3 200/8/3 
s 160
f 199/7/4 200/8/4 193/9/4 
f 193/9/4 200/8/4 194/10/4 
s 161
f 194/2/5 200/11/5 196/4/5 
f 196/4/5 200/11/5 198/12/5 
s 162
f 199/13/6 193/1/6 197/14/6 
f 197/14/6 193/1/6 195/3/6 
s 163
f 201/1/1 202/2/1 203/3/1 
f 203/3/1 202/2/1 204/4/1 
s 164
f 203/3/2 204/4/2 205/5/2 
f 205/5/2 204/4/2 206/6/2 
s 165
f 205/5/3 206/6/3 207/7/3 
f 207/7/3 206/6/3 208/8/3 
s 166
f 207/7/4 208/8/4 201/9/4 
f 201/9/4 208/8/4 202/10/4 
s 167
f 202/2/5 208/11/5 204/4/5 
f 204/4/5 208/11/5 206/12/5 
s 168
f 207/13/6 201/1/6 205/14/6 
f 205/14/6 201/1/6 203/3/6 
s 169
f 209/1/1 210/2/1 211/3/1 
f 211/3/1 210/2/1 212/4/1 
s 170
f 211/3/2 212/4/2 213/5/2 
f 213/5/2 212/4/2 214/6/2 
s 171
f 213/5/3 214/6/3 215/7/3 
f 215/7/3 214/6/3 216/8/3 
s 172
f 215/7/4 216/8/4 209/9/4 
f 209/9/4 216/8/4 210/10/4 
s 173
f 210/2/5 216/11/5 212/4/5 
f 212/4/5 216/11/5 214/12/5 
s 174
f 215/13/6 209/1/6 213/14/6 
f 213/14/6 209/1/6 211/3/6 
s 175
f 217/1/1 218/2/1 219/3/1 
f 219/3/1 218/2/1 220/4/1 
s 176
f 219/3/2 220/4/2 221/5/2 
f 221/5/2 220/4/2 222/6/2 
s 177
f 221/5/3 222/6/3 223/7/3 
f 223/7/3 222/6/3 224/8/3 
s 178
f 223/7/4 224/8/4 217/9/4 
f 217/9/4 224/8/4 218/10/4 
s 179
f 218/2/5 224/11/5 220/4/5 
f 220/4/5 224/11/5 222/12/5 
s 180
f 223/13/6 217/1/6 221/14/6 
f 221/14/6 217/1/6 219/3/6 
s 181
f 225/1/1 226/2/1 227/3/1 
f 227/3/1 226/2/1 228/4/1 
s 182
f 227/3/2 228/4/2 229/5/2 
f 229/5/2 228/4/2 230/6/2 
s 183
f 229/5/3 230/6/3 231/7/3 
f 231/7/3 230/6/3 232/8/3 
s 184
f 231/7/4 232/8/4 225/9/4 
f 225/9/4 232/8/4 226/10/4 
s 185
f 226/2/5 232/11/5 228/4/5 
f 228/4/5 232/11/5 230/12/5 
s 186
f 231/13/6 225/1/6 229/14/6 
f 229/14/6 225/1/6 227/3/6 
# 372 faces

