# 3ds Max Wavefront OBJ Exporter v0.97b - (c)2007 guruware
# File Created: 24.03.2013 23:25:35

mtllib I.mtl

#
# object polySurface12
#

v  210.0000 -70.0000 -0.0000
v  -210.0000 -70.0000 -0.0000
v  210.0000 0.0000 -0.0000
v  -210.0000 0.0000 -0.0000
v  210.0000 0.0000 831.6001
v  -210.0000 0.0000 831.6001
v  210.0000 -70.0000 831.6001
v  -210.0000 -70.0000 831.6001
v  -175.0000 0.0000 -0.0000
v  -175.0000 70.0000 -0.0000
v  -210.0000 70.0000 -0.0000
v  -175.0000 70.0000 831.6001
v  -210.0000 70.0000 831.6001
v  -175.0000 0.0000 831.6001
v  175.0000 0.0000 -0.0000
v  210.0000 70.0000 -0.0000
v  175.0000 70.0000 -0.0000
v  175.0000 70.0000 449.7640
v  210.0000 70.0000 450.3154
v  175.0000 0.0000 451.0729
v  210.0000 0.0000 451.6243
v  180.8333 70.0000 449.8558
v  180.8333 0.0000 451.1648
v  186.6667 70.0000 449.9478
v  186.6667 0.0000 451.2567
v  192.5000 70.0000 450.0397
v  192.5000 0.0000 451.3486
v  198.3333 70.0000 450.1316
v  198.3333 0.0000 451.4405
v  204.1667 70.0000 450.2235
v  204.1667 0.0000 451.5324
v  -210.0000 0.0000 800.8000
v  -210.0000 0.0000 835.8000
v  -210.0000 70.0000 800.8000
v  -210.0000 70.0000 835.8000
v  133.9564 70.0000 800.8000
v  133.9564 0.0000 800.8000
v  124.4110 70.0000 835.8000
v  124.4110 0.0000 835.8000
v  156.2767 70.0000 800.8000
v  156.2767 0.0000 800.8000
v  147.9434 70.0000 835.8000
v  147.9434 0.0000 835.8000
v  880.4083 -70.0000 1865.3610
v  909.9990 -70.0000 2165.7998
v  880.4083 0.0000 1865.3610
v  909.9990 0.0000 2165.7998
v  792.7734 -70.0000 1576.4678
v  792.7734 0.0000 1576.4678
v  650.4622 -70.0000 1310.2223
v  650.4622 0.0000 1310.2223
v  458.9435 -70.0000 1076.8562
v  458.9435 0.0000 1076.8562
v  225.5773 -70.0000 885.3377
v  225.5773 0.0000 885.3377
v  1292.3378 0.0000 1783.4227
v  1329.9988 0.0000 2165.7996
v  1180.8024 0.0000 1415.7406
v  999.6790 0.0000 1076.8827
v  755.9279 0.0000 779.8715
v  458.9164 0.0000 536.1206
v  1292.3378 -70.0000 1783.4227
v  1329.9988 -70.0000 2165.7996
v  1180.8024 -70.0000 1415.7406
v  999.6790 -70.0000 1076.8827
v  755.9279 -70.0000 779.8715
v  458.9164 -70.0000 536.1206
v  125.5434 0.0000 831.8685
v  125.5434 -70.0000 831.8685
v  211.1768 0.0000 403.7013
v  211.1768 -70.0000 403.7013
v  1258.0106 0.0000 1790.2509
v  1294.9990 0.0000 2165.7998
v  1258.0106 70.0000 1790.2509
v  1294.9990 70.0000 2165.7998
v  1148.4670 0.0000 1429.1345
v  1148.4670 70.0000 1429.1345
v  970.5779 0.0000 1096.3276
v  970.5779 70.0000 1096.3276
v  731.1796 0.0000 804.6201
v  731.1796 70.0000 804.6201
v  439.4720 0.0000 565.2219
v  439.4720 70.0000 565.2219
v  1292.3378 70.0000 1783.4227
v  1329.9988 70.0000 2165.7996
v  1180.8024 70.0000 1415.7406
v  999.6790 70.0000 1076.8827
v  755.9279 70.0000 779.8715
v  458.9164 70.0000 536.1206
v  204.0408 70.0000 439.3813
v  204.0408 0.0000 439.3813
v  211.1768 70.0000 403.7013
v  880.4083 70.0000 1865.3610
v  909.9990 70.0000 2165.7998
v  792.7734 70.0000 1576.4678
v  650.4622 70.0000 1310.2223
v  458.9435 70.0000 1076.8562
v  225.5773 70.0000 885.3377
v  914.7363 70.0000 1858.5327
v  944.9995 70.0000 2165.8000
v  825.1097 70.0000 1563.0737
v  679.5641 70.0000 1290.7771
v  483.6928 70.0000 1052.1072
v  245.0228 70.0000 856.2358
v  914.7363 0.0000 1858.5327
v  944.9995 0.0000 2165.8000
v  825.1097 0.0000 1563.0737
v  679.5641 0.0000 1290.7771
v  483.6928 0.0000 1052.1072
v  245.0228 0.0000 856.2358
v  125.5434 70.0000 831.8685
v  132.6796 70.0000 796.1873
v  132.6796 0.0000 796.1873
v  745.8321 -85.8932 1090.9230
v  717.8321 -85.8932 1090.9230
v  745.8321 194.1068 1090.9230
v  717.8321 194.1068 1090.9230
v  745.8321 194.1068 1118.9230
v  717.8321 194.1068 1118.9230
v  745.8321 -85.8932 1118.9230
v  717.8321 -85.8932 1118.9230
# 121 vertices

vn 0.0000 0.0000 -1.0000
vn 0.0000 1.0000 -0.0000
vn 0.0000 0.0000 1.0000
vn 0.0000 -1.0000 -0.0000
vn -1.0000 0.0000 -0.0000
vn 1.0000 0.0000 -0.0000
vn -0.0157 0.0187 0.9997
vn -0.0158 0.0187 0.9997
vn -0.9808 0.0000 0.1951
vn -0.9952 0.0000 0.0980
vn -0.9239 0.0000 0.3827
vn -0.8315 0.0000 0.5556
vn -0.7071 0.0000 0.7071
vn -0.5921 0.0000 0.8058
vn 0.9808 0.0000 -0.1951
vn 0.9952 0.0000 -0.0980
vn 0.9239 0.0000 -0.3827
vn 0.8315 0.0000 -0.5556
vn 0.7071 0.0000 -0.7071
vn 0.5682 0.0000 -0.8229
vn -0.4714 0.0000 0.8819
vn 0.4714 0.0000 -0.8819
vn -0.5695 0.0000 0.8220
vn 0.5891 0.0000 -0.8080
# 24 vertex normals

vt 0.3750 0.0000 0.0000
vt 0.6250 0.0000 0.0000
vt 0.3750 0.2500 0.0000
vt 0.6250 0.2500 0.0000
vt 0.3750 0.5000 0.0000
vt 0.6250 0.5000 0.0000
vt 0.3750 0.7500 0.0000
vt 0.6250 0.7500 0.0000
vt 0.3750 1.0000 0.0000
vt 0.6250 1.0000 0.0000
vt 0.8750 0.0000 0.0000
vt 0.8750 0.2500 0.0000
vt 0.1250 0.0000 0.0000
vt 0.1250 0.2500 0.0000
vt 0.6250 0.3852 0.0000
vt 0.3750 0.3854 0.0000
vt 0.7606 0.0000 0.0000
vt 0.7602 0.2500 0.0000
vt 0.3750 0.8642 0.0000
vt 0.6250 0.8644 0.0000
vt 0.2392 0.0000 0.0000
vt 0.2396 0.2500 0.0000
vt 0.6734 0.2500 0.0000
vt 0.6737 0.0000 0.0000
vt 0.5867 0.2500 0.0000
vt 0.5868 0.0000 0.0000
vt 0.4999 0.2500 0.0000
vt 0.4999 0.0000 0.0000
vt 0.4132 0.2500 0.0000
vt 0.4130 0.0000 0.0000
vt 0.3264 0.2500 0.0000
vt 0.3261 0.0000 0.0000
vt 0.4203 0.2500 0.0000
vt 0.4203 0.0000 0.0000
vt 0.4259 0.5000 0.0000
vt 0.4259 0.7500 0.0000
vt 0.4203 1.0000 0.0000
vt 0.4070 0.2500 0.0000
vt 0.4070 0.0000 0.0000
vt 0.4119 0.5000 0.0000
vt 0.4119 0.7500 0.0000
vt 0.4070 1.0000 0.0000
vt 0.5313 1.0000 0.0000
vt 0.5000 1.0000 0.0000
vt 0.5313 0.7500 0.0000
vt 0.5000 0.7500 0.0000
vt 0.5625 1.0000 0.0000
vt 0.5625 0.7500 0.0000
vt 0.5938 1.0000 0.0000
vt 0.5938 0.7500 0.0000
vt 0.6563 1.0000 0.0000
vt 0.6563 0.7500 0.0000
vt 0.5313 0.5000 0.0000
vt 0.5000 0.5000 0.0000
vt 0.5625 0.5000 0.0000
vt 0.5938 0.5000 0.0000
vt 0.6563 0.5000 0.0000
vt 0.5313 0.2500 0.0000
vt 0.5000 0.2500 0.0000
vt 0.5625 0.2500 0.0000
vt 0.5938 0.2500 0.0000
vt 0.6563 0.2500 0.0000
vt 0.5313 0.0000 0.0000
vt 0.5000 0.0000 0.0000
vt 0.5625 0.0000 0.0000
vt 0.5938 0.0000 0.0000
vt 0.6563 0.0000 0.0000
vt 0.6680 0.7500 0.0000
vt 0.6680 1.0000 0.0000
vt 0.6791 0.5000 0.0000
vt 0.6791 0.2500 0.0000
vt 0.6680 0.0000 0.0000
vt 0.6784 0.7500 0.0000
vt 0.6784 1.0000 0.0000
vt 0.6784 0.0000 0.0000
vt 0.6691 0.5000 0.0000
vt 0.6691 0.2500 0.0000
# 77 texture coords

g polySurface12
usemtl Material__25
s 1
f 1/1/1 2/2/1 3/3/1 
f 3/3/1 2/2/1 4/4/1 
s 2
f 3/3/2 4/4/2 5/5/2 
f 5/5/2 4/4/2 6/6/2 
s 3
f 5/5/3 6/6/3 7/7/3 
f 7/7/3 6/6/3 8/8/3 
s 4
f 7/7/4 8/8/4 1/9/4 
f 1/9/4 8/8/4 2/10/4 
s 5
f 2/2/5 8/11/5 4/4/5 
f 4/4/5 8/11/5 6/12/5 
s 6
f 7/13/6 1/1/6 5/14/6 
f 5/14/6 1/1/6 3/3/6 
s 7
f 9/1/1 4/2/1 10/3/1 
f 10/3/1 4/2/1 11/4/1 
s 8
f 10/3/2 11/4/2 12/5/2 
f 12/5/2 11/4/2 13/6/2 
s 9
f 12/5/3 13/6/3 14/7/3 
f 14/7/3 13/6/3 6/8/3 
s 10
f 14/7/4 6/8/4 9/9/4 
f 9/9/4 6/8/4 4/10/4 
s 11
f 4/2/5 6/11/5 11/4/5 
f 11/4/5 6/11/5 13/12/5 
s 12
f 14/13/6 9/1/6 12/14/6 
f 12/14/6 9/1/6 10/3/6 
s 13
f 3/1/1 15/2/1 16/3/1 
f 16/3/1 15/2/1 17/4/1 
s 14
f 17/4/2 18/15/2 16/3/2 
f 16/3/2 18/15/2 19/16/2 
s 15
f 20/17/5 18/18/5 15/2/5 
f 15/2/5 18/18/5 17/4/5 
s 16
f 21/19/4 20/20/4 3/9/4 
f 3/9/4 20/20/4 15/10/4 
s 17
f 21/21/6 3/1/6 19/22/6 
f 19/22/6 3/1/6 16/3/6 
s 18
f 18/18/7 20/17/8 22/23/8 
f 22/23/8 20/17/8 23/24/8 
f 22/23/8 23/24/8 24/25/7 
f 24/25/7 23/24/8 25/26/8 
f 24/25/7 25/26/8 26/27/7 
f 26/27/7 25/26/8 27/28/8 
f 26/27/7 27/28/8 28/29/8 
f 28/29/8 27/28/8 29/30/7 
f 28/29/8 29/30/7 30/31/7 
f 30/31/7 29/30/7 31/32/8 
f 30/31/7 31/32/8 19/22/7 
f 19/22/7 31/32/8 21/21/8 
s 19
f 32/2/5 33/11/5 34/4/5 
f 34/4/5 33/11/5 35/12/5 
s 20
f 36/33/1 37/34/1 34/4/1 
f 34/4/1 37/34/1 32/2/1 
s 21
f 36/33/2 34/4/2 38/35/2 
f 38/35/2 34/4/2 35/6/2 
s 22
f 39/36/3 38/35/3 33/8/3 
f 33/8/3 38/35/3 35/6/3 
s 23
f 37/37/4 39/36/4 32/10/4 
f 32/10/4 39/36/4 33/8/4 
s 20
f 40/38/1 41/39/1 36/33/1 
f 36/33/1 41/39/1 37/34/1 
s 21
f 40/38/2 36/33/2 42/40/2 
f 42/40/2 36/33/2 38/35/2 
s 22
f 43/41/3 42/40/3 39/36/3 
f 39/36/3 42/40/3 38/35/3 
s 23
f 41/42/4 43/41/4 37/37/4 
f 37/37/4 43/41/4 39/36/4 
s 24
f 44/43/9 45/44/10 46/45/9 
f 46/45/9 45/44/10 47/46/10 
f 48/47/11 44/43/9 49/48/11 
f 49/48/11 44/43/9 46/45/9 
f 50/49/12 48/47/11 51/50/12 
f 51/50/12 48/47/11 49/48/11 
f 52/10/13 50/49/12 53/8/13 
f 53/8/13 50/49/12 51/50/12 
f 54/51/14 52/10/13 55/52/14 
f 55/52/14 52/10/13 53/8/13 
s 25
f 46/45/2 47/46/2 56/53/2 
f 56/53/2 47/46/2 57/54/2 
f 49/48/2 46/45/2 58/55/2 
f 58/55/2 46/45/2 56/53/2 
f 51/50/2 49/48/2 59/56/2 
f 59/56/2 49/48/2 58/55/2 
f 53/8/2 51/50/2 60/6/2 
f 60/6/2 51/50/2 59/56/2 
f 55/52/2 53/8/2 61/57/2 
f 61/57/2 53/8/2 60/6/2 
s 26
f 56/53/15 57/54/16 62/58/15 
f 62/58/15 57/54/16 63/59/16 
f 58/55/17 56/53/15 64/60/17 
f 64/60/17 56/53/15 62/58/15 
f 59/56/18 58/55/17 65/61/18 
f 65/61/18 58/55/17 64/60/17 
f 60/6/19 59/56/18 66/4/19 
f 66/4/19 59/56/18 65/61/18 
f 61/57/20 60/6/19 67/62/20 
f 67/62/20 60/6/19 66/4/19 
s 27
f 62/58/4 63/59/4 44/63/4 
f 44/63/4 63/59/4 45/64/4 
f 64/60/4 62/58/4 48/65/4 
f 48/65/4 62/58/4 44/63/4 
f 65/61/4 64/60/4 50/66/4 
f 50/66/4 64/60/4 48/65/4 
f 66/4/4 65/61/4 52/2/4 
f 52/2/4 65/61/4 50/66/4 
f 67/62/4 66/4/4 54/67/4 
f 54/67/4 66/4/4 52/2/4 
s 24
f 68/68/21 69/69/21 55/52/14 
f 55/52/14 69/69/21 54/51/14 
s 25
f 70/70/2 68/68/2 61/57/2 
f 61/57/2 68/68/2 55/52/2 
s 26
f 71/71/22 70/70/22 67/62/20 
f 67/62/20 70/70/22 61/57/20 
s 27
f 71/71/4 67/62/4 69/72/4 
f 69/72/4 67/62/4 54/67/4 
s 28
f 72/43/9 73/44/10 74/45/9 
f 74/45/9 73/44/10 75/46/10 
f 76/47/11 72/43/9 77/48/11 
f 77/48/11 72/43/9 74/45/9 
f 78/49/12 76/47/11 79/50/12 
f 79/50/12 76/47/11 77/48/11 
f 80/10/13 78/49/12 81/8/13 
f 81/8/13 78/49/12 79/50/12 
f 82/51/23 80/10/13 83/52/23 
f 83/52/23 80/10/13 81/8/13 
s 29
f 74/45/2 75/46/2 84/53/2 
f 84/53/2 75/46/2 85/54/2 
f 77/48/2 74/45/2 86/55/2 
f 86/55/2 74/45/2 84/53/2 
f 79/50/2 77/48/2 87/56/2 
f 87/56/2 77/48/2 86/55/2 
f 81/8/2 79/50/2 88/6/2 
f 88/6/2 79/50/2 87/56/2 
f 83/52/2 81/8/2 89/57/2 
f 89/57/2 81/8/2 88/6/2 
s 30
f 84/53/15 85/54/16 56/58/15 
f 56/58/15 85/54/16 57/59/16 
f 86/55/17 84/53/15 58/60/17 
f 58/60/17 84/53/15 56/58/15 
f 87/56/18 86/55/17 59/61/18 
f 59/61/18 86/55/17 58/60/17 
f 88/6/19 87/56/18 60/4/19 
f 60/4/19 87/56/18 59/61/18 
f 89/57/20 88/6/19 61/62/20 
f 61/62/20 88/6/19 60/4/19 
s 31
f 56/58/4 57/59/4 72/63/4 
f 72/63/4 57/59/4 73/64/4 
f 58/60/4 56/58/4 76/65/4 
f 76/65/4 56/58/4 72/63/4 
f 59/61/4 58/60/4 78/66/4 
f 78/66/4 58/60/4 76/65/4 
f 60/4/4 59/61/4 80/2/4 
f 80/2/4 59/61/4 78/66/4 
f 61/62/4 60/4/4 82/67/4 
f 82/67/4 60/4/4 80/2/4 
s 28
f 90/73/21 91/74/21 83/52/23 
f 83/52/23 91/74/21 82/51/23 
s 29
f 92/70/2 90/73/2 89/57/2 
f 89/57/2 90/73/2 83/52/2 
s 30
f 70/71/22 92/70/22 61/62/20 
f 61/62/20 92/70/22 89/57/20 
s 31
f 70/71/4 61/62/4 91/75/4 
f 91/75/4 61/62/4 82/67/4 
s 32
f 46/43/9 47/44/10 93/45/9 
f 93/45/9 47/44/10 94/46/10 
f 49/47/11 46/43/9 95/48/11 
f 95/48/11 46/43/9 93/45/9 
f 51/49/12 49/47/11 96/50/12 
f 96/50/12 49/47/11 95/48/11 
f 53/10/13 51/49/12 97/8/13 
f 97/8/13 51/49/12 96/50/12 
f 55/51/14 53/10/13 98/52/14 
f 98/52/14 53/10/13 97/8/13 
s 33
f 93/45/2 94/46/2 99/53/2 
f 99/53/2 94/46/2 100/54/2 
f 95/48/2 93/45/2 101/55/2 
f 101/55/2 93/45/2 99/53/2 
f 96/50/2 95/48/2 102/56/2 
f 102/56/2 95/48/2 101/55/2 
f 97/8/2 96/50/2 103/6/2 
f 103/6/2 96/50/2 102/56/2 
f 98/52/2 97/8/2 104/57/2 
f 104/57/2 97/8/2 103/6/2 
s 34
f 99/53/15 100/54/16 105/58/15 
f 105/58/15 100/54/16 106/59/16 
f 101/55/17 99/53/15 107/60/17 
f 107/60/17 99/53/15 105/58/15 
f 102/56/18 101/55/17 108/61/18 
f 108/61/18 101/55/17 107/60/17 
f 103/6/19 102/56/18 109/4/19 
f 109/4/19 102/56/18 108/61/18 
f 104/57/24 103/6/19 110/62/24 
f 110/62/24 103/6/19 109/4/19 
s 35
f 105/58/4 106/59/4 46/63/4 
f 46/63/4 106/59/4 47/64/4 
f 107/60/4 105/58/4 49/65/4 
f 49/65/4 105/58/4 46/63/4 
f 108/61/4 107/60/4 51/66/4 
f 51/66/4 107/60/4 49/65/4 
f 109/4/4 108/61/4 53/2/4 
f 53/2/4 108/61/4 51/66/4 
f 110/62/4 109/4/4 55/67/4 
f 55/67/4 109/4/4 53/2/4 
s 32
f 111/68/21 68/69/21 98/52/14 
f 98/52/14 68/69/21 55/51/14 
s 33
f 112/76/2 111/68/2 104/57/2 
f 104/57/2 111/68/2 98/52/2 
s 34
f 113/77/22 112/76/22 110/62/24 
f 110/62/24 112/76/22 104/57/24 
s 35
f 113/77/4 110/62/4 68/72/4 
f 68/72/4 110/62/4 55/67/4 
s 36
f 114/1/1 115/2/1 116/3/1 
f 116/3/1 115/2/1 117/4/1 
s 37
f 116/3/2 117/4/2 118/5/2 
f 118/5/2 117/4/2 119/6/2 
s 38
f 118/5/3 119/6/3 120/7/3 
f 120/7/3 119/6/3 121/8/3 
s 39
f 120/7/4 121/8/4 114/9/4 
f 114/9/4 121/8/4 115/10/4 
s 40
f 115/2/5 121/11/5 117/4/5 
f 117/4/5 121/11/5 119/12/5 
s 41
f 120/13/6 114/1/6 118/14/6 
f 118/14/6 114/1/6 116/3/6 
# 220 faces

