# 3ds Max Wavefront OBJ Exporter v0.97b - (c)2007 guruware
# File Created: 24.03.2013 23:33:53

mtllib M.mtl

#
# object polySurface7
#

v  -210.0000 -70.0000 -8.7500
v  -210.0000 0.0000 -8.7500
v  210.0000 -70.0000 -8.7500
v  210.0000 0.0000 -8.7500
v  -210.0000 0.0000 1408.7500
v  210.0000 0.0000 1408.7500
v  -210.0000 -70.0000 1408.7500
v  210.0000 -70.0000 1408.7500
v  210.0000 -70.0000 840.0000
v  210.0000 0.0000 840.0000
v  1050.0000 -70.0000 840.0000
v  1050.0000 0.0000 840.0000
v  210.0000 0.0000 1406.5129
v  1050.0000 0.0000 1260.0000
v  210.0000 -70.0000 1406.5129
v  1050.0000 -70.0000 1260.0000
# 16 vertices

vn 0.0000 0.0000 -1.0000
vn 0.0000 1.0000 -0.0000
vn 0.0000 0.0000 1.0000
vn 0.0000 -1.0000 -0.0000
vn 1.0000 0.0000 -0.0000
vn -1.0000 0.0000 -0.0000
vn 0.1718 0.0000 0.9851
# 7 vertex normals

vt 0.3750 0.0000 0.0000
vt 0.3750 0.2500 0.0000
vt 0.6250 0.0000 0.0000
vt 0.6250 0.2500 0.0000
vt 0.3750 0.5000 0.0000
vt 0.6250 0.5000 0.0000
vt 0.3750 0.7500 0.0000
vt 0.6250 0.7500 0.0000
vt 0.3750 1.0000 0.0000
vt 0.6250 1.0000 0.0000
vt 0.8750 0.0000 0.0000
vt 0.8750 0.2500 0.0000
vt 0.1250 0.0000 0.0000
vt 0.1250 0.2500 0.0000
# 14 texture coords

g polySurface7
usemtl Material__25
s 1
f 1/1/1 2/2/1 3/3/1 
f 3/3/1 2/2/1 4/4/1 
s 2
f 2/2/2 5/5/2 4/4/2 
f 4/4/2 5/5/2 6/6/2 
s 3
f 5/5/3 7/7/3 6/6/3 
f 6/6/3 7/7/3 8/8/3 
s 4
f 7/7/4 1/9/4 8/8/4 
f 8/8/4 1/9/4 3/10/4 
s 5
f 3/3/5 4/4/5 8/11/5 
f 8/11/5 4/4/5 6/12/5 
s 6
f 7/13/6 5/14/6 1/1/6 
f 1/1/6 5/14/6 2/2/6 
s 7
f 9/1/1 10/2/1 11/3/1 
f 11/3/1 10/2/1 12/4/1 
s 8
f 13/5/2 14/6/2 10/2/2 
f 10/2/2 14/6/2 12/4/2 
s 9
f 13/5/7 15/7/7 14/6/7 
f 14/6/7 15/7/7 16/8/7 
s 10
f 15/7/4 9/9/4 16/8/4 
f 16/8/4 9/9/4 11/10/4 
s 11
f 11/3/5 12/4/5 16/11/5 
f 16/11/5 12/4/5 14/12/5 
s 12
f 15/13/6 13/14/6 9/1/6 
f 9/1/6 13/14/6 10/2/6 
# 24 faces

