# 3ds Max Wavefront OBJ Exporter v0.97b - (c)2007 guruware
# File Created: 24.03.2013 23:18:01

mtllib O.mtl

#
# object polySurface14
#

v  222.1346 -70.0000 247.0032
v  210.0000 -70.0000 -0.0000
v  222.1346 0.0000 247.0032
v  210.0000 0.0000 -0.0000
v  258.4211 -70.0000 491.6276
v  258.4211 0.0000 491.6276
v  318.5106 -70.0000 731.5174
v  318.5106 0.0000 731.5174
v  401.8239 -70.0000 964.3622
v  401.8239 0.0000 964.3622
v  507.5588 -70.0000 1187.9198
v  507.5588 0.0000 1187.9198
v  634.6970 -70.0000 1400.0369
v  634.6970 0.0000 1400.0369
v  782.0140 -70.0000 1598.6709
v  782.0140 0.0000 1598.6709
v  948.0912 -70.0000 1781.9089
v  948.0912 0.0000 1781.9089
v  1131.3293 -70.0000 1947.9861
v  1131.3293 0.0000 1947.9861
v  1329.9635 -70.0000 2095.3032
v  1329.9635 0.0000 2095.3032
v  1542.0806 -70.0000 2222.4414
v  1542.0806 0.0000 2222.4414
v  1765.6381 -70.0000 2328.1760
v  1765.6381 0.0000 2328.1760
v  1998.4829 -70.0000 2411.4890
v  1998.4829 0.0000 2411.4890
v  2238.3726 -70.0000 2471.5784
v  2238.3726 0.0000 2471.5784
v  2482.9971 -70.0000 2507.8650
v  2482.9971 0.0000 2507.8650
v  2730.0002 -70.0000 2519.9993
v  2730.0002 0.0000 2519.9993
v  -195.8432 0.0000 288.1704
v  -210.0000 0.0000 -0.0000
v  -153.5090 0.0000 573.5656
v  -83.4048 0.0000 853.4370
v  13.7942 0.0000 1125.0895
v  137.1516 0.0000 1385.9064
v  285.4794 0.0000 1633.3766
v  457.3496 0.0000 1865.1163
v  651.1064 0.0000 2078.8938
v  864.8842 0.0000 2272.6504
v  1096.6240 0.0000 2444.5203
v  1344.0942 0.0000 2592.8479
v  1604.9113 0.0000 2716.2053
v  1876.5636 0.0000 2813.4041
v  2156.4348 0.0000 2883.5078
v  2441.8301 0.0000 2925.8420
v  2730.0002 0.0000 2939.9990
v  -195.8432 -70.0000 288.1704
v  -210.0000 -70.0000 -0.0000
v  -153.5090 -70.0000 573.5656
v  -83.4048 -70.0000 853.4370
v  13.7942 -70.0000 1125.0895
v  137.1516 -70.0000 1385.9064
v  285.4794 -70.0000 1633.3766
v  457.3496 -70.0000 1865.1163
v  651.1064 -70.0000 2078.8938
v  864.8842 -70.0000 2272.6504
v  1096.6240 -70.0000 2444.5203
v  1344.0942 -70.0000 2592.8479
v  1604.9113 -70.0000 2716.2053
v  1876.5636 -70.0000 2813.4041
v  2156.4348 -70.0000 2883.5078
v  2441.8301 -70.0000 2925.8420
v  2730.0002 -70.0000 2939.9990
v  -161.0117 0.0000 284.7398
v  -175.0000 0.0000 -0.0000
v  -161.0117 70.0000 284.7398
v  -175.0000 70.0000 -0.0000
v  -119.1814 0.0000 566.7374
v  -119.1814 70.0000 566.7374
v  -49.9117 0.0000 843.2770
v  -49.9117 70.0000 843.2770
v  46.1300 0.0000 1111.6954
v  46.1300 70.0000 1111.6954
v  168.0188 0.0000 1369.4076
v  168.0188 70.0000 1369.4076
v  314.5810 0.0000 1613.9315
v  314.5810 70.0000 1613.9315
v  484.4049 0.0000 1842.9124
v  484.4049 70.0000 1842.9124
v  675.8552 0.0000 2054.1450
v  675.8552 70.0000 2054.1450
v  887.0878 0.0000 2245.5950
v  887.0878 70.0000 2245.5950
v  1116.0688 0.0000 2415.4187
v  1116.0688 70.0000 2415.4187
v  1360.5928 0.0000 2561.9807
v  1360.5928 70.0000 2561.9807
v  1618.3048 0.0000 2683.8694
v  1618.3048 70.0000 2683.8694
v  1886.7233 0.0000 2779.9109
v  1886.7233 70.0000 2779.9109
v  2163.2627 0.0000 2849.1804
v  2163.2627 70.0000 2849.1804
v  2445.2603 0.0000 2891.0107
v  2445.2603 70.0000 2891.0107
v  2730.0000 0.0000 2904.9990
v  2730.0000 70.0000 2904.9990
v  -195.8432 70.0000 288.1704
v  -210.0000 70.0000 -0.0000
v  -153.5090 70.0000 573.5656
v  -83.4048 70.0000 853.4370
v  13.7942 70.0000 1125.0895
v  137.1516 70.0000 1385.9064
v  285.4794 70.0000 1633.3766
v  457.3496 70.0000 1865.1163
v  651.1064 70.0000 2078.8938
v  864.8842 70.0000 2272.6504
v  1096.6240 70.0000 2444.5203
v  1344.0942 70.0000 2592.8479
v  1604.9113 70.0000 2716.2053
v  1876.5636 70.0000 2813.4041
v  2156.4348 70.0000 2883.5078
v  2441.8301 70.0000 2925.8420
v  2730.0002 70.0000 2939.9990
v  222.1346 70.0000 247.0032
v  210.0000 70.0000 -0.0000
v  258.4211 70.0000 491.6276
v  318.5106 70.0000 731.5174
v  401.8239 70.0000 964.3622
v  507.5588 70.0000 1187.9198
v  634.6970 70.0000 1400.0369
v  782.0140 70.0000 1598.6709
v  948.0912 70.0000 1781.9089
v  1131.3293 70.0000 1947.9861
v  1329.9635 70.0000 2095.3032
v  1542.0806 70.0000 2222.4414
v  1765.6381 70.0000 2328.1760
v  1998.4829 70.0000 2411.4890
v  2238.3726 70.0000 2471.5784
v  2482.9971 70.0000 2507.8650
v  2730.0002 70.0000 2519.9993
v  187.3031 70.0000 250.4338
v  175.0000 70.0000 -0.0000
v  224.0938 70.0000 498.4558
v  285.0177 70.0000 741.6774
v  369.4880 70.0000 977.7561
v  476.6916 70.0000 1204.4186
v  605.5955 70.0000 1419.4819
v  754.9586 70.0000 1620.8748
v  923.3423 70.0000 1806.6576
v  1109.1252 70.0000 1975.0414
v  1310.5181 70.0000 2124.4045
v  1525.5815 70.0000 2253.3086
v  1752.2440 70.0000 2360.5120
v  1988.3228 70.0000 2444.9822
v  2231.5444 70.0000 2505.9060
v  2479.5662 70.0000 2542.6963
v  2730.0000 70.0000 2554.9995
v  187.3031 0.0000 250.4338
v  175.0000 0.0000 -0.0000
v  224.0938 0.0000 498.4558
v  285.0177 0.0000 741.6774
v  369.4880 0.0000 977.7561
v  476.6916 0.0000 1204.4186
v  605.5955 0.0000 1419.4819
v  754.9586 0.0000 1620.8748
v  923.3423 0.0000 1806.6576
v  1109.1252 0.0000 1975.0414
v  1310.5181 0.0000 2124.4045
v  1525.5815 0.0000 2253.3086
v  1752.2440 0.0000 2360.5120
v  1988.3228 0.0000 2444.9822
v  2231.5444 0.0000 2505.9060
v  2479.5662 0.0000 2542.6963
v  2730.0000 0.0000 2554.9995
v  656.3470 0.0000 1712.5579
v  600.5619 0.0000 1754.8428
v  656.3470 70.0000 1712.5579
v  600.5619 70.0000 1754.8428
v  677.4894 70.0000 1740.4504
v  621.7043 70.0000 1782.7354
v  677.4894 0.0000 1740.4504
v  621.7043 0.0000 1782.7354
v  1855.0116 0.0000 2807.0725
v  1898.1157 0.0000 2673.8733
v  1855.0116 70.0000 2807.0725
v  1898.1157 70.0000 2673.8733
v  1821.7118 70.0000 2796.2964
v  1864.8159 70.0000 2663.0974
v  1821.7118 0.0000 2796.2964
v  1864.8159 0.0000 2663.0974
v  1941.2200 0.0000 2540.6741
v  1984.3245 0.0000 2407.4749
v  1941.2200 70.0000 2540.6741
v  1984.3245 70.0000 2407.4749
v  1907.9202 70.0000 2529.8979
v  1951.0247 70.0000 2396.6990
v  1907.9202 0.0000 2529.8979
v  1951.0247 0.0000 2396.6990
# 194 vertices

vn 0.9952 0.0000 -0.0980
vn 0.9988 0.0000 -0.0491
vn 0.9808 0.0000 -0.1951
vn 0.9569 0.0000 -0.2903
vn 0.9239 0.0000 -0.3827
vn 0.8819 0.0000 -0.4714
vn 0.8315 0.0000 -0.5556
vn 0.7730 0.0000 -0.6344
vn 0.7071 0.0000 -0.7071
vn 0.6344 0.0000 -0.7730
vn 0.5556 0.0000 -0.8315
vn 0.4714 0.0000 -0.8819
vn 0.3827 0.0000 -0.9239
vn 0.2903 0.0000 -0.9569
vn 0.1951 0.0000 -0.9808
vn 0.0980 0.0000 -0.9952
vn 0.0491 0.0000 -0.9988
vn 0.0000 1.0000 -0.0000
vn -0.9952 0.0000 0.0980
vn -0.9988 0.0000 0.0491
vn -0.9808 0.0000 0.1951
vn -0.9569 0.0000 0.2903
vn -0.9239 0.0000 0.3827
vn -0.8819 0.0000 0.4714
vn -0.8315 0.0000 0.5556
vn -0.7730 0.0000 0.6344
vn -0.7071 0.0000 0.7071
vn -0.6344 0.0000 0.7730
vn -0.5556 0.0000 0.8315
vn -0.4714 0.0000 0.8819
vn -0.3827 0.0000 0.9239
vn -0.2903 0.0000 0.9569
vn -0.1951 0.0000 0.9808
vn -0.0980 0.0000 0.9952
vn -0.0491 0.0000 0.9988
vn 0.0000 -1.0000 -0.0000
vn -0.6041 0.0000 -0.7969
vn 0.6041 0.0000 0.7969
vn -0.7969 0.0000 0.6041
vn 0.7969 0.0000 -0.6041
vn 0.9514 0.0000 0.3079
vn -0.9514 0.0000 -0.3079
vn 0.3079 0.0000 -0.9514
vn -0.3079 0.0000 0.9514
# 44 vertex normals

vt 0.0156 1.0000 0.0000
vt 0.0000 1.0000 0.0000
vt 0.0156 0.7500 0.0000
vt 0.0000 0.7500 0.0000
vt 0.0313 1.0000 0.0000
vt 0.0313 0.7500 0.0000
vt 0.0469 1.0000 0.0000
vt 0.0469 0.7500 0.0000
vt 0.0625 1.0000 0.0000
vt 0.0625 0.7500 0.0000
vt 0.0781 1.0000 0.0000
vt 0.0781 0.7500 0.0000
vt 0.0938 1.0000 0.0000
vt 0.0938 0.7500 0.0000
vt 0.1094 1.0000 0.0000
vt 0.1094 0.7500 0.0000
vt 0.1250 1.0000 0.0000
vt 0.1250 0.7500 0.0000
vt 0.1406 1.0000 0.0000
vt 0.1406 0.7500 0.0000
vt 0.1563 1.0000 0.0000
vt 0.1563 0.7500 0.0000
vt 0.1719 1.0000 0.0000
vt 0.1719 0.7500 0.0000
vt 0.1875 1.0000 0.0000
vt 0.1875 0.7500 0.0000
vt 0.2031 1.0000 0.0000
vt 0.2031 0.7500 0.0000
vt 0.2188 1.0000 0.0000
vt 0.2188 0.7500 0.0000
vt 0.2344 1.0000 0.0000
vt 0.2344 0.7500 0.0000
vt 0.2500 1.0000 0.0000
vt 0.2500 0.7500 0.0000
vt 0.0156 0.5000 0.0000
vt 0.0000 0.5000 0.0000
vt 0.0313 0.5000 0.0000
vt 0.0469 0.5000 0.0000
vt 0.0625 0.5000 0.0000
vt 0.0781 0.5000 0.0000
vt 0.0938 0.5000 0.0000
vt 0.1094 0.5000 0.0000
vt 0.1250 0.5000 0.0000
vt 0.1406 0.5000 0.0000
vt 0.1563 0.5000 0.0000
vt 0.1719 0.5000 0.0000
vt 0.1875 0.5000 0.0000
vt 0.2031 0.5000 0.0000
vt 0.2188 0.5000 0.0000
vt 0.2344 0.5000 0.0000
vt 0.2500 0.5000 0.0000
vt 0.0156 0.2500 0.0000
vt 0.0000 0.2500 0.0000
vt 0.0313 0.2500 0.0000
vt 0.0469 0.2500 0.0000
vt 0.0625 0.2500 0.0000
vt 0.0781 0.2500 0.0000
vt 0.0938 0.2500 0.0000
vt 0.1094 0.2500 0.0000
vt 0.1250 0.2500 0.0000
vt 0.1406 0.2500 0.0000
vt 0.1563 0.2500 0.0000
vt 0.1719 0.2500 0.0000
vt 0.1875 0.2500 0.0000
vt 0.2031 0.2500 0.0000
vt 0.2188 0.2500 0.0000
vt 0.2344 0.2500 0.0000
vt 0.2500 0.2500 0.0000
vt 0.0156 0.0000 0.0000
vt 0.0000 0.0000 0.0000
vt 0.0313 0.0000 0.0000
vt 0.0469 0.0000 0.0000
vt 0.0625 0.0000 0.0000
vt 0.0781 0.0000 0.0000
vt 0.0938 0.0000 0.0000
vt 0.1094 0.0000 0.0000
vt 0.1250 0.0000 0.0000
vt 0.1406 0.0000 0.0000
vt 0.1563 0.0000 0.0000
vt 0.1719 0.0000 0.0000
vt 0.1875 0.0000 0.0000
vt 0.2031 0.0000 0.0000
vt 0.2188 0.0000 0.0000
vt 0.2344 0.0000 0.0000
vt 0.2500 0.0000 0.0000
vt 0.3750 0.0000 0.0000
vt 0.6250 0.0000 0.0000
vt 0.3750 0.2500 0.0000
vt 0.6250 0.2500 0.0000
vt 0.3750 0.5000 0.0000
vt 0.6250 0.5000 0.0000
vt 0.3750 0.7500 0.0000
vt 0.6250 0.7500 0.0000
vt 0.3750 1.0000 0.0000
vt 0.6250 1.0000 0.0000
vt 0.8750 0.0000 0.0000
vt 0.8750 0.2500 0.0000
# 97 texture coords

g polySurface14
usemtl Material__25
s 1
f 1/1/1 2/2/2 3/3/1 
f 3/3/1 2/2/2 4/4/2 
f 5/5/3 1/1/1 6/6/3 
f 6/6/3 1/1/1 3/3/1 
f 7/7/4 5/5/3 8/8/4 
f 8/8/4 5/5/3 6/6/3 
f 9/9/5 7/7/4 10/10/5 
f 10/10/5 7/7/4 8/8/4 
f 11/11/6 9/9/5 12/12/6 
f 12/12/6 9/9/5 10/10/5 
f 13/13/7 11/11/6 14/14/7 
f 14/14/7 11/11/6 12/12/6 
f 15/15/8 13/13/7 16/16/8 
f 16/16/8 13/13/7 14/14/7 
f 17/17/9 15/15/8 18/18/9 
f 18/18/9 15/15/8 16/16/8 
f 19/19/10 17/17/9 20/20/10 
f 20/20/10 17/17/9 18/18/9 
f 21/21/11 19/19/10 22/22/11 
f 22/22/11 19/19/10 20/20/10 
f 23/23/12 21/21/11 24/24/12 
f 24/24/12 21/21/11 22/22/11 
f 25/25/13 23/23/12 26/26/13 
f 26/26/13 23/23/12 24/24/12 
f 27/27/14 25/25/13 28/28/14 
f 28/28/14 25/25/13 26/26/13 
f 29/29/15 27/27/14 30/30/15 
f 30/30/15 27/27/14 28/28/14 
f 31/31/16 29/29/15 32/32/16 
f 32/32/16 29/29/15 30/30/15 
f 33/33/17 31/31/16 34/34/17 
f 34/34/17 31/31/16 32/32/16 
s 2
f 3/3/18 4/4/18 35/35/18 
f 35/35/18 4/4/18 36/36/18 
f 6/6/18 3/3/18 37/37/18 
f 37/37/18 3/3/18 35/35/18 
f 8/8/18 6/6/18 38/38/18 
f 38/38/18 6/6/18 37/37/18 
f 10/10/18 8/8/18 39/39/18 
f 39/39/18 8/8/18 38/38/18 
f 12/12/18 10/10/18 40/40/18 
f 40/40/18 10/10/18 39/39/18 
f 14/14/18 12/12/18 41/41/18 
f 41/41/18 12/12/18 40/40/18 
f 16/16/18 14/14/18 42/42/18 
f 42/42/18 14/14/18 41/41/18 
f 18/18/18 16/16/18 43/43/18 
f 43/43/18 16/16/18 42/42/18 
f 20/20/18 18/18/18 44/44/18 
f 44/44/18 18/18/18 43/43/18 
f 22/22/18 20/20/18 45/45/18 
f 45/45/18 20/20/18 44/44/18 
f 24/24/18 22/22/18 46/46/18 
f 46/46/18 22/22/18 45/45/18 
f 26/26/18 24/24/18 47/47/18 
f 47/47/18 24/24/18 46/46/18 
f 28/28/18 26/26/18 48/48/18 
f 48/48/18 26/26/18 47/47/18 
f 30/30/18 28/28/18 49/49/18 
f 49/49/18 28/28/18 48/48/18 
f 32/32/18 30/30/18 50/50/18 
f 50/50/18 30/30/18 49/49/18 
f 34/34/18 32/32/18 51/51/18 
f 51/51/18 32/32/18 50/50/18 
s 3
f 35/35/19 36/36/20 52/52/19 
f 52/52/19 36/36/20 53/53/20 
f 37/37/21 35/35/19 54/54/21 
f 54/54/21 35/35/19 52/52/19 
f 38/38/22 37/37/21 55/55/22 
f 55/55/22 37/37/21 54/54/21 
f 39/39/23 38/38/22 56/56/23 
f 56/56/23 38/38/22 55/55/22 
f 40/40/24 39/39/23 57/57/24 
f 57/57/24 39/39/23 56/56/23 
f 41/41/25 40/40/24 58/58/25 
f 58/58/25 40/40/24 57/57/24 
f 42/42/26 41/41/25 59/59/26 
f 59/59/26 41/41/25 58/58/25 
f 43/43/27 42/42/26 60/60/27 
f 60/60/27 42/42/26 59/59/26 
f 44/44/28 43/43/27 61/61/28 
f 61/61/28 43/43/27 60/60/27 
f 45/45/29 44/44/28 62/62/29 
f 62/62/29 44/44/28 61/61/28 
f 46/46/30 45/45/29 63/63/30 
f 63/63/30 45/45/29 62/62/29 
f 47/47/31 46/46/30 64/64/31 
f 64/64/31 46/46/30 63/63/30 
f 48/48/32 47/47/31 65/65/32 
f 65/65/32 47/47/31 64/64/31 
f 49/49/33 48/48/32 66/66/33 
f 66/66/33 48/48/32 65/65/32 
f 50/50/34 49/49/33 67/67/34 
f 67/67/34 49/49/33 66/66/33 
f 51/51/35 50/50/34 68/68/35 
f 68/68/35 50/50/34 67/67/34 
s 4
f 52/52/36 53/53/36 1/69/36 
f 1/69/36 53/53/36 2/70/36 
f 54/54/36 52/52/36 5/71/36 
f 5/71/36 52/52/36 1/69/36 
f 55/55/36 54/54/36 7/72/36 
f 7/72/36 54/54/36 5/71/36 
f 56/56/36 55/55/36 9/73/36 
f 9/73/36 55/55/36 7/72/36 
f 57/57/36 56/56/36 11/74/36 
f 11/74/36 56/56/36 9/73/36 
f 58/58/36 57/57/36 13/75/36 
f 13/75/36 57/57/36 11/74/36 
f 59/59/36 58/58/36 15/76/36 
f 15/76/36 58/58/36 13/75/36 
f 60/60/36 59/59/36 17/77/36 
f 17/77/36 59/59/36 15/76/36 
f 61/61/36 60/60/36 19/78/36 
f 19/78/36 60/60/36 17/77/36 
f 62/62/36 61/61/36 21/79/36 
f 21/79/36 61/61/36 19/78/36 
f 63/63/36 62/62/36 23/80/36 
f 23/80/36 62/62/36 21/79/36 
f 64/64/36 63/63/36 25/81/36 
f 25/81/36 63/63/36 23/80/36 
f 65/65/36 64/64/36 27/82/36 
f 27/82/36 64/64/36 25/81/36 
f 66/66/36 65/65/36 29/83/36 
f 29/83/36 65/65/36 27/82/36 
f 67/67/36 66/66/36 31/84/36 
f 31/84/36 66/66/36 29/83/36 
f 68/68/36 67/67/36 33/85/36 
f 33/85/36 67/67/36 31/84/36 
s 5
f 69/1/1 70/2/2 71/3/1 
f 71/3/1 70/2/2 72/4/2 
f 73/5/3 69/1/1 74/6/3 
f 74/6/3 69/1/1 71/3/1 
f 75/7/4 73/5/3 76/8/4 
f 76/8/4 73/5/3 74/6/3 
f 77/9/5 75/7/4 78/10/5 
f 78/10/5 75/7/4 76/8/4 
f 79/11/6 77/9/5 80/12/6 
f 80/12/6 77/9/5 78/10/5 
f 81/13/7 79/11/6 82/14/7 
f 82/14/7 79/11/6 80/12/6 
f 83/15/8 81/13/7 84/16/8 
f 84/16/8 81/13/7 82/14/7 
f 85/17/9 83/15/8 86/18/9 
f 86/18/9 83/15/8 84/16/8 
f 87/19/10 85/17/9 88/20/10 
f 88/20/10 85/17/9 86/18/9 
f 89/21/11 87/19/10 90/22/11 
f 90/22/11 87/19/10 88/20/10 
f 91/23/12 89/21/11 92/24/12 
f 92/24/12 89/21/11 90/22/11 
f 93/25/13 91/23/12 94/26/13 
f 94/26/13 91/23/12 92/24/12 
f 95/27/14 93/25/13 96/28/14 
f 96/28/14 93/25/13 94/26/13 
f 97/29/15 95/27/14 98/30/15 
f 98/30/15 95/27/14 96/28/14 
f 99/31/16 97/29/15 100/32/16 
f 100/32/16 97/29/15 98/30/15 
f 101/33/17 99/31/16 102/34/17 
f 102/34/17 99/31/16 100/32/16 
s 6
f 71/3/18 72/4/18 103/35/18 
f 103/35/18 72/4/18 104/36/18 
f 74/6/18 71/3/18 105/37/18 
f 105/37/18 71/3/18 103/35/18 
f 76/8/18 74/6/18 106/38/18 
f 106/38/18 74/6/18 105/37/18 
f 78/10/18 76/8/18 107/39/18 
f 107/39/18 76/8/18 106/38/18 
f 80/12/18 78/10/18 108/40/18 
f 108/40/18 78/10/18 107/39/18 
f 82/14/18 80/12/18 109/41/18 
f 109/41/18 80/12/18 108/40/18 
f 84/16/18 82/14/18 110/42/18 
f 110/42/18 82/14/18 109/41/18 
f 86/18/18 84/16/18 111/43/18 
f 111/43/18 84/16/18 110/42/18 
f 88/20/18 86/18/18 112/44/18 
f 112/44/18 86/18/18 111/43/18 
f 90/22/18 88/20/18 113/45/18 
f 113/45/18 88/20/18 112/44/18 
f 92/24/18 90/22/18 114/46/18 
f 114/46/18 90/22/18 113/45/18 
f 94/26/18 92/24/18 115/47/18 
f 115/47/18 92/24/18 114/46/18 
f 96/28/18 94/26/18 116/48/18 
f 116/48/18 94/26/18 115/47/18 
f 98/30/18 96/28/18 117/49/18 
f 117/49/18 96/28/18 116/48/18 
f 100/32/18 98/30/18 118/50/18 
f 118/50/18 98/30/18 117/49/18 
f 102/34/18 100/32/18 119/51/18 
f 119/51/18 100/32/18 118/50/18 
s 7
f 103/35/19 104/36/20 35/52/19 
f 35/52/19 104/36/20 36/53/20 
f 105/37/21 103/35/19 37/54/21 
f 37/54/21 103/35/19 35/52/19 
f 106/38/22 105/37/21 38/55/22 
f 38/55/22 105/37/21 37/54/21 
f 107/39/23 106/38/22 39/56/23 
f 39/56/23 106/38/22 38/55/22 
f 108/40/24 107/39/23 40/57/24 
f 40/57/24 107/39/23 39/56/23 
f 109/41/25 108/40/24 41/58/25 
f 41/58/25 108/40/24 40/57/24 
f 110/42/26 109/41/25 42/59/26 
f 42/59/26 109/41/25 41/58/25 
f 111/43/27 110/42/26 43/60/27 
f 43/60/27 110/42/26 42/59/26 
f 112/44/28 111/43/27 44/61/28 
f 44/61/28 111/43/27 43/60/27 
f 113/45/29 112/44/28 45/62/29 
f 45/62/29 112/44/28 44/61/28 
f 114/46/30 113/45/29 46/63/30 
f 46/63/30 113/45/29 45/62/29 
f 115/47/31 114/46/30 47/64/31 
f 47/64/31 114/46/30 46/63/30 
f 116/48/32 115/47/31 48/65/32 
f 48/65/32 115/47/31 47/64/31 
f 117/49/33 116/48/32 49/66/33 
f 49/66/33 116/48/32 48/65/32 
f 118/50/34 117/49/33 50/67/34 
f 50/67/34 117/49/33 49/66/33 
f 119/51/35 118/50/34 51/68/35 
f 51/68/35 118/50/34 50/67/34 
s 8
f 35/52/36 36/53/36 69/69/36 
f 69/69/36 36/53/36 70/70/36 
f 37/54/36 35/52/36 73/71/36 
f 73/71/36 35/52/36 69/69/36 
f 38/55/36 37/54/36 75/72/36 
f 75/72/36 37/54/36 73/71/36 
f 39/56/36 38/55/36 77/73/36 
f 77/73/36 38/55/36 75/72/36 
f 40/57/36 39/56/36 79/74/36 
f 79/74/36 39/56/36 77/73/36 
f 41/58/36 40/57/36 81/75/36 
f 81/75/36 40/57/36 79/74/36 
f 42/59/36 41/58/36 83/76/36 
f 83/76/36 41/58/36 81/75/36 
f 43/60/36 42/59/36 85/77/36 
f 85/77/36 42/59/36 83/76/36 
f 44/61/36 43/60/36 87/78/36 
f 87/78/36 43/60/36 85/77/36 
f 45/62/36 44/61/36 89/79/36 
f 89/79/36 44/61/36 87/78/36 
f 46/63/36 45/62/36 91/80/36 
f 91/80/36 45/62/36 89/79/36 
f 47/64/36 46/63/36 93/81/36 
f 93/81/36 46/63/36 91/80/36 
f 48/65/36 47/64/36 95/82/36 
f 95/82/36 47/64/36 93/81/36 
f 49/66/36 48/65/36 97/83/36 
f 97/83/36 48/65/36 95/82/36 
f 50/67/36 49/66/36 99/84/36 
f 99/84/36 49/66/36 97/83/36 
f 51/68/36 50/67/36 101/85/36 
f 101/85/36 50/67/36 99/84/36 
s 9
f 3/1/1 4/2/2 120/3/1 
f 120/3/1 4/2/2 121/4/2 
f 6/5/3 3/1/1 122/6/3 
f 122/6/3 3/1/1 120/3/1 
f 8/7/4 6/5/3 123/8/4 
f 123/8/4 6/5/3 122/6/3 
f 10/9/5 8/7/4 124/10/5 
f 124/10/5 8/7/4 123/8/4 
f 12/11/6 10/9/5 125/12/6 
f 125/12/6 10/9/5 124/10/5 
f 14/13/7 12/11/6 126/14/7 
f 126/14/7 12/11/6 125/12/6 
f 16/15/8 14/13/7 127/16/8 
f 127/16/8 14/13/7 126/14/7 
f 18/17/9 16/15/8 128/18/9 
f 128/18/9 16/15/8 127/16/8 
f 20/19/10 18/17/9 129/20/10 
f 129/20/10 18/17/9 128/18/9 
f 22/21/11 20/19/10 130/22/11 
f 130/22/11 20/19/10 129/20/10 
f 24/23/12 22/21/11 131/24/12 
f 131/24/12 22/21/11 130/22/11 
f 26/25/13 24/23/12 132/26/13 
f 132/26/13 24/23/12 131/24/12 
f 28/27/14 26/25/13 133/28/14 
f 133/28/14 26/25/13 132/26/13 
f 30/29/15 28/27/14 134/30/15 
f 134/30/15 28/27/14 133/28/14 
f 32/31/16 30/29/15 135/32/16 
f 135/32/16 30/29/15 134/30/15 
f 34/33/17 32/31/16 136/34/17 
f 136/34/17 32/31/16 135/32/16 
s 10
f 120/3/18 121/4/18 137/35/18 
f 137/35/18 121/4/18 138/36/18 
f 122/6/18 120/3/18 139/37/18 
f 139/37/18 120/3/18 137/35/18 
f 123/8/18 122/6/18 140/38/18 
f 140/38/18 122/6/18 139/37/18 
f 124/10/18 123/8/18 141/39/18 
f 141/39/18 123/8/18 140/38/18 
f 125/12/18 124/10/18 142/40/18 
f 142/40/18 124/10/18 141/39/18 
f 126/14/18 125/12/18 143/41/18 
f 143/41/18 125/12/18 142/40/18 
f 127/16/18 126/14/18 144/42/18 
f 144/42/18 126/14/18 143/41/18 
f 128/18/18 127/16/18 145/43/18 
f 145/43/18 127/16/18 144/42/18 
f 129/20/18 128/18/18 146/44/18 
f 146/44/18 128/18/18 145/43/18 
f 130/22/18 129/20/18 147/45/18 
f 147/45/18 129/20/18 146/44/18 
f 131/24/18 130/22/18 148/46/18 
f 148/46/18 130/22/18 147/45/18 
f 132/26/18 131/24/18 149/47/18 
f 149/47/18 131/24/18 148/46/18 
f 133/28/18 132/26/18 150/48/18 
f 150/48/18 132/26/18 149/47/18 
f 134/30/18 133/28/18 151/49/18 
f 151/49/18 133/28/18 150/48/18 
f 135/32/18 134/30/18 152/50/18 
f 152/50/18 134/30/18 151/49/18 
f 136/34/18 135/32/18 153/51/18 
f 153/51/18 135/32/18 152/50/18 
s 11
f 137/35/19 138/36/20 154/52/19 
f 154/52/19 138/36/20 155/53/20 
f 139/37/21 137/35/19 156/54/21 
f 156/54/21 137/35/19 154/52/19 
f 140/38/22 139/37/21 157/55/22 
f 157/55/22 139/37/21 156/54/21 
f 141/39/23 140/38/22 158/56/23 
f 158/56/23 140/38/22 157/55/22 
f 142/40/24 141/39/23 159/57/24 
f 159/57/24 141/39/23 158/56/23 
f 143/41/25 142/40/24 160/58/25 
f 160/58/25 142/40/24 159/57/24 
f 144/42/26 143/41/25 161/59/26 
f 161/59/26 143/41/25 160/58/25 
f 145/43/27 144/42/26 162/60/27 
f 162/60/27 144/42/26 161/59/26 
f 146/44/28 145/43/27 163/61/28 
f 163/61/28 145/43/27 162/60/27 
f 147/45/29 146/44/28 164/62/29 
f 164/62/29 146/44/28 163/61/28 
f 148/46/30 147/45/29 165/63/30 
f 165/63/30 147/45/29 164/62/29 
f 149/47/31 148/46/30 166/64/31 
f 166/64/31 148/46/30 165/63/30 
f 150/48/32 149/47/31 167/65/32 
f 167/65/32 149/47/31 166/64/31 
f 151/49/33 150/48/32 168/66/33 
f 168/66/33 150/48/32 167/65/32 
f 152/50/34 151/49/33 169/67/34 
f 169/67/34 151/49/33 168/66/33 
f 153/51/35 152/50/34 170/68/35 
f 170/68/35 152/50/34 169/67/34 
s 12
f 154/52/36 155/53/36 3/69/36 
f 3/69/36 155/53/36 4/70/36 
f 156/54/36 154/52/36 6/71/36 
f 6/71/36 154/52/36 3/69/36 
f 157/55/36 156/54/36 8/72/36 
f 8/72/36 156/54/36 6/71/36 
f 158/56/36 157/55/36 10/73/36 
f 10/73/36 157/55/36 8/72/36 
f 159/57/36 158/56/36 12/74/36 
f 12/74/36 158/56/36 10/73/36 
f 160/58/36 159/57/36 14/75/36 
f 14/75/36 159/57/36 12/74/36 
f 161/59/36 160/58/36 16/76/36 
f 16/76/36 160/58/36 14/75/36 
f 162/60/36 161/59/36 18/77/36 
f 18/77/36 161/59/36 16/76/36 
f 163/61/36 162/60/36 20/78/36 
f 20/78/36 162/60/36 18/77/36 
f 164/62/36 163/61/36 22/79/36 
f 22/79/36 163/61/36 20/78/36 
f 165/63/36 164/62/36 24/80/36 
f 24/80/36 164/62/36 22/79/36 
f 166/64/36 165/63/36 26/81/36 
f 26/81/36 165/63/36 24/80/36 
f 167/65/36 166/64/36 28/82/36 
f 28/82/36 166/64/36 26/81/36 
f 168/66/36 167/65/36 30/83/36 
f 30/83/36 167/65/36 28/82/36 
f 169/67/36 168/66/36 32/84/36 
f 32/84/36 168/66/36 30/83/36 
f 170/68/36 169/67/36 34/85/36 
f 34/85/36 169/67/36 32/84/36 
s 13
f 171/86/37 172/87/37 173/88/37 
f 173/88/37 172/87/37 174/89/37 
s 14
f 173/88/18 174/89/18 175/90/18 
f 175/90/18 174/89/18 176/91/18 
s 15
f 175/90/38 176/91/38 177/92/38 
f 177/92/38 176/91/38 178/93/38 
s 16
f 177/92/36 178/93/36 171/94/36 
f 171/94/36 178/93/36 172/95/36 
s 17
f 172/87/39 178/96/39 174/89/39 
f 174/89/39 178/96/39 176/97/39 
s 18
f 177/77/40 171/86/40 175/60/40 
f 175/60/40 171/86/40 173/88/40 
s 19
f 179/86/41 180/87/41 181/88/41 
f 181/88/41 180/87/41 182/89/41 
s 20
f 181/88/18 182/89/18 183/90/18 
f 183/90/18 182/89/18 184/91/18 
s 21
f 183/90/42 184/91/42 185/92/42 
f 185/92/42 184/91/42 186/93/42 
s 22
f 185/92/36 186/93/36 179/94/36 
f 179/94/36 186/93/36 180/95/36 
s 23
f 180/87/43 186/96/43 182/89/43 
f 182/89/43 186/96/43 184/97/43 
s 24
f 185/77/44 179/86/44 183/60/44 
f 183/60/44 179/86/44 181/88/44 
s 25
f 187/86/41 188/87/41 189/88/41 
f 189/88/41 188/87/41 190/89/41 
s 26
f 189/88/18 190/89/18 191/90/18 
f 191/90/18 190/89/18 192/91/18 
s 27
f 191/90/42 192/91/42 193/92/42 
f 193/92/42 192/91/42 194/93/42 
s 28
f 193/92/36 194/93/36 187/94/36 
f 187/94/36 194/93/36 188/95/36 
s 29
f 188/87/43 194/96/43 190/89/43 
f 190/89/43 194/96/43 192/97/43 
s 30
f 193/77/44 187/86/44 191/60/44 
f 191/60/44 187/86/44 189/88/44 
# 420 faces

