# 3ds Max Wavefront OBJ Exporter v0.97b - (c)2007 guruware
# File Created: 24.03.2013 23:15:08

mtllib Q.mtl

#
# object polySurface17
#

v  35.0000 0.0000 682.5000
v  -35.0000 0.0000 682.5000
v  35.0000 70.0000 682.5000
v  -35.0000 70.0000 682.5000
v  35.0000 70.0000 717.5000
v  -35.0000 70.0000 717.5000
v  35.0000 0.0000 717.5000
v  -35.0000 0.0000 717.5000
v  -230.5562 -70.0000 1389.7871
v  -230.5562 0.0000 1389.7871
v  -209.9999 -70.0000 1260.0000
v  -209.9999 0.0000 1260.0000
v  -290.2128 -70.0000 1506.8699
v  -290.2128 0.0000 1506.8699
v  -383.1301 -70.0000 1599.7872
v  -383.1301 0.0000 1599.7872
v  -500.2128 -70.0000 1659.4440
v  -500.2128 0.0000 1659.4440
v  -630.0000 -70.0000 1680.0001
v  -630.0000 0.0000 1680.0001
v  168.8877 0.0000 1519.5743
v  210.0002 0.0000 1260.0000
v  49.5745 0.0000 1753.7396
v  -136.2602 0.0000 1939.5745
v  -370.4256 0.0000 2058.8877
v  -629.9999 0.0000 2100.0002
v  168.8877 -70.0000 1519.5743
v  210.0002 -70.0000 1260.0000
v  49.5745 -70.0000 1753.7396
v  -136.2602 -70.0000 1939.5745
v  -370.4256 -70.0000 2058.8877
v  -629.9999 -70.0000 2100.0002
v  135.6006 0.0000 1508.7587
v  135.6006 70.0000 1508.7587
v  175.0001 0.0000 1260.0000
v  175.0001 70.0000 1260.0000
v  21.2588 0.0000 1733.1671
v  21.2588 70.0000 1733.1671
v  -156.8328 0.0000 1911.2587
v  -156.8328 70.0000 1911.2587
v  -381.2412 0.0000 2025.6007
v  -381.2412 70.0000 2025.6007
v  -630.0000 0.0000 2065.0002
v  -630.0000 70.0000 2065.0002
v  168.8877 70.0000 1519.5743
v  210.0002 70.0000 1260.0000
v  49.5745 70.0000 1753.7396
v  -136.2602 70.0000 1939.5745
v  -370.4256 70.0000 2058.8877
v  -629.9999 70.0000 2100.0002
v  -230.5562 70.0000 1389.7871
v  -209.9999 70.0000 1260.0000
v  -290.2128 70.0000 1506.8699
v  -383.1301 70.0000 1599.7872
v  -500.2128 70.0000 1659.4440
v  -630.0000 70.0000 1680.0001
v  -197.2692 70.0000 1400.6027
v  -174.9999 70.0000 1260.0000
v  -261.8972 70.0000 1527.4423
v  -362.5576 70.0000 1628.1028
v  -489.3972 70.0000 1692.7308
v  -630.0000 70.0000 1715.0001
v  -197.2692 0.0000 1400.6027
v  -174.9999 0.0000 1260.0000
v  -261.8972 0.0000 1527.4423
v  -362.5576 0.0000 1628.1028
v  -489.3972 0.0000 1692.7308
v  -630.0000 0.0000 1715.0001
v  -210.0000 -70.0000 1260.0000
v  -210.0000 0.0000 1260.0000
v  -210.0000 -70.0000 -0.0000
v  -210.0000 0.0000 -0.0000
v  210.0000 0.0000 1260.0000
v  210.0000 0.0000 -0.0000
v  210.0000 -70.0000 1260.0000
v  210.0000 -70.0000 -0.0000
v  -210.0000 70.0000 1260.0000
v  -210.0000 70.0000 -0.0000
v  -175.0000 70.0000 1260.0000
v  -175.0000 70.0000 -0.0000
v  -175.0000 0.0000 1260.0000
v  -175.0000 0.0000 -0.0000
v  175.0000 0.0000 1260.0000
v  175.0000 70.0000 1260.0000
v  175.0000 0.0000 -0.0000
v  175.0000 70.0000 -0.0000
v  210.0000 70.0000 1260.0000
v  210.0000 70.0000 -0.0000
# 88 vertices

vn 0.0000 0.0000 -1.0000
vn 0.0000 1.0000 -0.0000
vn 0.0000 0.0000 1.0000
vn 0.0000 -1.0000 -0.0000
vn -1.0000 0.0000 -0.0000
vn 1.0000 0.0000 -0.0000
vn -0.9511 0.0000 -0.3090
vn -0.9877 0.0000 -0.1564
vn -0.8090 0.0000 -0.5878
vn -0.5878 0.0000 -0.8090
vn -0.3090 0.0000 -0.9511
vn -0.1564 0.0000 -0.9877
vn 0.9511 0.0000 0.3090
vn 0.9877 0.0000 0.1564
vn 0.8090 0.0000 0.5878
vn 0.5878 0.0000 0.8090
vn 0.3090 0.0000 0.9511
vn 0.1564 0.0000 0.9877
# 18 vertex normals

vt 0.3750 0.0000 0.0000
vt 0.6250 0.0000 0.0000
vt 0.3750 0.2500 0.0000
vt 0.6250 0.2500 0.0000
vt 0.3750 0.5000 0.0000
vt 0.6250 0.5000 0.0000
vt 0.3750 0.7500 0.0000
vt 0.6250 0.7500 0.0000
vt 0.3750 1.0000 0.0000
vt 0.6250 1.0000 0.0000
vt 0.8750 0.0000 0.0000
vt 0.8750 0.2500 0.0000
vt 0.1250 0.0000 0.0000
vt 0.1250 0.2500 0.0000
vt 0.3000 1.0000 0.0000
vt 0.3000 0.7500 0.0000
vt 0.2500 1.0000 0.0000
vt 0.2500 0.7500 0.0000
vt 0.3500 1.0000 0.0000
vt 0.3500 0.7500 0.0000
vt 0.4000 1.0000 0.0000
vt 0.4000 0.7500 0.0000
vt 0.4500 1.0000 0.0000
vt 0.4500 0.7500 0.0000
vt 0.5000 1.0000 0.0000
vt 0.5000 0.7500 0.0000
vt 0.4250 0.6260 0.0000
vt 0.1750 0.6240 0.0000
vt 0.4246 0.6760 0.0000
vt 0.1746 0.6740 0.0000
vt 0.4254 0.5760 0.0000
vt 0.1754 0.5740 0.0000
vt 0.4000 0.5000 0.0000
vt 0.3500 0.5000 0.0000
vt 0.4500 0.5000 0.0000
vt 0.5000 0.5000 0.0000
vt 0.3000 0.5000 0.0000
vt 0.3000 0.2500 0.0000
vt 0.2500 0.5000 0.0000
vt 0.2500 0.2500 0.0000
vt 0.3500 0.2500 0.0000
vt 0.4000 0.2500 0.0000
vt 0.4500 0.2500 0.0000
vt 0.5000 0.2500 0.0000
vt 0.3000 0.0000 0.0000
vt 0.2500 0.0000 0.0000
vt 0.3500 0.0000 0.0000
vt 0.4000 0.0000 0.0000
vt 0.4500 0.0000 0.0000
vt 0.5000 0.0000 0.0000
vt 0.4910 0.5515 0.0000
vt 0.6765 0.3840 0.0000
vt 0.3235 0.3660 0.0000
vt 0.5090 0.1985 0.0000
# 54 texture coords

g polySurface17
usemtl Material__25
s 1
f 1/1/1 2/2/1 3/3/1 
f 3/3/1 2/2/1 4/4/1 
s 2
f 3/3/2 4/4/2 5/5/2 
f 5/5/2 4/4/2 6/6/2 
s 3
f 5/5/3 6/6/3 7/7/3 
f 7/7/3 6/6/3 8/8/3 
s 4
f 7/7/4 8/8/4 1/9/4 
f 1/9/4 8/8/4 2/10/4 
s 5
f 2/2/5 8/11/5 4/4/5 
f 4/4/5 8/11/5 6/12/5 
s 6
f 7/13/6 1/1/6 5/14/6 
f 5/14/6 1/1/6 3/3/6 
s 7
f 9/15/7 10/16/7 11/17/8 
f 11/17/8 10/16/7 12/18/8 
f 13/19/9 14/20/9 9/15/7 
f 9/15/7 14/20/9 10/16/7 
f 15/21/10 16/22/10 13/19/9 
f 13/19/9 16/22/10 14/20/9 
f 17/23/11 18/24/11 15/21/10 
f 15/21/10 18/24/11 16/22/10 
f 19/25/12 20/26/12 17/23/11 
f 17/23/11 20/26/12 18/24/11 
s 11
f 10/27/2 21/28/2 12/29/2 
f 12/29/2 21/28/2 22/30/2 
f 14/31/2 23/32/2 10/27/2 
f 10/27/2 23/32/2 21/28/2 
f 16/22/2 24/33/2 14/20/2 
f 14/20/2 24/33/2 23/34/2 
f 18/24/2 25/35/2 16/22/2 
f 16/22/2 25/35/2 24/33/2 
f 20/26/2 26/36/2 18/24/2 
f 18/24/2 26/36/2 25/35/2 
s 15
f 21/37/13 27/38/13 22/39/14 
f 22/39/14 27/38/13 28/40/14 
f 23/34/15 29/41/15 21/37/13 
f 21/37/13 29/41/15 27/38/13 
f 24/33/16 30/42/16 23/34/15 
f 23/34/15 30/42/16 29/41/15 
f 25/35/17 31/43/17 24/33/16 
f 24/33/16 31/43/17 30/42/16 
f 26/36/18 32/44/18 25/35/17 
f 25/35/17 32/44/18 31/43/17 
s 19
f 27/38/4 9/45/4 28/40/4 
f 28/40/4 9/45/4 11/46/4 
f 29/41/4 13/47/4 27/38/4 
f 27/38/4 13/47/4 9/45/4 
f 30/42/4 15/48/4 29/41/4 
f 29/41/4 15/48/4 13/47/4 
f 31/43/4 17/49/4 30/42/4 
f 30/42/4 17/49/4 15/48/4 
f 32/44/4 19/50/4 31/43/4 
f 31/43/4 19/50/4 17/49/4 
s 23
f 33/15/7 34/16/7 35/17/8 
f 35/17/8 34/16/7 36/18/8 
f 37/19/9 38/20/9 33/15/7 
f 33/15/7 38/20/9 34/16/7 
f 39/21/10 40/22/10 37/19/9 
f 37/19/9 40/22/10 38/20/9 
f 41/23/11 42/24/11 39/21/10 
f 39/21/10 42/24/11 40/22/10 
f 43/25/12 44/26/12 41/23/11 
f 41/23/11 44/26/12 42/24/11 
s 27
f 34/16/2 45/37/2 36/18/2 
f 36/18/2 45/37/2 46/39/2 
f 38/20/2 47/34/2 34/16/2 
f 34/16/2 47/34/2 45/37/2 
f 40/22/2 48/33/2 38/20/2 
f 38/20/2 48/33/2 47/34/2 
f 42/24/2 49/35/2 40/22/2 
f 40/22/2 49/35/2 48/33/2 
f 44/26/2 50/36/2 42/24/2 
f 42/24/2 50/36/2 49/35/2 
s 31
f 45/37/13 21/38/13 46/39/14 
f 46/39/14 21/38/13 22/40/14 
f 47/34/15 23/41/15 45/37/13 
f 45/37/13 23/41/15 21/38/13 
f 48/33/16 24/42/16 47/34/15 
f 47/34/15 24/42/16 23/41/15 
f 49/35/17 25/43/17 48/33/16 
f 48/33/16 25/43/17 24/42/16 
f 50/36/18 26/44/18 49/35/17 
f 49/35/17 26/44/18 25/43/17 
s 35
f 21/38/4 33/45/4 22/40/4 
f 22/40/4 33/45/4 35/46/4 
f 23/41/4 37/47/4 21/38/4 
f 21/38/4 37/47/4 33/45/4 
f 24/42/4 39/48/4 23/41/4 
f 23/41/4 39/48/4 37/47/4 
f 25/43/4 41/49/4 24/42/4 
f 24/42/4 41/49/4 39/48/4 
f 26/44/4 43/50/4 25/43/4 
f 25/43/4 43/50/4 41/49/4 
s 39
f 10/15/7 51/16/7 12/17/8 
f 12/17/8 51/16/7 52/18/8 
f 14/19/9 53/20/9 10/15/7 
f 10/15/7 53/20/9 51/16/7 
f 16/21/10 54/22/10 14/19/9 
f 14/19/9 54/22/10 53/20/9 
f 18/23/11 55/24/11 16/21/10 
f 16/21/10 55/24/11 54/22/10 
f 20/25/12 56/26/12 18/23/11 
f 18/23/11 56/26/12 55/24/11 
s 43
f 51/16/2 57/37/2 52/18/2 
f 52/18/2 57/37/2 58/39/2 
f 53/20/2 59/34/2 51/16/2 
f 51/16/2 59/34/2 57/37/2 
f 54/22/2 60/33/2 53/20/2 
f 53/20/2 60/33/2 59/34/2 
f 55/24/2 61/35/2 54/22/2 
f 54/22/2 61/35/2 60/33/2 
f 56/26/2 62/36/2 55/24/2 
f 55/24/2 62/36/2 61/35/2 
s 47
f 57/37/13 63/38/13 58/39/14 
f 58/39/14 63/38/13 64/40/14 
f 59/34/15 65/41/15 57/37/13 
f 57/37/13 65/41/15 63/38/13 
f 60/33/16 66/42/16 59/34/15 
f 59/34/15 66/42/16 65/41/15 
f 61/35/17 67/43/17 60/33/16 
f 60/33/16 67/43/17 66/42/16 
f 62/36/18 68/44/18 61/35/17 
f 61/35/17 68/44/18 67/43/17 
s 51
f 63/38/4 10/45/4 64/40/4 
f 64/40/4 10/45/4 12/46/4 
f 65/41/4 14/47/4 63/38/4 
f 63/38/4 14/47/4 10/45/4 
f 66/42/4 16/48/4 65/41/4 
f 65/41/4 16/48/4 14/47/4 
f 67/43/4 18/49/4 66/42/4 
f 66/42/4 18/49/4 16/48/4 
f 68/44/4 20/50/4 67/43/4 
f 67/43/4 20/50/4 18/49/4 
s 55
f 69/1/5 70/3/5 71/2/5 
f 71/2/5 70/3/5 72/4/5 
s 56
f 70/51/2 73/52/2 72/53/2 
f 72/53/2 73/52/2 74/54/2 
s 57
f 73/5/6 75/7/6 74/6/6 
f 74/6/6 75/7/6 76/8/6 
s 58
f 75/7/4 69/9/4 76/8/4 
f 76/8/4 69/9/4 71/10/4 
s 59
f 71/2/1 72/4/1 76/11/1 
f 76/11/1 72/4/1 74/12/1 
s 60
f 75/13/3 73/14/3 69/1/3 
f 69/1/3 73/14/3 70/3/3 
s 61
f 70/1/5 77/3/5 72/2/5 
f 72/2/5 77/3/5 78/4/5 
s 62
f 77/3/2 79/5/2 78/4/2 
f 78/4/2 79/5/2 80/6/2 
s 63
f 79/5/6 81/7/6 80/6/6 
f 80/6/6 81/7/6 82/8/6 
s 64
f 81/7/4 70/9/4 82/8/4 
f 82/8/4 70/9/4 72/10/4 
s 65
f 72/2/1 78/4/1 82/11/1 
f 82/11/1 78/4/1 80/12/1 
s 66
f 81/13/3 79/14/3 70/1/3 
f 70/1/3 79/14/3 77/3/3 
s 67
f 83/1/5 84/3/5 85/2/5 
f 85/2/5 84/3/5 86/4/5 
s 68
f 84/3/2 87/5/2 86/4/2 
f 86/4/2 87/5/2 88/6/2 
s 69
f 87/5/6 73/7/6 88/6/6 
f 88/6/6 73/7/6 74/8/6 
s 70
f 73/7/4 83/9/4 74/8/4 
f 74/8/4 83/9/4 85/10/4 
s 71
f 85/2/1 86/4/1 74/11/1 
f 74/11/1 86/4/1 88/12/1 
s 72
f 73/13/3 87/14/3 83/1/3 
f 83/1/3 87/14/3 84/3/3 
# 168 faces

