# 3ds Max Wavefront OBJ Exporter v0.97b - (c)2007 guruware
# File Created: 24.03.2013 23:10:58

mtllib S.mtl

#
# object polySurface15
#

v  210.0000 -70.0000 -0.0000
v  -210.0000 -70.0000 -0.0000
v  210.0000 0.0000 -0.0000
v  -210.0000 0.0000 -0.0000
v  210.0000 0.0000 840.0000
v  -210.0000 0.0000 840.0000
v  210.0000 -70.0000 840.0000
v  -210.0000 -70.0000 840.0000
v  243.3927 -70.0000 1093.6427
v  243.3927 0.0000 1093.6427
v  341.2951 -70.0000 1330.0000
v  341.2951 0.0000 1330.0000
v  497.0354 -70.0000 1532.9646
v  497.0354 0.0000 1532.9646
v  700.0001 -70.0000 1688.7050
v  700.0001 0.0000 1688.7050
v  936.3574 -70.0000 1786.6073
v  936.3574 0.0000 1786.6073
v  1190.0000 -70.0000 1820.0000
v  1190.0000 0.0000 1820.0000
v  1443.6427 -70.0000 1786.6073
v  1443.6427 0.0000 1786.6073
v  1680.0000 -70.0000 1688.7050
v  1680.0000 0.0000 1688.7050
v  1882.9646 -70.0000 1532.9646
v  1882.9646 0.0000 1532.9646
v  -162.2961 0.0000 1202.3466
v  -22.4355 0.0000 1540.0000
v  200.0505 0.0000 1829.9495
v  490.0000 0.0000 2052.4355
v  827.6534 0.0000 2192.2961
v  1190.0000 0.0000 2240.0000
v  1552.3468 0.0000 2192.2961
v  1890.0000 0.0000 2052.4355
v  2179.9495 0.0000 1829.9495
v  -162.2961 -70.0000 1202.3466
v  -22.4355 -70.0000 1540.0000
v  200.0505 -70.0000 1829.9495
v  490.0000 -70.0000 2052.4355
v  827.6534 -70.0000 2192.2961
v  1190.0000 -70.0000 2240.0000
v  1552.3468 -70.0000 2192.2961
v  1890.0000 -70.0000 2052.4355
v  2179.9495 -70.0000 1829.9495
v  2856.5735 -70.0000 1649.2521
v  3025.4001 -70.0000 1719.1823
v  2856.5735 0.0000 1649.2521
v  3025.4001 0.0000 1719.1823
v  2675.4001 -70.0000 1625.4000
v  2675.4001 0.0000 1625.4000
v  2494.2266 -70.0000 1649.2521
v  2494.2266 0.0000 1649.2521
v  2325.4001 -70.0000 1719.1823
v  2325.4001 0.0000 1719.1823
v  2180.4253 -70.0000 1830.4253
v  2180.4253 0.0000 1830.4253
v  2965.2771 0.0000 1243.5636
v  3235.3999 0.0000 1355.4520
v  2675.4001 0.0000 1205.4006
v  2385.5225 0.0000 1243.5638
v  2115.4004 0.0000 1355.4523
v  1883.4409 0.0000 1533.4409
v  2965.2771 -70.0000 1243.5636
v  3235.3999 -70.0000 1355.4520
v  2675.4001 -70.0000 1205.4006
v  2385.5225 -70.0000 1243.5638
v  2115.4004 -70.0000 1355.4523
v  1883.4409 -70.0000 1533.4409
v  3235.7073 -70.0000 1357.3314
v  3025.7073 -70.0000 1721.0621
v  3235.7073 0.0000 1357.3314
v  3025.7073 0.0000 1721.0621
v  3872.4595 0.0000 1724.9607
v  3662.4595 0.0000 2088.6912
v  3872.4595 -70.0000 1724.9607
v  3662.4595 -70.0000 2088.6912
v  4041.1213 -70.0000 1795.9678
v  3872.2947 -70.0000 1726.0377
v  4041.1213 0.0000 1795.9678
v  3872.2947 0.0000 1726.0377
v  4222.2944 -70.0000 1819.8201
v  4222.2944 0.0000 1819.8201
v  3932.4175 0.0000 2201.6567
v  3662.2947 0.0000 2089.7683
v  4222.2944 0.0000 2239.8196
v  3932.4175 -70.0000 2201.6567
v  3662.2947 -70.0000 2089.7683
v  4222.2944 -70.0000 2239.8196
v  4223.3433 -70.0000 1819.8199
v  4223.3433 -70.0000 2239.8198
v  4223.3433 0.0000 1819.8199
v  4223.3433 0.0000 2239.8198
v  5457.8901 0.0000 1819.8199
v  5457.8901 -70.0000 1819.8199
v  5457.8901 0.0000 2239.8198
v  5457.8901 -70.0000 2239.8198
v  5457.8901 -11.6667 1819.8199
v  5457.8901 -11.6667 2239.8198
v  5457.8901 -23.3333 1819.8199
v  5457.8901 -23.3333 2239.8201
v  5457.8901 -35.0000 1819.8199
v  5457.8901 -35.0000 2239.8201
v  5457.8901 -46.6667 1819.8199
v  5457.8901 -46.6667 2239.8198
v  5457.8901 -58.3333 1819.8199
v  5457.8901 -58.3333 2239.8198
# 106 vertices

vn 0.0000 0.0000 -1.0000
vn 0.0000 1.0000 -0.0000
vn 0.0000 0.0000 1.0000
vn 0.0000 -1.0000 -0.0000
vn -1.0000 0.0000 -0.0000
vn 1.0000 0.0000 -0.0000
vn 0.9659 0.0000 -0.2588
vn 0.9914 0.0000 -0.1305
vn 0.8660 0.0000 -0.5000
vn 0.7071 0.0000 -0.7071
vn 0.5000 0.0000 -0.8660
vn 0.2588 0.0000 -0.9659
vn -0.2588 0.0000 -0.9659
vn -0.5000 0.0000 -0.8660
vn -0.6088 0.0000 -0.7934
vn -0.9659 0.0000 0.2588
vn -0.9914 0.0000 0.1305
vn -0.8660 0.0000 0.5000
vn -0.7071 0.0000 0.7071
vn -0.5000 0.0000 0.8660
vn -0.2588 0.0000 0.9659
vn 0.2588 0.0000 0.9659
vn 0.5000 0.0000 0.8660
vn 0.6088 0.0000 0.7934
vn -0.3827 0.0000 0.9239
vn 0.3827 0.0000 -0.9239
vn -0.8660 0.0000 -0.5000
vn 0.8660 0.0000 0.5000
vn 0.1305 0.0000 -0.9914
vn -0.1305 0.0000 0.9914
# 30 vertex normals

vt 0.3750 0.0000 0.0000
vt 0.6250 0.0000 0.0000
vt 0.6212 0.2463 0.0000
vt 0.6287 0.4962 0.0000
vt 0.3713 0.2538 0.0000
vt 0.3788 0.5037 0.0000
vt 0.3750 0.7500 0.0000
vt 0.6250 0.7500 0.0000
vt 0.3750 1.0000 0.0000
vt 0.6250 1.0000 0.0000
vt 0.8750 0.0000 0.0000
vt 0.8750 0.2500 0.0000
vt 0.1250 0.0000 0.0000
vt 0.1250 0.2500 0.0000
vt 0.0417 1.0000 0.0000
vt 0.0000 1.0000 0.0000
vt 0.0417 0.7500 0.0000
vt 0.0000 0.7500 0.0000
vt 0.0833 1.0000 0.0000
vt 0.0833 0.7500 0.0000
vt 0.1250 1.0000 0.0000
vt 0.1250 0.7500 0.0000
vt 0.1667 1.0000 0.0000
vt 0.1667 0.7500 0.0000
vt 0.2083 1.0000 0.0000
vt 0.2083 0.7500 0.0000
vt 0.2500 1.0000 0.0000
vt 0.2500 0.7500 0.0000
vt 0.2917 1.0000 0.0000
vt 0.2917 0.7500 0.0000
vt 0.3333 1.0000 0.0000
vt 0.3333 0.7500 0.0000
vt 0.0417 0.5000 0.0000
vt 0.0000 0.5000 0.0000
vt 0.0833 0.5000 0.0000
vt 0.1250 0.5000 0.0000
vt 0.1667 0.5000 0.0000
vt 0.2083 0.5000 0.0000
vt 0.2500 0.5000 0.0000
vt 0.2917 0.5000 0.0000
vt 0.3333 0.5000 0.0000
vt 0.3750 0.5000 0.0000
vt 0.0417 0.2500 0.0000
vt 0.0000 0.2500 0.0000
vt 0.0833 0.2500 0.0000
vt 0.1667 0.2500 0.0000
vt 0.2083 0.2500 0.0000
vt 0.2500 0.2500 0.0000
vt 0.2917 0.2500 0.0000
vt 0.3333 0.2500 0.0000
vt 0.3750 0.2500 0.0000
vt 0.0417 0.0000 0.0000
vt 0.0000 0.0000 0.0000
vt 0.0833 0.0000 0.0000
vt 0.1667 0.0000 0.0000
vt 0.2083 0.0000 0.0000
vt 0.2500 0.0000 0.0000
vt 0.2917 0.0000 0.0000
vt 0.3333 0.0000 0.0000
vt 0.7083 1.0000 0.0000
vt 0.6667 1.0000 0.0000
vt 0.7083 0.7500 0.0000
vt 0.6667 0.7500 0.0000
vt 0.7500 1.0000 0.0000
vt 0.7500 0.7500 0.0000
vt 0.7917 1.0000 0.0000
vt 0.7917 0.7500 0.0000
vt 0.8333 1.0000 0.0000
vt 0.8333 0.7500 0.0000
vt 0.8750 1.0000 0.0000
vt 0.8750 0.7500 0.0000
vt 0.8244 0.5163 0.0000
vt 0.8645 0.5277 0.0000
vt 0.7557 0.7566 0.0000
vt 0.7957 0.7681 0.0000
vt 0.7844 0.5048 0.0000
vt 0.7156 0.7452 0.0000
vt 0.7443 0.4934 0.0000
vt 0.6756 0.7337 0.0000
vt 0.8333 0.5000 0.0000
vt 0.6355 0.7223 0.0000
vt 0.8750 0.5000 0.0000
vt 0.7083 0.5000 0.0000
vt 0.6667 0.5000 0.0000
vt 0.7083 0.2500 0.0000
vt 0.6667 0.2500 0.0000
vt 0.7500 0.5000 0.0000
vt 0.7500 0.2500 0.0000
vt 0.7917 0.5000 0.0000
vt 0.7917 0.2500 0.0000
vt 0.8333 0.2500 0.0000
vt 0.7083 0.0000 0.0000
vt 0.6667 0.0000 0.0000
vt 0.7500 0.0000 0.0000
vt 0.7917 0.0000 0.0000
vt 0.8333 0.0000 0.0000
vt 0.6250 0.2500 0.0000
vt 0.6162 0.2417 0.0000
vt 0.6333 0.4912 0.0000
vt 0.3667 0.2588 0.0000
vt 0.3838 0.5083 0.0000
vt 0.6250 0.5000 0.0000
vt 0.6055 0.4671 0.0000
vt 0.6471 0.4671 0.0000
vt 0.6055 0.7171 0.0000
vt 0.6471 0.7171 0.0000
vt 0.5638 0.4671 0.0000
vt 0.5638 0.7171 0.0000
vt 0.3813 0.2500 0.0000
vt 0.3813 0.0000 0.0000
vt 0.3813 0.5000 0.0000
vt 0.3813 0.7500 0.0000
vt 0.3813 1.0000 0.0000
vt 0.3813 0.3750 0.0000
vt 0.3813 0.5417 0.0000
vt 0.3813 0.5833 0.0000
vt 0.3813 0.6250 0.0000
vt 0.3813 0.6667 0.0000
vt 0.3813 0.8750 0.0000
vt 0.3813 0.7083 0.0000
# 120 texture coords

g polySurface15
usemtl Material__25
s 1
f 1/1/1 2/2/1 3/3/1 
f 3/3/1 2/2/1 4/4/1 
s 2
f 3/3/2 4/4/2 5/5/2 
f 5/5/2 4/4/2 6/6/2 
s 3
f 5/5/3 6/6/3 7/7/3 
f 7/7/3 6/6/3 8/8/3 
s 4
f 7/7/4 8/8/4 1/9/4 
f 1/9/4 8/8/4 2/10/4 
s 5
f 2/2/5 8/11/5 4/4/5 
f 4/4/5 8/11/5 6/12/5 
s 6
f 7/13/6 1/1/6 5/14/6 
f 5/14/6 1/1/6 3/3/6 
s 7
f 9/15/7 7/16/8 10/17/7 
f 10/17/7 7/16/8 5/18/8 
f 11/19/9 9/15/7 12/20/9 
f 12/20/9 9/15/7 10/17/7 
f 13/21/10 11/19/9 14/22/10 
f 14/22/10 11/19/9 12/20/9 
f 15/23/11 13/21/10 16/24/11 
f 16/24/11 13/21/10 14/22/10 
f 17/25/12 15/23/11 18/26/12 
f 18/26/12 15/23/11 16/24/11 
f 19/27/1 17/25/12 20/28/1 
f 20/28/1 17/25/12 18/26/12 
f 21/29/13 19/27/1 22/30/13 
f 22/30/13 19/27/1 20/28/1 
f 23/31/14 21/29/13 24/32/14 
f 24/32/14 21/29/13 22/30/13 
f 25/9/15 23/31/14 26/7/15 
f 26/7/15 23/31/14 24/32/14 
s 8
f 10/17/2 5/18/2 27/33/2 
f 27/33/2 5/18/2 6/34/2 
f 12/20/2 10/17/2 28/35/2 
f 28/35/2 10/17/2 27/33/2 
f 14/22/2 12/20/2 29/36/2 
f 29/36/2 12/20/2 28/35/2 
f 16/24/2 14/22/2 30/37/2 
f 30/37/2 14/22/2 29/36/2 
f 18/26/2 16/24/2 31/38/2 
f 31/38/2 16/24/2 30/37/2 
f 20/28/2 18/26/2 32/39/2 
f 32/39/2 18/26/2 31/38/2 
f 22/30/2 20/28/2 33/40/2 
f 33/40/2 20/28/2 32/39/2 
f 24/32/2 22/30/2 34/41/2 
f 34/41/2 22/30/2 33/40/2 
f 26/7/2 24/32/2 35/42/2 
f 35/42/2 24/32/2 34/41/2 
s 9
f 27/33/16 6/34/17 36/43/16 
f 36/43/16 6/34/17 8/44/17 
f 28/35/18 27/33/16 37/45/18 
f 37/45/18 27/33/16 36/43/16 
f 29/36/19 28/35/18 38/14/19 
f 38/14/19 28/35/18 37/45/18 
f 30/37/20 29/36/19 39/46/20 
f 39/46/20 29/36/19 38/14/19 
f 31/38/21 30/37/20 40/47/21 
f 40/47/21 30/37/20 39/46/20 
f 32/39/3 31/38/21 41/48/3 
f 41/48/3 31/38/21 40/47/21 
f 33/40/22 32/39/3 42/49/22 
f 42/49/22 32/39/3 41/48/3 
f 34/41/23 33/40/22 43/50/23 
f 43/50/23 33/40/22 42/49/22 
f 35/42/24 34/41/23 44/51/24 
f 44/51/24 34/41/23 43/50/23 
s 10
f 36/43/4 8/44/4 9/52/4 
f 9/52/4 8/44/4 7/53/4 
f 37/45/4 36/43/4 11/54/4 
f 11/54/4 36/43/4 9/52/4 
f 38/14/4 37/45/4 13/13/4 
f 13/13/4 37/45/4 11/54/4 
f 39/46/4 38/14/4 15/55/4 
f 15/55/4 38/14/4 13/13/4 
f 40/47/4 39/46/4 17/56/4 
f 17/56/4 39/46/4 15/55/4 
f 41/48/4 40/47/4 19/57/4 
f 19/57/4 40/47/4 17/56/4 
f 42/49/4 41/48/4 21/58/4 
f 21/58/4 41/48/4 19/57/4 
f 43/50/4 42/49/4 23/59/4 
f 23/59/4 42/49/4 21/58/4 
f 44/51/4 43/50/4 25/1/4 
f 25/1/4 43/50/4 23/59/4 
s 11
f 45/60/21 46/61/25 47/62/21 
f 47/62/21 46/61/25 48/63/25 
f 49/64/3 45/60/21 50/65/3 
f 50/65/3 45/60/21 47/62/21 
f 51/66/22 49/64/3 52/67/22 
f 52/67/22 49/64/3 50/65/3 
f 53/68/23 51/66/22 54/69/23 
f 54/69/23 51/66/22 52/67/22 
f 55/70/24 53/68/23 56/71/24 
f 56/71/24 53/68/23 54/69/23 
s 12
f 47/72/2 48/73/2 57/74/2 
f 57/74/2 48/73/2 58/75/2 
f 50/76/2 47/72/2 59/77/2 
f 59/77/2 47/72/2 57/74/2 
f 52/78/2 50/76/2 60/79/2 
f 60/79/2 50/76/2 59/77/2 
f 54/69/2 52/67/2 61/80/2 
f 61/81/2 52/78/2 60/79/2 
f 56/71/2 54/69/2 62/82/2 
f 62/82/2 54/69/2 61/80/2 
s 13
f 57/83/12 58/84/26 63/85/12 
f 63/85/12 58/84/26 64/86/26 
f 59/87/1 57/83/12 65/88/1 
f 65/88/1 57/83/12 63/85/12 
f 60/89/13 59/87/1 66/90/13 
f 66/90/13 59/87/1 65/88/1 
f 61/80/14 60/89/13 67/91/14 
f 67/91/14 60/89/13 66/90/13 
f 62/82/15 61/80/14 68/12/15 
f 68/12/15 61/80/14 67/91/14 
s 14
f 63/85/4 64/86/4 45/92/4 
f 45/92/4 64/86/4 46/93/4 
f 65/88/4 63/85/4 49/94/4 
f 49/94/4 63/85/4 45/92/4 
f 66/90/4 65/88/4 51/95/4 
f 51/95/4 65/88/4 49/94/4 
f 67/91/4 66/90/4 53/96/4 
f 53/96/4 66/90/4 51/95/4 
f 68/12/4 67/91/4 55/11/4 
f 55/11/4 67/91/4 53/96/4 
s 15
f 69/1/27 70/2/27 71/51/27 
f 71/51/27 70/2/27 72/97/27 
s 16
f 71/98/2 72/99/2 73/100/2 
f 73/100/2 72/99/2 74/101/2 
s 17
f 73/42/28 74/102/28 75/7/28 
f 75/7/28 74/102/28 76/8/28 
s 18
f 75/7/4 76/8/4 69/9/4 
f 69/9/4 76/8/4 70/10/4 
s 19
f 70/2/20 76/11/20 72/97/20 
f 72/97/20 76/11/20 74/12/20 
s 20
f 75/13/11 69/1/11 73/14/11 
f 73/14/11 69/1/11 71/51/11 
s 21
f 77/25/12 78/23/26 79/26/12 
f 79/26/12 78/23/26 80/24/26 
f 81/27/29 77/25/12 82/28/29 
f 82/28/29 77/25/12 79/26/12 
s 22
f 79/103/2 80/104/2 83/105/2 
f 83/105/2 80/104/2 84/106/2 
f 82/107/2 79/103/2 85/108/2 
f 85/108/2 79/103/2 83/105/2 
s 23
f 83/38/21 84/37/25 86/47/21 
f 86/47/21 84/37/25 87/46/25 
f 85/39/30 83/38/21 88/48/30 
f 88/48/30 83/38/21 86/47/21 
s 24
f 86/47/4 87/46/4 77/56/4 
f 77/56/4 87/46/4 78/55/4 
f 88/48/4 86/47/4 81/57/4 
f 81/57/4 86/47/4 77/56/4 
s 25
f 89/2/5 90/11/5 91/97/5 
f 91/97/5 90/11/5 92/12/5 
s 26
f 93/109/1 94/110/1 91/97/1 
f 91/97/1 94/110/1 89/2/1 
s 27
f 95/111/2 93/109/2 92/102/2 
f 92/102/2 93/109/2 91/97/2 
s 28
f 96/112/3 95/111/3 90/8/3 
f 90/8/3 95/111/3 92/102/3 
s 29
f 94/113/4 96/112/4 89/10/4 
f 89/10/4 96/112/4 90/8/4 
s 30
f 93/109/6 95/111/6 97/114/6 
f 97/114/6 95/111/6 98/115/6 
f 97/114/6 98/115/6 99/111/6 
f 99/111/6 98/115/6 100/116/6 
f 99/111/6 100/116/6 101/117/6 
f 101/117/6 100/116/6 102/117/6 
f 101/117/6 102/117/6 103/112/6 
f 103/112/6 102/117/6 104/118/6 
f 103/112/6 104/118/6 105/119/6 
f 105/119/6 104/118/6 106/120/6 
f 105/119/6 106/120/6 94/113/6 
f 94/113/6 106/120/6 96/112/6 
# 174 faces

