# 3ds Max Wavefront OBJ Exporter v0.97b - (c)2007 guruware
# File Created: 24.03.2013 23:00:45

mtllib V.mtl

#
# object polySurface37
#

v  630.0000 -70.0000 0.0029
v  -3570.0000 -70.0000 0.0029
v  630.0000 0.0000 0.0029
v  -3570.0000 0.0000 0.0029
v  630.0000 0.0000 2100.0029
v  -3570.0000 0.0000 2100.0029
v  630.0000 -70.0000 2100.0029
v  -3570.0000 -70.0000 2100.0029
v  630.0000 0.0000 -0.0000
v  595.0000 0.0000 -0.0000
v  630.0000 70.0000 -0.0000
v  595.0000 70.0000 -0.0000
v  630.0000 70.0000 2100.0000
v  595.0000 70.0000 2100.0000
v  630.0000 0.0000 2100.0000
v  595.0000 0.0000 2100.0000
v  -3535.0000 0.0000 -0.0000
v  -3570.0000 0.0000 -0.0000
v  -3535.0000 70.0000 -0.0000
v  -3570.0000 70.0000 -0.0000
v  -3535.0000 70.0000 2100.0000
v  -3570.0000 70.0000 2100.0000
v  -3535.0000 0.0000 2100.0000
v  -3570.0000 0.0000 2100.0000
v  630.0474 0.0000 -0.0000
v  175.0474 0.0000 -0.0000
v  630.0474 70.0000 -0.0000
v  175.0474 70.0000 -0.0000
v  630.0474 70.0000 35.0000
v  175.0474 70.0000 35.0000
v  630.0474 0.0000 35.0000
v  175.0474 0.0000 35.0000
v  -3115.0000 0.0000 2065.0000
v  -3570.0000 0.0000 2065.0000
v  -3115.0000 70.0000 2065.0000
v  -3570.0000 70.0000 2065.0000
v  -3115.0000 70.0000 2100.0000
v  -3115.0000 0.0000 2100.0000
v  -175.0000 0.0000 -0.0000
v  -175.0000 70.0000 -0.0000
v  -175.0000 70.0000 35.0000
v  -3570.0000 70.0000 35.0000
v  -175.0000 0.0000 35.0000
v  -3570.0000 0.0000 35.0000
v  630.0000 0.0000 2065.0000
v  -2765.0000 0.0000 2065.0000
v  630.0000 70.0000 2065.0000
v  -2765.0000 70.0000 2065.0000
v  -2765.0000 70.0000 2100.0000
v  -2765.0000 0.0000 2100.0000
v  71.2065 -3.4252 956.1127
v  -114.4091 157.4416 956.1127
v  117.6103 36.7915 956.1127
v  -68.0052 197.6583 956.1127
v  117.6103 36.7915 982.3627
v  -68.0052 197.6583 982.3627
v  71.2065 -3.4252 982.3627
v  -114.4091 157.4416 982.3627
v  120.9625 281.1863 956.1127
v  -64.6530 120.3195 956.1127
v  74.5586 321.4030 956.1127
v  -111.0569 160.5362 956.1127
v  74.5586 321.4030 982.3627
v  -111.0569 160.5362 982.3627
v  120.9625 281.1863 982.3627
v  -64.6530 120.3195 982.3627
v  -978.7935 -3.4252 1376.1127
v  -1164.4091 157.4416 1376.1127
v  -932.3896 36.7915 1376.1127
v  -1118.0052 197.6583 1376.1127
v  -932.3896 36.7915 1402.3627
v  -1118.0052 197.6583 1402.3627
v  -978.7935 -3.4252 1402.3627
v  -1164.4091 157.4416 1402.3627
v  -929.0374 281.1863 1376.1127
v  -1114.6530 120.3195 1376.1127
v  -975.4413 321.4030 1376.1127
v  -1161.0569 160.5362 1376.1127
v  -975.4413 321.4030 1402.3627
v  -1161.0569 160.5362 1402.3627
v  -929.0374 281.1863 1402.3627
v  -1114.6530 120.3195 1402.3627
v  -2028.7937 -3.4252 1796.1127
v  -2214.4092 157.4416 1796.1127
v  -1982.3899 36.7915 1796.1127
v  -2168.0051 197.6583 1796.1127
v  -1982.3899 36.7915 1822.3627
v  -2168.0051 197.6583 1822.3627
v  -2028.7937 -3.4252 1822.3627
v  -2214.4092 157.4416 1822.3627
v  -1979.0377 281.1863 1796.1127
v  -2164.6531 120.3195 1796.1127
v  -2025.4415 321.4030 1796.1127
v  -2211.0571 160.5362 1796.1127
v  -2025.4415 321.4030 1822.3627
v  -2211.0571 160.5362 1822.3627
v  -1979.0377 281.1863 1822.3627
v  -2164.6531 120.3195 1822.3627
v  -2481.3926 -48.8013 1231.9463
v  -2516.3926 -48.8013 1231.9463
v  -2481.3926 231.1987 1231.9463
v  -2516.3926 231.1987 1231.9463
v  -2481.3926 231.1987 1266.9463
v  -2516.3926 231.1987 1266.9463
v  -2481.3926 -48.8013 1266.9463
v  -2516.3926 -48.8013 1266.9463
v  -1827.9017 -48.8013 1004.4812
v  -1862.9017 -48.8013 1004.4812
v  -1827.9017 231.1987 1004.4812
v  -1862.9017 231.1987 1004.4812
v  -1827.9017 231.1987 1039.4812
v  -1862.9017 231.1987 1039.4812
v  -1827.9017 -48.8013 1039.4812
v  -1862.9017 -48.8013 1039.4812
v  -2091.3870 -48.8013 1472.5298
v  -2126.3870 -48.8013 1472.5298
v  -2091.3870 231.1987 1472.5298
v  -2126.3870 231.1987 1472.5298
v  -2091.3870 231.1987 1507.5298
v  -2126.3870 231.1987 1507.5298
v  -2091.3870 -48.8013 1507.5298
v  -2126.3870 -48.8013 1507.5298
v  -1621.2117 -48.8013 629.9664
v  -1656.2117 -48.8013 629.9664
v  -1621.2117 231.1987 629.9664
v  -1656.2117 231.1987 629.9664
v  -1621.2117 231.1987 664.9664
v  -1656.2117 231.1987 664.9664
v  -1621.2117 -48.8013 664.9664
v  -1656.2117 -48.8013 664.9664
v  -1651.1686 -48.8013 1378.9961
v  -1686.1686 -48.8013 1378.9961
v  -1651.1686 231.1987 1378.9961
v  -1686.1686 231.1987 1378.9961
v  -1651.1686 231.1987 1413.9961
v  -1686.1686 231.1987 1413.9961
v  -1651.1686 -48.8013 1413.9961
v  -1686.1686 -48.8013 1413.9961
v  -722.6213 -48.8013 820.3976
v  -757.6213 -48.8013 820.3976
v  -722.6213 231.1987 820.3976
v  -757.6213 231.1987 820.3976
v  -722.6213 231.1987 855.3976
v  -757.6213 231.1987 855.3976
v  -722.6213 -48.8013 855.3976
v  -757.6213 -48.8013 855.3976
v  -1368.3060 -48.8013 1607.5135
v  -1403.3060 -48.8013 1607.5135
v  -1368.3060 231.1987 1607.5135
v  -1403.3060 231.1987 1607.5135
v  -1368.3060 231.1987 1642.5135
v  -1403.3060 231.1987 1642.5135
v  -1368.3060 -48.8013 1642.5135
v  -1403.3060 -48.8013 1642.5135
v  -8.1145 -48.8013 407.7965
v  -43.1145 -48.8013 407.7965
v  -8.1145 231.1987 407.7965
v  -43.1145 231.1987 407.7965
v  -8.1145 231.1987 442.7965
v  -43.1145 231.1987 442.7965
v  -8.1145 -48.8013 442.7965
v  -43.1145 -48.8013 442.7965
v  -1409.1766 -48.8013 966.3950
v  -1444.1766 -48.8013 966.3950
v  -1409.1766 231.1987 966.3950
v  -1444.1766 231.1987 966.3950
v  -1409.1766 231.1987 1001.3950
v  -1444.1766 231.1987 1001.3950
v  -1409.1766 -48.8013 1001.3950
v  -1444.1766 -48.8013 1001.3950
v  -671.0607 -48.8013 312.5809
v  -706.0607 -48.8013 312.5809
v  -671.0607 231.1987 312.5809
v  -706.0607 231.1987 312.5809
v  -671.0607 231.1987 347.5809
v  -706.0607 231.1987 347.5809
v  -671.0607 -48.8013 347.5809
v  -706.0607 -48.8013 347.5809
v  -1069.1846 -48.8013 585.5324
v  -1104.1846 -48.8013 585.5324
v  -1069.1846 231.1987 585.5324
v  -1104.1846 231.1987 585.5324
v  -1069.1846 231.1987 620.5324
v  -1104.1846 231.1987 620.5324
v  -1069.1846 -48.8013 620.5324
v  -1104.1846 -48.8013 620.5324
v  -324.7210 -48.8013 515.7076
v  -359.7210 -48.8013 515.7076
v  -324.7210 231.1987 515.7076
v  -359.7210 231.1987 515.7076
v  -324.7210 231.1987 550.7076
v  -359.7210 231.1987 550.7076
v  -324.7210 -48.8013 550.7076
v  -359.7210 -48.8013 550.7076
v  -1097.3599 -48.8013 1188.5648
v  -1132.3599 -48.8013 1188.5648
v  -1097.3599 231.1987 1188.5648
v  -1132.3599 231.1987 1188.5648
v  -1097.3599 231.1987 1223.5648
v  -1132.3599 231.1987 1223.5648
v  -1097.3599 -48.8013 1223.5648
v  -1132.3599 -48.8013 1223.5648
v  -2346.0076 -48.8013 902.5468
v  -2381.0076 -48.8013 902.5468
v  -2346.0076 231.1987 902.5468
v  -2381.0076 231.1987 902.5468
v  -2346.0076 231.1987 937.5468
v  -2381.0076 231.1987 937.5468
v  -2346.0076 -48.8013 937.5468
v  -2381.0076 -48.8013 937.5468
v  -2962.9377 -48.8013 1515.9115
v  -2997.9377 -48.8013 1515.9115
v  -2962.9377 231.1987 1515.9115
v  -2997.9377 231.1987 1515.9115
v  -2962.9377 231.1987 1550.9115
v  -2997.9377 231.1987 1550.9115
v  -2962.9377 -48.8013 1550.9115
v  -2997.9377 -48.8013 1550.9115
# 218 vertices

vn 0.0000 0.0000 -1.0000
vn 0.0000 1.0000 -0.0000
vn 0.0000 0.0000 1.0000
vn 0.0000 -1.0000 -0.0000
vn -1.0000 0.0000 -0.0000
vn 1.0000 0.0000 -0.0000
vn -0.0000 0.0000 -1.0000
vn 0.6549 0.7557 -0.0000
vn -0.6549 -0.7557 -0.0000
vn -0.6549 0.7557 -0.0000
vn 0.6549 -0.7557 -0.0000
vn -0.0000 0.0000 1.0000
# 12 vertex normals

vt 0.3750 0.0000 0.0000
vt 0.6250 0.0000 0.0000
vt 0.3750 0.2500 0.0000
vt 0.6250 0.2500 0.0000
vt 0.3750 0.5000 0.0000
vt 0.6250 0.5000 0.0000
vt 0.3750 0.7500 0.0000
vt 0.6250 0.7500 0.0000
vt 0.3750 1.0000 0.0000
vt 0.6250 1.0000 0.0000
vt 0.8750 0.0000 0.0000
vt 0.8750 0.2500 0.0000
vt 0.1250 0.0000 0.0000
vt 0.1250 0.2500 0.0000
# 14 texture coords

g polySurface37
usemtl Material__25
s 1
f 1/1/1 2/2/1 3/3/1 
f 3/3/1 2/2/1 4/4/1 
s 2
f 3/3/2 4/4/2 5/5/2 
f 5/5/2 4/4/2 6/6/2 
s 3
f 5/5/3 6/6/3 7/7/3 
f 7/7/3 6/6/3 8/8/3 
s 4
f 7/7/4 8/8/4 1/9/4 
f 1/9/4 8/8/4 2/10/4 
s 5
f 2/2/5 8/11/5 4/4/5 
f 4/4/5 8/11/5 6/12/5 
s 6
f 7/13/6 1/1/6 5/14/6 
f 5/14/6 1/1/6 3/3/6 
s 7
f 9/1/1 10/2/1 11/3/1 
f 11/3/1 10/2/1 12/4/1 
s 8
f 11/3/2 12/4/2 13/5/2 
f 13/5/2 12/4/2 14/6/2 
s 9
f 13/5/3 14/6/3 15/7/3 
f 15/7/3 14/6/3 16/8/3 
s 10
f 15/7/4 16/8/4 9/9/4 
f 9/9/4 16/8/4 10/10/4 
s 11
f 10/2/5 16/11/5 12/4/5 
f 12/4/5 16/11/5 14/12/5 
s 12
f 15/13/6 9/1/6 13/14/6 
f 13/14/6 9/1/6 11/3/6 
s 13
f 17/1/1 18/2/1 19/3/1 
f 19/3/1 18/2/1 20/4/1 
s 14
f 19/3/2 20/4/2 21/5/2 
f 21/5/2 20/4/2 22/6/2 
s 15
f 21/5/3 22/6/3 23/7/3 
f 23/7/3 22/6/3 24/8/3 
s 16
f 23/7/4 24/8/4 17/9/4 
f 17/9/4 24/8/4 18/10/4 
s 17
f 18/2/5 24/11/5 20/4/5 
f 20/4/5 24/11/5 22/12/5 
s 18
f 23/13/6 17/1/6 21/14/6 
f 21/14/6 17/1/6 19/3/6 
s 19
f 25/1/1 26/2/1 27/3/1 
f 27/3/1 26/2/1 28/4/1 
s 20
f 27/3/2 28/4/2 29/5/2 
f 29/5/2 28/4/2 30/6/2 
s 21
f 29/5/3 30/6/3 31/7/3 
f 31/7/3 30/6/3 32/8/3 
s 22
f 31/7/4 32/8/4 25/9/4 
f 25/9/4 32/8/4 26/10/4 
s 23
f 26/2/5 32/11/5 28/4/5 
f 28/4/5 32/11/5 30/12/5 
s 24
f 31/13/6 25/1/6 29/14/6 
f 29/14/6 25/1/6 27/3/6 
s 25
f 33/1/1 34/2/1 35/3/1 
f 35/3/1 34/2/1 36/4/1 
s 26
f 35/3/2 36/4/2 37/5/2 
f 37/5/2 36/4/2 22/6/2 
s 27
f 37/5/3 22/6/3 38/7/3 
f 38/7/3 22/6/3 24/8/3 
s 28
f 38/7/4 24/8/4 33/9/4 
f 33/9/4 24/8/4 34/10/4 
s 29
f 34/2/5 24/11/5 36/4/5 
f 36/4/5 24/11/5 22/12/5 
s 30
f 38/13/6 33/1/6 37/14/6 
f 37/14/6 33/1/6 35/3/6 
s 31
f 39/1/1 18/2/1 40/3/1 
f 40/3/1 18/2/1 20/4/1 
s 32
f 40/3/2 20/4/2 41/5/2 
f 41/5/2 20/4/2 42/6/2 
s 33
f 41/5/3 42/6/3 43/7/3 
f 43/7/3 42/6/3 44/8/3 
s 34
f 43/7/4 44/8/4 39/9/4 
f 39/9/4 44/8/4 18/10/4 
s 35
f 18/2/5 44/11/5 20/4/5 
f 20/4/5 44/11/5 42/12/5 
s 36
f 43/13/6 39/1/6 41/14/6 
f 41/14/6 39/1/6 40/3/6 
s 37
f 45/1/1 46/2/1 47/3/1 
f 47/3/1 46/2/1 48/4/1 
s 38
f 47/3/2 48/4/2 13/5/2 
f 13/5/2 48/4/2 49/6/2 
s 39
f 13/5/3 49/6/3 15/7/3 
f 15/7/3 49/6/3 50/8/3 
s 40
f 15/7/4 50/8/4 45/9/4 
f 45/9/4 50/8/4 46/10/4 
s 41
f 46/2/5 50/11/5 48/4/5 
f 48/4/5 50/11/5 49/12/5 
s 42
f 15/13/6 45/1/6 13/14/6 
f 13/14/6 45/1/6 47/3/6 
s 43
f 51/1/1 52/2/7 53/3/1 
f 53/3/1 52/2/7 54/4/7 
s 44
f 53/3/8 54/4/8 55/5/8 
f 55/5/8 54/4/8 56/6/8 
s 45
f 55/5/3 56/6/3 57/7/3 
f 57/7/3 56/6/3 58/8/3 
s 46
f 57/7/9 58/8/9 51/9/9 
f 51/9/9 58/8/9 52/10/9 
s 47
f 52/2/10 58/11/10 54/4/10 
f 54/4/10 58/11/10 56/12/10 
s 48
f 57/13/11 51/1/11 55/14/11 
f 55/14/11 51/1/11 53/3/11 
s 49
f 59/1/1 60/2/1 61/3/1 
f 61/3/1 60/2/1 62/4/1 
s 50
f 61/3/10 62/4/10 63/5/10 
f 63/5/10 62/4/10 64/6/10 
s 51
f 63/5/3 64/6/3 65/7/3 
f 65/7/3 64/6/3 66/8/3 
s 52
f 65/7/11 66/8/11 59/9/11 
f 59/9/11 66/8/11 60/10/11 
s 53
f 60/2/9 66/11/9 62/4/9 
f 62/4/9 66/11/9 64/12/9 
s 54
f 65/13/8 59/1/8 63/14/8 
f 63/14/8 59/1/8 61/3/8 
s 55
f 67/1/1 68/2/7 69/3/1 
f 69/3/1 68/2/7 70/4/7 
s 56
f 69/3/8 70/4/8 71/5/8 
f 71/5/8 70/4/8 72/6/8 
s 57
f 71/5/3 72/6/3 73/7/3 
f 73/7/3 72/6/3 74/8/3 
s 58
f 73/7/9 74/8/9 67/9/9 
f 67/9/9 74/8/9 68/10/9 
s 59
f 68/2/10 74/11/10 70/4/10 
f 70/4/10 74/11/10 72/12/10 
s 60
f 73/13/11 67/1/11 71/14/11 
f 71/14/11 67/1/11 69/3/11 
s 61
f 75/1/7 76/2/1 77/3/7 
f 77/3/7 76/2/1 78/4/1 
s 62
f 77/3/10 78/4/10 79/5/10 
f 79/5/10 78/4/10 80/6/10 
s 63
f 79/5/3 80/6/3 81/7/3 
f 81/7/3 80/6/3 82/8/3 
s 64
f 81/7/11 82/8/11 75/9/11 
f 75/9/11 82/8/11 76/10/11 
s 65
f 76/2/9 82/11/9 78/4/9 
f 78/4/9 82/11/9 80/12/9 
s 66
f 81/13/8 75/1/8 79/14/8 
f 79/14/8 75/1/8 77/3/8 
s 67
f 83/1/1 84/2/7 85/3/1 
f 85/3/1 84/2/7 86/4/7 
s 68
f 85/3/8 86/4/8 87/5/8 
f 87/5/8 86/4/8 88/6/8 
s 69
f 87/5/12 88/6/3 89/7/12 
f 89/7/12 88/6/3 90/8/3 
s 70
f 89/7/9 90/8/9 83/9/9 
f 83/9/9 90/8/9 84/10/9 
s 71
f 84/2/10 90/11/10 86/4/10 
f 86/4/10 90/11/10 88/12/10 
s 72
f 89/13/11 83/1/11 87/14/11 
f 87/14/11 83/1/11 85/3/11 
s 73
f 91/1/1 92/2/1 93/3/1 
f 93/3/1 92/2/1 94/4/1 
s 74
f 93/3/10 94/4/10 95/5/10 
f 95/5/10 94/4/10 96/6/10 
s 75
f 95/5/3 96/6/12 97/7/3 
f 97/7/3 96/6/12 98/8/12 
s 76
f 97/7/11 98/8/11 91/9/11 
f 91/9/11 98/8/11 92/10/11 
s 77
f 92/2/9 98/11/9 94/4/9 
f 94/4/9 98/11/9 96/12/9 
s 78
f 97/13/8 91/1/8 95/14/8 
f 95/14/8 91/1/8 93/3/8 
s 79
f 99/1/1 100/2/1 101/3/1 
f 101/3/1 100/2/1 102/4/1 
s 80
f 101/3/2 102/4/2 103/5/2 
f 103/5/2 102/4/2 104/6/2 
s 81
f 103/5/3 104/6/3 105/7/3 
f 105/7/3 104/6/3 106/8/3 
s 82
f 105/7/4 106/8/4 99/9/4 
f 99/9/4 106/8/4 100/10/4 
s 83
f 100/2/5 106/11/5 102/4/5 
f 102/4/5 106/11/5 104/12/5 
s 84
f 105/13/6 99/1/6 103/14/6 
f 103/14/6 99/1/6 101/3/6 
s 85
f 107/1/1 108/2/1 109/3/1 
f 109/3/1 108/2/1 110/4/1 
s 86
f 109/3/2 110/4/2 111/5/2 
f 111/5/2 110/4/2 112/6/2 
s 87
f 111/5/3 112/6/3 113/7/3 
f 113/7/3 112/6/3 114/8/3 
s 88
f 113/7/4 114/8/4 107/9/4 
f 107/9/4 114/8/4 108/10/4 
s 89
f 108/2/5 114/11/5 110/4/5 
f 110/4/5 114/11/5 112/12/5 
s 90
f 113/13/6 107/1/6 111/14/6 
f 111/14/6 107/1/6 109/3/6 
s 91
f 115/1/1 116/2/1 117/3/1 
f 117/3/1 116/2/1 118/4/1 
s 92
f 117/3/2 118/4/2 119/5/2 
f 119/5/2 118/4/2 120/6/2 
s 93
f 119/5/3 120/6/3 121/7/3 
f 121/7/3 120/6/3 122/8/3 
s 94
f 121/7/4 122/8/4 115/9/4 
f 115/9/4 122/8/4 116/10/4 
s 95
f 116/2/5 122/11/5 118/4/5 
f 118/4/5 122/11/5 120/12/5 
s 96
f 121/13/6 115/1/6 119/14/6 
f 119/14/6 115/1/6 117/3/6 
s 97
f 123/1/1 124/2/1 125/3/1 
f 125/3/1 124/2/1 126/4/1 
s 98
f 125/3/2 126/4/2 127/5/2 
f 127/5/2 126/4/2 128/6/2 
s 99
f 127/5/3 128/6/3 129/7/3 
f 129/7/3 128/6/3 130/8/3 
s 100
f 129/7/4 130/8/4 123/9/4 
f 123/9/4 130/8/4 124/10/4 
s 101
f 124/2/5 130/11/5 126/4/5 
f 126/4/5 130/11/5 128/12/5 
s 102
f 129/13/6 123/1/6 127/14/6 
f 127/14/6 123/1/6 125/3/6 
s 103
f 131/1/1 132/2/1 133/3/1 
f 133/3/1 132/2/1 134/4/1 
s 104
f 133/3/2 134/4/2 135/5/2 
f 135/5/2 134/4/2 136/6/2 
s 105
f 135/5/3 136/6/3 137/7/3 
f 137/7/3 136/6/3 138/8/3 
s 106
f 137/7/4 138/8/4 131/9/4 
f 131/9/4 138/8/4 132/10/4 
s 107
f 132/2/5 138/11/5 134/4/5 
f 134/4/5 138/11/5 136/12/5 
s 108
f 137/13/6 131/1/6 135/14/6 
f 135/14/6 131/1/6 133/3/6 
s 109
f 139/1/1 140/2/1 141/3/1 
f 141/3/1 140/2/1 142/4/1 
s 110
f 141/3/2 142/4/2 143/5/2 
f 143/5/2 142/4/2 144/6/2 
s 111
f 143/5/3 144/6/3 145/7/3 
f 145/7/3 144/6/3 146/8/3 
s 112
f 145/7/4 146/8/4 139/9/4 
f 139/9/4 146/8/4 140/10/4 
s 113
f 140/2/5 146/11/5 142/4/5 
f 142/4/5 146/11/5 144/12/5 
s 114
f 145/13/6 139/1/6 143/14/6 
f 143/14/6 139/1/6 141/3/6 
s 115
f 147/1/1 148/2/1 149/3/1 
f 149/3/1 148/2/1 150/4/1 
s 116
f 149/3/2 150/4/2 151/5/2 
f 151/5/2 150/4/2 152/6/2 
s 117
f 151/5/3 152/6/3 153/7/3 
f 153/7/3 152/6/3 154/8/3 
s 118
f 153/7/4 154/8/4 147/9/4 
f 147/9/4 154/8/4 148/10/4 
s 119
f 148/2/5 154/11/5 150/4/5 
f 150/4/5 154/11/5 152/12/5 
s 120
f 153/13/6 147/1/6 151/14/6 
f 151/14/6 147/1/6 149/3/6 
s 121
f 155/1/1 156/2/1 157/3/1 
f 157/3/1 156/2/1 158/4/1 
s 122
f 157/3/2 158/4/2 159/5/2 
f 159/5/2 158/4/2 160/6/2 
s 123
f 159/5/3 160/6/3 161/7/3 
f 161/7/3 160/6/3 162/8/3 
s 124
f 161/7/4 162/8/4 155/9/4 
f 155/9/4 162/8/4 156/10/4 
s 125
f 156/2/5 162/11/5 158/4/5 
f 158/4/5 162/11/5 160/12/5 
s 126
f 161/13/6 155/1/6 159/14/6 
f 159/14/6 155/1/6 157/3/6 
s 127
f 163/1/1 164/2/1 165/3/1 
f 165/3/1 164/2/1 166/4/1 
s 128
f 165/3/2 166/4/2 167/5/2 
f 167/5/2 166/4/2 168/6/2 
s 129
f 167/5/3 168/6/3 169/7/3 
f 169/7/3 168/6/3 170/8/3 
s 130
f 169/7/4 170/8/4 163/9/4 
f 163/9/4 170/8/4 164/10/4 
s 131
f 164/2/5 170/11/5 166/4/5 
f 166/4/5 170/11/5 168/12/5 
s 132
f 169/13/6 163/1/6 167/14/6 
f 167/14/6 163/1/6 165/3/6 
s 133
f 171/1/1 172/2/1 173/3/1 
f 173/3/1 172/2/1 174/4/1 
s 134
f 173/3/2 174/4/2 175/5/2 
f 175/5/2 174/4/2 176/6/2 
s 135
f 175/5/3 176/6/3 177/7/3 
f 177/7/3 176/6/3 178/8/3 
s 136
f 177/7/4 178/8/4 171/9/4 
f 171/9/4 178/8/4 172/10/4 
s 137
f 172/2/5 178/11/5 174/4/5 
f 174/4/5 178/11/5 176/12/5 
s 138
f 177/13/6 171/1/6 175/14/6 
f 175/14/6 171/1/6 173/3/6 
s 139
f 179/1/1 180/2/1 181/3/1 
f 181/3/1 180/2/1 182/4/1 
s 140
f 181/3/2 182/4/2 183/5/2 
f 183/5/2 182/4/2 184/6/2 
s 141
f 183/5/3 184/6/3 185/7/3 
f 185/7/3 184/6/3 186/8/3 
s 142
f 185/7/4 186/8/4 179/9/4 
f 179/9/4 186/8/4 180/10/4 
s 143
f 180/2/5 186/11/5 182/4/5 
f 182/4/5 186/11/5 184/12/5 
s 144
f 185/13/6 179/1/6 183/14/6 
f 183/14/6 179/1/6 181/3/6 
s 145
f 187/1/1 188/2/1 189/3/1 
f 189/3/1 188/2/1 190/4/1 
s 146
f 189/3/2 190/4/2 191/5/2 
f 191/5/2 190/4/2 192/6/2 
s 147
f 191/5/3 192/6/3 193/7/3 
f 193/7/3 192/6/3 194/8/3 
s 148
f 193/7/4 194/8/4 187/9/4 
f 187/9/4 194/8/4 188/10/4 
s 149
f 188/2/5 194/11/5 190/4/5 
f 190/4/5 194/11/5 192/12/5 
s 150
f 193/13/6 187/1/6 191/14/6 
f 191/14/6 187/1/6 189/3/6 
s 151
f 195/1/1 196/2/1 197/3/1 
f 197/3/1 196/2/1 198/4/1 
s 152
f 197/3/2 198/4/2 199/5/2 
f 199/5/2 198/4/2 200/6/2 
s 153
f 199/5/3 200/6/3 201/7/3 
f 201/7/3 200/6/3 202/8/3 
s 154
f 201/7/4 202/8/4 195/9/4 
f 195/9/4 202/8/4 196/10/4 
s 155
f 196/2/5 202/11/5 198/4/5 
f 198/4/5 202/11/5 200/12/5 
s 156
f 201/13/6 195/1/6 199/14/6 
f 199/14/6 195/1/6 197/3/6 
s 157
f 203/1/1 204/2/1 205/3/1 
f 205/3/1 204/2/1 206/4/1 
s 158
f 205/3/2 206/4/2 207/5/2 
f 207/5/2 206/4/2 208/6/2 
s 159
f 207/5/3 208/6/3 209/7/3 
f 209/7/3 208/6/3 210/8/3 
s 160
f 209/7/4 210/8/4 203/9/4 
f 203/9/4 210/8/4 204/10/4 
s 161
f 204/2/5 210/11/5 206/4/5 
f 206/4/5 210/11/5 208/12/5 
s 162
f 209/13/6 203/1/6 207/14/6 
f 207/14/6 203/1/6 205/3/6 
s 163
f 211/1/1 212/2/1 213/3/1 
f 213/3/1 212/2/1 214/4/1 
s 164
f 213/3/2 214/4/2 215/5/2 
f 215/5/2 214/4/2 216/6/2 
s 165
f 215/5/3 216/6/3 217/7/3 
f 217/7/3 216/6/3 218/8/3 
s 166
f 217/7/4 218/8/4 211/9/4 
f 211/9/4 218/8/4 212/10/4 
s 167
f 212/2/5 218/11/5 214/4/5 
f 214/4/5 218/11/5 216/12/5 
s 168
f 217/13/6 211/1/6 215/14/6 
f 215/14/6 211/1/6 213/3/6 
# 336 faces

