# This file uses centimeters as units for non-parametric coordinates.

mtllib G - Left Turn.mtl
g default
v -29.999971 -10.000000 -0.000000
v -36.852055 -10.000000 -43.262391
v -56.737595 -10.000000 -82.289963
v -87.710047 -10.000000 -113.262415
v -126.737614 -10.000000 -133.147955
v -170.000000 -10.000000 -140.000048
v -29.999971 0.000000 -0.000000
v -36.852055 0.000000 -43.262391
v -56.737595 0.000000 -82.289963
v -87.710047 0.000000 -113.262415
v -126.737614 0.000000 -133.147955
v -170.000000 0.000000 -140.000048
v 30.000019 0.000000 0.000024
v 20.211334 0.000000 -61.803384
v -8.196564 0.000000 -117.557049
v -52.442904 0.000000 -161.803417
v -108.196559 0.000000 -190.211334
v -169.999971 0.000000 -200.000057
v 30.000019 -10.000000 0.000024
v 20.211334 -10.000000 -61.803384
v -8.196564 -10.000000 -117.557049
v -52.442904 -10.000000 -161.803417
v -108.196559 -10.000000 -190.211334
v -169.999971 -10.000000 -200.000057
v 25.000038 0.000000 0.000005
v 15.456066 0.000000 -60.258322
v -12.241640 0.000000 -114.618149
v -55.381842 0.000000 -157.758350
v -109.741664 0.000000 -185.456066
v -170.000000 0.000000 -195.000057
v 25.000038 10.000000 0.000005
v 15.456066 10.000000 -60.258322
v -12.241640 10.000000 -114.618149
v -55.381842 10.000000 -157.758350
v -109.741664 10.000000 -185.456066
v -170.000000 10.000000 -195.000057
v 30.000019 10.000000 0.000024
v 20.211334 10.000000 -61.803384
v -8.196564 10.000000 -117.557049
v -52.442904 10.000000 -161.803417
v -108.196559 10.000000 -190.211334
v -169.999971 10.000000 -200.000057
v 30.000019 0.000000 0.000024
v 20.211334 0.000000 -61.803384
v -8.196564 0.000000 -117.557049
v -52.442904 0.000000 -161.803417
v -108.196559 0.000000 -190.211334
v -169.999971 0.000000 -200.000057
v -30.004988 0.000000 0.000000
v -36.856833 0.000000 -43.260837
v -56.741648 0.000000 -82.287006
v -87.712994 0.000000 -113.258352
v -126.739159 0.000000 -133.143177
v -170.000000 0.000000 -139.995031
v -30.004988 10.000000 0.000000
v -36.856833 10.000000 -43.260837
v -56.741648 10.000000 -82.287006
v -87.712994 10.000000 -113.258352
v -126.739159 10.000000 -133.143177
v -170.000000 10.000000 -139.995031
v -24.819975 10.000000 -0.000000
v -31.925592 10.000000 -44.863095
v -52.546892 10.000000 -85.334682
v -84.665327 10.000000 -117.453117
v -125.136909 10.000000 -138.074417
v -170.000010 10.000000 -145.180044
v -24.819975 0.000000 -0.000000
v -31.925592 0.000000 -44.863095
v -52.546892 0.000000 -85.334682
v -84.665327 0.000000 -117.453117
v -125.136909 0.000000 -138.074417
v -170.000010 0.000000 -145.180044
vt 0.250000 1.000000
vt 0.300000 1.000000
vt 0.350000 1.000000
vt 0.400000 1.000000
vt 0.450000 1.000000
vt 0.500000 1.000000
vt 0.250000 0.750000
vt 0.300000 0.750000
vt 0.350000 0.750000
vt 0.400000 0.750000
vt 0.450000 0.750000
vt 0.500000 0.750000
vt 0.250000 0.500000
vt 0.300000 0.500000
vt 0.350000 0.500000
vt 0.400000 0.500000
vt 0.450000 0.500000
vt 0.500000 0.500000
vt 0.250000 0.250000
vt 0.300000 0.250000
vt 0.350000 0.250000
vt 0.400000 0.250000
vt 0.450000 0.250000
vt 0.500000 0.250000
vt 0.250000 0.000000
vt 0.300000 0.000000
vt 0.350000 0.000000
vt 0.400000 0.000000
vt 0.450000 0.000000
vt 0.500000 0.000000
vt 0.300000 1.000000
vt 0.250000 1.000000
vt 0.250000 0.750000
vt 0.300000 0.750000
vt 0.350000 1.000000
vt 0.350000 0.750000
vt 0.400000 1.000000
vt 0.400000 0.750000
vt 0.450000 1.000000
vt 0.450000 0.750000
vt 0.500000 1.000000
vt 0.500000 0.750000
vt 0.250000 0.500000
vt 0.300000 0.500000
vt 0.350000 0.500000
vt 0.400000 0.500000
vt 0.450000 0.500000
vt 0.500000 0.500000
vt 0.250000 0.250000
vt 0.300000 0.250000
vt 0.350000 0.250000
vt 0.400000 0.250000
vt 0.450000 0.250000
vt 0.500000 0.250000
vt 0.250000 0.000000
vt 0.300000 0.000000
vt 0.350000 0.000000
vt 0.400000 0.000000
vt 0.450000 0.000000
vt 0.500000 0.000000
vt 0.300000 1.000000
vt 0.250000 1.000000
vt 0.250000 0.750000
vt 0.300000 0.750000
vt 0.350000 1.000000
vt 0.350000 0.750000
vt 0.400000 1.000000
vt 0.400000 0.750000
vt 0.450000 1.000000
vt 0.450000 0.750000
vt 0.500000 1.000000
vt 0.500000 0.750000
vt 0.250000 0.500000
vt 0.300000 0.500000
vt 0.350000 0.500000
vt 0.400000 0.500000
vt 0.450000 0.500000
vt 0.500000 0.500000
vt 0.250000 0.250000
vt 0.300000 0.250000
vt 0.350000 0.250000
vt 0.400000 0.250000
vt 0.450000 0.250000
vt 0.500000 0.250000
vt 0.250000 0.000000
vt 0.300000 0.000000
vt 0.350000 0.000000
vt 0.400000 0.000000
vt 0.450000 0.000000
vt 0.500000 0.000000
vn -0.951057 0.000000 0.309017
vn -0.987688 0.000000 0.156434
vn -0.987688 0.000000 0.156434
vn -0.951057 0.000000 0.309017
vn -0.809017 0.000000 0.587785
vn -0.809017 0.000000 0.587785
vn -0.587785 0.000000 0.809017
vn -0.587785 0.000000 0.809017
vn -0.309017 0.000000 0.951056
vn -0.309017 0.000000 0.951056
vn -0.156435 0.000000 0.987688
vn -0.156435 0.000000 0.987688
vn 0.000000 1.000000 0.000000
vn 0.000000 1.000000 0.000000
vn 0.000000 1.000000 0.000000
vn 0.000000 1.000000 0.000000
vn 0.000000 1.000000 0.000000
vn 0.000000 1.000000 0.000000
vn 0.000000 1.000000 0.000000
vn 0.000000 1.000000 0.000000
vn 0.000000 1.000000 0.000000
vn 0.000000 1.000000 0.000000
vn 0.000000 1.000000 0.000000
vn 0.000000 1.000000 0.000000
vn 0.951057 0.000000 -0.309017
vn 0.987688 0.000000 -0.156434
vn 0.987688 0.000000 -0.156434
vn 0.951057 0.000000 -0.309017
vn 0.809017 0.000000 -0.587785
vn 0.809017 0.000000 -0.587785
vn 0.587785 0.000000 -0.809017
vn 0.587785 0.000000 -0.809017
vn 0.309017 0.000000 -0.951056
vn 0.309017 0.000000 -0.951056
vn 0.156435 0.000000 -0.987688
vn 0.156435 0.000000 -0.987688
vn 0.000000 -1.000000 0.000000
vn 0.000000 -1.000000 0.000000
vn 0.000000 -1.000000 0.000000
vn 0.000000 -1.000000 0.000000
vn 0.000000 -1.000000 0.000000
vn 0.000000 -1.000000 0.000000
vn 0.000000 -1.000000 0.000000
vn 0.000000 -1.000000 0.000000
vn 0.000000 -1.000000 0.000000
vn 0.000000 -1.000000 0.000000
vn 0.000000 -1.000000 0.000000
vn 0.000000 -1.000000 0.000000
vn -0.951057 0.000000 0.309017
vn -0.987688 0.000000 0.156434
vn -0.987688 0.000000 0.156434
vn -0.951057 0.000000 0.309017
vn -0.809017 0.000000 0.587785
vn -0.809017 0.000000 0.587785
vn -0.587785 0.000000 0.809017
vn -0.587785 0.000000 0.809017
vn -0.309017 0.000000 0.951056
vn -0.309017 0.000000 0.951056
vn -0.156435 0.000000 0.987688
vn -0.156435 0.000000 0.987688
vn 0.000000 1.000000 0.000000
vn 0.000000 1.000000 0.000000
vn 0.000000 1.000000 0.000000
vn 0.000000 1.000000 0.000000
vn 0.000000 1.000000 0.000000
vn 0.000000 1.000000 0.000000
vn 0.000000 1.000000 0.000000
vn 0.000000 1.000000 0.000000
vn 0.000000 1.000000 0.000000
vn 0.000000 1.000000 0.000000
vn 0.000000 1.000000 0.000000
vn 0.000000 1.000000 0.000000
vn 0.951057 0.000000 -0.309017
vn 0.987688 0.000000 -0.156434
vn 0.987688 0.000000 -0.156434
vn 0.951057 0.000000 -0.309017
vn 0.809017 0.000000 -0.587785
vn 0.809017 0.000000 -0.587785
vn 0.587785 0.000000 -0.809017
vn 0.587785 0.000000 -0.809017
vn 0.309017 0.000000 -0.951056
vn 0.309017 0.000000 -0.951056
vn 0.156435 0.000000 -0.987688
vn 0.156435 0.000000 -0.987688
vn 0.000000 -1.000000 0.000000
vn 0.000000 -1.000000 0.000000
vn 0.000000 -1.000000 0.000000
vn 0.000000 -1.000000 0.000000
vn 0.000000 -1.000000 0.000000
vn 0.000000 -1.000000 0.000000
vn 0.000000 -1.000000 0.000000
vn 0.000000 -1.000000 0.000000
vn 0.000000 -1.000000 0.000000
vn 0.000000 -1.000000 0.000000
vn 0.000000 -1.000000 0.000000
vn 0.000000 -1.000000 0.000000
vn -0.951057 0.000000 0.309017
vn -0.987688 0.000000 0.156435
vn -0.987688 0.000000 0.156435
vn -0.951057 0.000000 0.309017
vn -0.809017 0.000000 0.587785
vn -0.809017 0.000000 0.587785
vn -0.587785 0.000000 0.809017
vn -0.587785 0.000000 0.809017
vn -0.309017 0.000000 0.951056
vn -0.309017 0.000000 0.951056
vn -0.156435 0.000000 0.987688
vn -0.156435 0.000000 0.987688
vn 0.000000 1.000000 0.000000
vn 0.000000 1.000000 0.000000
vn 0.000000 1.000000 0.000000
vn 0.000000 1.000000 0.000000
vn 0.000000 1.000000 0.000000
vn 0.000000 1.000000 0.000000
vn 0.000000 1.000000 0.000000
vn 0.000000 1.000000 0.000000
vn 0.000000 1.000000 0.000000
vn 0.000000 1.000000 0.000000
vn 0.000000 1.000000 0.000000
vn 0.000000 1.000000 0.000000
vn 0.951057 0.000000 -0.309017
vn 0.987688 0.000000 -0.156434
vn 0.987688 0.000000 -0.156434
vn 0.951057 0.000000 -0.309017
vn 0.809017 0.000000 -0.587785
vn 0.809017 0.000000 -0.587785
vn 0.587785 0.000000 -0.809017
vn 0.587785 0.000000 -0.809017
vn 0.309017 0.000000 -0.951056
vn 0.309017 0.000000 -0.951056
vn 0.156435 0.000000 -0.987688
vn 0.156435 0.000000 -0.987688
vn 0.000000 -1.000000 0.000000
vn 0.000000 -1.000000 0.000000
vn 0.000000 -1.000000 0.000000
vn 0.000000 -1.000000 0.000000
vn 0.000000 -1.000000 0.000000
vn 0.000000 -1.000000 0.000000
vn 0.000000 -1.000000 0.000000
vn 0.000000 -1.000000 0.000000
vn 0.000000 -1.000000 0.000000
vn 0.000000 -1.000000 0.000000
vn 0.000000 -1.000000 0.000000
vn 0.000000 -1.000000 0.000000
s 1
g polySurface1
usemtl initialShadingGroup
f 2/2/1 1/1/2 7/7/3 8/8/4
f 3/3/5 2/2/1 8/8/4 9/9/6
f 4/4/7 3/3/5 9/9/6 10/10/8
f 5/5/9 4/4/7 10/10/8 11/11/10
f 6/6/11 5/5/9 11/11/10 12/12/12
s 2
f 8/8/13 7/7/14 13/13/15 14/14/16
f 9/9/17 8/8/13 14/14/16 15/15/18
f 10/10/19 9/9/17 15/15/18 16/16/20
f 11/11/21 10/10/19 16/16/20 17/17/22
f 12/12/23 11/11/21 17/17/22 18/18/24
s 3
f 14/14/25 13/13/26 19/19/27 20/20/28
f 15/15/29 14/14/25 20/20/28 21/21/30
f 16/16/31 15/15/29 21/21/30 22/22/32
f 17/17/33 16/16/31 22/22/32 23/23/34
f 18/18/35 17/17/33 23/23/34 24/24/36
s 4
f 20/20/37 19/19/38 1/25/39 2/26/40
f 21/21/41 20/20/37 2/26/40 3/27/42
f 22/22/43 21/21/41 3/27/42 4/28/44
f 23/23/45 22/22/43 4/28/44 5/29/46
f 24/24/47 23/23/45 5/29/46 6/30/48
s 5
f 26/31/49 25/32/50 31/33/51 32/34/52
f 27/35/53 26/31/49 32/34/52 33/36/54
f 28/37/55 27/35/53 33/36/54 34/38/56
f 29/39/57 28/37/55 34/38/56 35/40/58
f 30/41/59 29/39/57 35/40/58 36/42/60
s 6
f 32/34/61 31/33/62 37/43/63 38/44/64
f 33/36/65 32/34/61 38/44/64 39/45/66
f 34/38/67 33/36/65 39/45/66 40/46/68
f 35/40/69 34/38/67 40/46/68 41/47/70
f 36/42/71 35/40/69 41/47/70 42/48/72
s 7
f 38/44/73 37/43/74 43/49/75 44/50/76
f 39/45/77 38/44/73 44/50/76 45/51/78
f 40/46/79 39/45/77 45/51/78 46/52/80
f 41/47/81 40/46/79 46/52/80 47/53/82
f 42/48/83 41/47/81 47/53/82 48/54/84
s 8
f 44/50/85 43/49/86 25/55/87 26/56/88
f 45/51/89 44/50/85 26/56/88 27/57/90
f 46/52/91 45/51/89 27/57/90 28/58/92
f 47/53/93 46/52/91 28/58/92 29/59/94
f 48/54/95 47/53/93 29/59/94 30/60/96
s 9
f 50/61/97 49/62/98 55/63/99 56/64/100
f 51/65/101 50/61/97 56/64/100 57/66/102
f 52/67/103 51/65/101 57/66/102 58/68/104
f 53/69/105 52/67/103 58/68/104 59/70/106
f 54/71/107 53/69/105 59/70/106 60/72/108
s 10
f 56/64/109 55/63/110 61/73/111 62/74/112
f 57/66/113 56/64/109 62/74/112 63/75/114
f 58/68/115 57/66/113 63/75/114 64/76/116
f 59/70/117 58/68/115 64/76/116 65/77/118
f 60/72/119 59/70/117 65/77/118 66/78/120
s 11
f 62/74/121 61/73/122 67/79/123 68/80/124
f 63/75/125 62/74/121 68/80/124 69/81/126
f 64/76/127 63/75/125 69/81/126 70/82/128
f 65/77/129 64/76/127 70/82/128 71/83/130
f 66/78/131 65/77/129 71/83/130 72/84/132
s 12
f 68/80/133 67/79/134 49/85/135 50/86/136
f 69/81/137 68/80/133 50/86/136 51/87/138
f 70/82/139 69/81/137 51/87/138 52/88/140
f 71/83/141 70/82/139 52/88/140 53/89/142
f 72/84/143 71/83/141 53/89/142 54/90/144
