# This file uses centimeters as units for non-parametric coordinates.

mtllib G - Left Turn.mtl
g default
v 209.999800 -70.000000 0.000000
v 257.964382 -70.000000 302.836731
v 397.163162 -70.000000 576.029739
v 613.970314 -70.000000 792.836891
v 887.163269 -70.000000 932.035645
v 1190.000000 -70.000000 980.000320
v 209.999800 0.000000 0.000000
v 257.964382 0.000000 302.836731
v 397.163162 0.000000 576.029739
v 613.970314 0.000000 792.836891
v 887.163269 0.000000 932.035645
v 1190.000000 0.000000 980.000320
v -210.000134 0.000000 -0.000167
v -141.479340 0.000000 432.623680
v 57.375946 0.000000 822.899368
v 367.100311 0.000000 1132.623947
v 757.375893 0.000000 1331.479340
v 1189.999786 0.000000 1400.000427
v -210.000134 -70.000000 -0.000167
v -141.479340 -70.000000 432.623680
v 57.375946 -70.000000 822.899368
v 367.100311 -70.000000 1132.623947
v 757.375893 -70.000000 1331.479340
v 1189.999786 -70.000000 1400.000427
v -175.000267 0.000000 -0.000033
v -108.192463 0.000000 421.808266
v 85.691481 0.000000 802.327042
v 387.672905 0.000000 1104.308426
v 768.191628 0.000000 1298.192490
v 1190.000000 0.000000 1365.000427
v -175.000267 70.000000 -0.000033
v -108.192463 70.000000 421.808266
v 85.691481 70.000000 802.327042
v 387.672905 70.000000 1104.308426
v 768.191628 70.000000 1298.192490
v 1190.000000 70.000000 1365.000427
v -210.000134 70.000000 -0.000167
v -141.479340 70.000000 432.623680
v 57.375946 70.000000 822.899368
v 367.100311 70.000000 1132.623947
v 757.375893 70.000000 1331.479340
v 1189.999786 70.000000 1400.000427
v -210.000134 0.000000 -0.000167
v -141.479340 0.000000 432.623680
v 57.375946 0.000000 822.899368
v 367.100311 0.000000 1132.623947
v 757.375893 0.000000 1331.479340
v 1189.999786 0.000000 1400.000427
v 210.034914 0.000000 0.000000
v 257.997841 0.000000 302.825863
v 397.191521 0.000000 576.009018
v 613.990982 0.000000 792.808479
v 887.174110 0.000000 932.002213
v 1190.000000 0.000000 979.965179
v 210.034914 70.000000 0.000000
v 257.997841 70.000000 302.825863
v 397.191521 70.000000 576.009018
v 613.990982 70.000000 792.808479
v 887.174110 70.000000 932.002213
v 1190.000000 70.000000 979.965179
v 173.739824 70.000000 0.000000
v 223.479147 70.000000 314.041660
v 367.828232 70.000000 597.342804
v 592.657303 70.000000 822.171822
v 875.958366 70.000000 966.520920
v 1190.000107 70.000000 1016.260269
v 173.739824 0.000000 0.000000
v 223.479147 0.000000 314.041660
v 367.828232 0.000000 597.342804
v 592.657303 0.000000 822.171822
v 875.958366 0.000000 966.520920
v 1190.000107 0.000000 1016.260269
vt 0.300000 1.000000
vt 0.250000 1.000000
vt 0.300000 0.750000
vt 0.250000 0.750000
vt 0.350000 1.000000
vt 0.350000 0.750000
vt 0.400000 1.000000
vt 0.400000 0.750000
vt 0.450000 1.000000
vt 0.450000 0.750000
vt 0.500000 1.000000
vt 0.500000 0.750000
vt 0.300000 0.500000
vt 0.250000 0.500000
vt 0.350000 0.500000
vt 0.400000 0.500000
vt 0.450000 0.500000
vt 0.500000 0.500000
vt 0.300000 0.250000
vt 0.250000 0.250000
vt 0.350000 0.250000
vt 0.400000 0.250000
vt 0.450000 0.250000
vt 0.500000 0.250000
vt 0.300000 0.000000
vt 0.250000 0.000000
vt 0.350000 0.000000
vt 0.400000 0.000000
vt 0.450000 0.000000
vt 0.500000 0.000000
vt 0.300000 1.000000
vt 0.250000 1.000000
vt 0.300000 0.750000
vt 0.250000 0.750000
vt 0.350000 1.000000
vt 0.350000 0.750000
vt 0.400000 1.000000
vt 0.400000 0.750000
vt 0.450000 1.000000
vt 0.450000 0.750000
vt 0.500000 1.000000
vt 0.500000 0.750000
vt 0.300000 0.500000
vt 0.250000 0.500000
vt 0.350000 0.500000
vt 0.400000 0.500000
vt 0.450000 0.500000
vt 0.500000 0.500000
vt 0.300000 0.250000
vt 0.250000 0.250000
vt 0.350000 0.250000
vt 0.400000 0.250000
vt 0.450000 0.250000
vt 0.500000 0.250000
vt 0.300000 0.000000
vt 0.250000 0.000000
vt 0.350000 0.000000
vt 0.400000 0.000000
vt 0.450000 0.000000
vt 0.500000 0.000000
vt 0.300000 1.000000
vt 0.250000 1.000000
vt 0.300000 0.750000
vt 0.250000 0.750000
vt 0.350000 1.000000
vt 0.350000 0.750000
vt 0.400000 1.000000
vt 0.400000 0.750000
vt 0.450000 1.000000
vt 0.450000 0.750000
vt 0.500000 1.000000
vt 0.500000 0.750000
vt 0.300000 0.500000
vt 0.250000 0.500000
vt 0.350000 0.500000
vt 0.400000 0.500000
vt 0.450000 0.500000
vt 0.500000 0.500000
vt 0.300000 0.250000
vt 0.250000 0.250000
vt 0.350000 0.250000
vt 0.400000 0.250000
vt 0.450000 0.250000
vt 0.500000 0.250000
vt 0.300000 0.000000
vt 0.250000 0.000000
vt 0.350000 0.000000
vt 0.400000 0.000000
vt 0.450000 0.000000
vt 0.500000 0.000000
vn 0.951057 0.000000 -0.309017
vn 0.987688 0.000000 -0.156434
vn 0.951057 0.000000 -0.309017
vn 0.987688 0.000000 -0.156434
vn 0.809017 0.000000 -0.587785
vn 0.809017 0.000000 -0.587785
vn 0.587785 0.000000 -0.809017
vn 0.587785 0.000000 -0.809017
vn 0.309017 0.000000 -0.951057
vn 0.309017 0.000000 -0.951057
vn 0.156435 0.000000 -0.987688
vn 0.156435 0.000000 -0.987688
vn 0.000000 1.000000 -0.000000
vn 0.000000 1.000000 -0.000000
vn 0.000000 1.000000 -0.000000
vn 0.000000 1.000000 -0.000000
vn 0.000000 1.000000 -0.000000
vn 0.000000 1.000000 -0.000000
vn 0.000000 1.000000 -0.000000
vn 0.000000 1.000000 -0.000000
vn 0.000000 1.000000 -0.000000
vn 0.000000 1.000000 -0.000000
vn 0.000000 1.000000 -0.000000
vn 0.000000 1.000000 -0.000000
vn -0.951057 0.000000 0.309017
vn -0.987688 0.000000 0.156434
vn -0.951057 0.000000 0.309017
vn -0.987688 0.000000 0.156434
vn -0.809017 0.000000 0.587785
vn -0.809017 0.000000 0.587785
vn -0.587785 0.000000 0.809017
vn -0.587785 0.000000 0.809017
vn -0.309017 0.000000 0.951056
vn -0.309017 0.000000 0.951056
vn -0.156435 0.000000 0.987688
vn -0.156435 0.000000 0.987688
vn -0.000000 -1.000000 0.000000
vn -0.000000 -1.000000 0.000000
vn -0.000000 -1.000000 0.000000
vn -0.000000 -1.000000 0.000000
vn 0.000000 -1.000000 -0.000000
vn 0.000000 -1.000000 -0.000000
vn 0.000000 -1.000000 -0.000000
vn 0.000000 -1.000000 -0.000000
vn 0.000000 -1.000000 -0.000000
vn 0.000000 -1.000000 -0.000000
vn 0.000000 -1.000000 0.000000
vn 0.000000 -1.000000 0.000000
vn 0.951057 0.000000 -0.309017
vn 0.987688 0.000000 -0.156434
vn 0.951057 0.000000 -0.309017
vn 0.987688 0.000000 -0.156434
vn 0.809017 0.000000 -0.587785
vn 0.809017 0.000000 -0.587785
vn 0.587785 0.000000 -0.809017
vn 0.587785 0.000000 -0.809017
vn 0.309017 0.000000 -0.951057
vn 0.309017 0.000000 -0.951057
vn 0.156435 0.000000 -0.987688
vn 0.156435 0.000000 -0.987688
vn 0.000000 1.000000 -0.000000
vn 0.000000 1.000000 -0.000000
vn 0.000000 1.000000 -0.000000
vn 0.000000 1.000000 -0.000000
vn -0.000000 1.000000 0.000000
vn -0.000000 1.000000 0.000000
vn 0.000000 1.000000 -0.000000
vn 0.000000 1.000000 -0.000000
vn 0.000000 1.000000 -0.000000
vn 0.000000 1.000000 -0.000000
vn 0.000000 1.000000 -0.000000
vn 0.000000 1.000000 -0.000000
vn -0.951057 0.000000 0.309017
vn -0.987688 0.000000 0.156434
vn -0.951057 0.000000 0.309017
vn -0.987688 0.000000 0.156434
vn -0.809017 0.000000 0.587785
vn -0.809017 0.000000 0.587785
vn -0.587785 0.000000 0.809017
vn -0.587785 0.000000 0.809017
vn -0.309017 0.000000 0.951056
vn -0.309017 0.000000 0.951056
vn -0.156435 0.000000 0.987688
vn -0.156435 0.000000 0.987688
vn 0.000000 -1.000000 0.000000
vn 0.000000 -1.000000 0.000000
vn 0.000000 -1.000000 0.000000
vn 0.000000 -1.000000 0.000000
vn 0.000000 -1.000000 0.000000
vn 0.000000 -1.000000 0.000000
vn 0.000000 -1.000000 0.000000
vn 0.000000 -1.000000 0.000000
vn 0.000000 -1.000000 0.000000
vn 0.000000 -1.000000 0.000000
vn 0.000000 -1.000000 0.000000
vn 0.000000 -1.000000 0.000000
vn 0.951057 0.000000 -0.309017
vn 0.987688 0.000000 -0.156435
vn 0.951057 0.000000 -0.309017
vn 0.987688 0.000000 -0.156435
vn 0.809017 0.000000 -0.587785
vn 0.809017 0.000000 -0.587785
vn 0.587785 0.000000 -0.809017
vn 0.587785 0.000000 -0.809017
vn 0.309017 0.000000 -0.951057
vn 0.309017 0.000000 -0.951057
vn 0.156435 0.000000 -0.987688
vn 0.156435 0.000000 -0.987688
vn 0.000000 1.000000 -0.000000
vn 0.000000 1.000000 -0.000000
vn 0.000000 1.000000 -0.000000
vn 0.000000 1.000000 -0.000000
vn 0.000000 1.000000 -0.000000
vn 0.000000 1.000000 -0.000000
vn 0.000000 1.000000 -0.000000
vn 0.000000 1.000000 -0.000000
vn 0.000000 1.000000 -0.000000
vn -0.000000 1.000000 0.000000
vn 0.000000 1.000000 -0.000000
vn 0.000000 1.000000 -0.000000
vn -0.951057 0.000000 0.309017
vn -0.987688 0.000000 0.156434
vn -0.951057 0.000000 0.309017
vn -0.987688 0.000000 0.156434
vn -0.809017 0.000000 0.587785
vn -0.809017 0.000000 0.587785
vn -0.587785 0.000000 0.809017
vn -0.587785 0.000000 0.809017
vn -0.309017 0.000000 0.951057
vn -0.309017 0.000000 0.951057
vn -0.156435 0.000000 0.987688
vn -0.156435 0.000000 0.987688
vn 0.000000 -1.000000 0.000000
vn 0.000000 -1.000000 0.000000
vn 0.000000 -1.000000 0.000000
vn 0.000000 -1.000000 0.000000
vn 0.000000 -1.000000 0.000000
vn 0.000000 -1.000000 0.000000
vn 0.000000 -1.000000 0.000000
vn 0.000000 -1.000000 0.000000
vn 0.000000 -1.000000 0.000000
vn 0.000000 -1.000000 0.000000
vn 0.000000 -1.000000 0.000000
vn 0.000000 -1.000000 0.000000
s 1
g polySurface5
usemtl initialShadingGroup
f 2/1/1 1/2/2 8/3/3
f 8/3/3 1/2/2 7/4/4
f 3/5/5 2/1/1 9/6/6
f 9/6/6 2/1/1 8/3/3
f 4/7/7 3/5/5 10/8/8
f 10/8/8 3/5/5 9/6/6
f 5/9/9 4/7/7 11/10/10
f 11/10/10 4/7/7 10/8/8
f 6/11/11 5/9/9 12/12/12
f 12/12/12 5/9/9 11/10/10
s 2
f 8/3/13 7/4/14 14/13/15
f 14/13/15 7/4/14 13/14/16
f 9/6/17 8/3/13 15/15/18
f 15/15/18 8/3/13 14/13/15
f 10/8/19 9/6/17 16/16/20
f 16/16/20 9/6/17 15/15/18
f 11/10/21 10/8/19 17/17/22
f 17/17/22 10/8/19 16/16/20
f 12/12/23 11/10/21 18/18/24
f 18/18/24 11/10/21 17/17/22
s 3
f 14/13/25 13/14/26 20/19/27
f 20/19/27 13/14/26 19/20/28
f 15/15/29 14/13/25 21/21/30
f 21/21/30 14/13/25 20/19/27
f 16/16/31 15/15/29 22/22/32
f 22/22/32 15/15/29 21/21/30
f 17/17/33 16/16/31 23/23/34
f 23/23/34 16/16/31 22/22/32
f 18/18/35 17/17/33 24/24/36
f 24/24/36 17/17/33 23/23/34
s 4
f 20/19/37 19/20/38 2/25/39
f 2/25/39 19/20/38 1/26/40
f 21/21/41 20/19/37 3/27/42
f 3/27/42 20/19/37 2/25/39
f 22/22/43 21/21/41 4/28/44
f 4/28/44 21/21/41 3/27/42
f 23/23/45 22/22/43 5/29/46
f 5/29/46 22/22/43 4/28/44
f 24/24/47 23/23/45 6/30/48
f 6/30/48 23/23/45 5/29/46
s 5
f 26/31/49 25/32/50 32/33/51
f 32/33/51 25/32/50 31/34/52
f 27/35/53 26/31/49 33/36/54
f 33/36/54 26/31/49 32/33/51
f 28/37/55 27/35/53 34/38/56
f 34/38/56 27/35/53 33/36/54
f 29/39/57 28/37/55 35/40/58
f 35/40/58 28/37/55 34/38/56
f 30/41/59 29/39/57 36/42/60
f 36/42/60 29/39/57 35/40/58
s 6
f 32/33/61 31/34/62 38/43/63
f 38/43/63 31/34/62 37/44/64
f 33/36/65 32/33/61 39/45/66
f 39/45/66 32/33/61 38/43/63
f 34/38/67 33/36/65 40/46/68
f 40/46/68 33/36/65 39/45/66
f 35/40/69 34/38/67 41/47/70
f 41/47/70 34/38/67 40/46/68
f 36/42/71 35/40/69 42/48/72
f 42/48/72 35/40/69 41/47/70
s 7
f 38/43/73 37/44/74 44/49/75
f 44/49/75 37/44/74 43/50/76
f 39/45/77 38/43/73 45/51/78
f 45/51/78 38/43/73 44/49/75
f 40/46/79 39/45/77 46/52/80
f 46/52/80 39/45/77 45/51/78
f 41/47/81 40/46/79 47/53/82
f 47/53/82 40/46/79 46/52/80
f 42/48/83 41/47/81 48/54/84
f 48/54/84 41/47/81 47/53/82
s 8
f 44/49/85 43/50/86 26/55/87
f 26/55/87 43/50/86 25/56/88
f 45/51/89 44/49/85 27/57/90
f 27/57/90 44/49/85 26/55/87
f 46/52/91 45/51/89 28/58/92
f 28/58/92 45/51/89 27/57/90
f 47/53/93 46/52/91 29/59/94
f 29/59/94 46/52/91 28/58/92
f 48/54/95 47/53/93 30/60/96
f 30/60/96 47/53/93 29/59/94
s 9
f 50/61/97 49/62/98 56/63/99
f 56/63/99 49/62/98 55/64/100
f 51/65/101 50/61/97 57/66/102
f 57/66/102 50/61/97 56/63/99
f 52/67/103 51/65/101 58/68/104
f 58/68/104 51/65/101 57/66/102
f 53/69/105 52/67/103 59/70/106
f 59/70/106 52/67/103 58/68/104
f 54/71/107 53/69/105 60/72/108
f 60/72/108 53/69/105 59/70/106
s 10
f 56/63/109 55/64/110 62/73/111
f 62/73/111 55/64/110 61/74/112
f 57/66/113 56/63/109 63/75/114
f 63/75/114 56/63/109 62/73/111
f 58/68/115 57/66/113 64/76/116
f 64/76/116 57/66/113 63/75/114
f 59/70/117 58/68/115 65/77/118
f 65/77/118 58/68/115 64/76/116
f 60/72/119 59/70/117 66/78/120
f 66/78/120 59/70/117 65/77/118
s 11
f 62/73/121 61/74/122 68/79/123
f 68/79/123 61/74/122 67/80/124
f 63/75/125 62/73/121 69/81/126
f 69/81/126 62/73/121 68/79/123
f 64/76/127 63/75/125 70/82/128
f 70/82/128 63/75/125 69/81/126
f 65/77/129 64/76/127 71/83/130
f 71/83/130 64/76/127 70/82/128
f 66/78/131 65/77/129 72/84/132
f 72/84/132 65/77/129 71/83/130
s 12
f 68/79/133 67/80/134 50/85/135
f 50/85/135 67/80/134 49/86/136
f 69/81/137 68/79/133 51/87/138
f 51/87/138 68/79/133 50/85/135
f 70/82/139 69/81/137 52/88/140
f 52/88/140 69/81/137 51/87/138
f 71/83/141 70/82/139 53/89/142
f 53/89/142 70/82/139 52/88/140
f 72/84/143 71/83/141 54/90/144
f 54/90/144 71/83/141 53/89/142
