# This file uses centimeters as units for non-parametric coordinates.

mtllib R - Right Turn.mtl
g default
v -209.999800 -70.000000 -0.000000
v -257.964382 -70.000000 302.836731
v -397.163162 -70.000000 576.029739
v -613.970314 -70.000000 792.836891
v -887.163269 -70.000000 932.035645
v -1190.000000 -70.000000 980.000320
v -209.999800 0.000000 -0.000000
v -257.964382 0.000000 302.836731
v -397.163162 0.000000 576.029739
v -613.970314 0.000000 792.836891
v -887.163269 0.000000 932.035645
v -1190.000000 0.000000 980.000320
v 210.000134 0.000000 -0.000167
v 141.479340 0.000000 432.623680
v -57.375946 0.000000 822.899368
v -367.100311 0.000000 1132.623947
v -757.375893 0.000000 1331.479340
v -1189.999786 0.000000 1400.000427
v 210.000134 -70.000000 -0.000167
v 141.479340 -70.000000 432.623680
v -57.375946 -70.000000 822.899368
v -367.100311 -70.000000 1132.623947
v -757.375893 -70.000000 1331.479340
v -1189.999786 -70.000000 1400.000427
v 175.000267 0.000000 -0.000033
v 108.192463 0.000000 421.808266
v -85.691481 0.000000 802.327042
v -387.672905 0.000000 1104.308426
v -768.191628 0.000000 1298.192490
v -1190.000000 0.000000 1365.000427
v 175.000267 70.000000 -0.000033
v 108.192463 70.000000 421.808266
v -85.691481 70.000000 802.327042
v -387.672905 70.000000 1104.308426
v -768.191628 70.000000 1298.192490
v -1190.000000 70.000000 1365.000427
v 210.000134 70.000000 -0.000167
v 141.479340 70.000000 432.623680
v -57.375946 70.000000 822.899368
v -367.100311 70.000000 1132.623947
v -757.375893 70.000000 1331.479340
v -1189.999786 70.000000 1400.000427
v 210.000134 0.000000 -0.000167
v 141.479340 0.000000 432.623680
v -57.375946 0.000000 822.899368
v -367.100311 0.000000 1132.623947
v -757.375893 0.000000 1331.479340
v -1189.999786 0.000000 1400.000427
v -210.034914 0.000000 -0.000000
v -257.997841 0.000000 302.825863
v -397.191521 0.000000 576.009018
v -613.990982 0.000000 792.808479
v -887.174110 0.000000 932.002213
v -1190.000000 0.000000 979.965179
v -210.034914 70.000000 -0.000000
v -257.997841 70.000000 302.825863
v -397.191521 70.000000 576.009018
v -613.990982 70.000000 792.808479
v -887.174110 70.000000 932.002213
v -1190.000000 70.000000 979.965179
v -173.739824 70.000000 -0.000000
v -223.479147 70.000000 314.041660
v -367.828232 70.000000 597.342804
v -592.657303 70.000000 822.171822
v -875.958366 70.000000 966.520920
v -1190.000107 70.000000 1016.260269
v -173.739824 0.000000 -0.000000
v -223.479147 0.000000 314.041660
v -367.828232 0.000000 597.342804
v -592.657303 0.000000 822.171822
v -875.958366 0.000000 966.520920
v -1190.000107 0.000000 1016.260269
vt 0.300000 1.000000
vt 0.250000 1.000000
vt 0.300000 0.750000
vt 0.250000 0.750000
vt 0.350000 1.000000
vt 0.350000 0.750000
vt 0.400000 1.000000
vt 0.400000 0.750000
vt 0.450000 1.000000
vt 0.450000 0.750000
vt 0.500000 1.000000
vt 0.500000 0.750000
vt 0.300000 0.500000
vt 0.250000 0.500000
vt 0.350000 0.500000
vt 0.400000 0.500000
vt 0.450000 0.500000
vt 0.500000 0.500000
vt 0.300000 0.250000
vt 0.250000 0.250000
vt 0.350000 0.250000
vt 0.400000 0.250000
vt 0.450000 0.250000
vt 0.500000 0.250000
vt 0.300000 0.000000
vt 0.250000 0.000000
vt 0.350000 0.000000
vt 0.400000 0.000000
vt 0.450000 0.000000
vt 0.500000 0.000000
vt 0.300000 1.000000
vt 0.250000 1.000000
vt 0.300000 0.750000
vt 0.250000 0.750000
vt 0.350000 1.000000
vt 0.350000 0.750000
vt 0.400000 1.000000
vt 0.400000 0.750000
vt 0.450000 1.000000
vt 0.450000 0.750000
vt 0.500000 1.000000
vt 0.500000 0.750000
vt 0.300000 0.500000
vt 0.250000 0.500000
vt 0.350000 0.500000
vt 0.400000 0.500000
vt 0.450000 0.500000
vt 0.500000 0.500000
vt 0.300000 0.250000
vt 0.250000 0.250000
vt 0.350000 0.250000
vt 0.400000 0.250000
vt 0.450000 0.250000
vt 0.500000 0.250000
vt 0.300000 0.000000
vt 0.250000 0.000000
vt 0.350000 0.000000
vt 0.400000 0.000000
vt 0.450000 0.000000
vt 0.500000 0.000000
vt 0.300000 1.000000
vt 0.250000 1.000000
vt 0.300000 0.750000
vt 0.250000 0.750000
vt 0.350000 1.000000
vt 0.350000 0.750000
vt 0.400000 1.000000
vt 0.400000 0.750000
vt 0.450000 1.000000
vt 0.450000 0.750000
vt 0.500000 1.000000
vt 0.500000 0.750000
vt 0.300000 0.500000
vt 0.250000 0.500000
vt 0.350000 0.500000
vt 0.400000 0.500000
vt 0.450000 0.500000
vt 0.500000 0.500000
vt 0.300000 0.250000
vt 0.250000 0.250000
vt 0.350000 0.250000
vt 0.400000 0.250000
vt 0.450000 0.250000
vt 0.500000 0.250000
vt 0.300000 0.000000
vt 0.250000 0.000000
vt 0.350000 0.000000
vt 0.400000 0.000000
vt 0.450000 0.000000
vt 0.500000 0.000000
vn -0.951057 0.000000 -0.309017
vn -0.951057 0.000000 -0.309017
vn -0.987688 0.000000 -0.156434
vn -0.987688 0.000000 -0.156434
vn -0.809017 0.000000 -0.587785
vn -0.809017 0.000000 -0.587785
vn -0.587785 0.000000 -0.809017
vn -0.587785 0.000000 -0.809017
vn -0.309017 0.000000 -0.951057
vn -0.309017 0.000000 -0.951057
vn -0.156435 0.000000 -0.987688
vn -0.156435 0.000000 -0.987688
vn 0.000000 1.000000 -0.000000
vn 0.000000 1.000000 -0.000000
vn 0.000000 1.000000 -0.000000
vn 0.000000 1.000000 -0.000000
vn 0.000000 1.000000 -0.000000
vn 0.000000 1.000000 -0.000000
vn 0.000000 1.000000 -0.000000
vn 0.000000 1.000000 -0.000000
vn 0.000000 1.000000 -0.000000
vn 0.000000 1.000000 -0.000000
vn 0.000000 1.000000 -0.000000
vn 0.000000 1.000000 -0.000000
vn 0.951057 0.000000 0.309017
vn 0.951057 0.000000 0.309017
vn 0.987688 0.000000 0.156434
vn 0.987688 0.000000 0.156434
vn 0.809017 0.000000 0.587785
vn 0.809017 0.000000 0.587785
vn 0.587785 0.000000 0.809017
vn 0.587785 0.000000 0.809017
vn 0.309017 0.000000 0.951056
vn 0.309017 0.000000 0.951056
vn 0.156435 0.000000 0.987688
vn 0.156435 0.000000 0.987688
vn 0.000000 -1.000000 -0.000000
vn -0.000000 -1.000000 0.000000
vn 0.000000 -1.000000 -0.000000
vn 0.000000 -1.000000 0.000000
vn 0.000000 -1.000000 -0.000000
vn 0.000000 -1.000000 -0.000000
vn 0.000000 -1.000000 0.000000
vn 0.000000 -1.000000 -0.000000
vn 0.000000 -1.000000 0.000000
vn 0.000000 -1.000000 0.000000
vn 0.000000 -1.000000 0.000000
vn 0.000000 -1.000000 0.000000
vn -0.951057 0.000000 -0.309017
vn -0.951057 0.000000 -0.309017
vn -0.987688 0.000000 -0.156434
vn -0.987688 0.000000 -0.156434
vn -0.809017 0.000000 -0.587785
vn -0.809017 0.000000 -0.587785
vn -0.587785 0.000000 -0.809017
vn -0.587785 0.000000 -0.809017
vn -0.309017 0.000000 -0.951057
vn -0.309017 0.000000 -0.951057
vn -0.156435 0.000000 -0.987688
vn -0.156435 0.000000 -0.987688
vn 0.000000 1.000000 -0.000000
vn 0.000000 1.000000 -0.000000
vn 0.000000 1.000000 -0.000000
vn 0.000000 1.000000 -0.000000
vn 0.000000 1.000000 -0.000000
vn -0.000000 1.000000 0.000000
vn 0.000000 1.000000 -0.000000
vn 0.000000 1.000000 -0.000000
vn 0.000000 1.000000 -0.000000
vn 0.000000 1.000000 -0.000000
vn 0.000000 1.000000 -0.000000
vn 0.000000 1.000000 -0.000000
vn 0.951057 0.000000 0.309017
vn 0.951057 0.000000 0.309017
vn 0.987688 0.000000 0.156434
vn 0.987688 0.000000 0.156434
vn 0.809017 0.000000 0.587785
vn 0.809017 0.000000 0.587785
vn 0.587785 0.000000 0.809017
vn 0.587785 0.000000 0.809017
vn 0.309017 0.000000 0.951056
vn 0.309017 0.000000 0.951056
vn 0.156435 0.000000 0.987688
vn 0.156435 0.000000 0.987688
vn 0.000000 -1.000000 0.000000
vn 0.000000 -1.000000 0.000000
vn 0.000000 -1.000000 0.000000
vn 0.000000 -1.000000 0.000000
vn 0.000000 -1.000000 0.000000
vn 0.000000 -1.000000 0.000000
vn 0.000000 -1.000000 0.000000
vn 0.000000 -1.000000 0.000000
vn 0.000000 -1.000000 0.000000
vn 0.000000 -1.000000 0.000000
vn 0.000000 -1.000000 0.000000
vn 0.000000 -1.000000 0.000000
vn -0.951057 0.000000 -0.309017
vn -0.951057 0.000000 -0.309017
vn -0.987688 0.000000 -0.156435
vn -0.987688 0.000000 -0.156435
vn -0.809017 0.000000 -0.587785
vn -0.809017 0.000000 -0.587785
vn -0.587785 0.000000 -0.809017
vn -0.587785 0.000000 -0.809017
vn -0.309017 0.000000 -0.951057
vn -0.309017 0.000000 -0.951057
vn -0.156435 0.000000 -0.987688
vn -0.156435 0.000000 -0.987688
vn 0.000000 1.000000 -0.000000
vn 0.000000 1.000000 -0.000000
vn 0.000000 1.000000 -0.000000
vn 0.000000 1.000000 -0.000000
vn 0.000000 1.000000 -0.000000
vn 0.000000 1.000000 -0.000000
vn 0.000000 1.000000 -0.000000
vn 0.000000 1.000000 -0.000000
vn 0.000000 1.000000 -0.000000
vn -0.000000 1.000000 0.000000
vn 0.000000 1.000000 -0.000000
vn 0.000000 1.000000 -0.000000
vn 0.951057 0.000000 0.309017
vn 0.951057 0.000000 0.309017
vn 0.987688 0.000000 0.156434
vn 0.987688 0.000000 0.156434
vn 0.809017 0.000000 0.587785
vn 0.809017 0.000000 0.587785
vn 0.587785 0.000000 0.809017
vn 0.587785 0.000000 0.809017
vn 0.309017 0.000000 0.951057
vn 0.309017 0.000000 0.951057
vn 0.156435 0.000000 0.987688
vn 0.156435 0.000000 0.987688
vn 0.000000 -1.000000 0.000000
vn 0.000000 -1.000000 0.000000
vn 0.000000 -1.000000 0.000000
vn 0.000000 -1.000000 0.000000
vn 0.000000 -1.000000 0.000000
vn 0.000000 -1.000000 0.000000
vn 0.000000 -1.000000 0.000000
vn 0.000000 -1.000000 0.000000
vn 0.000000 -1.000000 0.000000
vn 0.000000 -1.000000 0.000000
vn 0.000000 -1.000000 0.000000
vn 0.000000 -1.000000 0.000000
s 1
g polySurface8
usemtl initialShadingGroup
f 2/1/1 8/3/2 1/2/3
f 8/3/2 7/4/4 1/2/3
f 3/5/5 9/6/6 2/1/1
f 9/6/6 8/3/2 2/1/1
f 4/7/7 10/8/8 3/5/5
f 10/8/8 9/6/6 3/5/5
f 5/9/9 11/10/10 4/7/7
f 11/10/10 10/8/8 4/7/7
f 6/11/11 12/12/12 5/9/9
f 12/12/12 11/10/10 5/9/9
s 5
f 8/3/13 14/13/14 7/4/15
f 14/13/14 13/14/16 7/4/15
f 9/6/17 15/15/18 8/3/13
f 15/15/18 14/13/14 8/3/13
f 10/8/19 16/16/20 9/6/17
f 16/16/20 15/15/18 9/6/17
f 11/10/21 17/17/22 10/8/19
f 17/17/22 16/16/20 10/8/19
f 12/12/23 18/18/24 11/10/21
f 18/18/24 17/17/22 11/10/21
s 9
f 14/13/25 20/19/26 13/14/27
f 20/19/26 19/20/28 13/14/27
f 15/15/29 21/21/30 14/13/25
f 21/21/30 20/19/26 14/13/25
f 16/16/31 22/22/32 15/15/29
f 22/22/32 21/21/30 15/15/29
f 17/17/33 23/23/34 16/16/31
f 23/23/34 22/22/32 16/16/31
f 18/18/35 24/24/36 17/17/33
f 24/24/36 23/23/34 17/17/33
s 13
f 20/19/37 2/25/38 19/20/39
f 2/25/38 1/26/40 19/20/39
f 21/21/41 3/27/42 20/19/37
f 3/27/42 2/25/38 20/19/37
f 22/22/43 4/28/44 21/21/41
f 4/28/44 3/27/42 21/21/41
f 23/23/45 5/29/46 22/22/43
f 5/29/46 4/28/44 22/22/43
f 24/24/47 6/30/48 23/23/45
f 6/30/48 5/29/46 23/23/45
s 17
f 26/31/49 32/33/50 25/32/51
f 32/33/50 31/34/52 25/32/51
f 27/35/53 33/36/54 26/31/49
f 33/36/54 32/33/50 26/31/49
f 28/37/55 34/38/56 27/35/53
f 34/38/56 33/36/54 27/35/53
f 29/39/57 35/40/58 28/37/55
f 35/40/58 34/38/56 28/37/55
f 30/41/59 36/42/60 29/39/57
f 36/42/60 35/40/58 29/39/57
s 21
f 32/33/61 38/43/62 31/34/63
f 38/43/62 37/44/64 31/34/63
f 33/36/65 39/45/66 32/33/61
f 39/45/66 38/43/62 32/33/61
f 34/38/67 40/46/68 33/36/65
f 40/46/68 39/45/66 33/36/65
f 35/40/69 41/47/70 34/38/67
f 41/47/70 40/46/68 34/38/67
f 36/42/71 42/48/72 35/40/69
f 42/48/72 41/47/70 35/40/69
s 25
f 38/43/73 44/49/74 37/44/75
f 44/49/74 43/50/76 37/44/75
f 39/45/77 45/51/78 38/43/73
f 45/51/78 44/49/74 38/43/73
f 40/46/79 46/52/80 39/45/77
f 46/52/80 45/51/78 39/45/77
f 41/47/81 47/53/82 40/46/79
f 47/53/82 46/52/80 40/46/79
f 42/48/83 48/54/84 41/47/81
f 48/54/84 47/53/82 41/47/81
s 29
f 44/49/85 26/55/86 43/50/87
f 26/55/86 25/56/88 43/50/87
f 45/51/89 27/57/90 44/49/85
f 27/57/90 26/55/86 44/49/85
f 46/52/91 28/58/92 45/51/89
f 28/58/92 27/57/90 45/51/89
f 47/53/93 29/59/94 46/52/91
f 29/59/94 28/58/92 46/52/91
f 48/54/95 30/60/96 47/53/93
f 30/60/96 29/59/94 47/53/93
s 33
f 50/61/97 56/63/98 49/62/99
f 56/63/98 55/64/100 49/62/99
f 51/65/101 57/66/102 50/61/97
f 57/66/102 56/63/98 50/61/97
f 52/67/103 58/68/104 51/65/101
f 58/68/104 57/66/102 51/65/101
f 53/69/105 59/70/106 52/67/103
f 59/70/106 58/68/104 52/67/103
f 54/71/107 60/72/108 53/69/105
f 60/72/108 59/70/106 53/69/105
s 37
f 56/63/109 62/73/110 55/64/111
f 62/73/110 61/74/112 55/64/111
f 57/66/113 63/75/114 56/63/109
f 63/75/114 62/73/110 56/63/109
f 58/68/115 64/76/116 57/66/113
f 64/76/116 63/75/114 57/66/113
f 59/70/117 65/77/118 58/68/115
f 65/77/118 64/76/116 58/68/115
f 60/72/119 66/78/120 59/70/117
f 66/78/120 65/77/118 59/70/117
s 41
f 62/73/121 68/79/122 61/74/123
f 68/79/122 67/80/124 61/74/123
f 63/75/125 69/81/126 62/73/121
f 69/81/126 68/79/122 62/73/121
f 64/76/127 70/82/128 63/75/125
f 70/82/128 69/81/126 63/75/125
f 65/77/129 71/83/130 64/76/127
f 71/83/130 70/82/128 64/76/127
f 66/78/131 72/84/132 65/77/129
f 72/84/132 71/83/130 65/77/129
s 45
f 68/79/133 50/85/134 67/80/135
f 50/85/134 49/86/136 67/80/135
f 69/81/137 51/87/138 68/79/133
f 51/87/138 50/85/134 68/79/133
f 70/82/139 52/88/140 69/81/137
f 52/88/140 51/87/138 69/81/137
f 71/83/141 53/89/142 70/82/139
f 53/89/142 52/88/140 70/82/139
f 72/84/143 54/90/144 71/83/141
f 54/90/144 53/89/142 71/83/141
