# This file uses centimeters as units for non-parametric coordinates.

mtllib T - Log Drop R.mtl
g default
v 210.000000 -70.000000 0.000000
v 0.000000 -70.000000 0.000000
v -210.000000 -70.000000 -0.000000
v 210.000000 0.000000 0.000000
v 0.000000 0.000000 0.000000
v -210.000000 0.000000 -0.000000
v 210.000000 0.000000 1120.000000
v -0.000000 0.000000 1120.000000
v -210.000000 0.000000 1120.000000
v 210.000000 -70.000000 1120.000000
v -0.000000 -70.000000 1120.000000
v -210.000000 -70.000000 1120.000000
v 194.880722 -315.000000 1219.653870
v 4.556112 -315.000000 1130.903854
v -185.768497 -315.000000 1042.154053
v 194.880722 -245.000000 1219.653870
v 4.556112 -245.000000 1130.903854
v -185.768497 -245.000000 1042.154053
v -278.451740 -245.000000 2234.718384
v -468.776337 -245.000000 2145.968689
v -659.100906 -245.000000 2057.218781
v -278.451740 -315.000000 2234.718384
v -468.776337 -315.000000 2145.968689
v -659.100906 -315.000000 2057.218781
vt 0.375000 0.000000
vt 0.500000 0.000000
vt 0.375000 0.250000
vt 0.500000 0.250000
vt 0.625000 0.000000
vt 0.625000 0.250000
vt 0.375000 0.500000
vt 0.500000 0.500000
vt 0.625000 0.500000
vt 0.375000 0.750000
vt 0.500000 0.750000
vt 0.625000 0.750000
vt 0.375000 1.000000
vt 0.500000 1.000000
vt 0.625000 1.000000
vt 0.875000 0.000000
vt 0.875000 0.250000
vt 0.125000 0.000000
vt 0.125000 0.250000
vt 0.375000 0.000000
vt 0.500000 0.000000
vt 0.375000 0.250000
vt 0.500000 0.250000
vt 0.625000 0.000000
vt 0.625000 0.250000
vt 0.375000 0.500000
vt 0.500000 0.500000
vt 0.625000 0.500000
vt 0.375000 0.750000
vt 0.500000 0.750000
vt 0.625000 0.750000
vt 0.375000 1.000000
vt 0.500000 1.000000
vt 0.625000 1.000000
vt 0.875000 0.000000
vt 0.875000 0.250000
vt 0.125000 0.000000
vt 0.125000 0.250000
vn 0.000000 0.000000 -1.000000
vn 0.000000 0.000000 -1.000000
vn 0.000000 0.000000 -1.000000
vn 0.000000 0.000000 -1.000000
vn 0.000000 0.000000 -1.000000
vn 0.000000 0.000000 -1.000000
vn 0.000000 1.000000 -0.000000
vn 0.000000 1.000000 -0.000000
vn 0.000000 1.000000 -0.000000
vn 0.000000 1.000000 -0.000000
vn 0.000000 1.000000 -0.000000
vn 0.000000 1.000000 -0.000000
vn -0.000000 0.000000 1.000000
vn -0.000000 0.000000 1.000000
vn -0.000000 0.000000 1.000000
vn -0.000000 0.000000 1.000000
vn -0.000000 0.000000 1.000000
vn -0.000000 0.000000 1.000000
vn 0.000000 -1.000000 0.000000
vn 0.000000 -1.000000 0.000000
vn 0.000000 -1.000000 0.000000
vn 0.000000 -1.000000 0.000000
vn 0.000000 -1.000000 0.000000
vn 0.000000 -1.000000 0.000000
vn -1.000000 0.000000 -0.000000
vn -1.000000 0.000000 -0.000000
vn -1.000000 0.000000 -0.000000
vn -1.000000 0.000000 -0.000000
vn 1.000000 0.000000 0.000000
vn 1.000000 0.000000 0.000000
vn 1.000000 0.000000 0.000000
vn 1.000000 0.000000 0.000000
vn 0.422619 0.000000 -0.906307
vn 0.422619 0.000000 -0.906308
vn 0.422619 0.000000 -0.906307
vn 0.422619 0.000000 -0.906308
vn 0.422618 0.000000 -0.906308
vn 0.422617 0.000000 -0.906308
vn 0.000000 1.000000 -0.000000
vn -0.000000 1.000000 0.000000
vn -0.000000 1.000000 0.000000
vn -0.000000 1.000000 0.000000
vn -0.000000 1.000000 0.000000
vn -0.000000 1.000000 0.000000
vn -0.422617 0.000000 0.906308
vn -0.422619 0.000000 0.906308
vn -0.422618 0.000000 0.906308
vn -0.422619 0.000000 0.906308
vn -0.422618 0.000000 0.906308
vn -0.422617 0.000000 0.906308
vn 0.000000 -1.000000 -0.000000
vn -0.000000 -1.000000 0.000000
vn 0.000000 -1.000000 -0.000000
vn 0.000000 -1.000000 -0.000000
vn -0.000000 -1.000000 0.000000
vn 0.000000 -1.000000 -0.000000
vn -0.906308 0.000000 -0.422618
vn -0.906308 0.000000 -0.422618
vn -0.906308 0.000000 -0.422618
vn -0.906308 0.000000 -0.422618
vn 0.906308 0.000000 0.422618
vn 0.906308 0.000000 0.422618
vn 0.906308 0.000000 0.422618
vn 0.906308 0.000000 0.422618
s 1
g polySurface9
usemtl initialShadingGroup
f 1/1/1 2/2/2 4/3/3
f 4/3/3 2/2/2 5/4/4
f 2/2/2 3/5/5 5/4/4
f 5/4/4 3/5/5 6/6/6
s 2
f 4/3/7 5/4/8 7/7/9
f 7/7/9 5/4/8 8/8/10
f 5/4/8 6/6/11 8/8/10
f 8/8/10 6/6/11 9/9/12
s 3
f 7/7/13 8/8/14 10/10/15
f 10/10/15 8/8/14 11/11/16
f 8/8/14 9/9/17 11/11/16
f 11/11/16 9/9/17 12/12/18
s 4
f 10/10/19 11/11/20 1/13/21
f 1/13/21 11/11/20 2/14/22
f 11/11/20 12/12/23 2/14/22
f 2/14/22 12/12/23 3/15/24
s 5
f 3/5/25 12/16/26 6/6/27
f 6/6/27 12/16/26 9/17/28
s 6
f 10/18/29 1/1/30 7/19/31
f 7/19/31 1/1/30 4/3/32
s 7
f 13/20/33 14/21/34 16/22/35
f 16/22/35 14/21/34 17/23/36
f 14/21/34 15/24/37 17/23/36
f 17/23/36 15/24/37 18/25/38
s 8
f 16/22/39 17/23/40 19/26/41
f 19/26/41 17/23/40 20/27/42
f 17/23/40 18/25/43 20/27/42
f 20/27/42 18/25/43 21/28/44
s 9
f 19/26/45 20/27/46 22/29/47
f 22/29/47 20/27/46 23/30/48
f 20/27/46 21/28/49 23/30/48
f 23/30/48 21/28/49 24/31/50
s 10
f 22/29/51 23/30/52 13/32/53
f 13/32/53 23/30/52 14/33/54
f 23/30/52 24/31/55 14/33/54
f 14/33/54 24/31/55 15/34/56
s 11
f 15/24/57 24/35/58 18/25/59
f 18/25/59 24/35/58 21/36/60
s 12
f 22/37/61 13/20/62 19/38/63
f 19/38/63 13/20/62 16/22/64
